<svg width="15" height="15" viewBox="0 0 15 15" fill="none" xmlns="http://www.w3.org/2000/svg">
<path id="Vector" d="M7.49519 14.25C7.09122 14.25 6.717 14.0737 6.46797 13.7658L4.96971 11.9285L2.34341 11.9269C1.05137 11.9269 0 10.9103 0 9.66054V2.2664C0 1.01667 1.05137 0 2.34375 0H12.6562C13.9486 0 15 1.01667 15 2.2664V6.82754C15 7.14049 14.7377 7.39414 14.4141 7.39414C14.0904 7.39414 13.8281 7.14049 13.8281 6.82754V2.2664C13.8281 1.64159 13.3024 1.1332 12.6562 1.1332H2.34375C1.69762 1.1332 1.17188 1.64159 1.17188 2.2664V9.66054C1.17188 10.2853 1.69762 10.7937 2.34375 10.7937L5.25444 10.7954C5.43377 10.7955 5.60314 10.8751 5.71415 11.0112L7.38968 13.0659C7.4239 13.1083 7.46567 13.1168 7.49531 13.1168H7.49588C7.52541 13.1167 7.56752 13.1079 7.60025 13.0669C7.60128 13.0656 7.60231 13.0642 7.60334 13.063L9.26525 11.011C9.37637 10.8739 9.54643 10.7937 9.72656 10.7937H12.6562C13.3025 10.7937 13.8281 10.2853 13.8281 9.66054C13.8281 9.34758 14.0904 9.09394 14.4141 9.09394C14.7377 9.09394 15 9.34758 15 9.66054C15 10.9103 13.9486 11.9269 12.6562 11.9269H10.012L8.52722 13.7601C8.27957 14.07 7.90558 14.2485 7.50046 14.25C7.49874 14.25 7.49691 14.25 7.49519 14.25ZM8.08594 8.64066V5.58101C8.08594 5.26806 7.82364 5.01441 7.5 5.01441C7.17636 5.01441 6.91406 5.26806 6.91406 5.58101V8.64066C6.91406 8.95361 7.17636 9.20726 7.5 9.20726C7.82364 9.20726 8.08594 8.95361 8.08594 8.64066ZM7.5 3.05964C7.17636 3.05964 6.91406 3.31328 6.91406 3.62624C6.91406 3.9392 7.17636 4.19284 7.5 4.19284C7.82364 4.19284 8.08594 3.9392 8.08594 3.62624C8.08594 3.31328 7.82364 3.05964 7.5 3.05964Z" fill="black"/>
</svg>
