<svg width="20" height="26" viewBox="0 0 20 26" fill="none" xmlns="http://www.w3.org/2000/svg">
<g id="Outline" opacity="0.5">
<path id="Vector" d="M17.9412 1.06056e-05H6.12314C5.85256 -0.000860878 5.58448 0.0519846 5.33447 0.155484C5.08446 0.258983 4.85747 0.411078 4.66667 0.602951L0.602952 4.66667C0.411078 4.85747 0.258983 5.08446 0.155484 5.33447C0.0519846 5.58448 -0.000860878 5.85256 1.06056e-05 6.12314V23.0392C0.000633359 23.5851 0.217744 24.1084 0.603713 24.4943C0.989683 24.8803 1.51299 25.0974 2.05883 25.098H17.9412C18.487 25.0974 19.0103 24.8803 19.3963 24.4943C19.7823 24.1084 19.9994 23.5851 20 23.0392V2.05883C19.9994 1.51299 19.7823 0.989683 19.3963 0.603714C19.0103 0.217744 18.487 0.000633359 17.9412 1.06056e-05ZM5.09805 1.0055V4.21569C5.09779 4.44963 5.00474 4.67391 4.83933 4.83933C4.67391 5.00474 4.44963 5.09779 4.21569 5.09805H1.0055L5.09805 1.0055ZM19.4118 23.0392C19.4114 23.4291 19.2563 23.8029 18.9806 24.0786C18.7049 24.3543 18.3311 24.5094 17.9412 24.5098H2.05883C1.66894 24.5094 1.29513 24.3543 1.01943 24.0786C0.74373 23.8029 0.588661 23.4291 0.588246 23.0392V6.12314C0.588167 5.97503 0.610444 5.82775 0.654324 5.68628H4.21569C4.60559 5.68587 4.9794 5.5308 5.2551 5.2551C5.5308 4.9794 5.68587 4.60559 5.68628 4.21569V0.654324C5.82775 0.610444 5.97503 0.588167 6.12314 0.588246H17.9412C18.3311 0.588661 18.7049 0.743731 18.9806 1.01943C19.2563 1.29513 19.4114 1.66894 19.4118 2.05883V23.0392Z" fill="black"/>
<path id="Vector_2" d="M13.8234 2.15687H17.9411C18.0191 2.15687 18.0939 2.12588 18.149 2.07072C18.2042 2.01557 18.2352 1.94076 18.2352 1.86275C18.2352 1.78475 18.2042 1.70994 18.149 1.65478C18.0939 1.59962 18.0191 1.56863 17.9411 1.56863H13.8234C13.7454 1.56863 13.6706 1.59962 13.6154 1.65478C13.5603 1.70994 13.5293 1.78475 13.5293 1.86275C13.5293 1.94076 13.5603 2.01557 13.6154 2.07072C13.6706 2.12588 13.7454 2.15687 13.8234 2.15687Z" fill="black"/>
<path id="Vector_3" d="M17.9413 3.13727H15.3923C15.3143 3.13727 15.2394 3.16826 15.1843 3.22341C15.1291 3.27857 15.0981 3.35338 15.0981 3.43139C15.0981 3.50939 15.1291 3.5842 15.1843 3.63936C15.2394 3.69452 15.3143 3.7255 15.3923 3.7255H17.9413C18.0193 3.7255 18.0941 3.69452 18.1493 3.63936C18.2044 3.5842 18.2354 3.50939 18.2354 3.43139C18.2354 3.35338 18.2044 3.27857 18.1493 3.22341C18.0941 3.16826 18.0193 3.13727 17.9413 3.13727Z" fill="black"/>
<path id="Vector_4" d="M5.88247 13.7255C6.60671 13.7239 7.31082 13.487 7.8888 13.0506C8.46677 12.6142 8.88734 12.0018 9.08718 11.3057C9.09771 11.2685 9.10082 11.2296 9.09632 11.1913C9.09183 11.1529 9.07982 11.1158 9.06099 11.0821C9.04215 11.0483 9.01685 11.0187 8.98655 10.9947C8.95624 10.9707 8.9215 10.953 8.88434 10.9425C8.84717 10.9319 8.80829 10.9288 8.76992 10.9333C8.73155 10.9378 8.69444 10.9498 8.66071 10.9687C8.62698 10.9875 8.59729 11.0128 8.57333 11.0431C8.54938 11.0734 8.53163 11.1081 8.5211 11.1453C8.36723 11.6826 8.05289 12.1601 7.62017 12.5139C7.18744 12.8676 6.65698 13.0808 6.09979 13.1248C5.5426 13.1687 4.98527 13.0414 4.50241 12.76C4.01955 12.4785 3.6342 12.0562 3.39794 11.5496C3.16169 11.0431 3.0858 10.4765 3.18044 9.92564C3.27508 9.37479 3.53573 8.86599 3.9275 8.46735C4.31927 8.06872 4.82346 7.79927 5.37258 7.69507C5.92171 7.59088 6.48956 7.65691 7.00012 7.88433C7.03549 7.90065 7.07374 7.90978 7.11267 7.9112C7.15159 7.91262 7.19041 7.90629 7.22687 7.89258C7.26332 7.87887 7.2967 7.85806 7.32505 7.83135C7.3534 7.80464 7.37616 7.77257 7.39201 7.73699C7.40787 7.70141 7.4165 7.66304 7.4174 7.6241C7.4183 7.58516 7.41147 7.54643 7.39728 7.51016C7.38309 7.47388 7.36185 7.44079 7.33477 7.41279C7.30769 7.3848 7.27532 7.36246 7.23953 7.34707C6.78595 7.1451 6.29297 7.04701 5.79663 7.05997C5.30028 7.07293 4.81309 7.19661 4.37067 7.42197C3.92824 7.64734 3.54175 7.96869 3.23943 8.36256C2.93711 8.75643 2.72659 9.21286 2.62327 9.6985C2.51994 10.1842 2.52642 10.6867 2.64221 11.1696C2.75801 11.6524 2.98021 12.1033 3.29258 12.4892C3.60494 12.8752 3.99958 13.1865 4.44766 13.4003C4.89575 13.6142 5.38596 13.7253 5.88247 13.7255Z" fill="black"/>
<path id="Vector_5" d="M17.8196 9.41177H11.9843C11.8221 9.41193 11.6666 9.47643 11.5519 9.59113C11.4372 9.70582 11.3727 9.86134 11.3726 10.0235V10.7608C11.3727 10.923 11.4372 11.0785 11.5519 11.1932C11.6666 11.3079 11.8221 11.3724 11.9843 11.3726H17.8196C17.9818 11.3724 18.1373 11.3079 18.252 11.1932C18.3667 11.0785 18.4312 10.923 18.4314 10.7608V10.0235C18.4312 9.86134 18.3667 9.70582 18.252 9.59113C18.1373 9.47643 17.9818 9.41193 17.8196 9.41177ZM17.8431 10.7608C17.8431 10.767 17.8407 10.773 17.8363 10.7774C17.8318 10.7818 17.8259 10.7843 17.8196 10.7843H11.9843C11.9781 10.7843 11.9721 10.7818 11.9677 10.7774C11.9633 10.773 11.9608 10.767 11.9608 10.7608V10.0235C11.9608 10.0173 11.9633 10.0113 11.9677 10.0069C11.9721 10.0025 11.9781 10 11.9843 10H17.8196C17.8259 10 17.8318 10.0025 17.8363 10.0069C17.8407 10.0113 17.8431 10.0173 17.8431 10.0235V10.7608Z" fill="black"/>
<path id="Vector_6" d="M17.8196 17.6471H11.9843C11.8221 17.6472 11.6666 17.7117 11.5519 17.8264C11.4372 17.9411 11.3727 18.0966 11.3726 18.2588V18.9961C11.3727 19.1583 11.4372 19.3138 11.5519 19.4285C11.6666 19.5432 11.8221 19.6077 11.9843 19.6078H17.8196C17.9818 19.6077 18.1373 19.5432 18.252 19.4285C18.3667 19.3138 18.4312 19.1583 18.4314 18.9961V18.2588C18.4312 18.0966 18.3667 17.9411 18.252 17.8264C18.1373 17.7117 17.9818 17.6472 17.8196 17.6471ZM17.8431 18.9961C17.8431 19.0023 17.8407 19.0083 17.8363 19.0127C17.8318 19.0171 17.8259 19.0196 17.8196 19.0196H11.9843C11.9781 19.0196 11.9721 19.0171 11.9677 19.0127C11.9633 19.0083 11.9608 19.0023 11.9608 18.9961V18.2588C11.9608 18.2557 11.9614 18.2527 11.9626 18.2498C11.9638 18.247 11.9655 18.2444 11.9677 18.2422C11.9699 18.24 11.9725 18.2383 11.9753 18.2371C11.9782 18.2359 11.9812 18.2353 11.9843 18.2353H17.8196C17.8227 18.2353 17.8258 18.2359 17.8286 18.2371C17.8315 18.2383 17.8341 18.24 17.8363 18.2422C17.8384 18.2444 17.8402 18.247 17.8414 18.2498C17.8425 18.2527 17.8431 18.2557 17.8431 18.2588V18.9961Z" fill="black"/>
<path id="Vector_7" d="M9.39886 8.05882C9.21485 7.86562 8.96189 7.75306 8.69519 7.74571C8.42848 7.73837 8.1697 7.83683 7.97534 8.0196L6.25926 9.64705L5.76906 9.15685C5.57949 8.97198 5.32471 8.86925 5.05992 8.87091C4.79513 8.87257 4.54165 8.9785 4.35442 9.16574C4.16718 9.35298 4.06125 9.60645 4.05959 9.87124C4.05793 10.136 4.16066 10.3908 4.34553 10.5804L5.52946 11.7647C5.71416 11.9515 5.9649 12.0583 6.2276 12.062C6.4903 12.0656 6.74392 11.9659 6.93377 11.7843L9.36043 9.48234C9.554 9.29871 9.66684 9.0458 9.67419 8.77908C9.68154 8.51236 9.58281 8.25362 9.39965 8.0596L9.39886 8.05882ZM8.95573 9.05489L6.52828 11.3559C6.44939 11.4315 6.34395 11.473 6.23471 11.4715C6.12547 11.4701 6.02119 11.4257 5.94436 11.348L4.76161 10.1653C4.68633 10.0862 4.64493 9.98086 4.64625 9.87169C4.64757 9.76253 4.69151 9.6582 4.76868 9.58097C4.84585 9.50375 4.95015 9.45975 5.05931 9.45835C5.16848 9.45696 5.27387 9.49829 5.35298 9.57352L6.04534 10.2657C6.09951 10.3199 6.17272 10.3509 6.24938 10.3519C6.32603 10.353 6.40007 10.3241 6.45573 10.2714L8.37965 8.44784C8.41956 8.41004 8.46653 8.38047 8.51787 8.36082C8.5692 8.34117 8.62391 8.33182 8.67886 8.33332C8.73381 8.33481 8.78793 8.34711 8.83813 8.36952C8.88832 8.39193 8.93361 8.424 8.97141 8.46391C9.00921 8.50383 9.03878 8.55079 9.05843 8.60213C9.07808 8.65347 9.08743 8.70818 9.08593 8.76313C9.08444 8.81808 9.07214 8.87219 9.04973 8.92239C9.02732 8.97259 8.99525 9.01788 8.95534 9.05568L8.95573 9.05489Z" fill="black"/>
<path id="Vector_8" d="M8.88422 19.1778C8.84705 19.1673 8.80817 19.1642 8.76979 19.1686C8.73141 19.1731 8.69429 19.1851 8.66055 19.2039C8.6268 19.2228 8.5971 19.2481 8.57314 19.2784C8.54918 19.3087 8.53142 19.3434 8.52089 19.3806C8.36702 19.9179 8.05268 20.3954 7.61995 20.7492C7.18723 21.1029 6.65677 21.3161 6.09958 21.36C5.54239 21.404 4.98506 21.2767 4.5022 20.9952C4.01934 20.7137 3.63399 20.2915 3.39773 19.7849C3.16147 19.2784 3.08559 18.7118 3.18023 18.1609C3.27486 17.6101 3.53551 17.1013 3.92728 16.7026C4.31905 16.304 4.82325 16.0346 5.37237 15.9304C5.92149 15.8262 6.48935 15.8922 6.99991 16.1196C7.03527 16.1359 7.07353 16.1451 7.11245 16.1465C7.15138 16.1479 7.19019 16.1416 7.22665 16.1279C7.26311 16.1142 7.29648 16.0933 7.32483 16.0666C7.35318 16.0399 7.37595 16.0079 7.3918 15.9723C7.40765 15.9367 7.41628 15.8983 7.41719 15.8594C7.41809 15.8205 7.41125 15.7817 7.39707 15.7454C7.38288 15.7092 7.36163 15.6761 7.33455 15.6481C7.30747 15.6201 7.2751 15.5977 7.23932 15.5824C6.61884 15.3057 5.92861 15.2251 5.2611 15.3516C4.59359 15.4781 3.98067 15.8055 3.50442 16.2901C3.02818 16.7746 2.71137 17.3931 2.59641 18.0627C2.48145 18.7323 2.57384 19.421 2.86121 20.0366C3.14857 20.6522 3.61719 21.1653 4.20429 21.5072C4.79139 21.8491 5.46894 22.0034 6.14619 21.9495C6.82343 21.8956 7.46804 21.636 7.99366 21.2056C8.51927 20.7751 8.90081 20.1943 9.08716 19.541C9.09769 19.5038 9.10078 19.4649 9.09628 19.4266C9.09178 19.3882 9.07976 19.3511 9.06091 19.3174C9.04207 19.2837 9.01676 19.254 8.98645 19.23C8.95613 19.2061 8.92139 19.1884 8.88422 19.1778Z" fill="black"/>
<path id="Vector_9" d="M9.39886 16.2941C9.21478 16.1011 8.96183 15.9886 8.69518 15.9813C8.42852 15.9739 8.16977 16.0723 7.97534 16.2549L6.25926 17.8824L5.76906 17.3922C5.57949 17.2073 5.32471 17.1046 5.05992 17.1062C4.79513 17.1079 4.54165 17.2138 4.35442 17.401C4.16718 17.5883 4.06125 17.8418 4.05959 18.1065C4.05793 18.3713 4.16066 18.6261 4.34553 18.8157L5.52946 20C5.71416 20.1868 5.9649 20.2936 6.2276 20.2973C6.4903 20.3009 6.74392 20.2012 6.93377 20.0196L9.36043 17.7177C9.554 17.534 9.66684 17.2811 9.67419 17.0144C9.68154 16.7477 9.58281 16.4889 9.39965 16.2949L9.39886 16.2941ZM8.95573 17.2902L6.52828 19.5912C6.44939 19.6668 6.34395 19.7083 6.23471 19.7068C6.12547 19.7054 6.02119 19.661 5.94436 19.5833L4.76161 18.4006C4.68633 18.3215 4.64493 18.2162 4.64625 18.107C4.64757 17.9978 4.69151 17.8935 4.76868 17.8163C4.84585 17.7391 4.95015 17.6951 5.05931 17.6937C5.16848 17.6923 5.27387 17.7336 5.35298 17.8088L6.04534 18.501C6.09951 18.5552 6.17272 18.5862 6.24938 18.5872C6.32603 18.5883 6.40007 18.5594 6.45573 18.5067L8.37965 16.6831C8.41956 16.6453 8.46653 16.6158 8.51787 16.5961C8.5692 16.5765 8.62391 16.5671 8.67886 16.5686C8.73381 16.5701 8.78793 16.5824 8.83813 16.6048C8.88832 16.6272 8.93361 16.6593 8.97141 16.6992C9.00921 16.7391 9.03878 16.7861 9.05843 16.8374C9.07808 16.8888 9.08743 16.9435 9.08593 16.9984C9.08444 17.0534 9.07214 17.1075 9.04973 17.1577C9.02732 17.2079 8.99525 17.2532 8.95534 17.291L8.95573 17.2902Z" fill="black"/>
</g>
</svg>
