<svg width="25" height="24" viewBox="0 0 25 24" fill="none" xmlns="http://www.w3.org/2000/svg">
<g id="Apple Logo">
<path id="path4" d="M21.4673 18.424C21.1195 19.2275 20.7078 19.9672 20.2308 20.6473C19.5805 21.5743 19.0481 22.216 18.6378 22.5724C18.0018 23.1573 17.3204 23.4569 16.5906 23.4739C16.0667 23.4739 15.435 23.3248 14.6996 23.0224C13.9617 22.7214 13.2837 22.5724 12.6637 22.5724C12.0135 22.5724 11.3161 22.7214 10.5702 23.0224C9.82315 23.3248 9.22133 23.4824 8.7612 23.498C8.06143 23.5278 7.36393 23.2198 6.6677 22.5724C6.22333 22.1848 5.66752 21.5204 5.00167 20.5791C4.28727 19.574 3.69994 18.4084 3.23981 17.0795C2.74703 15.6442 2.5 14.2543 2.5 12.9087C2.5 11.3673 2.83306 10.0379 3.50019 8.92386C4.02448 8.02902 4.72199 7.32314 5.59497 6.80495C6.46795 6.28675 7.4112 6.02269 8.42701 6.00579C8.98282 6.00579 9.7117 6.17772 10.6175 6.51561C11.5207 6.85464 12.1006 7.02656 12.3549 7.02656C12.545 7.02656 13.1893 6.82553 14.2815 6.42475C15.3143 6.05307 16.186 5.89917 16.9001 5.95979C18.8352 6.11596 20.289 6.87877 21.2558 8.25305C19.5252 9.30165 18.6691 10.7703 18.6861 12.6544C18.7017 14.122 19.2341 15.3432 20.2804 16.3129C20.7546 16.7629 21.2842 17.1108 21.8734 17.3578C21.7456 17.7283 21.6107 18.0833 21.4673 18.424ZM17.0293 0.960146C17.0293 2.11041 16.6091 3.1844 15.7714 4.17848C14.7606 5.36025 13.538 6.04313 12.2121 5.93537C12.1952 5.79738 12.1854 5.65214 12.1854 5.49952C12.1854 4.39527 12.6661 3.21351 13.5198 2.24725C13.946 1.75802 14.488 1.35123 15.1454 1.02673C15.8013 0.707068 16.4217 0.530288 17.0052 0.500015C17.0222 0.653787 17.0293 0.807569 17.0293 0.960131V0.960146Z" fill="white"/>
</g>
</svg>
