<svg width="13" height="14" viewBox="0 0 13 14" fill="none" xmlns="http://www.w3.org/2000/svg">
<g id="Outline">
<g id="Group">
<path id="Vector" d="M12.2778 8.26721V6.86788C12.2778 4.85768 12.0152 2.85383 11.4973 0.912038C11.3571 0.385997 10.8787 0.0185547 10.3342 0.0185547H9.33341C8.97112 0.0185547 8.66244 0.289869 8.61566 0.650739L8.49344 1.62834C8.2397 1.55467 7.97573 1.50484 7.70371 1.48098V1.22226C7.70371 0.903468 7.57911 0.601483 7.35035 0.369434C7.12066 0.143162 6.81856 0.0185547 6.50001 0.0185547C5.83634 0.0185547 5.29631 0.558583 5.29631 1.22226V1.48098C5.0243 1.50484 4.76033 1.55465 4.50656 1.62834L4.38412 0.649559C4.33756 0.289869 4.02889 0.0185547 3.6666 0.0185547H2.66579C2.12131 0.0185547 1.64288 0.386021 1.50275 0.912038C0.98482 2.85383 0.722221 4.85768 0.722221 6.86788V8.26721C0.286312 8.57213 0 9.07699 0 9.64814V12.0555C0 12.4538 0.323964 12.7778 0.722221 12.7778H1.35643C1.35626 13.0923 1.47297 13.3891 1.69317 13.6159C1.92169 13.8517 2.22873 13.9815 2.55717 13.9815H10.4428C10.7713 13.9815 11.0783 13.8517 11.3068 13.6159C11.527 13.3891 11.6438 13.0923 11.6436 12.7778H12.2778C12.676 12.7778 13 12.4538 13 12.0555V9.64814C13 9.07696 12.7137 8.57213 12.2778 8.26721ZM11.0322 1.03616C11.5391 2.93741 11.7963 4.89954 11.7963 6.86788V8.03395C11.7017 8.00569 11.6038 7.98545 11.5031 7.97418L11.4279 5.43285C11.403 4.6074 11.1393 3.84897 10.7049 3.2205L10.9928 0.926122C11.0086 0.961318 11.0221 0.997958 11.0322 1.03616ZM6.98149 6.03704H6.01853C5.75312 6.03704 5.53705 6.25298 5.53705 6.51852V6.75926H2.75891C2.56095 6.75926 2.3764 6.68133 2.2391 6.53968C2.10431 6.4007 2.03327 6.21788 2.03726 6.02389L2.05361 5.44718C2.11238 3.48305 3.69883 1.94445 5.66472 1.94445H7.33533C9.30122 1.94445 10.8877 3.48305 10.9464 5.44718L10.9628 6.02418C10.9668 6.21786 10.8958 6.4007 10.7609 6.53968C10.6237 6.68133 10.4391 6.75926 10.2411 6.75926H7.463V6.51852C7.463 6.25298 7.24691 6.03704 6.98149 6.03704ZM6.98149 6.51852V7.96296H6.01853V6.51852H6.98149ZM9.09315 0.711598C9.10889 0.590987 9.2121 0.500011 9.33341 0.500011H10.287C10.3579 0.500011 10.4229 0.528924 10.4691 0.581478C10.5152 0.63367 10.5357 0.701029 10.527 0.770964L10.2836 2.71083C9.90959 2.32335 9.46102 2.00986 8.95775 1.79478L9.09315 0.711598ZM6.50001 0.500011C6.69138 0.500011 6.87335 0.575483 7.00995 0.709961C7.14678 0.848796 7.22223 1.03075 7.22223 1.22223V1.46297H5.77779V1.22223C5.77779 0.823975 6.10176 0.500011 6.50001 0.500011ZM2.53085 0.581478C2.57717 0.528924 2.64205 0.500011 2.71305 0.500011H3.6666C3.7879 0.500011 3.89111 0.590987 3.90664 0.710418L4.04222 1.79476C3.53895 2.00984 3.09038 2.32333 2.71639 2.7108L2.473 0.77094C2.46431 0.701005 2.48478 0.63367 2.53085 0.581478ZM1.20373 6.86788C1.20373 4.89952 1.46093 2.93739 1.96779 1.03616C1.97797 0.997958 1.9914 0.961318 2.00724 0.926122L2.2951 3.2205C1.86066 3.849 1.59695 4.6074 1.57211 5.43285L1.49685 7.97418C1.39617 7.98545 1.29826 8.00569 1.2037 8.03395L1.20373 6.86788ZM0.481505 12.0555V9.64814C0.481505 9.054 0.915295 8.56219 1.48217 8.46498L1.36728 12.2963H0.722245C0.589405 12.2963 0.481505 12.1883 0.481505 12.0555ZM2.82966 13.5L2.89221 10.8463C2.89526 10.7144 3.00104 10.6111 3.13295 10.6111H9.8671C9.999 10.6111 10.1048 10.7144 10.1078 10.8461L10.1706 13.5H2.82966ZM10.9612 13.2806C10.8744 13.3703 10.7674 13.431 10.6514 13.466L10.5893 10.8346C10.5797 10.4393 10.2625 10.1296 9.86708 10.1296H3.13295C2.73751 10.1296 2.42035 10.4393 2.41073 10.8348L2.34885 13.466C2.23277 13.4311 2.12571 13.3703 2.03878 13.2806C1.90149 13.1394 1.82931 12.953 1.83543 12.756L2.00881 6.97236C2.22136 7.14331 2.48076 7.24074 2.75888 7.24074H5.53703V7.96296C5.53703 8.2285 5.75309 8.44444 6.01851 8.44444H6.98147C7.24688 8.44444 7.46295 8.2285 7.46295 7.96296V7.24074H10.2411C10.5192 7.24074 10.7786 7.14329 10.9912 6.97236L11.1645 12.7561C11.1707 12.953 11.0985 13.1394 10.9612 13.2806ZM12.5185 12.0555C12.5185 12.1883 12.4106 12.2963 12.2778 12.2963H11.6327L11.5179 8.46498C12.0847 8.56219 12.5185 9.054 12.5185 9.64814V12.0555Z" fill="#8B8D98"/>
<path id="Vector_2" d="M9.15188 3.54238C9.22242 3.54238 9.29223 3.51159 9.33973 3.45247C9.42295 3.3489 9.40649 3.19726 9.30307 3.11403C8.74284 2.66383 8.06246 2.42578 7.3353 2.42578H5.66469C4.93753 2.42578 4.25715 2.66383 3.69692 3.11403C3.59348 3.19726 3.57703 3.3489 3.66026 3.45247C3.74324 3.55579 3.89443 3.57235 3.99879 3.48925C4.47228 3.10852 5.04851 2.90726 5.66469 2.90726H7.3353C7.9515 2.90726 8.52771 3.1085 9.0012 3.48925C9.04586 3.52498 9.09897 3.54238 9.15188 3.54238Z" fill="#8B8D98"/>
<path id="Vector_3" d="M8.90735 11.0928H4.09255C3.95949 11.0928 3.85181 11.2006 3.85181 11.3335C3.85181 11.4665 3.95949 11.5743 4.09255 11.5743H4.57403V11.815C4.57403 11.9479 4.68171 12.0557 4.81477 12.0557C4.94783 12.0557 5.05551 11.9479 5.05551 11.815V11.5743H8.90735C9.04041 11.5743 9.14809 11.4665 9.14809 11.3335C9.14809 11.2006 9.04041 11.0928 8.90735 11.0928Z" fill="#8B8D98"/>
</g>
</g>
</svg>
