<svg width="21" height="21" viewBox="0 0 21 21" fill="none" xmlns="http://www.w3.org/2000/svg">
<g id="Group 7">
<path id="Vector" d="M17.5128 20.662C17.2171 20.662 16.9774 20.4223 16.9774 20.1266V19.2673H18.0481V20.1266C18.0481 20.4223 17.8084 20.662 17.5128 20.662Z" fill="#7E8B96"/>
<path id="Vector_2" d="M12.528 20.662C12.2323 20.662 11.9926 20.4223 11.9926 20.1266V19.2673H13.0633V20.1266C13.0633 20.4223 12.8236 20.662 12.528 20.662Z" fill="#7E8B96"/>
<path id="Vector_3" d="M18.9167 5.03009H11.1236C10.5726 5.03009 10.1259 5.47679 10.1259 6.02784V18.2696C10.1259 18.8206 10.5726 19.2673 11.1236 19.2673H18.9167C19.4678 19.2673 19.9145 18.8206 19.9145 18.2696V6.02784C19.9144 5.47679 19.4677 5.03009 18.9167 5.03009Z" fill="#80E29E"/>
<path id="Vector_4" d="M18.9171 5.03009H17.938C18.489 5.03009 18.9357 5.47679 18.9357 6.02784V18.2696C18.9357 18.8206 18.489 19.2673 17.938 19.2673H18.9171C19.4681 19.2673 19.9148 18.8206 19.9148 18.2696V6.02784C19.9148 5.47679 19.4681 5.03009 18.9171 5.03009Z" fill="#6DC187"/>
<path id="Vector_5" d="M16.7939 2.79616C16.5064 2.79616 16.2733 2.56307 16.2733 2.27551V1.78192C16.2733 1.54317 16.0791 1.34888 15.8403 1.34888H14.1995C13.9607 1.34888 13.7665 1.54313 13.7665 1.78192V2.27551C13.7665 2.56307 13.5334 2.79616 13.2459 2.79616C12.9583 2.79616 12.7252 2.56307 12.7252 2.27551V1.78192C12.7252 0.968994 13.3866 0.307617 14.1995 0.307617H15.8403C16.6532 0.307617 17.3146 0.968994 17.3146 1.78192V2.27551C17.3145 2.56307 17.0814 2.79616 16.7939 2.79616Z" fill="#7E8B96"/>
<path id="Vector_6" d="M1.77884 19.8196V9.95936C1.77884 9.4773 2.16959 9.08655 2.65165 9.08655H10.2518C10.7338 9.08655 11.1246 9.4773 11.1246 9.95936V19.8196C11.1246 20.3016 10.7338 20.6924 10.2518 20.6924H2.65165C2.16964 20.6924 1.77884 20.3016 1.77884 19.8196Z" fill="#CBA59D"/>
<path id="Vector_7" d="M10.2515 9.08655H9.30756C9.78961 9.08655 10.1804 9.4773 10.1804 9.95936V19.8196C10.1804 20.3016 9.78961 20.6924 9.30756 20.6924H10.2515C10.7336 20.6924 11.1243 20.3016 11.1243 19.8196V9.95936C11.1243 9.4773 10.7336 9.08655 10.2515 9.08655Z" fill="#A3847E"/>
<path id="Vector_8" d="M1.77884 11.7833V9.95933C1.77884 9.47727 2.16959 9.08652 2.65165 9.08652H10.2518C10.7338 9.08652 11.1246 9.47727 11.1246 9.95933V11.7833C11.1246 12.2653 10.7338 12.6561 10.2518 12.6561H2.65165C2.16964 12.6561 1.77884 12.2653 1.77884 11.7833Z" fill="#62A4FB"/>
<path id="Vector_9" d="M10.2515 9.08655H9.30756C9.78961 9.08655 10.1804 9.4773 10.1804 9.95936V11.7833C10.1804 12.2653 9.78961 12.6561 9.30756 12.6561H10.2515C10.7336 12.6561 11.1243 12.2653 11.1243 11.7833V9.95936C11.1243 9.4773 10.7336 9.08655 10.2515 9.08655Z" fill="#5392F9"/>
<path id="Vector_10" d="M3.46808 16.28V18.5342C3.46808 18.7752 3.66348 18.9706 3.90448 18.9706H8.99867C9.23967 18.9706 9.43507 18.7752 9.43507 18.5342V16.28C9.43507 16.039 9.23967 15.8436 8.99867 15.8436H3.90448C3.66348 15.8436 3.46808 16.039 3.46808 16.28Z" fill="#F4E2C1"/>
<path id="Vector_11" d="M11.7226 15.8968H11.1245V19.439H11.7226C12.2047 19.439 12.5954 19.0482 12.5954 18.5662V16.7696C12.5954 16.2875 12.2047 15.8968 11.7226 15.8968Z" fill="#62A4FB"/>
<path id="Vector_12" d="M1.77844 15.8968H1.18031C0.698251 15.8968 0.307495 16.2875 0.307495 16.7696V18.5662C0.307495 19.0482 0.698251 19.439 1.18031 19.439H1.77844V15.8968Z" fill="#62A4FB"/>
<path id="Vector_13" d="M8.47076 9.08655H9.524V13.5975H8.47076V9.08655Z" fill="#E9A52D"/>
<path id="Vector_14" d="M3.37903 9.08655H4.43227V13.5975H3.37903V9.08655Z" fill="#E9A52D"/>
<path id="Vector_15" d="M9.77808 14.445H8.21649C8.06925 14.445 7.94989 14.3257 7.94989 14.1784V13.8641C7.94989 13.7169 8.06925 13.5975 8.21649 13.5975H9.77808C9.92533 13.5975 10.0447 13.7169 10.0447 13.8641V14.1784C10.0447 14.3256 9.92528 14.445 9.77808 14.445Z" fill="#F8E837"/>
<path id="Vector_16" d="M4.68627 14.445H3.12473C2.97748 14.445 2.85812 14.3257 2.85812 14.1784V13.8641C2.85812 13.7169 2.97748 13.5975 3.12473 13.5975H4.68631C4.83356 13.5975 4.95291 13.7169 4.95291 13.8641V14.1784C4.95287 14.3256 4.83352 14.445 4.68627 14.445Z" fill="#F8E837"/>
<path id="Vector_17" d="M19.9145 8.279C20.0844 8.279 20.2221 8.14127 20.2221 7.97139V6.02766C20.2221 5.30804 19.6365 4.72254 18.9166 4.72254H17.1017V3.04381C17.4064 2.92138 17.6223 2.62344 17.6223 2.27551V1.78192C17.6223 0.799354 16.823 0 15.8404 0H14.1996C13.2171 0 12.4178 0.799354 12.4178 1.78192V2.27551C12.4178 2.6234 12.6336 2.92138 12.9382 3.04381V4.72254H11.1236C10.4038 4.72254 9.81812 5.308 9.81812 6.02766V8.77894H7.8428V8.26822C7.8428 7.50102 7.21863 6.87688 6.45143 6.87688C5.68427 6.87688 5.0601 7.50102 5.0601 8.26822V8.77894H2.65141C2.0005 8.77894 1.47094 9.3085 1.47094 9.95937V13.836C1.47094 14.0059 1.60863 14.1436 1.77856 14.1436C1.94849 14.1436 2.08618 14.0059 2.08618 13.836V12.8194C2.25418 12.9114 2.44679 12.9638 2.65145 12.9638H3.07145V13.2926C2.77983 13.3197 2.55068 13.5655 2.55068 13.8641V14.1784C2.55068 14.495 2.80826 14.7526 3.1249 14.7526H4.68649C5.00313 14.7526 5.2607 14.495 5.2607 14.1784V13.8641C5.2607 13.5655 5.03155 13.3197 4.73993 13.2926V12.9638H8.16293V13.2926C7.87131 13.3197 7.64215 13.5655 7.64215 13.8641V14.1784C7.64215 14.495 7.89973 14.7526 8.21637 14.7526H9.77792C10.0946 14.7526 10.3521 14.495 10.3521 14.1784V13.8641C10.3521 13.5655 10.123 13.3197 9.8314 13.2926V12.9638H10.2517C10.4562 12.9638 10.6488 12.9114 10.8167 12.8194V19.8195C10.8167 20.1312 10.5631 20.3847 10.2515 20.3847H2.65137C2.3397 20.3847 2.08618 20.1312 2.08618 19.8195V15.2789C2.08618 15.109 1.94849 14.9713 1.77856 14.9713C1.60863 14.9713 1.47094 15.109 1.47094 15.2789V15.5891H1.18043C0.529553 15.5891 0 16.1187 0 16.7696V18.5662C0 19.2171 0.529553 19.7466 1.18043 19.7466H1.47094V19.8196C1.47094 20.4705 2.0005 21 2.65137 21H10.2515C10.9024 21 11.432 20.4704 11.432 19.8196V19.7466H11.6847V20.1268C11.6847 20.5915 12.0628 20.9696 12.5276 20.9696C12.9924 20.9696 13.3705 20.5915 13.3705 20.1268V19.5747H16.6696V20.1266C16.6696 20.5914 17.0477 20.9696 17.5125 20.9696C17.9774 20.9696 18.3555 20.5914 18.3555 20.1266V19.5747H18.9167C19.6365 19.5747 20.2222 18.9893 20.2222 18.2696V9.42457C20.2222 9.25468 20.0845 9.11695 19.9146 9.11695C19.7446 9.11695 19.6069 9.25468 19.6069 9.42457V18.2696C19.6069 18.65 19.2973 18.9595 18.9167 18.9595H12.8352C12.8789 18.8364 12.9029 18.704 12.9029 18.5662V16.7696C12.9029 16.422 12.7518 16.1092 12.512 15.8929V6.44807C12.512 6.27818 12.3743 6.14045 12.2044 6.14045C12.0345 6.14045 11.8968 6.27818 11.8968 6.44807V15.6021C11.8399 15.5936 11.7817 15.5891 11.7224 15.5891H11.432V9.95937C11.432 9.37027 10.9982 8.88066 10.4333 8.79297V6.02766C10.4333 5.64728 10.743 5.33777 11.1236 5.33777H18.9166C19.2972 5.33777 19.6069 5.64724 19.6069 6.02766V7.97139C19.6069 8.14127 19.7446 8.279 19.9145 8.279ZM1.18043 19.1314C0.868752 19.1314 0.615234 18.8778 0.615234 18.5662V16.7696C0.615234 16.4579 0.868793 16.2044 1.18043 16.2044H1.47094V19.1314H1.18043ZM9.21617 12.653C9.21617 12.6541 9.21601 12.6551 9.21601 12.6562C9.21601 12.6572 9.21617 12.6582 9.21617 12.6593V13.2898H8.77816V9.39414H9.21617V12.653ZM5.67533 8.26822C5.67533 7.84026 6.02347 7.49212 6.45143 7.49212C6.87943 7.49212 7.22757 7.8403 7.22757 8.26822V8.77894H5.67533V8.26822ZM4.1247 13.2899H3.68669V9.39422H4.1247V13.2899ZM2.65145 12.3486C2.33974 12.3486 2.08618 12.095 2.08618 11.7834V9.95937C2.08618 9.6477 2.33978 9.39418 2.65141 9.39418H3.07145V12.3486H2.65145ZM4.64547 14.1374H3.16591V13.9052H4.64547V14.1374ZM4.73993 12.3486V9.39418H8.16293V12.3486H4.73993ZM9.7369 14.1374H8.25739V13.9052H9.7369V14.1374ZM12.7552 20.1268C12.7552 20.2523 12.6532 20.3544 12.5276 20.3544C12.4021 20.3544 12.2999 20.2523 12.2999 20.1268V19.5951C12.3118 19.5884 12.3236 19.5818 12.3352 19.5747H12.7552V20.1268ZM17.7402 20.1266C17.7402 20.2522 17.6381 20.3543 17.5125 20.3543C17.3869 20.3543 17.2848 20.2522 17.2848 20.1266V19.5747H17.7402L17.7402 20.1266ZM11.7224 16.2044C12.0341 16.2044 12.2876 16.4579 12.2876 16.7696V18.5662C12.2876 18.8779 12.0341 19.1314 11.7224 19.1314H11.432V16.2044H11.7224ZM10.8167 9.95937V11.7834C10.8167 12.095 10.5632 12.3486 10.2517 12.3486H9.8314V9.39418H10.2516C10.5632 9.39418 10.8167 9.64774 10.8167 9.95937ZM13.033 1.78192C13.033 1.13859 13.5563 0.615234 14.1996 0.615234H15.8404C16.4837 0.615234 17.007 1.13863 17.007 1.78192V2.27551C17.007 2.39293 16.9115 2.48846 16.794 2.48846C16.6766 2.48846 16.581 2.39293 16.581 2.27551V1.78192C16.581 1.37353 16.2488 1.04126 15.8404 1.04126H14.1996C13.7912 1.04126 13.459 1.37353 13.459 1.78192V2.27551C13.459 2.39293 13.3633 2.48846 13.2458 2.48846C13.1284 2.48846 13.033 2.39293 13.033 2.27551V1.78192ZM13.5534 3.04385C13.8582 2.92142 14.0743 2.62348 14.0743 2.27551V1.78192C14.0743 1.71277 14.1305 1.6565 14.1996 1.6565H15.8404C15.9096 1.6565 15.9658 1.71277 15.9658 1.78192V2.27551C15.9658 2.62344 16.1818 2.92142 16.4864 3.04381V4.72254H13.5534V3.04385Z" fill="black"/>
<path id="Vector_18" d="M13.7743 6.44812V17.2561C13.7743 17.426 13.912 17.5638 14.0819 17.5638C14.2518 17.5638 14.3895 17.426 14.3895 17.2561V6.44812C14.3895 6.27823 14.2518 6.1405 14.0819 6.1405C13.912 6.1405 13.7743 6.27823 13.7743 6.44812Z" fill="black"/>
<path id="Vector_19" d="M15.6505 6.44812V17.2561C15.6505 17.426 15.7882 17.5638 15.9582 17.5638C16.1281 17.5638 16.2658 17.426 16.2658 17.2561V6.44812C16.2658 6.27823 16.1281 6.1405 15.9582 6.1405C15.7882 6.1405 15.6505 6.27823 15.6505 6.44812Z" fill="black"/>
<path id="Vector_20" d="M17.528 6.44812V17.2561C17.528 17.426 17.6656 17.5638 17.8356 17.5638C18.0055 17.5638 18.1432 17.426 18.1432 17.2561V6.44812C18.1432 6.27823 18.0055 6.1405 17.8356 6.1405C17.6656 6.1405 17.528 6.27823 17.528 6.44812Z" fill="black"/>
<path id="Vector_21" d="M8.99879 19.2782C9.40907 19.2782 9.74285 18.9444 9.74285 18.5342V16.28C9.74285 15.8698 9.40907 15.536 8.99879 15.536H3.90461C3.49437 15.536 3.16058 15.8698 3.16058 16.28V18.5342C3.16058 18.9444 3.49437 19.2782 3.90461 19.2782H8.99879ZM3.77582 18.5342V16.28C3.77582 16.209 3.83357 16.1512 3.90461 16.1512H8.99879C9.06979 16.1512 9.12762 16.209 9.12762 16.28V18.5342C9.12762 18.6052 9.06983 18.663 8.99879 18.663H3.90461C3.83357 18.663 3.77582 18.6052 3.77582 18.5342Z" fill="black"/>
</g>
</svg>
