<svg width="35" height="34" viewBox="0 0 35 34" fill="none" xmlns="http://www.w3.org/2000/svg">
<g id="Group 11">
<path id="Vector" d="M23.236 33.128H0.673057C0.494551 33.128 0.323356 33.0571 0.197134 32.9309C0.0709113 32.8046 0 32.6334 0 32.4549V5.37955C0 5.20105 0.0709113 5.02985 0.197134 4.90363C0.323356 4.77741 0.494551 4.7065 0.673057 4.7065H6.4361C6.61461 4.7065 6.7858 4.77741 6.91203 4.90363C7.03825 5.02985 7.10916 5.20105 7.10916 5.37955C7.10916 5.55806 7.03825 5.72925 6.91203 5.85548C6.7858 5.9817 6.61461 6.05261 6.4361 6.05261H1.34611V31.7819H22.563V25.9835C22.563 25.805 22.6339 25.6338 22.7601 25.5076C22.8863 25.3814 23.0575 25.3104 23.236 25.3104C23.4145 25.3104 23.5857 25.3814 23.7119 25.5076C23.8382 25.6338 23.9091 25.805 23.9091 25.9835V32.4549C23.9091 32.6334 23.8382 32.8046 23.7119 32.9309C23.5857 33.0571 23.4145 33.128 23.236 33.128Z" fill="black"/>
<path id="Vector_2" d="M23.236 15.6289C23.0575 15.6289 22.8863 15.558 22.76 15.4318C22.6338 15.3056 22.5629 15.1344 22.5629 14.9559V6.05261H17.4729C17.2944 6.05261 17.1232 5.9817 16.997 5.85548C16.8708 5.72925 16.7999 5.55806 16.7999 5.37955C16.7999 5.20105 16.8708 5.02985 16.997 4.90363C17.1232 4.77741 17.2944 4.7065 17.4729 4.7065H23.236C23.4145 4.7065 23.5857 4.77741 23.7119 4.90363C23.8381 5.02985 23.909 5.20105 23.909 5.37955V14.9559C23.909 15.1344 23.8381 15.3056 23.7119 15.4318C23.5857 15.558 23.4145 15.6289 23.236 15.6289Z" fill="black"/>
<path id="Vector_3" d="M17.4743 8.24509H6.43618C6.25767 8.24509 6.08648 8.17418 5.96026 8.04796C5.83403 7.92173 5.76312 7.75054 5.76312 7.57203V3.18707C5.76312 3.00856 5.83403 2.83737 5.96026 2.71115C6.08648 2.58492 6.25767 2.51401 6.43618 2.51401H8.84067C8.99455 1.80207 9.38762 1.16431 9.95446 0.70689C10.5213 0.249473 11.2277 0 11.9561 0C12.6845 0 13.3909 0.249473 13.9577 0.70689C14.5246 1.16431 14.9176 1.80207 15.0715 2.51401H17.4743C17.6528 2.51401 17.824 2.58492 17.9502 2.71115C18.0765 2.83737 18.1474 3.00856 18.1474 3.18707V7.57203C18.1474 7.75054 18.0765 7.92173 17.9502 8.04796C17.824 8.17418 17.6528 8.24509 17.4743 8.24509ZM7.10924 6.89898H16.8013V3.86013H14.4683C14.2898 3.86013 14.1186 3.78921 13.9923 3.66299C13.8661 3.53677 13.7952 3.36557 13.7952 3.18707C13.7952 2.69886 13.6013 2.23064 13.2561 1.88542C12.9108 1.5402 12.4426 1.34626 11.9544 1.34626C11.4662 1.34626 10.998 1.5402 10.6528 1.88542C10.3075 2.23064 10.1136 2.69886 10.1136 3.18707C10.1136 3.36557 10.0427 3.53677 9.91646 3.66299C9.79024 3.78921 9.61904 3.86013 9.44054 3.86013H7.10924V6.89898Z" fill="black"/>
<path id="Vector_4" d="M8.06092 15.528H4.7112C4.5327 15.528 4.3615 15.4571 4.23528 15.3308C4.10906 15.2046 4.03815 15.0334 4.03815 14.8549V11.5039C4.03815 11.3254 4.10906 11.1542 4.23528 11.028C4.3615 10.9018 4.5327 10.8309 4.7112 10.8309H8.06176C8.24027 10.8309 8.41146 10.9018 8.53769 11.028C8.66391 11.1542 8.73482 11.3254 8.73482 11.5039V14.8549C8.73482 14.9434 8.71738 15.031 8.68351 15.1127C8.64963 15.1944 8.59998 15.2686 8.53739 15.3311C8.4748 15.3937 8.4005 15.4432 8.31875 15.477C8.23699 15.5108 8.14938 15.5281 8.06092 15.528ZM5.38342 14.1819H7.38787V12.177H5.38426L5.38342 14.1819Z" fill="black"/>
<path id="Vector_5" d="M8.06092 22.423H4.7112C4.5327 22.423 4.3615 22.3521 4.23528 22.2259C4.10906 22.0997 4.03815 21.9285 4.03815 21.75V18.399C4.03815 18.2205 4.10906 18.0493 4.23528 17.9231C4.3615 17.7968 4.5327 17.7259 4.7112 17.7259H8.06176C8.24027 17.7259 8.41146 17.7968 8.53769 17.9231C8.66391 18.0493 8.73482 18.2205 8.73482 18.399V21.75C8.73482 21.8384 8.71738 21.926 8.68351 22.0077C8.64963 22.0894 8.59998 22.1637 8.53739 22.2262C8.4748 22.2887 8.4005 22.3383 8.31875 22.372C8.23699 22.4058 8.14938 22.4231 8.06092 22.423ZM5.38342 21.0769H7.38787V19.072H5.38426L5.38342 21.0769Z" fill="black"/>
<path id="Vector_6" d="M8.06092 29.3219H4.7112C4.5327 29.3219 4.3615 29.2509 4.23528 29.1247C4.10906 28.9985 4.03815 28.8273 4.03815 28.6488V25.2982C4.03815 25.1197 4.10906 24.9485 4.23528 24.8223C4.3615 24.6961 4.5327 24.6252 4.7112 24.6252H8.06176C8.24027 24.6252 8.41146 24.6961 8.53769 24.8223C8.66391 24.9485 8.73482 25.1197 8.73482 25.2982V28.6488C8.73482 28.7373 8.71738 28.8248 8.68351 28.9066C8.64963 28.9883 8.59998 29.0625 8.53739 29.125C8.4748 29.1875 8.4005 29.2371 8.31875 29.2709C8.23699 29.3046 8.14938 29.322 8.06092 29.3219ZM5.38342 27.9757H7.38787V25.9713H5.38426L5.38342 27.9757Z" fill="black"/>
<path id="Vector_7" d="M15.5054 26.042H11.0493C10.8708 26.042 10.6996 25.9711 10.5734 25.8448C10.4472 25.7186 10.3763 25.5474 10.3763 25.3689C10.3763 25.1904 10.4472 25.0192 10.5734 24.893C10.6996 24.7668 10.8708 24.6959 11.0493 24.6959H15.5054C15.6839 24.6959 15.8551 24.7668 15.9813 24.893C16.1075 25.0192 16.1785 25.1904 16.1785 25.3689C16.1785 25.5474 16.1075 25.7186 15.9813 25.8448C15.8551 25.9711 15.6839 26.042 15.5054 26.042Z" fill="black"/>
<path id="Vector_8" d="M14.6027 29.2512H11.0493C10.8708 29.2512 10.6996 29.1803 10.5734 29.054C10.4472 28.9278 10.3763 28.7566 10.3763 28.5781C10.3763 28.3996 10.4472 28.2284 10.5734 28.1022C10.6996 27.976 10.8708 27.9051 11.0493 27.9051H14.6027C14.7812 27.9051 14.9524 27.976 15.0786 28.1022C15.2048 28.2284 15.2757 28.3996 15.2757 28.5781C15.2757 28.7566 15.2048 28.9278 15.0786 29.054C14.9524 29.1803 14.7812 29.2512 14.6027 29.2512Z" fill="black"/>
<path id="Vector_9" d="M15.5054 19.1431H11.0493C10.8708 19.1431 10.6996 19.0722 10.5734 18.946C10.4472 18.8198 10.3763 18.6486 10.3763 18.4701C10.3763 18.2916 10.4472 18.1204 10.5734 17.9942C10.6996 17.8679 10.8708 17.797 11.0493 17.797H15.5054C15.6839 17.797 15.8551 17.8679 15.9813 17.9942C16.1075 18.1204 16.1785 18.2916 16.1785 18.4701C16.1785 18.6486 16.1075 18.8198 15.9813 18.946C15.8551 19.0722 15.6839 19.1431 15.5054 19.1431Z" fill="black"/>
<path id="Vector_10" d="M14.6027 22.3519H11.0493C10.8708 22.3519 10.6996 22.281 10.5734 22.1548C10.4472 22.0286 10.3763 21.8574 10.3763 21.6789C10.3763 21.5004 10.4472 21.3292 10.5734 21.203C10.6996 21.0767 10.8708 21.0058 11.0493 21.0058H14.6027C14.7812 21.0058 14.9524 21.0767 15.0786 21.203C15.2048 21.3292 15.2757 21.5004 15.2757 21.6789C15.2757 21.8574 15.2048 22.0286 15.0786 22.1548C14.9524 22.281 14.7812 22.3519 14.6027 22.3519Z" fill="black"/>
<path id="Vector_11" d="M15.5054 12.2481H11.0493C10.8708 12.2481 10.6996 12.1772 10.5734 12.051C10.4472 11.9247 10.3763 11.7535 10.3763 11.575C10.3763 11.3965 10.4472 11.2253 10.5734 11.0991C10.6996 10.9729 10.8708 10.902 11.0493 10.902H15.5054C15.6839 10.902 15.8551 10.9729 15.9813 11.0991C16.1075 11.2253 16.1785 11.3965 16.1785 11.575C16.1785 11.7535 16.1075 11.9247 15.9813 12.051C15.8551 12.1772 15.6839 12.2481 15.5054 12.2481Z" fill="black"/>
<path id="Vector_12" d="M14.6027 15.4569H11.0493C10.8708 15.4569 10.6996 15.386 10.5734 15.2598C10.4472 15.1335 10.3763 14.9623 10.3763 14.7838C10.3763 14.6053 10.4472 14.4341 10.5734 14.3079C10.6996 14.1817 10.8708 14.1108 11.0493 14.1108H14.6027C14.7812 14.1108 14.9524 14.1817 15.0786 14.3079C15.2048 14.4341 15.2757 14.6053 15.2757 14.7838C15.2757 14.9623 15.2048 15.1335 15.0786 15.2598C14.9524 15.386 14.7812 15.4569 14.6027 15.4569Z" fill="black"/>
<path id="Vector_13" d="M26.8634 29.2798C26.7185 29.2798 26.5774 29.233 26.4612 29.1464L23.1052 26.6477L18.9352 26.3028C18.8261 26.2935 18.7209 26.2577 18.6288 26.1986C18.5366 26.1394 18.4603 26.0587 18.4064 25.9633C18.3525 25.868 18.3227 25.761 18.3196 25.6515C18.3164 25.5421 18.34 25.4335 18.3883 25.3353L19.254 23.5685C19.302 23.4707 19.373 23.386 19.4609 23.3216C19.5489 23.2573 19.6511 23.2153 19.7588 23.1991L22.2487 22.8206L23.5528 18.4878L17.3194 17.6553C17.219 17.6418 17.123 17.6058 17.0384 17.5501C16.9538 17.4943 16.883 17.4201 16.831 17.3332C16.7791 17.2462 16.7475 17.1486 16.7385 17.0477C16.7296 16.9468 16.7435 16.8452 16.7793 16.7504L17.3358 15.2781C17.3799 15.1616 17.4555 15.0596 17.5541 14.9834C17.6527 14.9073 17.7706 14.8601 17.8945 14.8469L25.0815 14.0822C25.3792 13.145 25.7292 12.2253 26.1297 11.3273C27.1848 8.99092 28.2612 7.75166 29.4201 7.53502C29.7143 7.47976 30.0179 7.5065 30.2979 7.6123C30.5778 7.7181 30.8232 7.89889 31.0073 8.13488C31.7342 9.06286 31.7224 10.7051 30.9677 13.1555C30.6742 14.0939 30.3284 15.0152 29.9321 15.915L34.8214 21.238C34.906 21.3297 34.9635 21.443 34.9874 21.5655C35.0113 21.6879 35.0007 21.8145 34.9569 21.9313L34.4003 23.4036C34.3645 23.4984 34.3078 23.5839 34.2344 23.6537C34.1609 23.7235 34.0727 23.7758 33.9762 23.8068C33.8797 23.8377 33.7774 23.8464 33.6771 23.8324C33.5768 23.8183 33.4809 23.7817 33.3966 23.7254L28.1699 20.2339L26.2799 24.3463L27.8982 26.2771C27.968 26.3605 28.0166 26.4595 28.0399 26.5657C28.0631 26.6719 28.0602 26.7822 28.0315 26.8871L27.5112 28.7843C27.4723 28.9266 27.3877 29.0522 27.2704 29.1417C27.1531 29.2312 27.0097 29.2798 26.8621 29.2798H26.8634ZM20.0289 25.0425L23.4081 25.3222C23.5336 25.3325 23.6537 25.3779 23.7547 25.453L26.4743 27.4781L26.64 26.8703L24.975 24.8839C24.8928 24.7861 24.8401 24.6669 24.8231 24.5403C24.8062 24.4136 24.8256 24.2848 24.8791 24.1688L27.2769 18.9526C27.3175 18.8641 27.3769 18.7855 27.4509 18.7222C27.5249 18.6589 27.6117 18.6124 27.7054 18.586C27.7991 18.5595 27.8975 18.5536 27.9936 18.5689C28.0898 18.5841 28.1815 18.62 28.2625 18.6741L33.4412 22.134L33.5519 21.8396L28.6394 16.4984C28.5487 16.3997 28.4897 16.2761 28.4697 16.1435C28.4498 16.0109 28.4699 15.8754 28.5275 15.7543C28.9769 14.7775 29.3636 13.773 29.6852 12.747C30.5042 10.0771 30.1416 9.21345 29.9476 8.96568C29.915 8.92389 29.8715 8.89186 29.8218 8.87309C29.7722 8.85433 29.7184 8.84954 29.6662 8.85926C29.3562 8.91689 28.5107 9.32661 27.3564 11.8821C26.9213 12.8602 26.5491 13.8651 26.2421 14.8907C26.2052 15.0196 26.1307 15.1345 26.0281 15.2208C25.9255 15.307 25.7995 15.3607 25.6662 15.3749L18.4485 16.1409L18.3378 16.4354L24.5098 17.2607C24.6062 17.2736 24.6987 17.3073 24.7808 17.3595C24.8629 17.4116 24.9328 17.4809 24.9856 17.5626C25.0384 17.6443 25.0728 17.7365 25.0865 17.8329C25.1002 17.9292 25.0929 18.0273 25.065 18.1205L23.4118 23.6181C23.3752 23.7401 23.3046 23.8492 23.2084 23.9326C23.1122 24.0161 22.9943 24.0706 22.8684 24.0897L20.3057 24.4788L20.0289 25.0425Z" fill="black"/>
</g>
</svg>
