<svg width="18" height="18" viewBox="0 0 18 18" fill="none" xmlns="http://www.w3.org/2000/svg">
<g id="Group">
<g id="Group_2">
<path id="Vector" d="M2.47847 18H15.5215C16.8888 18 18 16.93 18 15.6133V3.71998C18 2.40332 16.8888 1.33331 15.5215 1.33331H14.5385V0.666654C14.5385 0.299983 14.2269 0 13.8461 0C13.4653 0 13.1538 0.299983 13.1538 0.666654V1.33331H4.84618V0.666654C4.84618 0.299983 4.5346 0 4.15382 0C3.77305 0 3.46153 0.299983 3.46153 0.666654V1.33331H2.47847C1.11116 1.33331 0 2.40332 0 3.71998V15.6133C0 16.93 1.11116 18 2.47847 18ZM1.38465 3.71998C1.38465 3.14 1.87618 2.66667 2.47847 2.66667H3.46153V3.33333C3.46153 3.7 3.77305 3.99998 4.15382 3.99998C4.5346 3.99998 4.84612 3.7 4.84612 3.33333V2.66667H13.1538V3.33333C13.1538 3.7 13.4653 3.99998 13.8461 3.99998C14.2269 3.99998 14.5384 3.7 14.5384 3.33333V2.66667H15.5215C16.1238 2.66667 16.6153 3.14 16.6153 3.71998V5.66667H1.38465V3.71998ZM1.38465 6.99998H16.6154V15.6133C16.6154 16.1933 16.1239 16.6666 15.5216 16.6666H2.47847C1.87618 16.6666 1.38465 16.1933 1.38465 15.6133V6.99998Z" fill="white"/>
</g>
</g>
</svg>
