<svg width="13" height="14" viewBox="0 0 13 14" fill="none" xmlns="http://www.w3.org/2000/svg">
<g id="Layer 93">
<path id="Vector" d="M11.05 2.45H10.4V1.15C10.4 0.977609 10.3315 0.812279 10.2096 0.690381C10.0877 0.568482 9.92239 0.5 9.75 0.5C9.57761 0.5 9.41228 0.568482 9.29038 0.690381C9.16848 0.812279 9.1 0.977609 9.1 1.15V2.45H3.9V1.15C3.9 0.977609 3.83152 0.812279 3.70962 0.690381C3.58772 0.568482 3.42239 0.5 3.25 0.5C3.07761 0.5 2.91228 0.568482 2.79038 0.690381C2.66848 0.812279 2.6 0.977609 2.6 1.15V2.45H1.95C1.43283 2.45 0.936838 2.65545 0.571142 3.02114C0.205446 3.38684 0 3.88283 0 4.4V5.05H13V4.4C13 3.88283 12.7946 3.38684 12.4289 3.02114C12.0632 2.65545 11.5672 2.45 11.05 2.45Z" fill="#8B8D98"/>
<path id="Vector_2" d="M0 11.5501C0 12.0673 0.205446 12.5633 0.571142 12.929C0.936838 13.2947 1.43283 13.5001 1.95 13.5001H11.05C11.5672 13.5001 12.0632 13.2947 12.4289 12.929C12.7946 12.5633 13 12.0673 13 11.5501V6.3501H0V11.5501Z" fill="#8B8D98"/>
</g>
</svg>
