<svg width="26" height="18" viewBox="0 0 26 18" fill="none" xmlns="http://www.w3.org/2000/svg">
<g id="Group">
<g id="Group_2">
<g id="Group_3">
<path id="Vector" d="M22.8243 2.98698V1.84295C22.8243 1.492 22.5371 1.2048 22.1861 1.2048H19.0664C18.7155 1.2048 18.4283 1.49195 18.4283 1.84295V2.98698H22.8243Z" fill="#D9E7EC"/>
<path id="Vector_2" d="M5.43475 1.2048H3.61018C3.25924 1.2048 2.97204 1.49195 2.97204 1.84295V2.98698H6.07284V1.84295C6.07284 1.49195 5.78569 1.2048 5.43475 1.2048Z" fill="#D9E7EC"/>
<path id="Vector_3" d="M9.69179 2.98698V0.788297C9.69179 0.561651 9.50635 0.37616 9.27966 0.37616H8.13636C7.90971 0.37616 7.72422 0.561602 7.72422 0.788297V2.98698H9.69179Z" fill="#D9E7EC"/>
</g>
<path id="Vector_4" d="M20.6123 1.2048H19.0663C18.7154 1.2048 18.4282 1.49195 18.4282 1.84295V2.98698H19.9742V1.84295C19.9742 1.49195 20.2613 1.2048 20.6123 1.2048Z" fill="#C4D2DD"/>
<path id="Vector_5" d="M5.15567 1.2048H3.60962C3.25867 1.2048 2.97152 1.49195 2.97152 1.84295V2.98698H4.51753V1.84295C4.51753 1.49195 4.80468 1.2048 5.15567 1.2048Z" fill="#C4D2DD"/>
<path id="Vector_6" d="M9.13033 0.376099H8.13584C7.90919 0.376099 7.7237 0.561541 7.7237 0.788236V2.98692H8.71819V0.788236C8.71824 0.561541 8.90369 0.376099 9.13033 0.376099Z" fill="#C4D2DD"/>
<path id="Vector_7" d="M24.1421 2.88867H1.01038C0.659436 2.88867 0.372238 3.17582 0.372238 3.52681V7.14909H10.1146C10.8544 6.77507 11.6907 6.56414 12.5763 6.56414C13.4619 6.56414 14.2981 6.77507 15.0379 7.14909H24.7802V3.52681C24.7803 3.17587 24.4931 2.88867 24.1421 2.88867Z" fill="#E8F9FC"/>
<g id="Group_4">
<path id="Vector_8" d="M3.17739 2.88867H1.01038C0.659438 2.88867 0.372238 3.17582 0.372238 3.52682V7.14913H2.53925V3.52682C2.5393 3.17587 2.82645 2.88867 3.17739 2.88867Z" fill="#D9E7EC"/>
</g>
<path id="Vector_9" d="M9.20753 15.7452C8.15908 14.7496 7.50527 13.3424 7.50527 11.7825C7.50527 9.65044 8.7265 7.80389 10.5075 6.9035H0.372238V15.7452H9.20753Z" fill="#FFB640"/>
<path id="Vector_10" d="M0.372238 6.90356H2.53923V15.7452H0.372238V6.90356Z" fill="#FFA90F"/>
<path id="Vector_11" d="M17.7455 11.7825C17.7455 13.3424 17.0917 14.7496 16.0432 15.7452H24.7803V6.90356H14.7432C16.5242 7.8039 17.7455 9.6505 17.7455 11.7825Z" fill="#FFB640"/>
<path id="Vector_12" d="M0.372238 16.6083C0.372238 16.9592 0.659386 17.2464 1.01038 17.2464H12.5763C11.0679 17.2464 10.2426 16.6352 9.25389 15.647H0.372238V16.6083Z" fill="#E8F9FC"/>
<path id="Vector_13" d="M2.5393 16.6083V15.647H0.372238V16.6083C0.372238 16.9592 0.659389 17.2464 1.01038 17.2464H3.17739C2.82645 17.2464 2.5393 16.9592 2.5393 16.6083Z" fill="#D9E7EC"/>
<path id="Vector_14" d="M16.1442 15.647C15.1555 16.6352 14.0846 17.2463 12.5763 17.2463H24.1422C24.4932 17.2463 24.7803 16.9592 24.7803 16.6082V15.6469H16.1442V15.647Z" fill="#E8F9FC"/>
<path id="Vector_15" d="M12.5763 17.2464C15.5939 17.2464 18.0402 14.8001 18.0402 11.7825C18.0402 8.76489 15.5939 6.31863 12.5763 6.31863C9.55872 6.31863 7.11246 8.76489 7.11246 11.7825C7.11246 14.8001 9.55872 17.2464 12.5763 17.2464Z" fill="#7B6C79"/>
<path id="Vector_16" d="M9.04673 11.7825C9.04673 9.09488 10.9872 6.86056 13.5435 6.40393C13.2296 6.34784 12.9064 6.31857 12.5763 6.31857C9.5587 6.31857 7.11246 8.76486 7.11246 11.7824C7.11246 14.8 9.55875 17.2463 12.5763 17.2463C12.9064 17.2463 13.2296 17.217 13.5435 17.161C10.9872 16.7045 9.04673 14.4701 9.04673 11.7825Z" fill="#665E68"/>
<path id="Vector_17" d="M23.1255 4.13104H19.8378C19.6552 4.13104 19.5073 4.27901 19.5073 4.46156V5.33082C19.5073 5.51336 19.6552 5.66133 19.8378 5.66133H23.1255C23.3081 5.66133 23.4561 5.51336 23.4561 5.33082V4.46156C23.456 4.27901 23.308 4.13104 23.1255 4.13104Z" fill="#7B6C79"/>
<path id="Vector_18" d="M21.1279 5.33082V4.46156C21.1279 4.27901 21.2759 4.13104 21.4584 4.13104H19.8378C19.6552 4.13104 19.5073 4.27901 19.5073 4.46156V5.33082C19.5073 5.51336 19.6552 5.66133 19.8378 5.66133H21.4584C21.2759 5.66133 21.1279 5.51336 21.1279 5.33082Z" fill="#665E68"/>
<path id="Vector_19" d="M3.40855 5.33082V4.46156C3.40855 4.27901 3.26058 4.13104 3.07803 4.13104H2.16551C1.98296 4.13104 1.83499 4.27901 1.83499 4.46156V5.33082C1.83499 5.51336 1.98296 5.66133 2.16551 5.66133H3.07803C3.26058 5.66133 3.40855 5.51336 3.40855 5.33082Z" fill="#62DDFC"/>
<path id="Vector_20" d="M12.5762 15.6511C14.7128 15.6511 16.4448 13.9191 16.4448 11.7825C16.4448 9.64596 14.7128 7.91394 12.5762 7.91394C10.4397 7.91394 8.70763 9.64596 8.70763 11.7825C8.70763 13.9191 10.4397 15.6511 12.5762 15.6511Z" fill="#62DDFC"/>
<path id="Vector_21" d="M10.6419 11.7825C10.6419 9.98316 11.8767 8.46683 13.5433 8.03628C13.2341 7.95638 12.91 7.91385 12.5762 7.91385C10.443 7.91385 8.70763 9.64931 8.70763 11.7824C8.70763 13.9155 10.4431 15.651 12.5762 15.651C12.9101 15.651 13.2341 15.6085 13.5433 15.5286C11.8767 15.0981 10.6419 13.5818 10.6419 11.7825Z" fill="#00D2FC"/>
<path id="Vector_22" d="M12.5761 13.7168C13.6444 13.7168 14.5104 12.8508 14.5104 11.7825C14.5104 10.7142 13.6444 9.84818 12.5761 9.84818C11.5078 9.84818 10.6417 10.7142 10.6417 11.7825C10.6417 12.8508 11.5078 13.7168 12.5761 13.7168Z" fill="#00D2FC"/>
<path id="Vector_23" d="M12.5761 11.7825C12.5761 11.0681 12.9657 10.4434 13.5433 10.1084C13.2585 9.94325 12.9283 9.84818 12.5761 9.84818C11.5095 9.84818 10.6417 10.7159 10.6417 11.7825C10.6417 12.8491 11.5095 13.7168 12.5761 13.7168C12.9283 13.7168 13.2585 13.6217 13.5433 13.4566C12.9657 13.1216 12.5761 12.4969 12.5761 11.7825Z" fill="#00C2FB"/>
</g>
<g id="Group_5">
<path id="Vector_24" d="M12.5721 7.53778C10.2359 7.53778 8.33518 9.43845 8.33518 11.7747C8.33518 14.1109 10.2359 16.0116 12.5721 16.0116C14.9083 16.0116 16.809 14.1109 16.809 11.7747C16.809 9.43845 14.9083 7.53778 12.5721 7.53778ZM12.5721 15.275C10.642 15.275 9.07184 13.7048 9.07184 11.7747C9.07184 9.84469 10.642 8.27449 12.5721 8.27449C14.5021 8.27449 16.0723 9.84469 16.0723 11.7747C16.0723 13.7048 14.5022 15.275 12.5721 15.275Z" fill="black"/>
<path id="Vector_25" d="M12.5719 9.47211C11.3022 9.47211 10.2693 10.5051 10.2693 11.7748C10.2693 13.0445 11.3022 14.0774 12.5719 14.0774C13.8417 14.0774 14.8746 13.0445 14.8746 11.7748C14.8746 10.5051 13.8416 9.47211 12.5719 9.47211ZM12.5719 13.3407C11.7085 13.3407 11.0059 12.6382 11.0059 11.7747C11.0059 10.9112 11.7085 10.2087 12.5719 10.2087C13.4354 10.2087 14.1379 10.9112 14.1379 11.7747C14.1379 12.6382 13.4354 13.3407 12.5719 13.3407Z" fill="black"/>
<path id="Vector_26" d="M23.1214 6.02185C23.5067 6.02185 23.8202 5.70837 23.8202 5.32305V4.45379C23.8202 4.06842 23.5067 3.75494 23.1214 3.75494H19.8336C19.4483 3.75494 19.1348 4.06842 19.1348 4.45379V5.32305C19.1348 5.70837 19.4483 6.02185 19.8336 6.02185H23.1214ZM19.8715 4.49156H23.0836V5.28519H19.8715V4.49156Z" fill="black"/>
<path id="Vector_27" d="M2.16138 3.75488C1.77601 3.75488 1.46253 4.06836 1.46253 4.45373V5.32299C1.46253 5.70831 1.77606 6.02179 2.16138 6.02179H3.07386C3.45918 6.02179 3.77265 5.70831 3.77265 5.32299V4.45373C3.77265 4.06836 3.45913 3.75488 3.07386 3.75488H2.16138ZM3.03599 5.28517H2.19914V4.49154H3.03599V5.28517Z" fill="black"/>
<path id="Vector_28" d="M4.88177 4.52002C4.67831 4.52002 4.51344 4.68493 4.51344 4.88835C4.51344 5.09177 4.67831 5.25668 4.88177 5.25668H7.91284C8.11631 5.25668 8.28117 5.09177 8.28117 4.88835C8.28117 4.68493 8.11631 4.52002 7.91284 4.52002H4.88177Z" fill="black"/>
<path id="Vector_29" d="M24.1383 2.51258H23.1884V1.83511C23.1884 1.28016 22.737 0.828639 22.182 0.828639H19.0623C18.5073 0.828639 18.0559 1.28011 18.0559 1.83511V2.51258H13.4318C13.2284 2.51258 13.0635 2.6775 13.0635 2.88091C13.0635 3.08433 13.2284 3.24924 13.4318 3.24924H24.1383C24.2871 3.24924 24.4081 3.37025 24.4081 3.51905V6.52745H15.1203C14.3491 6.15191 13.4905 5.9425 12.5723 5.9425C11.7008 5.9425 10.8364 6.13197 10.0244 6.52745H0.736655V3.51905C0.736655 3.3703 0.857663 3.24924 1.00642 3.24924H11.7129C11.9164 3.24924 12.0812 3.08433 12.0812 2.88091C12.0812 2.6775 11.9164 2.51258 11.7129 2.51258H10.0558V0.780462C10.0558 0.350108 9.70573 0 9.27537 0H8.13208C7.70173 0 7.35162 0.350108 7.35162 0.780462V2.51263H6.4366V1.83511C6.4366 1.28016 5.98513 0.828639 5.43013 0.828639H3.60563C3.05069 0.828639 2.59921 1.28011 2.59921 1.83511V2.51258H1.00642C0.451471 2.51258 0 2.9641 0 3.51905V16.6005C0 17.1554 0.451471 17.6069 1.00642 17.6069H24.1383C24.6932 17.6069 25.1447 17.1555 25.1447 16.6005C25.1447 16.0154 25.1447 12.708 25.1447 12.2166C25.1447 12.0132 24.9798 11.8483 24.7764 11.8483C24.5729 11.8483 24.408 12.0132 24.408 12.2166V15.2709H17.2376C18.0041 14.2498 18.4134 13.0139 18.4041 11.7355C18.393 10.0156 17.6337 8.37577 16.2732 7.26406H24.4081V10.4977C24.4081 10.7011 24.573 10.8661 24.7764 10.8661C24.9799 10.8661 25.1447 10.7011 25.1447 10.4977C25.1447 10.3771 25.1447 3.71255 25.1447 3.519C25.1447 2.9641 24.6932 2.51258 24.1383 2.51258ZM22.4518 2.51258H18.7925V1.83511C18.7925 1.68635 18.9135 1.56529 19.0623 1.56529H22.1819C22.3307 1.56529 22.4517 1.6863 22.4517 1.83511V2.51258H22.4518ZM8.08828 0.780462C8.08828 0.757135 8.10876 0.736655 8.13208 0.736655H9.27537C9.2987 0.736655 9.31918 0.757135 9.31918 0.780462V2.51263H8.08833V0.780462H8.08828ZM3.33587 1.83511C3.33587 1.68635 3.45688 1.56529 3.60563 1.56529H5.43013C5.57889 1.56529 5.69994 1.6863 5.69994 1.83511V2.51258H3.33587V1.83511ZM0.736655 7.26411H8.87154C7.5433 8.3494 6.74015 9.98575 6.74015 11.7747C6.74015 13.036 7.1457 14.256 7.90711 15.2709H0.736655V7.26411ZM1.00642 16.8703C0.857663 16.8703 0.736655 16.7493 0.736655 16.6005V16.0075H8.56008C8.91716 16.3465 9.31 16.6352 9.72974 16.8702L1.00642 16.8703ZM24.408 16.0075V16.6005C24.408 16.7492 24.287 16.8703 24.1383 16.8703H15.415C15.8347 16.6353 16.2275 16.3465 16.5846 16.0076L24.408 16.0075ZM17.6677 11.7643C17.6677 11.7678 17.6679 11.7713 17.6679 11.7747C17.6679 14.5842 15.3822 16.8702 12.5723 16.8702C9.76471 16.8702 7.47676 14.5863 7.47676 11.7747C7.47676 8.9646 9.76329 6.67916 12.5723 6.67916C15.3606 6.67916 17.6623 8.94211 17.6677 11.7643Z" fill="black"/>
</g>
</g>
</svg>
