<svg width="20" height="20" viewBox="0 0 20 20" fill="none" xmlns="http://www.w3.org/2000/svg">
<g id="Group 1171275259">
<path id="Vector" d="M10.0074 0.00373704C10.047 0.00382092 10.0867 0.0039048 10.1275 0.00399123C10.6961 0.00592448 11.2539 0.0156897 11.8124 0.132664C11.8503 0.140397 11.8883 0.14813 11.9274 0.156097C13.451 0.474814 14.8608 1.08554 16.0938 2.03981C16.1283 2.06605 16.1628 2.09229 16.1984 2.11933C16.8049 2.59075 17.3735 3.14677 17.8452 3.75235C17.8898 3.80699 17.8898 3.80699 17.9354 3.86273C19.2832 5.54585 20.003 7.70596 19.9982 9.85239C19.9981 9.9668 19.999 10.0812 20 10.1956C20.0017 10.7161 19.9548 11.218 19.8691 11.7312C19.8581 11.7976 19.8581 11.7976 19.8469 11.8653C19.5735 13.3876 18.9125 14.8348 17.962 16.0515C17.9324 16.0893 17.9029 16.1272 17.8724 16.1661C17.3924 16.7647 16.8552 17.3311 16.2494 17.803C16.213 17.8327 16.1766 17.8625 16.1391 17.8931C14.8954 18.889 13.371 19.5316 11.8124 19.8269C11.7809 19.8332 11.7494 19.8396 11.7169 19.8462C10.5477 20.0747 9.19936 20.0321 8.03703 19.788C7.97776 19.7757 7.97776 19.7757 7.91728 19.7633C6.4716 19.4561 5.11464 18.8294 3.95029 17.9197C3.91246 17.8902 3.87463 17.8606 3.83565 17.8302C3.23706 17.3501 2.67065 16.813 2.19883 16.2072C2.1542 16.1525 2.1542 16.1525 2.10867 16.0968C1.11279 14.8532 0.470212 13.3288 0.174916 11.7702C0.168544 11.7386 0.162173 11.7071 0.155608 11.6747C-0.0572768 10.5854 -0.0525704 9.27552 0.174916 8.18939C0.182649 8.15144 0.190382 8.1135 0.198349 8.07441C0.516341 6.55424 1.12451 5.13604 2.08206 3.90804C2.10825 3.87362 2.13444 3.8392 2.16143 3.80374C2.63242 3.19707 3.18892 2.62785 3.7946 2.15657C3.8506 2.11127 3.8506 2.11127 3.90772 2.06505C5.63881 0.688047 7.80961 -0.00463183 10.0074 0.00373704ZM3.95029 3.75235C3.93093 3.77065 3.91157 3.78895 3.89162 3.80781C3.58001 4.1035 3.31169 4.42022 3.0551 4.76431C3.03855 4.78607 3.022 4.80783 3.00494 4.83025C2.72253 5.20225 2.49157 5.59549 2.27667 6.00979C2.26146 6.03893 2.24625 6.06808 2.23058 6.0981C1.61319 7.29636 1.32484 8.61029 1.32796 9.95301C1.328 9.98895 1.32803 10.0249 1.32807 10.0619C1.33521 12.3517 2.25596 14.448 3.83352 16.0904C3.86684 16.1253 3.90015 16.1603 3.93448 16.1962C4.15894 16.4264 4.3956 16.6347 4.65087 16.8299C4.67597 16.8492 4.70106 16.8684 4.72691 16.8882C5.14852 17.2084 5.58096 17.4839 6.05204 17.7251C6.08096 17.7402 6.10988 17.7552 6.13967 17.7707C8.16587 18.8151 10.5517 18.9526 12.7122 18.268C14.0151 17.8389 15.1482 17.1139 16.1327 16.1683C16.1851 16.1183 16.1851 16.1183 16.2385 16.0673C16.4688 15.8426 16.6752 15.6052 16.8722 15.3509C16.8887 15.3298 16.9052 15.3087 16.9222 15.287C18.1035 13.7664 18.7207 11.9039 18.7161 9.98463C18.716 9.94971 18.716 9.91479 18.716 9.87882C18.7087 7.59579 17.7802 5.50652 16.2105 3.86911C16.1757 3.83224 16.1409 3.79536 16.105 3.75737C15.8363 3.47959 15.5461 3.24371 15.2375 3.01284C15.2157 2.99624 15.1938 2.97963 15.1714 2.96252C14.7994 2.68017 14.4062 2.44927 13.992 2.23442C13.9629 2.21921 13.9337 2.204 13.9037 2.18833C10.6577 0.51585 6.62523 1.19793 3.95029 3.75235Z" fill="black"/>
<path id="Vector_2" d="M9.39928 3.75235C9.81029 3.75235 10.2213 3.75235 10.6448 3.75235C10.6274 3.9142 10.61 4.07604 10.5921 4.24279C10.5164 4.99663 10.4711 5.75143 10.4429 6.50847C10.4416 6.54235 10.4402 6.57624 10.4389 6.61115C10.3746 8.33257 10.4377 9.77381 11.6507 11.0851C11.9057 11.3553 12.178 11.6054 12.457 11.8504C12.4782 11.8691 12.4993 11.8877 12.5211 11.9069C13.0656 12.3857 13.6315 12.833 14.2255 13.2492C14.1885 13.2927 14.1513 13.3362 14.1142 13.3797C14.0832 13.416 14.0832 13.416 14.0516 13.4531C13.9791 13.5365 13.9029 13.6151 13.8245 13.693C13.7954 13.7219 13.7663 13.7509 13.7363 13.7808C13.7067 13.81 13.6771 13.8393 13.6466 13.8695C13.6161 13.8998 13.5856 13.9301 13.5541 13.9614C13.4796 14.0354 13.405 14.1094 13.3303 14.1833C13.293 14.1501 13.2556 14.1169 13.217 14.0827C13.0811 13.9662 12.9388 13.8632 12.7918 13.7612C12.239 13.3767 11.7184 12.9571 11.2116 12.5145C11.19 12.4958 11.1684 12.477 11.1462 12.4577C10.0049 11.4613 9.28328 10.4754 9.17465 8.92919C9.13206 8.21649 9.14061 7.50604 9.17062 6.79308C9.17216 6.75556 9.1737 6.71804 9.17529 6.67939C9.21631 5.69991 9.29491 4.72706 9.39928 3.75235Z" fill="black"/>
</g>
</svg>
