<svg width="15" height="16" viewBox="0 0 15 16" fill="none" xmlns="http://www.w3.org/2000/svg">
<path id="Vector" d="M8.87422 8.00011L14.7149 2.15924C15.095 1.77931 15.095 1.16502 14.7149 0.7851C14.335 0.405175 13.7207 0.405175 13.3408 0.7851L7.49991 6.62598L1.65921 0.7851C1.27911 0.405175 0.665002 0.405175 0.285077 0.7851C-0.0950257 1.16502 -0.0950257 1.77931 0.285077 2.15924L6.12578 8.00011L0.285077 13.841C-0.0950257 14.2209 -0.0950257 14.8352 0.285077 15.2151C0.474417 15.4046 0.72337 15.4998 0.972145 15.4998C1.22092 15.4998 1.46969 15.4046 1.65921 15.2151L7.49991 9.37425L13.3408 15.2151C13.5303 15.4046 13.7791 15.4998 14.0279 15.4998C14.2766 15.4998 14.5254 15.4046 14.7149 15.2151C15.095 14.8352 15.095 14.2209 14.7149 13.841L8.87422 8.00011Z" fill="white"/>
</svg>
