<svg width="20" height="20" viewBox="0 0 20 20" fill="none" xmlns="http://www.w3.org/2000/svg">
<g id="Group">
<g id="Group_2">
<g id="Group_3">
<path id="Vector" d="M19.9056 7.19124L16.6798 3.96545C16.6334 3.91916 16.574 3.88812 16.5094 3.87642L12.9611 3.23127C12.7858 3.19937 12.6179 3.31562 12.586 3.4909C12.5825 3.50985 12.5808 3.52909 12.5808 3.54836C12.5798 3.65086 12.5706 3.75312 12.5533 3.85416L10.3227 3.29675V3.19352C11.1955 3.01538 11.7586 2.16341 11.5805 1.29063C11.4023 0.417858 10.5503 -0.145243 9.67756 0.0329012C8.92672 0.186166 8.38741 0.846565 8.38725 1.61289H9.0324C9.0324 1.07842 9.46567 0.645155 10.0001 0.645155C10.5346 0.645155 10.9679 1.07842 10.9679 1.61289C10.9679 2.14736 10.5346 2.58063 10.0001 2.58063C9.822 2.58063 9.67756 2.72506 9.67756 2.9032V3.29643L7.44693 3.85416C7.42963 3.75312 7.42044 3.65086 7.41951 3.54836C7.41955 3.45268 7.37713 3.36195 7.30371 3.30062C7.23068 3.23844 7.1333 3.21292 7.03919 3.23127L3.49083 3.87642C3.42631 3.88812 3.36692 3.91916 3.32051 3.96545L0.0947244 7.19124C-0.0312021 7.3172 -0.0312021 7.5214 0.0947244 7.64736L2.67535 10.228C2.80132 10.3539 3.00551 10.3539 3.13148 10.228L3.87115 9.48832V11.6128H1.6131C0.725002 11.6102 0.00299118 12.3281 0.000410553 13.2162C-0.00108137 13.7292 0.242223 14.212 0.655366 14.516C-0.0572504 15.0367 -0.212854 16.0365 0.307868 16.7491C0.405085 16.8822 0.522302 16.9994 0.655366 17.0966C-0.0599116 17.623 -0.213056 18.6296 0.313312 19.3449C0.617342 19.758 1.1002 20.0013 1.6131 19.9998H13.2259C13.3115 19.9998 13.3935 19.9658 13.454 19.9053L16.0346 17.3247C16.0943 17.2639 16.1273 17.1818 16.1262 17.0966H16.1291V9.48832L16.8688 10.228C16.9948 10.3539 17.199 10.3539 17.3249 10.228L19.9056 7.64736C20.0315 7.5214 20.0315 7.31716 19.9056 7.19124ZM10.0001 3.88062L12.3459 4.46706C11.8597 5.29581 10.9606 5.79371 10.0001 5.76609C9.0397 5.79371 8.14056 5.29581 7.65435 4.46706L10.0001 3.88062ZM0.645366 13.2257C0.645366 12.6912 1.07863 12.258 1.6131 12.258H8.70983C9.2443 12.258 9.67756 12.6912 9.67756 13.2257C9.67756 13.7602 9.2443 14.1934 8.70983 14.1934H1.6131C1.07863 14.1934 0.645366 13.7601 0.645366 13.2257ZM0.645366 15.8063C0.645366 15.2719 1.07863 14.8386 1.6131 14.8386H8.70983C9.2443 14.8386 9.67756 15.2719 9.67756 15.8063C9.67756 16.3408 9.2443 16.7741 8.70983 16.7741H1.6131C1.07863 16.7741 0.645366 16.3408 0.645366 15.8063ZM8.70983 19.3547H8.06467H1.6131C1.07863 19.3547 0.645366 18.9214 0.645366 18.387C0.645366 17.8525 1.07863 17.4192 1.6131 17.4192H8.70983C9.2443 17.4192 9.67756 17.8525 9.67756 18.387C9.67756 18.9214 9.2443 19.3547 8.70983 19.3547ZM13.5485 18.8986V17.4192H15.0278L13.5485 18.8986ZM17.0969 9.5438L15.0669 7.51382L14.6108 7.96994L15.484 8.84316V16.7741H13.2259C13.0478 16.7741 12.9033 16.9185 12.9033 17.0967V19.3547H9.99175C10.5286 18.6591 10.4001 17.6601 9.70454 17.1231C9.69288 17.1142 9.68111 17.1053 9.66917 17.0967C10.3818 16.576 10.5374 15.5762 10.0167 14.8635C9.91949 14.7305 9.80228 14.6132 9.66917 14.516C10.3845 13.9897 10.5376 12.9831 10.0112 12.2678C9.70687 11.8542 9.22329 11.6108 8.70983 11.6128H4.51631V8.84316L5.38953 7.96994L4.9334 7.51382L2.90341 9.5438L0.778913 7.4193L3.70534 4.49287L6.8021 3.92997C7.01306 5.32867 8.3666 6.41124 9.99949 6.41124C11.6324 6.41124 12.9859 5.32867 13.1969 3.92997L16.2936 4.49287L19.2214 7.4193L17.0969 9.5438Z" fill="#005CE8"/>
<path id="Vector_2" d="M9.03192 12.9031H1.29004V13.5482H9.03192V12.9031Z" fill="#005CE8"/>
<path id="Vector_3" d="M8.70934 15.4838H1.29004V16.1289H8.70934V15.4838Z" fill="#005CE8"/>
<path id="Vector_4" d="M8.70934 18.0643H1.29004V18.7095H8.70934V18.0643Z" fill="#005CE8"/>
</g>
</g>
</g>
</svg>
