<svg width="17" height="13" viewBox="0 0 17 13" fill="none" xmlns="http://www.w3.org/2000/svg">
<g id="Group">
<path id="Vector" d="M6.375 0H1.59375C0.714903 0 0 0.714903 0 1.59375V6.375C0 7.25385 0.714903 7.96875 1.59375 7.96875H3.7382C3.7382 7.96875 2.93384 12.1065 2.93174 12.1173C2.87021 12.4338 3.13179 12.75 3.45312 12.75H5.17424C5.63623 12.75 6.04686 12.4478 6.18668 12.0102L7.73321 8.34177C7.74203 8.32076 7.74956 8.29922 7.75552 8.27744C7.89715 7.7685 7.96875 7.24217 7.96875 6.71326V1.59375C7.96875 0.714903 7.25385 0 6.375 0ZM6.90625 6.71326C6.90625 7.13504 6.85048 7.55475 6.74076 7.96097L5.19681 11.6232C5.18799 11.6442 5.18021 11.6657 5.17424 11.6875H4.09773C4.09773 11.6875 4.90353 7.54238 4.90421 7.53893C4.9671 7.21539 4.71181 6.90625 4.38281 6.90625H1.59375C1.30089 6.90625 1.0625 6.66786 1.0625 6.375V1.59375C1.0625 1.30089 1.30089 1.0625 1.59375 1.0625H6.375C6.66786 1.0625 6.90625 1.30089 6.90625 1.59375V6.71326Z" fill="white"/>
<path id="Vector_2" d="M15.4062 0H10.625C9.74615 0 9.03125 0.714903 9.03125 1.59375V6.375C9.03125 7.25385 9.74615 7.96875 10.625 7.96875H12.7697C12.7697 7.96875 11.9647 12.1084 11.963 12.1173C11.9009 12.4368 12.16 12.75 12.4844 12.75H14.2057C14.668 12.75 15.0784 12.4478 15.2179 12.0099L16.7645 8.34176C16.7733 8.32075 16.7805 8.29922 16.7868 8.27743C16.9284 7.76798 17 7.24165 17 6.71326V1.59375C17 0.714903 16.2851 0 15.4062 0ZM15.9375 6.71326C15.9375 7.13452 15.8815 7.55397 15.7715 7.96097L14.2275 11.6232C14.2187 11.6442 14.212 11.6654 14.2057 11.6875H13.1287C13.1287 11.6875 13.9347 7.54267 13.9355 7.53892C13.9971 7.22201 13.7475 6.90625 13.4141 6.90625H10.625C10.3319 6.90625 10.0938 6.66786 10.0938 6.375V1.59375C10.0938 1.30089 10.3319 1.0625 10.625 1.0625H15.4062C15.6994 1.0625 15.9375 1.30089 15.9375 1.59375V6.71326Z" fill="white"/>
</g>
</svg>
