<svg width="15" height="15" viewBox="0 0 15 15" fill="none" xmlns="http://www.w3.org/2000/svg">
<g id="Group">
<g id="Group_2">
<path id="Vector" d="M7.50005 0.00100708C3.3645 0.00100708 0 3.36546 0 7.50096C0 11.6365 3.3645 15.0009 7.50005 15.0009C11.6355 15.0009 15 11.6365 15 7.50096C15 3.36546 11.6355 0.00100708 7.50005 0.00100708ZM7.50005 13.7714C4.04245 13.7714 1.2295 10.9586 1.2295 7.50096C1.2295 4.04341 4.04245 1.23051 7.50005 1.23051C10.9576 1.23051 13.7705 4.04341 13.7705 7.50096C13.7705 10.9586 10.9576 13.7714 7.50005 13.7714Z" fill="black"/>
<path id="Vector_2" d="M10.7435 4.62241L6.29047 9.07551L4.25452 7.03956C4.01442 6.79951 3.62521 6.79951 3.38511 7.03956C3.14507 7.27966 3.14507 7.66887 3.38511 7.90896L5.85577 10.3796C5.97582 10.4996 6.13315 10.5597 6.29047 10.5597C6.4478 10.5597 6.60513 10.4996 6.72517 10.3796L11.6129 5.49187C11.853 5.25177 11.853 4.86256 11.6129 4.62246C11.3728 4.38236 10.9836 4.38236 10.7435 4.62241Z" fill="black"/>
</g>
</g>
</svg>
