<svg width="17" height="16" viewBox="0 0 17 16" fill="none" xmlns="http://www.w3.org/2000/svg">
<path id="Vector" d="M3.26168 16H10.5382C11.937 16 13.084 14.9506 13.2634 13.6H13.7382C15.261 13.6 16.5 12.361 16.5 10.8383V2.76168C16.5 1.23904 15.261 0 13.7383 0H6.46168C4.93904 0 3.7 1.23904 3.7 2.76168V3.2H3.26168C1.73904 3.2 0.5 4.43904 0.5 5.96168V13.2382C0.5 14.761 1.73904 16 3.26168 16ZM5.3 2.76168C5.3 2.12112 5.82112 1.6 6.46168 1.6H13.7382C14.3789 1.6 14.9 2.12112 14.9 2.76168V10.8382C14.9 11.4789 14.3789 12 13.7383 12H13.3V5.96168C13.3 4.43904 12.061 3.2 10.5383 3.2H5.3V2.76168ZM2.1 5.96168C2.1 5.32112 2.62112 4.8 3.26168 4.8H10.5382C11.1789 4.8 11.7 5.32112 11.7 5.96168V13.2382C11.7 13.8789 11.1789 14.4 10.5383 14.4H3.26168C2.62112 14.4 2.1 13.8789 2.1 13.2383V5.96168Z" fill="black"/>
</svg>
