<svg width="20" height="20" viewBox="0 0 20 20" fill="none" xmlns="http://www.w3.org/2000/svg">
<g id="Group 1171275282" opacity="0.5">
<g id="Group">
<g id="Group_2">
<path id="Vector" d="M17.8265 13.0624C17.8072 13.03 17.7868 12.999 17.7665 12.9717C17.5645 12.6894 17.2641 12.5027 16.9215 12.4463C16.5805 12.39 16.2348 12.4703 15.9535 12.6724L12.2268 15.3334H8.33347C8.14979 15.3334 8.00015 15.184 8.00015 15.0001C8.00015 14.8161 8.14979 14.6667 8.33347 14.6667H10.5002C11.1435 14.6667 11.6668 14.1434 11.6668 13.5001C11.6668 13.4964 11.6665 13.4657 11.6662 13.4624C11.6455 12.8194 11.1032 12.3181 10.4735 12.3334H6.13717C5.75284 12.3367 5.3785 12.4744 5.0835 12.7204L3.4535 14.0771C3.37748 14.1408 3.3335 14.2344 3.3335 14.3334V18.3334C3.3335 18.5178 3.48283 18.6667 3.66682 18.6667H11.9372C12.4785 18.6661 13.0059 18.4754 13.4225 18.1304L17.4636 14.7914C18.0125 14.4003 18.1718 13.641 17.8265 13.0624ZM17.0582 14.263L12.9978 17.6167C12.6998 17.8634 12.3228 17.9994 11.9368 18H4.00014V14.4897L5.51045 13.2323C5.6878 13.0847 5.91213 13.002 6.14014 13L10.4841 12.9997C10.7605 12.9993 10.9911 13.2083 11.0002 13.5C11.0002 13.7757 10.7758 14 10.5002 14H8.33347C7.78214 14 7.33347 14.4487 7.33347 15C7.33347 15.5513 7.78214 16 8.33347 16H12.3335C12.4028 16 12.4705 15.9783 12.5278 15.938L16.3418 13.2144C16.4791 13.1157 16.6461 13.0774 16.8135 13.104C16.9805 13.1317 17.1265 13.2223 17.2268 13.3623C17.2368 13.376 17.2458 13.39 17.2545 13.4043C17.4232 13.6867 17.3448 14.0577 17.0582 14.263Z" fill="black"/>
</g>
</g>
<g id="Group_3">
<g id="Group_4">
<path id="Vector_2" d="M3.65669 13.6667H0V14.3334H3.32333V19.3334H0V20.0001H3.65669C3.84067 20.0001 3.99001 19.8511 3.99001 19.6667V14C3.99001 13.8157 3.84067 13.6667 3.65669 13.6667Z" fill="black"/>
</g>
</g>
<g id="Group_5">
<g id="Group_6">
<path id="Vector_3" d="M1.66651 16.6667C1.11518 16.6667 0.666504 17.1154 0.666504 17.6667C0.666504 18.218 1.11518 18.6667 1.66651 18.6667C2.21784 18.6667 2.66651 18.218 2.66651 17.6667C2.66651 17.1154 2.21784 16.6667 1.66651 16.6667ZM1.66651 18C1.48283 18 1.33318 17.8507 1.33318 17.6667C1.33318 17.4827 1.48283 17.3334 1.66651 17.3334C1.85018 17.3334 1.99983 17.4827 1.99983 17.6667C1.99983 17.8507 1.85018 18 1.66651 18Z" fill="black"/>
</g>
</g>
<g id="Group_7">
<g id="Group_8">
<path id="Vector_4" d="M19.6667 10.3333H0.333321C0.149336 10.3333 0 10.4823 0 10.6667C0 11.953 1.04668 13 2.33333 13H17.6667C18.953 13 20 11.953 20 10.6667C20 10.4824 19.8511 10.3333 19.6667 10.3333ZM17.6667 12.3333H2.33333C1.52832 12.3333 0.855002 11.7597 0.700314 11H19.2997C19.145 11.7597 18.4717 12.3333 17.6667 12.3333Z" fill="black"/>
</g>
</g>
<g id="Group_9">
<g id="Group_10">
<path id="Vector_5" d="M10.0002 1.66669C5.22151 1.66669 1.3335 5.5547 1.3335 10.3334V10.6667C1.3335 10.851 1.48283 11 1.66682 11H18.3335C18.5179 11 18.6669 10.851 18.6669 10.6667V10.3334C18.6669 5.55466 14.7792 1.66669 10.0002 1.66669ZM2.00018 10.3333C2.00018 5.92232 5.58917 2.33333 10.0002 2.33333C14.4112 2.33333 18.0002 5.92232 18.0002 10.3333H2.00018Z" fill="black"/>
</g>
</g>
<g id="Group_11">
<g id="Group_12">
<path id="Vector_6" d="M11 0H9V0.666681H11V0Z" fill="black"/>
</g>
</g>
<g id="Group_13">
<g id="Group_14">
<path id="Vector_7" d="M10.3332 0.333313H9.6665V2H10.3332V0.333313Z" fill="black"/>
</g>
</g>
</g>
</svg>
