<svg width="50" height="50" viewBox="0 0 50 50" fill="none" xmlns="http://www.w3.org/2000/svg">
<g id="Frame 818147">
<rect width="50" height="50" rx="25" fill="#FDF3F3"/>
<g id="Group">
<path id="Vector" d="M33.0769 16.0769H28.8462V15.3077C28.8462 14.0332 27.813 13 26.5385 13H23.4615C22.187 13 21.1538 14.0332 21.1538 15.3077V16.0769H16.9231C15.861 16.0769 15 16.9379 15 18V19.5385C15 19.9633 15.3444 20.3077 15.7692 20.3077H34.2308C34.6556 20.3077 35 19.9633 35 19.5385V18C35 16.9379 34.139 16.0769 33.0769 16.0769ZM22.6923 15.3077C22.6923 14.8837 23.0375 14.5385 23.4615 14.5385H26.5385C26.9625 14.5385 27.3077 14.8837 27.3077 15.3077V16.0769H22.6923V15.3077Z" fill="#FF3829"/>
<path id="Vector_2" d="M16.4601 21.8462C16.3228 21.8462 16.2135 21.9609 16.22 22.098L16.8546 35.4173C16.9133 36.65 17.9258 37.6154 19.1594 37.6154H30.8412C32.0748 37.6154 33.0873 36.65 33.146 35.4173L33.7806 22.098C33.7871 21.9609 33.6777 21.8462 33.5405 21.8462H16.4601ZM28.0772 23.7693C28.0772 23.3443 28.4214 23 28.8464 23C29.2714 23 29.6157 23.3443 29.6157 23.7693V33.7693C29.6157 34.1943 29.2714 34.5385 28.8464 34.5385C28.4214 34.5385 28.0772 34.1943 28.0772 33.7693V23.7693ZM24.2311 23.7693C24.2311 23.3443 24.5753 23 25.0003 23C25.4253 23 25.7695 23.3443 25.7695 23.7693V33.7693C25.7695 34.1943 25.4253 34.5385 25.0003 34.5385C24.5753 34.5385 24.2311 34.1943 24.2311 33.7693V23.7693ZM20.3849 23.7693C20.3849 23.3443 20.7291 23 21.1541 23C21.5791 23 21.9234 23.3443 21.9234 23.7693V33.7693C21.9234 34.1943 21.5791 34.5385 21.1541 34.5385C20.7291 34.5385 20.3849 34.1943 20.3849 33.7693V23.7693Z" fill="#FF3829"/>
</g>
</g>
</svg>
