<svg width="18" height="22" viewBox="0 0 18 22" fill="none" xmlns="http://www.w3.org/2000/svg">
<g id="Group 23">
<path id="Vector" d="M11.6995 8.30069C11.4199 8.30069 11.1934 8.51027 11.1934 8.76887V17.6175C11.1934 17.876 11.4199 18.0857 11.6995 18.0857C11.979 18.0857 12.2056 17.876 12.2056 17.6175V8.76887C12.2056 8.51027 11.979 8.30069 11.6995 8.30069Z" fill="#FF1C1C"/>
<path id="Vector_2" d="M2.0874 6.90466V18.5859C2.0874 19.2764 2.34197 19.9247 2.78668 20.39C3.22933 20.8565 3.84536 21.1213 4.49007 21.1225H13.5101C14.1549 21.1213 14.771 20.8565 15.2134 20.39C15.6582 19.9247 15.9127 19.2764 15.9127 18.5859V6.90466C16.7967 6.67131 17.3696 5.82197 17.2513 4.91985C17.1329 4.01791 16.3602 3.34322 15.4455 3.34304H13.0046V2.75039C13.0074 2.25201 12.8093 1.77345 12.4545 1.42138C12.0998 1.0695 11.6178 0.873551 11.1167 0.877626H6.88343C6.3823 0.873551 5.90035 1.0695 5.5456 1.42138C5.19084 1.77345 4.99269 2.25201 4.99549 2.75039V3.34304H2.55464C1.63991 3.34322 0.86726 4.01791 0.748821 4.91985C0.630568 5.82197 1.2034 6.67131 2.0874 6.90466ZM13.5101 20.1742H4.49007C3.67497 20.1742 3.04087 19.4779 3.04087 18.5859V6.94633H14.9593V18.5859C14.9593 19.4779 14.3252 20.1742 13.5101 20.1742ZM5.94896 2.75039C5.94579 2.50352 6.04337 2.2659 6.21954 2.09163C6.39553 1.91735 6.63501 1.8216 6.88343 1.82586H11.1167C11.3651 1.8216 11.6046 1.91735 11.7806 2.09163C11.9568 2.26572 12.0543 2.50352 12.0512 2.75039V3.34304H5.94896V2.75039ZM2.55464 4.29127H15.4455C15.9194 4.29127 16.3036 4.67335 16.3036 5.14469C16.3036 5.61602 15.9194 5.9981 15.4455 5.9981H2.55464C2.0807 5.9981 1.69652 5.61602 1.69652 5.14469C1.69652 4.67335 2.0807 4.29127 2.55464 4.29127Z" fill="#FF1C1C"/>
<path id="Vector_3" d="M9.00124 8.30069C8.72169 8.30069 8.49512 8.51027 8.49512 8.76887V17.6175C8.49512 17.876 8.72169 18.0857 9.00124 18.0857C9.28079 18.0857 9.50736 17.876 9.50736 17.6175V8.76887C9.50736 8.51027 9.28079 8.30069 9.00124 8.30069Z" fill="#FF1C1C"/>
<path id="Vector_4" d="M6.28737 8.30069C6.00782 8.30069 5.78125 8.51027 5.78125 8.76887V17.6175C5.78125 17.876 6.00782 18.0857 6.28737 18.0857C6.56693 18.0857 6.79349 17.876 6.79349 17.6175V8.76887C6.79349 8.51027 6.56693 8.30069 6.28737 8.30069Z" fill="#FF1C1C"/>
</g>
</svg>
