<svg width="12" height="12" viewBox="0 0 12 12" fill="none" xmlns="http://www.w3.org/2000/svg">
<g id="Group 1171275269">
<path id="Vector" d="M4.60252 3.47571C4.62373 3.47552 4.62373 3.47552 4.64537 3.47533C4.69253 3.47501 4.73966 3.47526 4.78681 3.47551C4.82071 3.4754 4.85461 3.47526 4.88851 3.47509C4.98043 3.47472 5.07233 3.47486 5.16424 3.47512C5.26049 3.47532 5.35673 3.47513 5.45298 3.47501C5.6146 3.47486 5.77621 3.47505 5.93783 3.47544C6.12461 3.47587 6.31138 3.47573 6.49816 3.47529C6.65861 3.47492 6.81905 3.47487 6.97949 3.47508C7.07528 3.47521 7.17107 3.47522 7.26686 3.47496C7.35693 3.47473 7.44698 3.47489 7.53705 3.47535C7.57007 3.47546 7.6031 3.47543 7.63613 3.47525C7.68127 3.47503 7.72638 3.47531 7.77152 3.47571C7.79676 3.47574 7.822 3.47577 7.848 3.4758C7.95228 3.4912 8.01367 3.5416 8.08496 3.61664C8.13319 3.72051 8.1328 3.81574 8.11764 3.92836C8.07127 4.02822 8.01215 4.07683 7.91653 4.12946C7.85804 4.13982 7.80122 4.13889 7.74198 4.13732C7.72563 4.13721 7.70929 4.13709 7.69245 4.13697C7.6406 4.13653 7.58878 4.13552 7.53694 4.13449C7.50165 4.13409 7.46635 4.13372 7.43105 4.13339C7.34483 4.13251 7.25864 4.13112 7.17244 4.12946C7.18479 4.1493 7.19714 4.16914 7.20987 4.18957C7.37089 4.45101 7.37089 4.45101 7.41502 4.59829C7.42272 4.6231 7.43042 4.64791 7.43835 4.67347C7.45399 4.73278 7.45399 4.73278 7.45399 4.77301C7.46737 4.77258 7.48075 4.77216 7.49453 4.77173C7.55559 4.77005 7.61665 4.76901 7.67772 4.76798C7.69877 4.7673 7.71982 4.76663 7.74151 4.76593C7.86753 4.76434 7.9417 4.7685 8.0372 4.85345C8.11016 4.93026 8.12387 4.99186 8.12769 5.09478C8.12387 5.19769 8.11016 5.25929 8.0372 5.3361C7.92573 5.43526 7.82206 5.4262 7.67772 5.42157C7.6562 5.42121 7.63468 5.42085 7.61252 5.42047C7.55965 5.41953 7.50683 5.41821 7.45399 5.41655C7.45101 5.43177 7.44804 5.44699 7.44497 5.46267C7.39275 5.71882 7.26861 5.96746 7.092 6.16064C7.0759 6.17858 7.0598 6.19652 7.04321 6.215C6.75483 6.5205 6.36521 6.701 5.94475 6.71392C5.8797 6.71556 5.81467 6.71656 5.74961 6.71745C5.71583 6.71812 5.68205 6.71882 5.64827 6.71954C5.56642 6.72123 5.48456 6.72258 5.4027 6.72374C5.41313 6.73413 5.42356 6.74453 5.43431 6.75524C5.68803 7.00806 5.94163 7.261 6.19511 7.51407C6.3177 7.63645 6.44032 7.75878 6.56303 7.88103C6.66998 7.98758 6.77685 8.09419 6.88364 8.20089C6.94019 8.2574 6.99678 8.31386 7.05346 8.37024C7.1068 8.42331 7.16004 8.47647 7.21321 8.5297C7.23274 8.54922 7.25231 8.56871 7.27192 8.58816C7.29868 8.61473 7.32531 8.64142 7.35193 8.66813C7.36687 8.68303 7.38181 8.69794 7.39721 8.71329C7.48186 8.80937 7.48281 8.89348 7.48038 9.01808C7.46895 9.1247 7.41822 9.17402 7.34338 9.24511C7.24166 9.29234 7.14193 9.29732 7.03166 9.27779C6.94298 9.22472 6.86989 9.16201 6.79751 9.08896C6.78138 9.07293 6.78138 9.07293 6.76493 9.05658C6.72917 9.02098 6.69356 8.98524 6.65795 8.9495C6.63225 8.92385 6.60654 8.89822 6.58082 8.87259C6.51117 8.80312 6.44166 8.73354 6.37217 8.66392C6.2994 8.59105 6.22654 8.51829 6.15369 8.4455C6.03143 8.32331 5.90925 8.20104 5.78712 8.07871C5.64588 7.93726 5.5045 7.79595 5.36305 7.65472C5.24157 7.53342 5.12018 7.41205 4.99885 7.29062C4.92639 7.2181 4.85391 7.14561 4.78135 7.07318C4.71319 7.00514 4.64512 6.93699 4.57713 6.86877C4.55215 6.84373 4.52713 6.81873 4.50207 6.79376C4.46792 6.75971 4.43389 6.72555 4.39989 6.69135C4.38992 6.68147 4.37995 6.67158 4.36967 6.6614C4.28058 6.57129 4.25046 6.51089 4.24885 6.38437C4.25089 6.27964 4.26244 6.21884 4.33684 6.14053C4.42598 6.07084 4.4835 6.05002 4.59628 6.04975C4.6096 6.0496 4.62293 6.04946 4.63666 6.04931C4.68046 6.04893 4.72424 6.04909 4.76804 6.04925C4.7988 6.04905 4.82956 6.04881 4.86033 6.04853C4.94126 6.04788 5.02219 6.04767 5.10312 6.04759C5.23213 6.04741 5.36113 6.04668 5.49013 6.04573C5.53479 6.04548 5.57943 6.04549 5.62409 6.04554C5.98731 6.04453 6.28047 5.99951 6.54783 5.74075C6.61405 5.66996 6.66161 5.59912 6.70392 5.51184C6.71267 5.49393 6.72141 5.47603 6.73042 5.45758C6.73692 5.44404 6.74342 5.4305 6.75011 5.41655C6.73841 5.41662 6.72671 5.41669 6.71465 5.41677C6.42963 5.41855 6.14462 5.41988 5.85961 5.42071C5.72177 5.42113 5.58394 5.42169 5.44611 5.42261C5.31311 5.4235 5.18011 5.42397 5.0471 5.42418C4.99635 5.42433 4.94559 5.42462 4.89484 5.42505C4.82377 5.42563 4.75272 5.42572 4.68165 5.42568C4.66065 5.42597 4.63965 5.42626 4.61801 5.42655C4.49724 5.42587 4.42902 5.41611 4.33684 5.3361C4.26387 5.25929 4.25016 5.19769 4.24634 5.09478C4.25016 4.99186 4.26387 4.93026 4.33684 4.85345C4.44602 4.75869 4.54086 4.76193 4.68165 4.76387C4.70403 4.76386 4.72641 4.76385 4.74947 4.76384C4.82325 4.76389 4.89701 4.76452 4.97079 4.76515C5.02202 4.7653 5.07325 4.76541 5.12448 4.76549C5.24542 4.76577 5.36635 4.7664 5.48728 4.76721C5.62501 4.76811 5.76275 4.76855 5.90049 4.76896C6.1837 4.7698 6.46691 4.77121 6.75011 4.77301C6.72845 4.73124 6.7066 4.68957 6.68468 4.64794C6.67253 4.62473 6.66038 4.60151 6.64787 4.57759C6.52497 4.36698 6.33568 4.2611 6.11105 4.18571C5.93942 4.14327 5.76475 4.14662 5.58909 4.14618C5.543 4.14604 5.49691 4.14572 5.45083 4.14535C5.31992 4.1443 5.18902 4.14333 5.05811 4.14302C4.97771 4.14282 4.89731 4.14223 4.81691 4.14138C4.78642 4.14114 4.75593 4.14103 4.72543 4.14108C4.6828 4.14113 4.64019 4.14068 4.59755 4.14012C4.56126 4.13995 4.56126 4.13995 4.52424 4.13977C4.42134 4.12388 4.35951 4.07289 4.28907 3.99874C4.24085 3.89487 4.24123 3.79964 4.25639 3.68703C4.32666 3.53568 4.43935 3.4759 4.60252 3.47571Z" fill="#005CE8"/>
<path id="Vector_2" d="M11.4306 5.7691C11.6181 5.96512 11.6382 6.18533 11.6341 6.44739C11.6305 6.52007 11.6253 6.59239 11.6191 6.66491C11.6159 6.70433 11.6159 6.70433 11.6125 6.74455C11.5257 7.71057 11.1945 8.64659 10.6298 9.4371C10.6138 9.45973 10.6138 9.45973 10.5975 9.48282C10.4236 9.72737 10.2311 9.94719 10.0219 10.1619C10.0009 10.1839 9.97987 10.2058 9.95822 10.2284C9.51394 10.6847 8.96047 11.0398 8.38517 11.3076C8.36842 11.3154 8.35168 11.3232 8.33443 11.3313C7.95141 11.5071 7.54969 11.6276 7.13717 11.7124C7.12056 11.7159 7.10396 11.7193 7.08685 11.7229C6.7492 11.7873 6.40908 11.8076 6.066 11.806C6.04726 11.8059 6.02852 11.8059 6.00922 11.8058C5.69785 11.8046 5.39486 11.7868 5.08835 11.7285C5.0679 11.7247 5.04744 11.721 5.02637 11.7171C3.60976 11.4485 2.34241 10.6371 1.50849 9.46121C1.47743 9.41459 1.44687 9.36784 1.41743 9.32019C1.29304 9.35587 1.1885 9.41285 1.07693 9.47656C1.03943 9.49757 1.00192 9.51857 0.96441 9.53958C0.898867 9.57652 0.833606 9.61388 0.768589 9.65174C0.500676 9.80402 0.500676 9.80402 0.341873 9.78782C0.206189 9.74712 0.109778 9.68028 0.0352551 9.55807C-0.0514793 9.34537 0.0425359 9.09332 0.105956 8.88653C0.115558 8.85421 0.125125 8.82189 0.13466 8.78955C0.159748 8.70479 0.185285 8.62017 0.210928 8.53558C0.236375 8.45137 0.261417 8.36704 0.286479 8.28272C0.315858 8.1839 0.345312 8.08511 0.37518 7.98644C0.420156 7.8377 0.464184 7.68892 0.504894 7.53894C0.515511 7.50041 0.515512 7.50041 0.526344 7.46111C0.539184 7.41418 0.551685 7.36716 0.563754 7.32003C0.607321 7.16214 0.673302 7.0402 0.813434 6.94905C1.07132 6.86575 1.34548 6.98807 1.59526 7.06139C1.63016 7.07154 1.66507 7.08168 1.69998 7.09181C1.77285 7.11297 1.84569 7.13422 1.91852 7.15554C2.01073 7.18254 2.10298 7.20939 2.19525 7.23618C2.28462 7.26214 2.37396 7.28817 2.4633 7.31421C2.47978 7.319 2.49626 7.3238 2.51324 7.32874C2.60767 7.35625 2.70201 7.38404 2.79626 7.41218C2.82891 7.42188 2.86158 7.43148 2.89428 7.441C2.94485 7.45573 2.99531 7.47078 3.04577 7.48589C3.06097 7.49025 3.07617 7.49461 3.09184 7.4991C3.22778 7.54041 3.32728 7.59615 3.41364 7.70978C3.46743 7.8151 3.46916 7.91879 3.45163 8.0342C3.34484 8.3206 2.98148 8.4401 2.72739 8.57029C2.68783 8.59123 2.6493 8.61409 2.61108 8.63737C2.56313 8.6655 2.56313 8.6655 2.51637 8.6655C2.57904 8.78189 2.64721 8.8804 2.73411 8.9797C2.74548 8.99287 2.75685 9.00605 2.76857 9.01962C2.79113 9.04573 2.81375 9.07179 2.83643 9.0978C2.86247 9.12781 2.88812 9.15816 2.91367 9.18858C3.00669 9.29853 3.10684 9.39226 3.21782 9.48386C3.23553 9.49887 3.23553 9.49887 3.2536 9.51419C4.04354 10.1825 5.02488 10.5476 6.05869 10.5448C6.07581 10.5448 6.09294 10.5448 6.11058 10.5448C6.42356 10.5439 6.72352 10.5135 7.02903 10.4425C7.04841 10.438 7.0678 10.4335 7.08777 10.4289C7.94833 10.2218 8.81698 9.71815 9.3672 9.01623C9.37696 9.00403 9.38673 8.99182 9.3968 8.97925C10.033 8.18043 10.3119 7.29274 10.377 6.2823C10.3917 6.08548 10.4415 5.94612 10.5684 5.79248C10.8473 5.56672 11.1372 5.57724 11.4306 5.7691Z" fill="#005CE8"/>
<path id="Vector_3" d="M5.93422 0.194061C5.95295 0.194103 5.97169 0.194146 5.99099 0.19419C6.30236 0.195375 6.60535 0.213199 6.91186 0.271512C6.93231 0.275276 6.95277 0.27904 6.97384 0.282918C8.39045 0.551483 9.6578 1.36296 10.4917 2.5388C10.5228 2.58542 10.5533 2.63217 10.5828 2.67982C10.7072 2.64414 10.8117 2.58717 10.9233 2.52346C10.9608 2.50245 10.9983 2.48144 11.0358 2.46044C11.1013 2.4235 11.1666 2.38614 11.2316 2.34828C11.4995 2.196 11.4995 2.196 11.6583 2.21219C11.794 2.2529 11.8904 2.31973 11.965 2.44195C12.0517 2.65465 11.9577 2.90669 11.8943 3.11348C11.8847 3.1458 11.8751 3.17813 11.8656 3.21047C11.8405 3.29523 11.8149 3.37984 11.7893 3.46443C11.7638 3.54864 11.7388 3.63297 11.7137 3.71729C11.6844 3.81611 11.6549 3.9149 11.625 4.01358C11.5801 4.16232 11.536 4.31109 11.4953 4.46108C11.4882 4.48676 11.4812 4.51245 11.4739 4.53891C11.461 4.58583 11.4485 4.63285 11.4365 4.67998C11.3929 4.83788 11.3269 4.95981 11.1868 5.05096C10.9289 5.13426 10.6547 5.01194 10.405 4.93862C10.37 4.92847 10.3351 4.91834 10.3002 4.90821C10.2274 4.88704 10.1545 4.86579 10.0817 4.84447C9.98948 4.81748 9.89723 4.79063 9.80496 4.76383C9.71559 4.73787 9.62625 4.71184 9.53691 4.68581C9.52043 4.68101 9.50395 4.67622 9.48698 4.67127C9.39254 4.64376 9.2982 4.61597 9.20395 4.58783C9.1713 4.57814 9.13863 4.56854 9.10593 4.55902C9.05536 4.54428 9.0049 4.52923 8.95444 4.51413C8.93924 4.50977 8.92404 4.50541 8.90838 4.50092C8.77243 4.4596 8.67293 4.40387 8.58657 4.29024C8.53278 4.18491 8.53105 4.08122 8.54858 3.96582C8.65537 3.67941 9.01874 3.55992 9.27283 3.42973C9.31238 3.40878 9.35091 3.38593 9.38913 3.36264C9.43708 3.33451 9.43708 3.33451 9.48384 3.33451C9.42118 3.21813 9.35301 3.11962 9.2661 3.02032C9.25473 3.00714 9.24336 2.99397 9.23164 2.98039C9.20908 2.95429 9.18646 2.92822 9.16378 2.90221C9.13774 2.87221 9.1121 2.84186 9.08654 2.81144C8.99352 2.70149 8.89338 2.60776 8.78239 2.51615C8.77059 2.50615 8.75878 2.49614 8.74661 2.48583C7.95667 1.81752 6.97533 1.45241 5.94152 1.45521C5.9244 1.45521 5.90727 1.45522 5.88963 1.45522C5.57665 1.45612 5.27669 1.48649 4.97118 1.5575C4.9518 1.56201 4.93241 1.56651 4.91244 1.57115C4.05188 1.7782 3.18323 2.28187 2.63302 2.98379C2.61836 3.00209 2.61836 3.00209 2.60341 3.02076C1.96719 3.81958 1.68828 4.70727 1.6232 5.71772C1.60847 5.91454 1.5587 6.0539 1.43178 6.20753C1.25173 6.35329 1.08572 6.39654 0.85601 6.37413C0.675492 6.32239 0.532975 6.22301 0.439524 6.05847C0.338006 5.83331 0.360645 5.57595 0.38107 5.3351C0.383249 5.30882 0.385429 5.28254 0.387674 5.25547C0.474553 4.28944 0.805725 3.35343 1.37041 2.56292C1.38107 2.54783 1.39173 2.53274 1.40272 2.51719C1.57657 2.27264 1.76912 2.05283 1.97833 1.83808C1.99934 1.81614 2.02035 1.7942 2.04199 1.77159C2.48627 1.31534 3.03974 0.960188 3.61505 0.692382C3.63179 0.684576 3.64853 0.67677 3.66578 0.668727C4.0488 0.492882 4.45052 0.372431 4.86304 0.287587C4.87965 0.284144 4.89625 0.2807 4.91336 0.277152C5.25102 0.212679 5.59114 0.192421 5.93422 0.194061Z" fill="#005CE8"/>
</g>
</svg>
