<svg width="15" height="20" viewBox="0 0 15 20" fill="none" xmlns="http://www.w3.org/2000/svg">
<g id="Group">
<path id="Vector" d="M14.831 4.78431L10.2157 0.169038C10.108 0.0612692 9.96092 0 9.80769 0H1.73077C0.776423 0 0 0.776423 0 1.73077V17.9615C0 18.9159 0.776423 19.6923 1.73077 19.6923H13.2692C14.2236 19.6923 15 18.9159 15 17.9615V5.19231C15 5.035 14.934 4.88727 14.831 4.78431ZM10.3846 1.96973L13.0303 4.61538H10.9615C10.6434 4.61538 10.3846 4.35658 10.3846 4.03846V1.96973ZM13.2692 18.5385H1.73077C1.41265 18.5385 1.15385 18.2797 1.15385 17.9615V1.73077C1.15385 1.41265 1.41265 1.15385 1.73077 1.15385H9.23077V4.03846C9.23077 4.99281 10.0072 5.76923 10.9615 5.76923H13.8462V17.9615C13.8462 18.2797 13.5873 18.5385 13.2692 18.5385Z" fill="#005CE8"/>
<path id="Vector_2" d="M10.9609 8.1539H4.03786C3.71925 8.1539 3.46094 8.41221 3.46094 8.73082C3.46094 9.04944 3.71925 9.30775 4.03786 9.30775H10.9609C11.2796 9.30775 11.5379 9.04944 11.5379 8.73082C11.5379 8.41221 11.2796 8.1539 10.9609 8.1539Z" fill="#005CE8"/>
<path id="Vector_3" d="M10.9609 10.4616H4.03786C3.71925 10.4616 3.46094 10.7199 3.46094 11.0386C3.46094 11.3572 3.71925 11.6155 4.03786 11.6155H10.9609C11.2796 11.6155 11.5379 11.3572 11.5379 11.0386C11.5379 10.7199 11.2796 10.4616 10.9609 10.4616Z" fill="#005CE8"/>
<path id="Vector_4" d="M10.9609 12.7692H4.03786C3.71925 12.7692 3.46094 13.0275 3.46094 13.3461C3.46094 13.6647 3.71925 13.923 4.03786 13.923H10.9609C11.2796 13.923 11.5379 13.6647 11.5379 13.3461C11.5379 13.0275 11.2796 12.7692 10.9609 12.7692Z" fill="#005CE8"/>
<path id="Vector_5" d="M8.65324 15.0769H4.03786C3.71925 15.0769 3.46094 15.3352 3.46094 15.6538C3.46094 15.9724 3.71925 16.2308 4.03786 16.2308H8.65324C8.97186 16.2308 9.23017 15.9724 9.23017 15.6538C9.23017 15.3352 8.97186 15.0769 8.65324 15.0769Z" fill="#005CE8"/>
</g>
</svg>
