<svg width="25" height="25" viewBox="0 0 25 25" fill="none" xmlns="http://www.w3.org/2000/svg">
<g id="Group 4">
<path id="Vector" d="M9.1803 5.37124C9.1803 8.33294 11.5898 10.7427 14.5515 10.7427C17.5132 10.7427 19.9228 8.33294 19.9228 5.37124C19.9228 2.40954 17.5132 0 14.5515 0C11.5898 0 9.1803 2.40954 9.1803 5.37124ZM18.9463 5.37124C18.9463 7.79452 16.9748 9.766 14.5515 9.766C12.1283 9.766 10.1568 7.79452 10.1568 5.37124C10.1568 2.94815 12.1283 0.976677 14.5515 0.976677C16.9748 0.976677 18.9463 2.94815 18.9463 5.37124Z" fill="#2C64E3"/>
<path id="Vector_2" d="M5.62438 24.8636C5.81365 25.0544 6.12178 25.0565 6.31353 24.8676L8.68091 22.5353C9.0831 22.1331 9.2054 21.5377 9.02853 21.02L9.53776 20.5289C9.81194 20.2641 10.1729 20.1182 10.5545 20.1182H17.0459C18.1975 20.1182 19.286 19.6759 20.1112 18.8728C20.1452 18.8398 19.8534 19.1834 24.5397 13.5825C25.2348 12.7602 25.1308 11.5253 24.3077 10.8295C23.4898 10.1402 22.2645 10.2392 21.5675 11.0474L18.6862 14.0089C18.3223 13.5611 17.7675 13.282 17.168 13.282H11.7229C10.9481 12.9578 10.126 12.7937 9.27771 12.7937C6.92636 12.7937 4.87322 13.8797 3.77139 15.9159C3.30718 15.8279 2.8176 15.9684 2.4654 16.3206L0.142476 18.6504C-0.0471736 18.8406 -0.0475552 19.1483 0.141713 19.3391L5.62438 24.8636ZM9.27752 13.7702C10.0254 13.7702 10.7485 13.9208 11.4272 14.2176C11.489 14.2447 11.5556 14.2587 11.623 14.2587H17.168C17.6975 14.2587 18.1447 14.6904 18.1447 15.2352C18.1447 15.7738 17.7066 16.2118 17.168 16.2118H13.184C12.9144 16.2118 12.6958 16.4305 12.6958 16.7001C12.6958 16.9699 12.9144 17.1883 13.184 17.1883H17.168C18.245 17.1883 19.1212 16.3122 19.1212 15.2352C19.1212 15.1493 19.1151 15.0642 19.104 14.9799C21.8913 12.1147 22.2844 11.7121 22.3011 11.6921C22.6492 11.2813 23.2669 11.2292 23.6779 11.5757C24.0893 11.9235 24.1414 12.5409 23.7924 12.954L19.4127 18.1898C18.7732 18.8038 17.9335 19.1417 17.0459 19.1417H10.5545C9.9184 19.1417 9.31625 19.3849 8.85949 19.8262L8.44451 20.2267L4.61909 16.4015C5.51315 14.7242 7.1908 13.7702 9.27752 13.7702ZM3.15646 17.0107C3.31749 16.8497 3.56476 16.8207 3.76108 16.942C3.8456 16.9935 3.60291 16.7726 7.99042 21.154C8.18561 21.3492 8.17511 21.6602 7.99309 21.8422L5.97487 23.8304L1.17696 18.9959L3.15646 17.0107Z" fill="#2C64E3"/>
<path id="Vector_3" d="M13.965 2.44156V3.01375C13.3967 3.21523 12.9884 3.75804 12.9884 4.39472C12.9884 5.20235 13.6455 5.85964 14.4533 5.85964C14.7225 5.85964 14.9415 6.07867 14.9415 6.34788C14.9415 6.61709 14.7225 6.83613 14.4533 6.83613C14.2447 6.83613 14.0194 6.70505 13.8193 6.46675C13.6457 6.26031 13.3377 6.23379 13.1313 6.40722C12.9248 6.58084 12.8981 6.88879 13.0717 7.09522C13.3328 7.40565 13.6397 7.62201 13.965 7.73114V8.30105C13.965 8.57083 14.1837 8.78929 14.4533 8.78929C14.7229 8.78929 14.9415 8.57083 14.9415 8.30105V7.72885C15.5099 7.52718 15.9182 6.98437 15.9182 6.34788C15.9182 5.54006 15.2611 4.88296 14.4533 4.88296C14.1841 4.88296 13.965 4.66393 13.965 4.39472C13.965 4.12551 14.1841 3.90629 14.4533 3.90629C14.6263 3.90629 14.8089 3.99463 14.9814 4.16157C15.1753 4.34912 15.4843 4.34397 15.6719 4.15031C15.8594 3.95647 15.8543 3.64738 15.6606 3.45983C15.4128 3.22 15.1648 3.08434 14.9415 3.01032V2.44156C14.9415 2.17178 14.7229 1.95312 14.4533 1.95312C14.1837 1.95312 13.965 2.17178 13.965 2.44156Z" fill="#2C64E3"/>
</g>
</svg>
