<svg width="18" height="18" viewBox="0 0 18 18" fill="none" xmlns="http://www.w3.org/2000/svg">
<g id="g1389">
<g id="g1391">
<g id="Clip path group">
<mask id="mask0_583_14659" style="mask-type:luminance" maskUnits="userSpaceOnUse" x="0" y="0" width="18" height="18">
<g id="clipPath1397">
<path id="path1395" d="M17.5 17.5V0.5H0.5V17.5H17.5Z" fill="white" stroke="white"/>
</g>
</mask>
<g mask="url(#mask0_583_14659)">
<g id="g1393">
<g id="g1399">
<path id="path1401" d="M8.68359 5.44922C8.68359 5.06088 8.99842 4.74609 9.38672 4.74609H15.7148C15.8436 4.74609 15.9626 4.78322 16.0664 4.84362V1.93359C16.0664 1.15692 15.4368 0.527344 14.6602 0.527344H1.93359C1.15692 0.527344 0.527344 1.15692 0.527344 1.93359V10.3711C0.527344 11.1477 1.15692 11.7773 1.93359 11.7773H8.68359V5.44922Z" stroke="#005CE8" stroke-miterlimit="10" stroke-linecap="round" stroke-linejoin="round"/>
</g>
<g id="g1403">
<path id="path1405" d="M8.68359 9.66797H0.527344V10.3711C0.527344 11.1477 1.15692 11.7773 1.93359 11.7773H8.68359V9.66797Z" stroke="#005CE8" stroke-miterlimit="10" stroke-linecap="round" stroke-linejoin="round"/>
</g>
<g id="g1407">
<path id="path1409" d="M16.418 7.62891V5.44922C16.418 5.06088 16.1031 4.74609 15.7148 4.74609H9.38672C8.99842 4.74609 8.68359 5.06088 8.68359 5.44922V15.9961C8.68359 16.3844 8.99842 16.6992 9.38672 16.6992H11.8477" stroke="#005CE8" stroke-miterlimit="10" stroke-linecap="round" stroke-linejoin="round"/>
</g>
<g id="g1411">
<path id="path1413" d="M16.7695 17.4727H12.5508C12.1624 17.4727 11.8477 17.1578 11.8477 16.7695V8.33203C11.8477 7.9437 12.1624 7.62891 12.5508 7.62891H16.7695C17.1578 7.62891 17.4727 7.9437 17.4727 8.33203V16.7695C17.4727 17.1578 17.1578 17.4727 16.7695 17.4727Z" stroke="#005CE8" stroke-miterlimit="10" stroke-linecap="round" stroke-linejoin="round"/>
</g>
<g id="g1415">
<path id="path1417" d="M11.8477 15.3633H17.4727" stroke="#005CE8" stroke-miterlimit="10" stroke-linecap="round" stroke-linejoin="round"/>
</g>
<g id="g1419">
<path id="path1421" d="M8.68359 14.5898H11.8477" stroke="#005CE8" stroke-miterlimit="10" stroke-linecap="round" stroke-linejoin="round"/>
</g>
<g id="g1423">
<path id="path1425" d="M8.68359 13.8867H5.83594L6.53906 11.7773H8.68359V13.8867Z" stroke="#005CE8" stroke-miterlimit="10" stroke-linecap="round" stroke-linejoin="round"/>
</g>
<g id="g1427">
<path id="path1429" d="M8.68359 13.8867H5.13281C4.55034 13.8867 4.07812 14.3589 4.07812 14.9414V15.9961H8.68359V13.8867Z" stroke="#005CE8" stroke-miterlimit="10" stroke-linecap="round" stroke-linejoin="round"/>
</g>
</g>
</g>
</g>
</g>
</g>
</svg>
