<svg width="248" height="208" viewBox="0 0 248 208" fill="none" xmlns="http://www.w3.org/2000/svg">
<path id="Ellipse 3" opacity="0.5" d="M45.067 202.933C42.4127 205.587 41.0855 206.914 39.4512 207.522C37.5215 208.24 35.0029 208.117 33.1527 207.214C31.5856 206.449 30.5122 205.142 28.3654 202.527C15.484 186.84 6.6182 168.171 2.634 148.141C-2.14067 124.137 0.309873 99.2565 9.67575 76.6453C19.0416 54.0341 34.9021 34.708 55.2517 21.1109C75.6012 7.51375 99.5258 0.25631 124 0.256307C148.474 0.256317 172.399 7.51375 192.748 21.1109C213.098 34.708 228.958 54.0341 238.324 76.6453C247.69 99.2565 250.141 124.137 245.366 148.141C241.382 168.171 232.516 186.84 219.635 202.527C217.488 205.142 216.414 206.449 214.847 207.214C212.997 208.117 210.478 208.24 208.549 207.523C206.914 206.914 205.587 205.587 202.933 202.933C200.198 200.198 198.831 198.831 198.226 197.449C197.4 195.563 197.3 193.919 197.891 191.946C198.323 190.501 199.679 188.767 202.391 185.299C211.949 173.077 218.552 158.741 221.6 143.414C225.44 124.11 223.469 104.102 215.938 85.9182C208.406 67.7347 195.651 52.193 179.286 41.2584C162.921 30.3238 143.682 24.4875 124 24.4875C104.318 24.4875 85.0786 30.3238 68.7138 41.2584C52.3491 52.193 39.5943 67.7347 32.0625 85.9182C24.5306 104.102 22.5599 124.11 26.3996 143.414C29.4484 158.741 36.0514 173.077 45.6088 185.299C48.3207 188.767 49.6767 190.501 50.1093 191.946C50.6999 193.919 50.5996 195.563 49.7739 197.449C49.169 198.831 47.8017 200.198 45.067 202.933Z" fill="url(#paint0_linear_359_11189)"/>
<defs>
<linearGradient id="paint0_linear_359_11189" x1="-51" y1="124" x2="144.858" y2="-49.7525" gradientUnits="userSpaceOnUse">
<stop stop-color="#54AB6A"/>
<stop offset="1" stop-color="#0099FF"/>
</linearGradient>
</defs>
</svg>
