<svg width="20" height="20" viewBox="0 0 20 20" fill="none" xmlns="http://www.w3.org/2000/svg">
<g id="Group 1171275277">
<path id="Vector" d="M9.61103 4.33733C9.65426 4.33692 9.65426 4.33692 9.69837 4.3365C9.79077 4.33582 9.88317 4.33557 9.97557 4.3355C10.0229 4.33546 10.0229 4.33546 10.0712 4.33542C10.5263 4.33602 10.9599 4.35112 11.4033 4.46219C11.4312 4.46867 11.4591 4.47515 11.4879 4.48183C12.3962 4.69388 13.2138 5.11568 13.8981 5.7486C13.9284 5.77626 13.9284 5.77626 13.9592 5.80448C14.9653 6.73489 15.5184 8.06152 15.6523 9.41291C15.6556 9.51508 15.6575 9.61615 15.657 9.71827C15.6571 9.76189 15.6571 9.76189 15.6571 9.80639C15.6572 9.90293 15.657 9.99947 15.6568 10.096C15.6567 10.1656 15.6568 10.2351 15.6568 10.3047C15.6568 10.4929 15.6566 10.6811 15.6563 10.8693C15.656 11.0662 15.656 11.2631 15.656 11.46C15.6559 11.8327 15.6555 12.2053 15.6551 12.5779C15.6547 13.0022 15.6545 13.4265 15.6543 13.8508C15.6539 14.7234 15.6532 15.5961 15.6523 16.4687C15.6815 16.4684 15.7106 16.4681 15.7406 16.4678C15.779 16.4676 15.8174 16.4674 15.857 16.4672C15.8949 16.4669 15.9329 16.4667 15.9721 16.4664C16.6106 16.4796 17.2574 16.8265 17.7184 17.2483C17.745 17.2713 17.7715 17.2943 17.7989 17.318C18.3375 17.8134 18.6503 18.5471 18.704 19.2685C18.7139 19.6776 18.7139 19.6776 18.576 19.8601C18.4387 19.9943 18.3262 19.9917 18.1385 19.992C18.11 19.9922 18.0814 19.9924 18.052 19.9926C17.9559 19.9931 17.8597 19.9927 17.7636 19.9924C17.6941 19.9926 17.6247 19.9928 17.5553 19.9931C17.3641 19.9938 17.1729 19.9937 16.9817 19.9935C16.7756 19.9934 16.5696 19.9939 16.3635 19.9944C15.9597 19.9952 15.5559 19.9954 15.152 19.9953C14.8239 19.9953 14.4957 19.9954 14.1676 19.9957C14.0731 19.9958 13.9787 19.9959 13.8843 19.996C13.8138 19.996 13.8138 19.996 13.7419 19.9961C12.8526 19.9968 11.9633 19.9968 11.0741 19.9965C10.26 19.9963 9.44597 19.9971 8.63192 19.9984C7.79663 19.9997 6.96135 20.0003 6.12606 20.0001C5.65688 20 5.18771 20.0003 4.71853 20.0012C4.3191 20.002 3.91968 20.0022 3.52025 20.0014C3.31637 20.0011 3.1125 20.001 2.90862 20.0018C2.72207 20.0026 2.53554 20.0024 2.34899 20.0015C2.28142 20.0013 2.21384 20.0015 2.14627 20.002C2.05454 20.0027 1.96289 20.0022 1.87116 20.0013C1.79469 20.0014 1.79469 20.0014 1.71667 20.0014C1.53702 19.9694 1.47404 19.9098 1.34593 19.7821C1.17774 19.4457 1.32964 18.8822 1.43417 18.5402C1.57555 18.1292 1.79339 17.7636 2.08659 17.4432C2.1096 17.4166 2.13261 17.39 2.15633 17.3627C2.59258 16.8883 3.27703 16.5381 3.91874 16.4687C3.99405 16.4671 4.06939 16.4666 4.14472 16.4671C4.20191 16.4675 4.20191 16.4675 4.26025 16.4678C4.28906 16.4681 4.31786 16.4684 4.34754 16.4687C4.34744 16.433 4.34733 16.3973 4.34722 16.3605C4.34463 15.4894 4.34269 14.6183 4.34148 13.7472C4.34088 13.3259 4.34006 12.9046 4.33872 12.4833C4.33755 12.1158 4.3368 11.7483 4.33654 11.3808C4.33639 11.1865 4.33604 10.9922 4.33518 10.7979C4.33438 10.6144 4.33414 10.4309 4.33432 10.2474C4.33428 10.1807 4.33406 10.1139 4.3336 10.0471C4.32968 9.44089 4.39536 8.84341 4.56925 8.2605C4.57919 8.22675 4.58913 8.193 4.59937 8.15822C5.01248 6.80719 5.92238 5.64729 7.1713 4.97627C7.92051 4.58989 8.76416 4.34273 9.61103 4.33733ZM6.41115 6.80842C5.57653 7.78075 5.26112 9.02563 5.26984 10.2819C5.26987 10.351 5.26986 10.4202 5.26979 10.4894C5.26977 10.6723 5.27044 10.8552 5.27127 11.0381C5.27194 11.2106 5.27197 11.3831 5.27205 11.5556C5.27266 12.0579 5.27429 12.5603 5.2758 13.0626C5.27821 14.1866 5.28063 15.3106 5.28311 16.4687C8.39622 16.4687 11.5093 16.4687 14.7168 16.4687C14.7192 15.3519 14.7216 14.2351 14.7241 13.0845C14.7251 12.7331 14.7262 12.3816 14.7273 12.0196C14.7277 11.702 14.7277 11.702 14.7279 11.3845C14.728 11.2441 14.7285 11.1036 14.7291 10.9632C14.7299 10.7832 14.7302 10.6031 14.73 10.4231C14.73 10.3576 14.7302 10.2921 14.7307 10.2266C14.7397 8.87692 14.3377 7.58545 13.386 6.59996C12.6675 5.87799 11.8081 5.50191 10.8186 5.31979C10.7775 5.31221 10.7364 5.30462 10.694 5.2968C9.0541 5.12002 7.54828 5.59504 6.41115 6.80842ZM2.63964 18.274C2.47999 18.4885 2.32048 18.7692 2.32048 19.0415C7.38892 19.0415 12.4574 19.0415 17.6794 19.0415C17.5561 18.4868 17.2878 18.0619 16.8089 17.7436C16.367 17.4705 15.9396 17.3863 15.4222 17.3894C15.3737 17.3892 15.3253 17.389 15.2754 17.3888C15.1422 17.3884 15.0091 17.3886 14.8759 17.3889C14.7318 17.3892 14.5876 17.3888 14.4435 17.3885C14.1617 17.388 13.8799 17.3881 13.598 17.3884C13.3689 17.3887 13.1397 17.3887 12.9105 17.3886C12.8779 17.3886 12.8452 17.3885 12.8115 17.3885C12.7451 17.3885 12.6786 17.3884 12.6122 17.3884C11.9902 17.3881 11.3683 17.3885 10.7463 17.3891C10.2133 17.3896 9.68034 17.3895 9.14736 17.389C8.52752 17.3884 7.90768 17.3881 7.28784 17.3885C7.22167 17.3885 7.1555 17.3885 7.08933 17.3886C7.05678 17.3886 7.02422 17.3886 6.99068 17.3886C6.76196 17.3887 6.53323 17.3886 6.3045 17.3883C6.02553 17.388 5.74656 17.388 5.46758 17.3887C5.32541 17.389 5.18325 17.3891 5.04108 17.3887C4.8866 17.3883 4.73214 17.3888 4.57767 17.3894C4.51102 17.389 4.51102 17.389 4.44304 17.3886C3.68846 17.3941 3.1216 17.6994 2.63964 18.274Z" fill="#005CE8"/>
<path id="Vector_2" d="M11.7698 6.62076C12.7322 7.12519 13.3523 8.04959 13.6789 9.06906C13.8609 9.66914 14.0294 10.3821 13.9371 11.0112C13.8567 11.1614 13.7912 11.2695 13.6253 11.323C13.4777 11.3485 13.3353 11.3559 13.201 11.2834C13.0641 11.1736 13.0108 11.0865 12.9895 10.913C12.986 10.8742 12.9826 10.8355 12.979 10.7955C12.8702 9.65375 12.6211 8.53182 11.7162 7.74276C11.5426 7.61907 11.355 7.52454 11.1616 7.43529C11.0185 7.36636 10.9473 7.32569 10.8574 7.19015C10.8066 7.03834 10.8079 6.91248 10.8575 6.76211C11.079 6.39333 11.4235 6.45216 11.7698 6.62076Z" fill="#005CE8"/>
<path id="Vector_3" d="M17.0623 9.51913C17.104 9.51883 17.104 9.51883 17.1466 9.51853C17.2385 9.51798 17.3304 9.51802 17.4222 9.51811C17.4862 9.51796 17.5502 9.51779 17.6142 9.5176C17.7483 9.51731 17.8823 9.51733 18.0164 9.51753C18.188 9.51776 18.3596 9.5171 18.5312 9.51619C18.6634 9.51562 18.7955 9.51558 18.9276 9.5157C18.9909 9.51568 19.0542 9.51548 19.1174 9.51509C19.206 9.51461 19.2945 9.51487 19.3831 9.51532C19.4334 9.5153 19.4837 9.51527 19.5356 9.51525C19.7109 9.53463 19.8119 9.59335 19.9319 9.72018C20.0182 9.87025 20.0081 10.0253 19.9794 10.1925C19.9056 10.3336 19.8209 10.4143 19.6675 10.4654C19.5761 10.4697 19.4846 10.4716 19.3931 10.4723C19.3654 10.4726 19.3376 10.4728 19.309 10.4731C19.2171 10.4738 19.1252 10.4743 19.0333 10.4747C18.9862 10.4749 18.9862 10.4749 18.9381 10.4752C18.7717 10.476 18.6054 10.4765 18.4391 10.4769C18.2675 10.4773 18.0959 10.4787 17.9243 10.4802C17.7922 10.4813 17.6601 10.4816 17.5279 10.4817C17.4647 10.4819 17.4015 10.4824 17.3382 10.4831C17.2496 10.484 17.161 10.484 17.0723 10.4837C17.022 10.484 16.9716 10.4842 16.9197 10.4844C16.7579 10.4619 16.675 10.4117 16.549 10.3095C16.4387 10.1441 16.4455 9.99694 16.471 9.80271C16.6184 9.54994 16.7826 9.52013 17.0623 9.51913Z" fill="#005CE8"/>
<path id="Vector_4" d="M0.606812 9.52295C0.634589 9.52269 0.662366 9.52243 0.690985 9.52217C0.782878 9.5214 0.874768 9.52095 0.966663 9.52056C1.0138 9.52032 1.0138 9.52032 1.06189 9.52008C1.22822 9.51926 1.39455 9.51871 1.56088 9.51834C1.73247 9.51791 1.90404 9.51657 2.07562 9.51502C2.20775 9.514 2.33988 9.51368 2.47201 9.51354C2.53525 9.51335 2.59849 9.51289 2.66173 9.51217C2.75037 9.51122 2.83897 9.51126 2.92761 9.51153C2.97799 9.5113 3.02836 9.51107 3.08026 9.51083C3.24205 9.53331 3.325 9.58357 3.45101 9.68578C3.56128 9.85119 3.55441 9.99831 3.52897 10.1925C3.4464 10.3341 3.3685 10.4069 3.21711 10.4654C3.09016 10.4756 3.09016 10.4756 2.9377 10.4761C2.90986 10.4763 2.88201 10.4765 2.85332 10.4767C2.76145 10.4773 2.66959 10.4772 2.57772 10.4771C2.51373 10.4773 2.44975 10.4775 2.38576 10.4776C2.2517 10.4779 2.11765 10.4779 1.98359 10.4777C1.81196 10.4775 1.64035 10.4782 1.46872 10.4791C1.33659 10.4796 1.20446 10.4797 1.07233 10.4795C1.00906 10.4796 0.945784 10.4798 0.882515 10.4802C0.793966 10.4806 0.705449 10.4804 0.6169 10.4799C0.566557 10.48 0.516215 10.48 0.464346 10.48C0.289103 10.4606 0.188081 10.4019 0.0680965 10.2751C-0.0182902 10.125 -0.00812112 9.96997 0.0205872 9.80272C0.155444 9.54489 0.336179 9.52501 0.606812 9.52295Z" fill="#005CE8"/>
<path id="Vector_5" d="M10.1948 0.0182373C10.3359 0.0920439 10.4165 0.176694 10.4677 0.330094C10.472 0.421478 10.4739 0.51298 10.4746 0.604462C10.4748 0.632239 10.4751 0.660016 10.4753 0.688635C10.4761 0.780528 10.4766 0.872418 10.477 0.964313C10.4771 0.995739 10.4773 1.02717 10.4774 1.05954C10.4782 1.22587 10.4788 1.3922 10.4792 1.55853C10.4796 1.73012 10.4809 1.90169 10.4825 2.07327C10.4835 2.2054 10.4838 2.33753 10.484 2.46966C10.4842 2.5329 10.4846 2.59614 10.4853 2.65938C10.4863 2.74802 10.4863 2.83662 10.486 2.92526C10.4863 3.00082 10.4863 3.00082 10.4867 3.07791C10.4642 3.2397 10.4139 3.32265 10.3117 3.44866C10.1463 3.55893 9.9992 3.55206 9.80497 3.52662C9.66342 3.44405 9.59063 3.36615 9.53209 3.21476C9.52193 3.08781 9.52193 3.08781 9.52139 2.93535C9.52119 2.90751 9.52099 2.87966 9.52078 2.85097C9.52024 2.7591 9.52028 2.66724 9.52037 2.57537C9.52022 2.51138 9.52005 2.4474 9.51986 2.38341C9.51957 2.24935 9.51958 2.1153 9.51979 1.98124C9.52001 1.80961 9.51935 1.638 9.51845 1.46637C9.51788 1.33424 9.51784 1.20211 9.51796 1.06998C9.51794 1.00671 9.51774 0.943434 9.51735 0.880165C9.51686 0.791616 9.51713 0.703099 9.51758 0.61455C9.51756 0.564207 9.51753 0.513865 9.51751 0.461996C9.53689 0.286753 9.59561 0.185731 9.72244 0.0657467C9.87251 -0.0206401 10.0275 -0.010471 10.1948 0.0182373Z" fill="#005CE8"/>
<path id="Vector_6" d="M17.3358 2.73725C17.4584 2.8218 17.5106 2.91442 17.5388 3.06067C17.5583 3.32306 17.4543 3.45095 17.2895 3.64358C17.1713 3.77218 17.0489 3.8961 16.9253 4.01954C16.8907 4.0543 16.8561 4.08905 16.8205 4.12486C16.7292 4.21642 16.6377 4.30777 16.5462 4.39907C16.4717 4.47355 16.3976 4.54839 16.3235 4.62323C16.2345 4.71301 16.145 4.80236 16.0555 4.89176C16.0225 4.92514 15.9895 4.95852 15.9555 4.99291C15.7609 5.18598 15.6028 5.34061 15.3209 5.37584C15.1579 5.35547 15.0771 5.30584 14.9506 5.20286C14.8709 5.08332 14.8575 5.04145 14.8507 4.90318C14.8483 4.87168 14.8458 4.84017 14.8433 4.80771C14.9257 4.49476 15.3003 4.22204 15.5221 3.99838C15.5575 3.96266 15.5929 3.92695 15.6294 3.89015C15.7038 3.81518 15.7782 3.74031 15.8528 3.66549C15.9479 3.56987 16.0427 3.47381 16.1373 3.37765C16.2283 3.28536 16.3199 3.19361 16.4114 3.10179C16.4451 3.06736 16.4789 3.03292 16.5136 2.99745C16.5455 2.96568 16.5774 2.93392 16.6103 2.90119C16.638 2.87322 16.6657 2.84524 16.6943 2.81642C16.9045 2.6514 17.0918 2.65359 17.3358 2.73725Z" fill="#005CE8"/>
<path id="Vector_7" d="M3.17816 2.78595C3.33722 2.88053 3.46773 2.98774 3.59839 3.11814C3.63324 3.15274 3.66809 3.18735 3.704 3.223C3.7413 3.26044 3.7786 3.29789 3.81588 3.33536C3.85467 3.3741 3.89348 3.41283 3.9323 3.45155C4.01329 3.53243 4.09413 3.61344 4.17488 3.69455C4.27825 3.79837 4.38197 3.90183 4.4858 4.00519C4.56587 4.08498 4.64575 4.16495 4.72557 4.24497C4.76375 4.2832 4.80198 4.32137 4.84028 4.35948C4.89373 4.41274 4.94691 4.46627 5.00007 4.51982C5.03036 4.55016 5.06064 4.58051 5.09184 4.61177C5.20157 4.7361 5.24048 4.81848 5.25882 4.98356C5.2415 5.15102 5.19369 5.22926 5.08828 5.35877C4.95866 5.44518 4.89191 5.4668 4.73744 5.47571C4.35837 5.3634 4.08574 5.02554 3.81222 4.7547C3.78102 4.72381 3.74982 4.69292 3.71767 4.6611C3.65223 4.59619 3.58684 4.53123 3.52151 4.46621C3.45493 4.40007 3.38817 4.33411 3.32124 4.26833C3.22382 4.17258 3.12693 4.07632 3.03015 3.97993C3.00038 3.95085 2.97061 3.92176 2.93995 3.8918C2.73708 3.6881 2.55444 3.4902 2.55444 3.18795C2.60555 3.01865 2.67677 2.91648 2.82001 2.81275C2.94687 2.77288 3.0458 2.77226 3.17816 2.78595Z" fill="#005CE8"/>
</g>
</svg>
