<svg width="20" height="20" viewBox="0 0 20 20" fill="none" xmlns="http://www.w3.org/2000/svg">
<g id="Group 1171275283" opacity="0.5">
<path id="Vector" d="M18.7319 0.753342L18.4095 0.673065C14.8366 -0.216689 11.1 -0.216689 7.52711 0.673065L7.20502 0.753342C6.45914 0.938911 5.93578 1.60909 5.9366 2.37769V4.70916C4.27203 5.18069 2.66714 5.84236 1.15397 6.68111L0.861641 6.84215C0.189176 7.21362 -0.14256 7.99644 0.058051 8.73807L1.0325 12.3818C1.91097 15.652 4.32844 18.2886 7.51027 19.447L8.51479 19.8153C9.70636 20.2439 11.0387 19.8861 11.8552 18.9182L12.5411 18.0989C13.1795 17.3393 13.7035 16.4906 14.0968 15.5795C14.3078 15.4975 14.5091 15.3916 14.6965 15.2641L15.5723 14.651C18.3461 12.7075 19.9984 9.53381 20 6.14696V2.37769C20.0008 1.60925 19.4776 0.939075 18.7319 0.753342ZM12.0284 17.6686L11.3423 18.4886C10.707 19.2413 9.67072 19.5196 8.74385 19.186L7.73933 18.8178C4.76285 17.734 2.50136 15.2675 1.67946 12.2083L0.704683 8.5646C0.584676 8.12021 0.783326 7.65146 1.18618 7.42878L1.47819 7.26773C2.89097 6.48442 4.38616 5.86002 5.9366 5.40599V6.14696C5.93889 9.14632 7.23755 11.998 9.49823 13.969C8.90931 14.2084 8.28753 14.3578 7.65398 14.4119L5.13596 14.6161C4.98358 14.6282 4.85866 14.742 4.8325 14.8928C4.80634 15.0435 4.88564 15.1928 5.0251 15.2554L8.36323 16.7622C9.09014 17.0916 9.9485 16.8621 10.4141 16.2137L11.1446 15.1975L11.2401 15.2644C11.7468 15.6182 12.3503 15.8077 12.9683 15.8069C13.0687 15.8069 13.1658 15.7941 13.2646 15.7845C12.9282 16.4591 12.5133 17.0915 12.0284 17.6686ZM10.0886 14.4461C10.18 14.5131 10.2691 14.5854 10.3631 14.651L10.595 14.8131L9.86904 15.8232C9.58946 16.2119 9.07445 16.3492 8.6384 16.1514L6.48301 15.1804L7.70793 15.08C8.53261 15.0108 9.33866 14.7963 10.0886 14.4461ZM19.3303 6.14696C19.329 9.31538 17.7833 12.284 15.1886 14.1023L14.3127 14.7154C13.5047 15.2783 12.4317 15.2783 11.6239 14.7154L10.7483 14.1023C8.15346 12.2842 6.6076 9.31538 6.60629 6.14696V2.37769C6.60629 1.91679 6.91988 1.51508 7.36704 1.40324L7.68946 1.32264C11.1558 0.45921 14.7808 0.45921 18.2471 1.32264L18.5696 1.40324C19.0166 1.51508 19.3303 1.91679 19.3303 2.37769V6.14696Z" fill="black"/>
<path id="Vector_2" d="M11.7268 6.2565L12.1835 5.76634C11.1366 4.72192 9.44197 4.72192 8.39509 5.76634L8.37842 5.78301L8.86858 6.23983C9.24822 5.86002 9.76422 5.64796 10.3011 5.65107C10.8382 5.65434 11.3516 5.87228 11.7268 6.2565Z" fill="black"/>
<path id="Vector_3" d="M13.7525 5.76634L13.7358 5.78301L14.226 6.23983C14.6056 5.86002 15.1216 5.64796 15.6586 5.65107C16.1957 5.65434 16.709 5.87228 17.0843 6.2565L17.5409 5.76634C16.494 4.72192 14.7994 4.72192 13.7525 5.76634Z" fill="black"/>
<path id="Vector_4" d="M4.77477 11.1094C5.29829 10.969 5.8563 11.046 6.32211 11.323L6.63422 10.73C5.35306 9.99029 3.71481 10.4291 2.97499 11.7101L2.96338 11.7306L3.25293 11.898L3.55426 12.0446C3.81978 11.5823 4.25926 11.2455 4.77477 11.1094Z" fill="black"/>
<path id="Vector_5" d="M16.5915 9.37358L14.1066 9.82565C13.3539 9.96299 12.5825 9.96299 11.8298 9.82565L9.34444 9.37358C9.19435 9.34628 9.04458 9.42394 8.98065 9.56258C8.91656 9.70123 8.95433 9.86554 9.07254 9.96217L11.9081 12.2814C12.5254 12.784 13.4109 12.784 14.0283 12.2814L16.8634 9.96152C16.9816 9.86489 17.0195 9.70058 16.9554 9.56193C16.8915 9.42328 16.7417 9.34562 16.5915 9.37293V9.37358ZM13.6044 11.7636C13.234 12.0656 12.7023 12.0656 12.332 11.7636L10.4991 10.2642L11.7101 10.4842C12.5418 10.6363 13.3939 10.6363 14.2255 10.4842L15.4367 10.2642L13.6044 11.7636Z" fill="black"/>
</g>
</svg>
