<svg width="11" height="14" viewBox="0 0 11 14" fill="none" xmlns="http://www.w3.org/2000/svg">
<g id="Group 35">
<path id="Vector" d="M10.9343 5.88129C10.7671 5.51098 10.3304 5.34582 9.95976 5.51386L9.06233 5.91956L7.65505 4.4343C7.58945 4.36495 7.5109 4.30913 7.42371 4.26972L5.72122 3.50033C5.55433 3.42494 5.3653 3.41458 5.19093 3.47069L2.35938 4.3874C2.12517 4.46336 1.94448 4.65124 1.87744 4.88833L1.33708 6.80346C1.22659 7.19506 1.45447 7.60191 1.84607 7.7124C1.91283 7.7311 1.98016 7.74031 2.04633 7.74031C2.36802 7.74031 2.66323 7.52797 2.75501 7.20341L3.18833 5.66779L4.84429 5.1315L4.14762 7.39388L3.10806 9.91699H0.736588C0.329738 9.91699 0 10.2467 0 10.6536C0 11.0604 0.329738 11.3902 0.736588 11.3902H3.60123C3.8996 11.3902 4.16863 11.21 4.28228 10.9341L5.09397 8.96431L6.7277 10.5624V12.8305C6.7277 13.2374 7.05743 13.5671 7.46428 13.5671C7.87113 13.5671 8.20087 13.2374 8.20087 12.8305V10.2525C8.20087 10.0542 8.12088 9.86462 7.97932 9.72593L6.16569 7.9519L6.82513 5.70045L8.35366 7.31361C8.56917 7.54091 8.90552 7.60824 9.19181 7.4779L10.5669 6.85583C10.9375 6.68837 11.1021 6.25188 10.9343 5.88129Z" fill="#8B8D98"/>
<path id="Vector_2" d="M7.49898 3.49894C8.25862 3.49894 8.87443 2.88313 8.87443 2.12349C8.87443 1.36385 8.25862 0.748047 7.49898 0.748047C6.73934 0.748047 6.12354 1.36385 6.12354 2.12349C6.12354 2.88313 6.73934 3.49894 7.49898 3.49894Z" fill="#8B8D98"/>
</g>
</svg>
