<svg width="24" height="24" viewBox="0 0 24 24" fill="none" xmlns="http://www.w3.org/2000/svg">
<g id="Facebook Logo">
<rect width="24" height="24" fill="#1877F2"/>
<path id="path14" d="M24 12.5C24 6.14872 18.8513 1 12.5 1C6.14872 1 1 6.14872 1 12.5C1 18.24 5.20538 22.9976 10.7031 23.8603V15.8242H7.7832V12.5H10.7031V9.96641C10.7031 7.08422 12.42 5.49219 15.0468 5.49219C16.305 5.49219 17.6211 5.7168 17.6211 5.7168V8.54688H16.171C14.7424 8.54688 14.2969 9.43334 14.2969 10.3428V12.5H17.4863L16.9765 15.8242H14.2969V23.8603C19.7946 22.9976 24 18.24 24 12.5Z" fill="white"/>
</g>
</svg>
