<svg width="25" height="19" viewBox="0 0 25 19" fill="none" xmlns="http://www.w3.org/2000/svg">
<g id="Group">
<g id="Group_2">
<g id="Group_3">
<path id="Vector" d="M20.5896 7.44482C21.5849 6.7731 22.2407 5.63506 22.2407 4.34673C22.2407 2.28682 20.5648 0.610937 18.5049 0.610937C16.445 0.610937 14.7691 2.28682 14.7691 4.34673C14.7691 5.63447 15.4242 6.77207 16.4188 7.44394C15.6942 7.68921 15.0159 8.0627 14.4137 8.55239C13.9041 8.0623 13.2202 7.78003 12.5 7.78003C11.7799 7.78003 11.096 8.0624 10.5868 8.55239C9.98433 8.0627 9.30591 7.68921 8.5813 7.4439C9.57583 6.77202 10.231 5.63442 10.231 4.34663C10.231 2.28672 8.55508 0.61084 6.49517 0.61084C4.4355 0.61084 2.75986 2.28672 2.75986 4.34663C2.75986 5.63496 3.41548 6.77295 4.4106 7.44473C1.85259 8.31392 0.00620117 10.737 0.000683594 13.584C0.000537109 13.5883 0 13.5924 0 13.5967C0 14.3493 0.427637 15.46 2.46504 16.4776C3.9168 17.2027 5.91182 17.7478 8.23447 18.0538C9.59688 18.2334 11.032 18.3246 12.5 18.3246C13.9684 18.3246 15.4037 18.2335 16.7661 18.0538C19.0885 17.7478 21.0834 17.2027 22.5351 16.4776C24.5724 15.46 25 14.3493 25 13.5967C25 10.7442 23.1516 8.31533 20.5896 7.44482ZM15.7495 4.34673C15.7495 2.82739 16.9856 1.59136 18.5049 1.59136C20.0242 1.59136 21.2603 2.82744 21.2603 4.34673C21.2603 5.86582 20.0242 7.10161 18.5049 7.10161C16.9856 7.10161 15.7495 5.86582 15.7495 4.34673ZM11.0374 9.52627C11.3705 9.04678 11.9171 8.76045 12.5 8.76045C13.0832 8.76045 13.63 9.04678 13.963 9.52627C13.9631 9.52642 13.9632 9.52651 13.9632 9.52661C14.171 9.82539 14.2808 10.1762 14.2808 10.5413C14.2808 11.5233 13.4819 12.3222 12.5 12.3222C11.5182 12.3222 10.7196 11.5232 10.7196 10.5413C10.7196 10.1756 10.8293 9.8249 11.0374 9.52627ZM3.74019 4.34673C3.74019 2.82739 4.97603 1.59136 6.49507 1.59136C8.0144 1.59136 9.25044 2.82744 9.25044 4.34673C9.25044 5.86582 8.01436 7.10161 6.49507 7.10161C4.97603 7.10161 3.74019 5.86582 3.74019 4.34673ZM7.80855 17.003C5.83174 16.702 4.14424 16.2204 2.90317 15.6005C1.66685 14.9831 0.984619 14.2737 0.980664 13.6026C0.980664 13.6006 0.980957 13.5987 0.980957 13.5968C0.980908 10.556 3.45459 8.08203 6.49512 8.08203C7.78867 8.08203 9.0228 8.52891 10.0104 9.34741C9.83232 9.71748 9.73926 10.1232 9.73926 10.5414C9.73926 11.3947 10.1285 12.1588 10.7385 12.6658C9.0251 13.3624 7.81299 15.0435 7.80855 17.003ZM16.2118 17.1342C15.0194 17.2733 13.7732 17.3443 12.5 17.3443C11.2271 17.3443 9.98105 17.2733 8.78872 17.1342V17.0139C8.78872 14.9674 10.4536 13.3026 12.5 13.3026C14.5467 13.3026 16.2118 14.9674 16.2118 17.0139V17.1342ZM22.097 15.6005C20.856 16.2204 19.1687 16.702 17.1921 17.003C17.1876 15.0434 15.9754 13.3625 14.2619 12.6657C14.8721 12.1588 15.2614 11.3947 15.2614 10.5413C15.2614 10.1236 15.1683 9.71777 14.99 9.34736C15.9772 8.52881 17.2112 8.08193 18.505 8.08193C21.5458 8.08198 24.0196 10.5559 24.0196 13.5967C24.0196 14.2696 23.3368 14.9813 22.097 15.6005Z" fill="black"/>
</g>
</g>
</g>
</svg>
