<svg width="15" height="15" viewBox="0 0 15 15" fill="none" xmlns="http://www.w3.org/2000/svg">
<g id="Group 26">
<path id="Vector" d="M14.89 1.60983L13.3899 0.109826C13.2437 -0.0364864 13.0064 -0.0366698 12.86 0.109643C12.86 0.109734 12.8599 0.109826 12.8597 0.109826L8.3598 4.60992C8.28944 4.68019 8.25 4.7755 8.25 4.87494V6.37503C8.25 6.58207 8.41787 6.74994 8.62491 6.74994H10.125C10.2244 6.74994 10.3197 6.71049 10.39 6.64013L14.89 2.14013C15.0364 1.99382 15.0365 1.75651 14.8903 1.6101C14.8902 1.6101 14.8902 1.60992 14.89 1.60983ZM9.9697 6.00003H8.99991V5.03033L13.1249 0.905326L14.0946 1.87502L9.9697 6.00003Z" fill="black"/>
<path id="Vector_2" d="M13.8749 4.50003C13.6679 4.50003 13.5 4.6679 13.5 4.87494V10.1249C13.4994 10.746 12.996 11.2493 12.375 11.25H8.62501C8.54383 11.2499 8.46484 11.2762 8.39999 11.325L6.00001 13.125V11.625C6.00001 11.4179 5.83214 11.25 5.62501 11.25H1.875C1.25398 11.2493 0.750643 10.746 0.750092 10.125V3.37494C0.750735 2.75401 1.25398 2.25067 1.875 2.25003H8.62501C8.83214 2.25003 9.00001 2.08216 9.00001 1.87503C9.00001 1.66799 8.83214 1.50012 8.62501 1.50012H1.875C0.839898 1.50113 0.00100905 2.34002 0 3.37494V10.125C0.00100905 11.1601 0.839898 11.9989 1.875 12H5.25V13.875C5.25 14.0821 5.41787 14.25 5.62501 14.25C5.70619 14.25 5.78508 14.2236 5.85002 14.175L8.75041 11.9999H12.375C13.4101 11.9989 14.2489 11.1601 14.25 10.1249V4.87503C14.25 4.6679 14.0821 4.50003 13.8749 4.50003Z" fill="black"/>
<path id="Vector_3" d="M6.37491 3.75003H2.62509C2.41787 3.75003 2.25 3.9179 2.25 4.12503C2.25 4.33207 2.41787 4.49994 2.62509 4.49994H6.37491C6.58204 4.49994 6.75 4.33207 6.75 4.12503C6.75 3.9179 6.58204 3.75003 6.37491 3.75003Z" fill="black"/>
<path id="Vector_4" d="M2.62509 6.75003H6.37491C6.58204 6.75003 6.75 6.58207 6.75 6.37503C6.75 6.1679 6.58204 6.00003 6.37491 6.00003H2.62509C2.41787 6.00003 2.25 6.1679 2.25 6.37503C2.25 6.58207 2.41787 6.75003 2.62509 6.75003Z" fill="black"/>
<path id="Vector_5" d="M2.62509 8.99994H11.625C11.8321 8.99994 11.9999 8.83207 11.9999 8.62494C11.9999 8.4179 11.832 8.25003 11.625 8.25003H2.62509C2.41787 8.25003 2.25 8.4179 2.25 8.62494C2.25 8.83207 2.41787 8.99994 2.62509 8.99994Z" fill="black"/>
</g>
</svg>
