<svg width="50" height="50" viewBox="0 0 50 50" fill="none" xmlns="http://www.w3.org/2000/svg">
<g id="Frame 818151">
<g id="Group 1171275254">
<path id="Vector" d="M26.5931 6.53333C27.0926 6.94381 27.3839 7.36296 27.6708 7.94216C27.7118 8.02299 27.7528 8.10381 27.795 8.18709C27.913 8.42016 28.0296 8.65393 28.1458 8.88791C28.2278 9.05311 28.31 9.21821 28.3922 9.3833C28.7059 10.0132 29.0186 10.6435 29.331 11.2739C29.3633 11.3389 29.3955 11.404 29.4287 11.471C29.5943 11.8052 29.7597 12.1396 29.9244 12.4742C30.0868 12.8039 30.2501 13.1333 30.4139 13.4623C30.4753 13.5861 30.5364 13.7101 30.5972 13.8342C31.0673 14.873 31.0673 14.8729 31.8932 15.614C32.4082 15.7702 32.9675 15.8131 33.5005 15.8799C33.6501 15.899 33.7993 15.9199 33.9486 15.941C34.037 15.9525 34.1255 15.964 34.2166 15.9758C34.5033 16.0589 34.6241 16.1569 34.803 16.3943C34.8248 16.5911 34.8248 16.5911 34.803 16.7442C34.8508 16.7498 34.8987 16.7555 34.948 16.7613C36.7063 16.9685 36.7063 16.9685 37.5326 17.0942C37.5759 17.0263 37.6192 16.9585 37.6638 16.8886C37.8125 16.6742 37.8125 16.6742 37.9525 16.6042C38.3945 16.5622 38.7602 16.5802 39.1424 16.8142C39.3523 17.1461 39.3523 17.1461 39.3523 17.3741C39.5767 17.3501 39.6305 17.3062 39.781 17.1292C39.8243 17.0714 39.8676 17.0137 39.9122 16.9542C40.2125 16.804 40.5141 16.8586 40.8268 16.9402C41.7141 17.2451 42.2797 17.8124 42.7138 18.6293C43.0081 19.3251 42.9456 20.2857 42.6741 20.9748C42.3015 21.6264 41.755 22.1298 41.2273 22.6543C41.1366 22.7449 41.046 22.8355 40.9554 22.9261C40.766 23.1153 40.5765 23.3043 40.3867 23.4931C40.1448 23.7339 39.9033 23.9751 39.662 24.2165C39.475 24.4034 39.2879 24.5902 39.1006 24.7769C39.0116 24.8657 38.9226 24.9546 38.8336 25.0435C38.0141 25.862 38.0141 25.862 37.5741 26.2373C37.3075 26.4658 37.0634 26.7191 36.8152 26.9671C36.76 27.0215 36.7048 27.0758 36.6479 27.1319C36.1923 27.5862 35.8469 27.9469 35.8304 28.6183C35.8369 29.3969 36.001 30.1557 36.1413 30.9191C36.171 31.0844 36.2006 31.2497 36.2302 31.4151C36.3078 31.8478 36.3864 32.2803 36.4652 32.7127C36.5609 33.2389 36.6554 33.7652 36.7501 34.2916C36.8238 34.7008 36.8976 35.1101 36.972 35.5192C36.9856 35.5944 36.9992 35.6696 37.0133 35.747C37.0386 35.8867 37.064 36.0264 37.0895 36.166C37.2817 37.2265 37.3826 38.1661 36.7802 39.1323C36.2966 39.7923 35.6211 40.2346 34.8123 40.3811C33.6855 40.5297 32.7636 40.0043 31.8022 39.4953C31.6729 39.4279 31.5436 39.3605 31.4143 39.2933C31.1036 39.1314 30.7935 38.9686 30.4836 38.8053C30.2726 38.6942 30.0611 38.5841 29.8495 38.4742C29.6001 38.3446 29.3508 38.2145 29.1018 38.0841C27.928 37.4695 26.7525 36.8577 25.5643 36.2714C25.5181 36.2483 25.4719 36.2252 25.4243 36.2014C25.275 36.1821 25.275 36.1821 25.105 36.1796C25.0486 36.1769 24.9922 36.1743 24.9341 36.1716C24.3006 36.2617 23.6965 36.6801 23.1365 36.9713C23.0697 37.0059 23.0697 37.0059 23.0016 37.0413C22.3575 37.3752 21.7182 37.7168 21.0827 38.0667C20.5656 38.3508 20.0432 38.6238 19.5193 38.895C18.9777 39.1762 18.4417 39.4671 17.9087 39.7642C16.9221 40.3095 16.0123 40.684 14.875 40.4074C14.0286 40.0982 13.4781 39.6317 13.0858 38.8127C12.7936 38.1073 12.784 37.4758 12.9105 36.7305C12.9195 36.6751 12.9285 36.6197 12.9378 36.5626C12.9674 36.3806 12.9978 36.1987 13.0282 36.0169C13.0493 35.8879 13.0705 35.7589 13.0915 35.6298C13.1472 35.2899 13.2035 34.95 13.2599 34.6102C13.316 34.272 13.3714 33.9338 13.4269 33.5955C13.4704 33.3309 13.5139 33.0663 13.5575 32.8017C13.5681 32.7368 13.5788 32.672 13.5898 32.6051C13.6964 31.9579 13.8039 31.3109 13.9161 30.6647C13.9327 30.5677 13.9494 30.4707 13.9661 30.3737C13.9961 30.1999 14.0265 30.0262 14.0575 29.8526C14.178 29.1522 14.2837 28.4948 13.876 27.8726C13.6634 27.6202 13.4318 27.3921 13.1936 27.164C13.1328 27.1042 13.0719 27.0443 13.0093 26.9827C12.7435 26.7229 12.4748 26.4686 12.1929 26.2262C11.8007 25.8881 11.444 25.5138 11.081 25.1449C10.8301 24.8915 10.5795 24.6425 10.3087 24.4103C9.89795 24.0577 9.52575 23.6654 9.14617 23.2801C8.79826 22.929 8.44402 22.5928 8.0668 22.2734C7.54378 21.8285 7.23298 21.2418 7.01695 20.5937C6.95469 19.5894 7.0376 18.7308 7.71685 17.934C8.27603 17.4101 8.85885 17.1429 9.60882 17.0223C9.67574 17.0108 9.74266 16.9994 9.81161 16.9876C10.023 16.9519 10.2347 16.9178 10.4465 16.8842C10.513 16.8736 10.5795 16.8631 10.648 16.8522C11.0561 16.788 11.4646 16.7267 11.8732 16.6666C12.0973 16.6336 12.3213 16.6002 12.5453 16.5667C13.1808 16.4717 13.8164 16.3772 14.4521 16.2834C14.8443 16.2254 15.2363 16.1669 15.6283 16.1081C15.7764 16.086 15.9245 16.0641 16.0727 16.0424C16.2793 16.0122 16.4858 15.9812 16.6923 15.9501C16.7524 15.9415 16.8125 15.9329 16.8745 15.924C17.4246 15.8398 17.997 15.7172 18.4253 15.3444C18.5712 15.1318 18.6835 14.9062 18.7971 14.6751C18.8502 14.5704 18.8502 14.5704 18.9043 14.4636C19.0261 14.2214 19.1459 13.9782 19.2652 13.7346C19.2873 13.6897 19.3093 13.6448 19.332 13.5986C19.6307 12.9905 19.9262 12.3811 20.2204 11.7709C20.404 11.3902 20.5885 11.01 20.7735 10.6299C20.7995 10.5765 20.8256 10.523 20.8524 10.4679C20.9553 10.2565 21.0582 10.0451 21.1612 9.83368C21.4215 9.29961 21.679 8.76485 21.9264 8.22463C22.1544 7.72868 22.3793 7.2719 22.7647 6.87563C22.8025 6.83674 22.8403 6.79786 22.8792 6.75779C23.896 5.80745 25.4665 5.77205 26.5931 6.53333Z" fill="#FEA71E"/>
<path id="Vector_2" d="M21.8557 11.4951C22.2168 11.6052 22.4685 11.8299 22.7525 12.0682C22.8045 12.1115 22.8566 12.1549 22.9102 12.1995C24.1093 13.2085 25.1829 14.3026 26.1251 15.5545C26.1681 15.6109 26.1681 15.6109 26.2119 15.6683C27.8147 17.7788 28.8653 20.2017 29.4847 22.7635C29.4985 22.8186 29.5123 22.8737 29.5265 22.9305C29.6172 23.2928 29.6961 23.6561 29.7646 24.0233C29.7752 24.0795 29.7857 24.1356 29.7966 24.1934C29.9744 25.1917 29.9948 26.1881 29.9965 27.1991C29.9967 27.2612 29.997 27.3233 29.9972 27.3872C29.9998 28.5978 29.8847 29.7609 29.6421 30.948C29.633 30.9929 29.6239 31.0378 29.6145 31.0841C29.4577 31.8533 29.263 32.5946 28.9947 33.332C28.9625 33.4216 28.9625 33.4216 28.9296 33.5131C28.6403 34.3119 28.3197 35.0892 27.9449 35.8516C27.5324 35.8184 27.2349 35.6385 26.8819 35.4404C26.0929 35.014 25.2538 34.6546 24.3421 34.9227C23.8687 35.0869 23.4298 35.3005 22.9887 35.5367C22.9194 35.5733 22.85 35.6099 22.7786 35.6477C22.2414 35.9324 21.7078 36.2237 21.1749 36.5164C20.6503 36.8039 20.1207 37.0807 19.5895 37.3558C19.1181 37.6007 18.6511 37.8528 18.1856 38.1088C17.5733 38.4455 16.9545 38.7648 16.3265 39.0712C16.2803 39.0943 16.2341 39.1174 16.1866 39.1412C15.6846 39.2005 15.2462 39.2157 14.813 38.9312C14.447 38.6355 14.302 38.3167 14.1568 37.8813C14.1202 37.422 14.1874 36.9768 14.2638 36.5251C14.2752 36.4553 14.2866 36.3856 14.2983 36.3137C14.3358 36.0848 14.374 35.856 14.4122 35.6272C14.4386 35.4669 14.4649 35.3066 14.4912 35.1463C14.5605 34.7251 14.6303 34.304 14.7002 33.8829C14.771 33.4563 14.8412 33.0296 14.9114 32.603C15.0145 31.9773 15.1178 31.3516 15.2216 30.726C15.2328 30.658 15.2441 30.59 15.2557 30.5199C15.3232 30.1119 15.392 29.7041 15.4635 29.2967C15.5733 28.5177 15.43 27.8282 15.0104 27.1619C14.586 26.6122 14.0608 26.1295 13.5351 25.6777C13.1396 25.335 12.7786 24.9579 12.4117 24.5852C12.1601 24.331 11.9087 24.0814 11.6372 23.8484C11.2433 23.5102 10.8859 23.1352 10.522 22.7654C10.2226 22.4631 9.91894 22.1726 9.59629 21.8953C8.41094 20.8676 8.41094 20.8676 8.3176 20.1539C8.29116 19.6595 8.32676 19.2965 8.63939 18.9026C9.25779 18.2829 10.0777 18.2611 10.9067 18.1529C11.6233 18.0569 12.3372 17.9517 13.0496 17.828C13.8989 17.6813 14.7519 17.5573 15.6056 17.439C15.8433 17.4059 16.0809 17.3721 16.3185 17.3382C16.4384 17.3213 16.5584 17.3048 16.6785 17.2886C18.0452 17.1081 18.0452 17.1081 19.1961 16.3944C19.2423 16.3944 19.2885 16.3944 19.3361 16.3944C19.3599 16.3403 19.3599 16.3403 19.3842 16.2851C19.4761 16.1145 19.4761 16.1145 19.636 15.9015C19.8524 15.6003 20.0034 15.2779 20.1585 14.9421C20.2249 14.8008 20.2915 14.6596 20.3581 14.5184C20.395 14.4399 20.4319 14.3614 20.47 14.2806C20.6942 13.8059 20.9239 13.3338 21.1532 12.8616C21.2341 12.6947 21.3148 12.5277 21.3955 12.3608C21.4456 12.2576 21.4956 12.1544 21.5457 12.0512C21.5689 12.0031 21.5922 11.955 21.6161 11.9054C21.7778 11.5731 21.7778 11.5731 21.8557 11.4951Z" fill="#FED82D"/>
<path id="Vector_3" d="M26.5931 6.53333C27.0926 6.94381 27.3839 7.36296 27.6708 7.94216C27.7118 8.02299 27.7528 8.10381 27.795 8.18709C27.913 8.42016 28.0296 8.65393 28.1458 8.88791C28.2278 9.05311 28.31 9.21821 28.3922 9.3833C28.7059 10.0132 29.0186 10.6435 29.331 11.2739C29.3633 11.3389 29.3955 11.404 29.4287 11.471C29.5943 11.8052 29.7597 12.1396 29.9244 12.4742C30.0868 12.8039 30.2501 13.1333 30.4139 13.4623C30.4753 13.5861 30.5364 13.7101 30.5972 13.8342C31.0673 14.873 31.0673 14.8729 31.8932 15.614C32.4082 15.7702 32.9675 15.8131 33.5005 15.8799C33.6501 15.899 33.7993 15.9199 33.9486 15.941C34.037 15.9525 34.1255 15.964 34.2166 15.9758C34.4992 16.0577 34.619 16.168 34.803 16.3943C34.8317 16.5564 34.8317 16.5564 34.8073 16.7136C34.8009 16.7657 34.7945 16.8177 34.7879 16.8713C34.7143 17.0763 34.622 17.167 34.453 17.3041C33.369 17.4779 31.9102 17.2015 30.9486 16.6863C30.4418 16.3105 30.1022 15.8947 29.8263 15.331C29.7753 15.2303 29.7753 15.2303 29.7233 15.1275C29.6201 14.9228 29.5182 14.7176 29.4167 14.5121C29.3077 14.2916 29.198 14.0715 29.0883 13.8513C28.7914 13.2548 28.4952 12.658 28.1992 12.061C28.165 11.9922 28.1309 11.9233 28.0957 11.8524C27.9203 11.4987 27.7453 11.1448 27.5707 10.7907C27.3994 10.4431 27.2273 10.096 27.0546 9.7491C26.9896 9.61825 26.925 9.48724 26.8606 9.35608C26.7709 9.17327 26.6802 8.99101 26.5892 8.80885C26.5635 8.7558 26.5378 8.70275 26.5113 8.64809C26.2544 8.13913 25.9129 7.62806 25.3543 7.43555C24.9197 7.37504 24.4526 7.35187 24.0595 7.57115C23.4904 8.02678 23.2059 8.76426 22.8916 9.40402C22.8447 9.49869 22.7977 9.59335 22.7508 9.68799C22.4603 10.2749 22.1751 10.8643 21.8943 11.4559C21.5537 12.1727 21.2054 12.8858 20.8575 13.599C20.8273 13.6608 20.7972 13.7226 20.7662 13.7863C20.5954 14.1367 20.424 14.4868 20.2521 14.8367C20.1793 14.9857 20.1074 15.1352 20.0358 15.2848C19.9936 15.3716 19.9515 15.4585 19.9093 15.5454C19.8741 15.6188 19.8388 15.6923 19.8025 15.768C19.5995 16.1248 19.3485 16.4102 19.0115 16.648C18.9586 16.6864 18.9057 16.7248 18.8513 16.7644C18.2571 17.0938 17.645 17.2183 16.9774 17.3041C16.8092 17.3273 16.6411 17.3507 16.473 17.3741C16.3893 17.3857 16.3056 17.3972 16.2194 17.4091C15.8599 17.4607 15.5023 17.5222 15.1445 17.5841C14.2672 17.7339 13.3862 17.8528 12.5043 17.9717C11.2276 18.1445 11.2276 18.1445 9.95653 18.354C9.90104 18.3622 9.84556 18.3704 9.78839 18.3789C9.25904 18.4703 8.86552 18.7163 8.51736 19.1239C8.32246 19.5271 8.32243 20.0985 8.46124 20.5182C8.64698 20.9371 8.94758 21.2291 9.27413 21.5429C9.32492 21.593 9.37571 21.6431 9.42805 21.6948C9.66695 21.9288 9.9096 22.1558 10.1632 22.3738C10.5574 22.7144 10.9165 23.0903 11.2817 23.4613C11.5334 23.7155 11.7848 23.9651 12.0562 24.1982C12.4501 24.5363 12.8075 24.9113 13.1714 25.2811C13.4724 25.585 13.7777 25.8773 14.1021 26.1562C14.8355 26.7881 15.4917 27.5239 15.5686 28.5317C15.5725 29.0648 15.4989 29.5709 15.407 30.0951C15.3912 30.1881 15.3754 30.281 15.3597 30.374C15.3264 30.5712 15.2926 30.7683 15.2586 30.9653C15.2052 31.2743 15.1528 31.5834 15.1006 31.8925C15.0829 31.997 15.0652 32.1015 15.0476 32.2061C15.0388 32.2579 15.0301 32.3097 15.021 32.3631C14.9944 32.5206 14.9677 32.6781 14.9409 32.8356C14.7887 33.732 14.6393 34.6288 14.4942 35.5263C14.4701 35.6748 14.4458 35.8233 14.4213 35.9718C14.3875 36.1767 14.3543 36.3816 14.3213 36.5867C14.3115 36.6453 14.3017 36.7039 14.2916 36.7643C14.1714 37.513 14.1714 37.513 14.3659 38.2268C14.5059 38.5024 14.5059 38.5024 14.5059 38.6511C14.5434 38.6684 14.5809 38.6857 14.6196 38.7036C14.7858 38.7911 14.7858 38.7911 14.9521 38.9398C15.3217 39.1819 15.7676 39.1384 16.1856 39.071C16.5231 38.9443 16.8287 38.7794 17.1419 38.6021C17.3848 38.4669 17.6324 38.3411 17.8796 38.214C18.5507 37.8683 19.2145 37.5098 19.8761 37.1464C20.4003 36.8592 20.9296 36.5824 21.4603 36.3076C22.0062 36.0243 22.5462 35.7311 23.0836 35.4321C24.2353 34.7961 24.2353 34.7961 24.93 34.7798C25.0014 34.7771 25.0727 34.7745 25.1463 34.7718C26.0896 34.8729 26.8994 35.3483 27.7252 35.7815C27.8545 35.8486 27.9838 35.9156 28.1131 35.9826C28.4237 36.1436 28.7338 36.3055 29.0438 36.4677C29.2549 36.5781 29.4664 36.6881 29.6778 36.798C29.9273 36.9278 30.1765 37.0579 30.4256 37.1884C30.99 37.4839 31.5554 37.7776 32.1219 38.069C32.1642 38.0908 32.2065 38.1125 32.2502 38.135C32.2917 38.1563 32.3332 38.1777 32.376 38.1997C32.6517 38.3415 32.9262 38.4849 33.1989 38.6322C33.7482 38.9259 34.152 39.1223 34.774 38.9513C35.2359 38.7928 35.4792 38.6097 35.7101 38.1743C35.961 37.6035 35.8622 36.9867 35.75 36.3923C35.7391 36.3317 35.7282 36.2711 35.717 36.2087C35.6812 36.0108 35.6445 35.813 35.6079 35.6153C35.5825 35.4759 35.5572 35.3365 35.5319 35.1971C35.4661 34.8343 35.3995 34.4717 35.3328 34.1091C35.2684 33.7582 35.2046 33.4072 35.1409 33.0563C35.1287 32.9891 35.1165 32.922 35.1039 32.8529C35.0441 32.5236 34.9843 32.1942 34.9246 31.8649C34.9019 31.7397 34.8793 31.6146 34.8566 31.4894C34.8458 31.4298 34.8349 31.3702 34.8238 31.3088C34.7628 30.9733 34.7001 30.6382 34.6357 30.3034C34.2203 28.1157 34.2203 28.1157 34.8566 27.1191C35.2172 26.5995 35.6342 26.1715 36.1112 25.7597C36.3896 25.5162 36.6545 25.262 36.9163 25.0007C36.9631 24.9542 37.01 24.9077 37.0583 24.8598C37.2112 24.7079 37.3638 24.5557 37.5165 24.4035C37.569 24.3512 37.6215 24.2989 37.6756 24.245C37.9528 23.9688 38.2299 23.6924 38.5068 23.4158C38.7923 23.1306 39.0785 22.8461 39.3648 22.5618C39.5856 22.3423 39.8059 22.1224 40.0261 21.9023C40.1314 21.7972 40.2369 21.6922 40.3426 21.5875C40.4902 21.4411 40.637 21.2941 40.7838 21.1469C40.8273 21.104 40.8708 21.0611 40.9157 21.0169C41.2787 20.6504 41.482 20.3285 41.4826 19.7975C41.468 19.2599 41.3396 18.9165 40.9533 18.5421C40.703 18.3415 40.4452 18.2738 40.1392 18.1924C39.9226 18.1256 29.0638 16.6392 34.313 17.1992C34.2526 17.0085 34.7895 16.9134 34.8073 16.7136C34.9309 16.5134 34.1028 16.1845 34.313 16.0793C34.9209 16.0105 41.1371 16.5342 41.7213 17.3755C42.295 17.8696 42.921 18.4519 42.9918 19.2289C43.0517 20.2001 42.784 20.9542 42.1519 21.7135C41.8541 22.037 41.5391 22.3444 41.2273 22.6543C41.1366 22.7449 41.046 22.8355 40.9554 22.9261C40.766 23.1153 40.5765 23.3043 40.3867 23.4931C40.1448 23.7339 39.9033 23.9751 39.662 24.2165C39.475 24.4034 39.2879 24.5902 39.1006 24.7769C39.0116 24.8657 38.9226 24.9546 38.8336 25.0435C38.0141 25.862 38.0141 25.862 37.5741 26.2373C37.3075 26.4658 37.0634 26.7191 36.8152 26.9671C36.76 27.0215 36.7048 27.0758 36.6479 27.1319C36.1923 27.5862 35.8469 27.9469 35.8304 28.6183C35.8369 29.3969 36.001 30.1557 36.1413 30.9191C36.171 31.0844 36.2006 31.2497 36.2302 31.4151C36.3078 31.8478 36.3864 32.2803 36.4652 32.7127C36.5609 33.2389 36.6554 33.7652 36.7501 34.2916C36.8238 34.7008 36.8976 35.1101 36.972 35.5192C36.9856 35.5944 36.9992 35.6696 37.0133 35.747C37.0386 35.8867 37.064 36.0264 37.0895 36.166C37.2817 37.2265 37.3826 38.1661 36.7802 39.1323C36.2966 39.7923 35.6211 40.2346 34.8123 40.3811C33.6855 40.5297 32.7636 40.0043 31.8022 39.4953C31.6729 39.4279 31.5436 39.3605 31.4143 39.2933C31.1036 39.1314 30.7935 38.9686 30.4836 38.8053C30.2726 38.6942 30.0611 38.5841 29.8495 38.4742C29.6001 38.3446 29.3508 38.2145 29.1018 38.0841C27.928 37.4695 26.7525 36.8577 25.5643 36.2714C25.5181 36.2483 25.4719 36.2252 25.4243 36.2014C25.275 36.1821 25.275 36.1821 25.105 36.1796C25.0486 36.1769 24.9922 36.1743 24.9341 36.1716C24.3006 36.2617 23.6965 36.6801 23.1365 36.9713C23.0697 37.0059 23.0697 37.0059 23.0016 37.0413C22.3575 37.3752 21.7182 37.7168 21.0827 38.0667C20.5656 38.3508 20.0432 38.6238 19.5193 38.895C18.9777 39.1762 18.4417 39.4671 17.9087 39.7642C16.9221 40.3095 16.0123 40.684 14.875 40.4074C14.0286 40.0982 13.4781 39.6317 13.0858 38.8127C12.7936 38.1073 12.784 37.4758 12.9105 36.7305C12.9195 36.6751 12.9285 36.6197 12.9378 36.5626C12.9674 36.3806 12.9978 36.1987 13.0282 36.0169C13.0493 35.8879 13.0705 35.7589 13.0915 35.6298C13.1472 35.2899 13.2035 34.95 13.2599 34.6102C13.316 34.272 13.3714 33.9338 13.4269 33.5955C13.4704 33.3309 13.5139 33.0663 13.5575 32.8017C13.5681 32.7368 13.5788 32.672 13.5898 32.6051C13.6964 31.9579 13.8039 31.3109 13.9161 30.6647C13.9327 30.5677 13.9494 30.4707 13.9661 30.3737C13.9961 30.1999 14.0265 30.0262 14.0575 29.8526C14.178 29.1522 14.2837 28.4948 13.876 27.8726C13.6634 27.6202 13.4318 27.3921 13.1936 27.164C13.1328 27.1042 13.0719 27.0443 13.0093 26.9827C12.7435 26.7229 12.4748 26.4686 12.1929 26.2262C11.8007 25.8881 11.444 25.5138 11.081 25.1449C10.8301 24.8915 10.5795 24.6425 10.3087 24.4103C9.89795 24.0577 9.52575 23.6654 9.14617 23.2801C8.79826 22.929 8.44402 22.5928 8.0668 22.2734C7.54378 21.8285 7.23298 21.2418 7.01695 20.5937C6.95469 19.5894 7.0376 18.7308 7.71685 17.934C8.27603 17.4101 8.85885 17.1429 9.60882 17.0223C9.67574 17.0108 9.74266 16.9994 9.81161 16.9876C10.023 16.9519 10.2347 16.9178 10.4465 16.8842C10.513 16.8736 10.5795 16.8631 10.648 16.8522C11.0561 16.788 11.4646 16.7267 11.8732 16.6666C12.0973 16.6336 12.3213 16.6002 12.5453 16.5667C13.1808 16.4717 13.8164 16.3772 14.4521 16.2834C14.8443 16.2254 15.2363 16.1669 15.6283 16.1081C15.7764 16.086 15.9245 16.0641 16.0727 16.0424C16.2793 16.0122 16.4858 15.9812 16.6923 15.9501C16.7524 15.9415 16.8125 15.9329 16.8745 15.924C17.4246 15.8398 17.997 15.7172 18.4253 15.3444C18.5712 15.1318 18.6835 14.9062 18.7971 14.6751C18.8502 14.5704 18.8502 14.5704 18.9043 14.4636C19.0261 14.2214 19.1459 13.9782 19.2652 13.7346C19.2873 13.6897 19.3093 13.6448 19.332 13.5986C19.6307 12.9905 19.9262 12.3811 20.2204 11.7709C20.404 11.3902 20.5885 11.01 20.7735 10.6299C20.7995 10.5765 20.8256 10.523 20.8524 10.4679C20.9553 10.2565 21.0582 10.0451 21.1612 9.83368C21.4215 9.29961 21.679 8.76485 21.9264 8.22463C22.1544 7.72868 22.3793 7.2719 22.7647 6.87563C22.8025 6.83674 22.8403 6.79786 22.8792 6.75779C23.896 5.80745 25.4665 5.77205 26.5931 6.53333Z" fill="black"/>
</g>
</g>
</svg>
