<svg width="20" height="20" viewBox="0 0 20 20" fill="none" xmlns="http://www.w3.org/2000/svg">
<g id="Group 1171275281">
<g id="Group">
<g id="Group_2">
<path id="Vector" d="M17.7725 1.68182C17.6322 1.54167 17.4049 1.54155 17.2646 1.68182L13.5408 5.40549C13.4005 5.54577 13.4005 5.77311 13.5407 5.91342C13.6109 5.98354 13.7028 6.01858 13.7947 6.01858C13.8866 6.01858 13.9786 5.98354 14.0487 5.91342L17.7725 2.18975C17.9127 2.04944 17.9127 1.82206 17.7725 1.68182Z" fill="black"/>
</g>
</g>
<g id="Group_3">
<g id="Group_4">
<path id="Vector_2" d="M18.7856 2.67857C18.6453 2.53838 18.4179 2.53838 18.2777 2.67857L14.5539 6.40232C14.4137 6.54263 14.4137 6.76998 14.5539 6.91025C14.624 6.98037 14.716 7.01541 14.8079 7.01541C14.8997 7.01541 14.9917 6.98037 15.0618 6.91025L18.7856 3.18646C18.9259 3.04619 18.9259 2.81881 18.7856 2.67857Z" fill="black"/>
</g>
</g>
<g id="Group_5">
<g id="Group_6">
<path id="Vector_3" d="M15.2721 8.96675L19.8947 4.34417C20.035 4.20386 20.035 3.97651 19.8947 3.83624C19.7544 3.69608 19.5271 3.69597 19.3868 3.83624L14.7643 8.45882C14.1948 9.02827 13.324 9.17768 12.5975 8.83073C12.453 8.76175 12.2804 8.79663 12.1741 8.9164L10.6034 10.686C10.6028 10.6867 10.6021 10.6873 10.6015 10.688C10.6009 10.6887 10.6004 10.6894 10.5998 10.6901L3.81113 18.3385C3.80941 18.3404 3.80769 18.3424 3.80601 18.3444C3.78363 18.3707 3.7625 18.3938 3.74109 18.4152C3.29285 18.8634 2.56355 18.8634 2.11551 18.4152C1.8984 18.1981 1.77883 17.9094 1.77883 17.6024C1.77883 17.2954 1.8984 17.0067 2.1159 16.7892C2.13676 16.7682 2.1598 16.7472 2.18633 16.7246C2.18836 16.7229 2.19031 16.7212 2.19227 16.7195L6.43633 12.9525C6.58469 12.8208 6.59816 12.5939 6.46652 12.4455C6.33484 12.2971 6.10781 12.2836 5.95953 12.4153L1.71828 16.1798C1.67773 16.2144 1.64145 16.2478 1.60762 16.2817C1.25484 16.6345 1.06055 17.1035 1.06055 17.6024C1.06055 18.1013 1.2548 18.5703 1.60758 18.9231C1.97176 19.2872 2.45 19.4693 2.92836 19.4692C3.40652 19.4692 3.88488 19.2873 4.24879 18.9233C4.28328 18.8889 4.31668 18.8526 4.35098 18.8124L9.5241 12.984L14.6973 18.8125C14.7316 18.8527 14.765 18.889 14.7992 18.9232C15.1633 19.2873 15.6416 19.4693 16.1199 19.4693C16.5982 19.4693 17.0765 19.2873 17.4407 18.9232C18.1688 18.1949 18.1688 17.0101 17.4409 16.282C17.4065 16.2475 17.3701 16.2141 17.33 16.1799L11.3772 10.8963L12.5419 9.58409C13.4855 9.91843 14.5532 9.68554 15.2721 8.96675ZM16.8559 16.7195C16.8579 16.7212 16.8599 16.723 16.8619 16.7246C16.8882 16.747 16.9112 16.7682 16.9327 16.7896C17.3809 17.2378 17.3809 17.967 16.9327 18.4151C16.4845 18.8633 15.7552 18.8633 15.3069 18.4149C15.2857 18.3937 15.2644 18.3706 15.2421 18.3443C15.2404 18.3423 15.2387 18.3403 15.2369 18.3384L10.0043 12.443L10.9003 11.4334L16.8559 16.7195Z" fill="black"/>
</g>
</g>
<g id="Group_7">
<g id="Group_8">
<path id="Vector_4" d="M16.6945 0.635847C16.5542 0.495652 16.3268 0.495652 16.1866 0.635847L11.5641 5.25846C10.8451 5.97737 10.6123 7.04499 10.9466 7.98881L9.52413 9.25139L8.15703 8.03795C8.86402 6.64686 8.60593 4.95784 7.48429 3.83616C6.37031 2.72217 5.07999 1.93823 3.85105 1.62882C2.56812 1.30589 1.4682 1.52147 0.753589 2.23604C0.0389802 2.95061 -0.176645 4.05069 0.146363 5.33354C0.455816 6.56241 1.23972 7.85272 2.35378 8.96667C3.47542 10.0884 5.16441 10.3465 6.55558 9.63944C6.55558 9.63944 7.89249 11.1456 7.90945 11.1648C7.98042 11.2447 8.07906 11.2855 8.1782 11.2855C8.263 11.2855 8.34808 11.2556 8.41648 11.1949L11.6144 8.35647C11.7341 8.25018 11.769 8.07753 11.7 7.93307C11.353 7.20647 11.5025 6.33577 12.0719 5.76635L16.6945 1.14378C16.8348 1.00346 16.8348 0.776121 16.6945 0.635847ZM8.20824 10.4194L6.90089 8.94651C6.78511 8.81608 6.59222 8.78756 6.44378 8.87924C5.2923 9.58928 3.81925 9.41651 2.8616 8.45881C1.838 7.43526 1.12109 6.26311 0.842847 5.15815C0.584058 4.13014 0.73273 3.27272 1.26152 2.74397C1.79023 2.21514 2.64765 2.06655 3.67562 2.32538C4.78058 2.60358 5.95281 3.32046 6.97632 4.34405C7.93398 5.30167 8.10679 6.77471 7.39671 7.9262C7.30515 8.07467 7.33355 8.26749 7.46398 8.38331L8.98304 9.73159L8.20824 10.4194Z" fill="black"/>
</g>
</g>
</g>
</svg>
