<svg width="35" height="34" viewBox="0 0 35 34" fill="none" xmlns="http://www.w3.org/2000/svg">
<g id="outline">
<path id="Vector" d="M32.2889 13.4492C31.7896 13.2763 31.2675 13.178 30.7395 13.1576C30.6345 13.1494 30.5063 13.1401 30.4025 13.1273C30.4544 13.0585 30.515 12.9827 30.5657 12.9185C31.0037 12.4304 31.3193 11.8452 31.4865 11.2111C31.8248 9.73394 31.9 6.95407 30.0368 5.9044C29.6282 5.68522 29.179 5.55203 28.717 5.51301C28.255 5.474 27.7898 5.53 27.3502 5.67755C26.1726 6.03112 25.1765 6.82471 24.5686 7.89352C23.905 9.17645 24.2607 10.481 24.547 11.5289C24.722 12.1773 24.8911 12.7896 24.6818 12.9867C24.4386 13.22 23.7131 13.0247 23.011 12.8328C22.7912 12.7745 22.5655 12.7162 22.3392 12.6578C21.9693 11.8404 21.3717 11.1468 20.6179 10.6601C19.864 10.1734 18.986 9.91421 18.0887 9.91355C18.0723 9.91355 18.0572 9.91355 18.0409 9.91355C17.9843 9.47001 17.873 9.03517 17.7096 8.61896C16.5468 5.66647 13.2818 4.17361 11.1399 4.80983C10.5268 5.0011 9.97829 5.35739 9.55428 5.83967C9.07709 5.15614 8.4591 4.58269 7.74185 4.15786C6.92748 3.72626 6.03286 3.46725 5.11387 3.39702C4.19488 3.32678 3.27128 3.44683 2.40079 3.74966C1.91515 3.88234 1.46359 4.11754 1.07651 4.43944C0.689434 4.76133 0.375832 5.16244 0.156828 5.61574C-0.38725 6.99314 0.623348 8.55656 2.46027 11.3947C2.65621 11.698 2.86089 11.9948 3.06383 12.2934C2.5798 12.4727 2.1095 12.6871 1.65669 12.9348C1.03286 13.2357 0.529429 13.7391 0.228556 14.363C0.0435804 15.0007 -0.0300034 15.6655 0.0110411 16.3282C0.0161345 20.8118 1.79949 25.1103 4.96988 28.2807C8.14027 31.4511 12.4388 33.2344 16.9224 33.2395H18.0887C22.5723 33.2344 26.8708 31.4511 30.0412 28.2807C33.2115 25.1103 34.9949 20.8118 35 16.3282C34.9906 16.238 34.9694 16.1493 34.937 16.0646C34.4195 14.8874 33.4725 13.952 32.2889 13.4492ZM22.7084 13.9647C23.7236 14.2399 24.7721 14.5245 25.49 13.8335C26.1985 13.1547 25.9309 12.1738 25.6719 11.2251C25.413 10.2763 25.15 9.31057 25.6043 8.43235C26.0666 7.64494 26.8097 7.06162 27.6844 6.79953C27.9745 6.69994 28.2817 6.65976 28.5877 6.6814C28.8936 6.70304 29.1921 6.78605 29.4653 6.92549C30.6392 7.58678 30.6375 9.69603 30.3494 10.9527C30.2179 11.4129 29.9804 11.8359 29.656 12.1878C29.3365 12.5873 28.9387 13.0835 29.2297 13.6725C29.5108 14.2341 30.1179 14.2796 30.6532 14.3192C31.07 14.3329 31.4826 14.4076 31.8778 14.5408C32.4837 14.788 33.0043 15.2065 33.3759 15.745H27.5357C27.6698 15.0085 27.8173 14.2714 27.9876 13.546C28.3054 12.1913 28.6927 10.8355 29.1382 9.51701L28.0337 9.14379C27.5759 10.4973 27.1782 11.8887 26.8517 13.2789C26.661 14.0924 26.4965 14.9193 26.3507 15.745H22.6011C22.7581 15.1651 22.7946 14.5592 22.7084 13.9647ZM18.6718 12.2461V11.1323C19.3224 11.2434 19.9285 11.5359 20.4202 11.9762C20.9118 12.4165 21.2692 12.9867 21.4511 13.6212L20.237 14.0259L20.6055 15.1339L21.5753 14.8108C21.5564 15.1296 21.4926 15.4441 21.3858 15.745H14.7915C14.6573 15.3709 14.589 14.9763 14.5898 14.5787C14.59 14.4619 14.596 14.3451 14.6079 14.2289L15.5718 14.5502L15.9403 13.4422L14.921 13.1022C15.1608 12.5896 15.5211 12.1427 15.9712 11.7996C16.4212 11.4566 16.9477 11.2276 17.5055 11.1323V12.2461H18.6718ZM11.4728 5.93005C13.0625 5.45654 15.7158 6.74238 16.625 9.04932C16.7547 9.37938 16.8427 9.72436 16.8868 10.0762C15.6998 10.3877 14.6845 11.1565 14.0629 12.2146C13.4413 13.2727 13.264 14.5339 13.5698 15.7223L13.5214 15.745H10.832C11.0815 15.4855 11.3259 15.2202 11.5481 14.9403C12.9261 13.1684 13.777 11.0441 14.0031 8.81081L12.8438 8.68369C12.6381 10.6983 11.8725 12.6152 10.6337 14.2172C10.601 14.2586 10.5614 14.2947 10.5281 14.3338C11.3845 11.9059 11.2628 9.24015 10.1887 6.90042C10.5 6.44603 10.9507 6.10539 11.4728 5.93005ZM1.24207 6.04669C1.40395 5.75294 1.62443 5.49558 1.88985 5.29054C2.15527 5.08551 2.45998 4.93717 2.78508 4.85473C3.49764 4.60912 4.2526 4.51055 5.00433 4.56498C5.75606 4.6194 6.48895 4.82569 7.1587 5.17138C9.94849 6.78204 10.5865 11.4233 9.27378 14.3408C9.22772 14.4435 9.17348 14.5379 9.121 14.6324C9.00845 14.1571 8.88191 13.6865 8.72796 13.2276C7.77514 10.4346 6.11169 7.93769 3.90123 5.98254L3.11864 6.84677C5.18004 8.66817 6.73209 10.9945 7.62231 13.5973C7.85513 14.2989 8.03582 15.0168 8.16289 15.745H7.15462C5.80641 14.1692 4.56522 12.5049 3.43938 10.7632C1.78265 8.20142 0.932417 6.82869 1.24207 6.04552V6.04669ZM1.29397 14.8336C1.48714 14.4426 1.81253 14.1327 2.21243 13.9589C2.70486 13.6886 3.22071 13.4633 3.75369 13.2859C4.359 14.1291 4.98783 14.9488 5.64018 15.745H1.20825C1.14686 15.4394 1.17667 15.1224 1.29397 14.8336ZM18.0887 32.0732H16.9224C12.8488 32.0687 8.93521 30.4874 6.0019 27.6608C3.06859 24.8342 1.34335 20.9819 1.18784 16.9113H33.8232C33.6677 20.9819 31.9425 24.8342 29.0091 27.6608C26.0758 30.4874 22.1622 32.0687 18.0887 32.0732Z" fill="black"/>
<path id="Vector_2" d="M18.6718 13.4124H17.5055V14.5787H18.6718V13.4124Z" fill="black"/>
<path id="Vector_3" d="M18.6718 5.24834V6.41464C18.6718 6.5693 18.7332 6.71763 18.8426 6.82699C18.9519 6.93635 19.1002 6.99779 19.2549 6.99779H21.5875C22.979 6.99625 24.313 6.4428 25.2969 5.45888C26.2809 4.47496 26.8343 3.14092 26.8358 1.74945V0.583149C26.8358 0.428489 26.7744 0.280162 26.665 0.170801C26.5557 0.0614389 26.4074 0 26.2527 0H23.9201C22.5286 0.00154351 21.1946 0.554988 20.2107 1.53891C19.2267 2.52283 18.6733 3.85687 18.6718 5.24834ZM23.9201 1.1663H25.6695V1.74945C25.6683 2.83169 25.2378 3.86926 24.4726 4.63453C23.7073 5.39979 22.6697 5.83026 21.5875 5.83149H20.8294L23.7148 3.35836L22.9567 2.47314L19.8427 5.14221C19.8704 4.07889 20.312 3.06836 21.0735 2.32576C21.8351 1.58317 22.8564 1.16715 23.9201 1.1663Z" fill="black"/>
</g>
</svg>
