<svg width="25" height="23" viewBox="0 0 25 23" fill="none" xmlns="http://www.w3.org/2000/svg">
<g id="Group">
<path id="Vector" d="M24.0304 13.2927C24.4717 12.9063 24.7564 12.3491 24.7707 11.7306C24.7844 11.1335 24.5596 10.5727 24.1379 10.152C23.7299 9.74406 23.1873 9.51935 22.61 9.51935H19.9288C21.1497 8.61325 21.9426 7.16129 21.9426 5.5275C21.9426 2.78794 19.7138 0.559082 16.9742 0.559082C14.9511 0.559082 13.2068 1.77471 12.4326 3.51373C11.6585 1.77471 9.91413 0.559082 7.89103 0.559082C5.15148 0.559082 2.92261 2.78789 2.92261 5.5275C2.92261 7.35114 3.91041 8.94816 5.37887 9.81242C2.27549 10.7117 0 13.5794 0 16.9687V21.6858C0 22.3375 0.530177 22.8677 1.18189 22.8677H6.07594C6.34557 22.8677 6.56422 22.6491 6.56422 22.3794C6.56422 22.1098 6.34557 21.8912 6.07594 21.8912H4.44449V17.7307C4.44449 17.4611 4.22584 17.2424 3.95621 17.2424C3.68658 17.2424 3.46793 17.4611 3.46793 17.7307V21.8912H1.18189C1.0687 21.8912 0.976564 21.799 0.976564 21.6858V16.9687C0.976564 13.3996 3.88028 10.496 7.44933 10.496H20.3876V12.8646H15.0728C13.5998 12.8646 12.4014 14.063 12.4014 15.536V21.8912H10.5251C10.2555 21.8912 10.0368 22.1099 10.0368 22.3795C10.0368 22.6491 10.2555 22.8678 10.5251 22.8678L23.8181 22.8678C24.4698 22.8678 25 22.3376 25 21.6859V16.9688C25 15.6764 24.6647 14.4095 24.0304 13.2927ZM16.9742 1.5357C19.1753 1.5357 20.966 3.32642 20.966 5.52755C20.966 7.72868 19.1753 9.5194 16.9742 9.5194C14.773 9.5194 12.9823 7.72868 12.9823 5.52755C12.9823 3.32642 14.773 1.5357 16.9742 1.5357ZM3.89918 5.5275C3.89918 3.32637 5.6899 1.53565 7.89103 1.53565C10.0922 1.53565 11.8829 3.32637 11.8829 5.5275C11.8829 7.72863 10.0922 9.51935 7.89103 9.51935C5.6899 9.51935 3.89918 7.72868 3.89918 5.5275ZM10.8445 9.51935C11.5302 9.01051 12.0815 8.33004 12.4326 7.54127C12.7837 8.33004 13.3349 9.01051 14.0207 9.51935H10.8445ZM21.3642 10.4959H22.61C22.9264 10.4959 23.2238 10.619 23.4478 10.8429C23.6788 11.0735 23.8019 11.3807 23.7944 11.7081C23.7796 12.3458 23.2333 12.8645 22.5764 12.8645H21.3643V10.4959H21.3642ZM24.0235 21.6859C24.0235 21.7991 23.9313 21.8912 23.8181 21.8912H21.532V17.7307C21.532 17.4611 21.3134 17.2424 21.0437 17.2424C20.7741 17.2424 20.5555 17.4611 20.5555 17.7307V21.8912H13.378V15.5359C13.378 14.6014 14.1383 13.8411 15.0728 13.8411H22.5764C22.7823 13.8411 22.9819 13.8118 23.1718 13.7583C23.7289 14.7324 24.0235 15.8392 24.0235 16.9687V21.6859Z" fill="black"/>
<path id="Vector_2" d="M8.29639 22.8677C8.56606 22.8677 8.78467 22.6491 8.78467 22.3794C8.78467 22.1097 8.56606 21.8911 8.29639 21.8911C8.02672 21.8911 7.80811 22.1097 7.80811 22.3794C7.80811 22.6491 8.02672 22.8677 8.29639 22.8677Z" fill="black"/>
</g>
</svg>
