<svg width="35" height="35" viewBox="0 0 35 35" fill="none" xmlns="http://www.w3.org/2000/svg">
<g id="Group">
<g id="Group_2">
<path id="Vector" d="M17.4934 34.4823C26.8727 34.4823 34.4762 26.8789 34.4762 17.4995C34.4762 8.12014 26.8727 0.516663 17.4934 0.516663C8.114 0.516663 0.510529 8.12014 0.510529 17.4995C0.510529 26.8789 8.114 34.4823 17.4934 34.4823Z" fill="#3EA7FB"/>
<path id="Vector_2" d="M34.476 17.4995C34.475 20.2295 33.8161 22.9191 32.5552 25.3404C31.2942 27.7618 29.4683 29.8436 27.2321 31.4095C24.9959 32.9755 22.4152 33.9795 19.7086 34.3365C17.0021 34.6935 14.2493 34.393 11.6836 33.4605C11.7249 31.774 12.1591 30.2367 16.4358 28.8116C18.1031 28.256 18.1725 25.861 18.1902 24.1007C18.205 22.7303 18.2197 21.3578 18.2345 19.9835C18.2434 19.1181 18.2818 18.17 18.8518 17.5173C19.5961 16.6637 20.937 16.6785 22.018 17.0093C23.099 17.3401 24.1268 17.9249 25.258 17.9898C26.9356 18.0843 28.4331 17.0388 29.9955 16.4215C31.3982 15.9088 32.8716 15.6159 34.3638 15.5532C34.4385 16.1993 34.476 16.8491 34.476 17.4995Z" fill="#95D70B"/>
<path id="Vector_3" d="M11.8076 4.19976C11.8637 4.89089 12.0085 5.63814 11.6511 6.22884C11.3173 6.7782 10.6587 7.01153 10.065 7.25667C9.04606 7.67903 8.04481 8.29041 7.51317 9.25622C7.0731 10.0596 7.00812 11.0077 6.75116 11.8878C6.4942 12.768 5.92122 13.6747 5.01743 13.8283C3.66472 14.0587 2.67528 12.5317 1.39935 12.0621C2.24407 9.56968 3.65541 7.3072 5.52241 5.45251C7.3894 3.59781 9.66116 2.20146 12.1591 1.37323C11.8526 2.28209 11.7331 3.24353 11.8076 4.19976Z" fill="#95D70B"/>
<g id="Group_3">
<path id="Vector_4" d="M26.0173 6.5219L20.0287 4.24768L18.5357 5.56525L22.1629 8.73883L26.0173 6.5219Z" fill="#DDDDE3"/>
<path id="Vector_5" d="M15.9375 14.9648L32.9561 6.3795C33.1973 6.25773 33.3811 6.04605 33.4677 5.79009C33.5543 5.53412 33.5369 5.25437 33.4192 5.01112C33.3313 4.82901 33.1916 4.67685 33.0177 4.57363C32.8438 4.47042 32.6433 4.42072 32.4413 4.43075L31.233 4.48982C30.7214 4.19261 30.1394 4.03839 29.5477 4.04333C28.9561 4.04826 28.3767 4.21217 27.8701 4.51788L14.6973 12.4673L13.4891 11.8878C13.1937 11.7456 12.8647 11.6881 12.5386 11.7216C12.2125 11.7552 11.9021 11.8786 11.6419 12.078L11.2907 12.3462L13.9658 14.7105C14.2313 14.9452 14.5611 15.0949 14.9126 15.1402C15.2641 15.1856 15.6211 15.1245 15.9375 14.9648Z" fill="#EDEDF9"/>
<path id="Vector_6" d="M26.9548 7.47321L26.3177 14.92L24.4832 15.6944L22.8461 9.79085L26.9548 7.47321Z" fill="#DDDDE3"/>
</g>
</g>
<g id="Group_4">
<path id="Vector_7" d="M31.8641 7.50855L33.1885 6.84075C33.4991 6.68395 33.7477 6.42702 33.8943 6.11147C34.0408 5.79591 34.0767 5.44017 33.9961 5.10171C33.9155 4.76325 33.7232 4.46185 33.4502 4.24619C33.1771 4.03053 32.8394 3.91322 32.4915 3.91321L31.3546 3.96578C30.8889 3.72684 30.3795 3.58476 29.8573 3.54811C29.3351 3.51146 28.8109 3.581 28.3163 3.75253C24.8042 0.985317 20.3658 -0.332044 15.9127 0.0710197C11.4596 0.474084 7.3299 2.56697 4.37172 5.91984C4.28097 6.02273 4.23481 6.15745 4.2434 6.29438C4.24765 6.36218 4.26521 6.42847 4.29509 6.48948C4.32496 6.55049 4.36656 6.60502 4.4175 6.64995C4.46845 6.69489 4.52774 6.72935 4.59201 6.75136C4.65627 6.77338 4.72424 6.78253 4.79204 6.77828C4.92896 6.76969 5.05687 6.70706 5.14762 6.60417C6.8611 4.66526 9.00706 3.15705 11.4118 2.20163C11.2817 2.87334 11.242 3.55941 11.2936 4.24164C11.3019 4.34501 11.3122 4.44839 11.3232 4.55472C11.3766 5.09403 11.4268 5.60352 11.2109 5.9606C10.995 6.31768 10.5157 6.51527 10.0118 6.72054L9.86884 6.77961C8.49072 7.35112 7.57247 8.07917 7.06298 9.00835C6.77168 9.59742 6.56914 10.2263 6.46194 10.8747C6.39755 11.178 6.33671 11.4654 6.25519 11.7427C6.15772 12.0762 5.77465 13.1752 4.93083 13.3187C4.32003 13.4218 3.75207 12.9962 3.09461 12.5018C2.76269 12.2413 2.4115 12.0065 2.04404 11.7991C2.42038 10.7764 2.89797 9.79378 3.46971 8.86599C3.5417 8.74932 3.56439 8.60882 3.53279 8.47541C3.50119 8.34201 3.41789 8.22662 3.30121 8.15463C3.18454 8.08265 3.04404 8.05996 2.91064 8.09156C2.77723 8.12316 2.66184 8.20646 2.58985 8.32313C0.93618 11.0099 0.0395754 14.0937 -0.00508216 17.2483C-0.0497398 20.4028 0.759211 23.5108 2.33617 26.2433C3.91312 28.9758 6.19943 31.2312 8.95314 32.7707C11.7069 34.3103 14.8256 35.0769 17.9792 34.9892C21.1329 34.9016 24.2042 33.9631 26.8682 32.273C29.5322 30.5828 31.6897 28.204 33.1125 25.3882C34.5353 22.5723 35.1704 19.4242 34.9507 16.277C34.7309 13.1298 33.6644 10.1005 31.8641 7.50973V7.50855ZM17.4934 33.9654C15.6979 33.9655 13.9146 33.6706 12.2148 33.0924C12.2828 31.9499 12.7087 30.5984 16.5997 29.3018C17.1522 29.1165 17.6224 28.7437 17.9287 28.248C18.0028 28.1326 18.0281 27.9925 17.9989 27.8585C17.9697 27.7245 17.8885 27.6076 17.7731 27.5335C17.6577 27.4594 17.5176 27.4342 17.3836 27.4634C17.2496 27.4926 17.1327 27.5738 17.0586 27.6892C16.8797 27.9865 16.6011 28.2107 16.2724 28.3218C12.5805 29.5523 11.4685 30.9452 11.2233 32.7226C10.1237 32.2669 9.07684 31.6931 8.10115 31.0113C7.95839 30.7682 7.82855 30.5176 7.71217 30.2608C7.65598 30.1357 7.55242 30.0381 7.42426 29.9894C7.2961 29.9406 7.15382 29.9448 7.02872 30.0009C6.98071 30.0234 6.93654 30.0533 6.89788 30.0895C4.44142 28.0266 2.64178 25.2904 1.72049 22.2177C0.799201 19.1451 0.796477 15.8701 1.71265 12.796C1.96341 12.9487 2.21475 13.1327 2.47319 13.3276C3.12622 13.8194 3.85633 14.3687 4.74062 14.3687C4.86243 14.3692 4.98406 14.3593 5.1042 14.3392C6.07296 14.1747 6.87425 13.3128 7.24758 12.0354C7.33943 11.72 7.40766 11.401 7.47293 11.0927C7.56054 10.5436 7.72665 10.0099 7.96618 9.50809C8.359 8.79393 9.11037 8.21474 10.2623 7.73597L10.4002 7.67926C11.008 7.43175 11.6968 7.15087 12.0934 6.49785C12.4901 5.84482 12.4151 5.10673 12.3504 4.45459C12.341 4.35535 12.3309 4.2567 12.3232 4.16101C12.2627 3.36348 12.3464 2.56156 12.5704 1.79375C15.0447 1.01442 17.6684 0.832192 20.2267 1.26198C22.7849 1.69177 25.205 2.72136 27.2888 4.26645L25.0657 5.60795L20.2139 3.76376C20.126 3.73038 20.0306 3.72162 19.9381 3.73843C19.8455 3.75524 19.7593 3.79698 19.6888 3.85916L18.1943 5.17643C18.139 5.22494 18.0948 5.28468 18.0644 5.35166C18.0341 5.41863 18.0184 5.4913 18.0184 5.56482C18.0184 5.63834 18.0341 5.71102 18.0644 5.77799C18.0948 5.84497 18.139 5.90471 18.1943 5.95321L20.7638 8.20145L18.837 9.36425C18.7788 9.39932 18.7281 9.4455 18.6877 9.50015C18.6474 9.55481 18.6182 9.61688 18.6019 9.68281C18.5855 9.74874 18.5823 9.81725 18.5925 9.88442C18.6026 9.95159 18.6259 10.0161 18.6609 10.0743C18.696 10.1325 18.7422 10.1832 18.7968 10.2235C18.8515 10.2638 18.9136 10.293 18.9795 10.3094C19.0454 10.3257 19.1139 10.3289 19.1811 10.3188C19.2483 10.3086 19.3128 10.2854 19.371 10.2503L28.1347 4.96348C28.5637 4.70973 29.052 4.57372 29.5504 4.56921C30.0488 4.56469 30.5395 4.69184 30.973 4.93779C31.0592 4.98813 31.1581 5.01225 31.2578 5.0072L32.4392 4.94813H32.4894C32.5862 4.94745 32.6811 4.97445 32.7631 5.02594C32.845 5.07743 32.9105 5.15127 32.9519 5.23875C33.0092 5.35987 33.017 5.49853 32.9738 5.62534C32.9306 5.75215 32.8397 5.85714 32.7204 5.91807L27.3745 8.61406L27.4681 7.51741C27.4761 7.42381 27.4585 7.3298 27.4171 7.24549C27.3756 7.16117 27.312 7.08975 27.233 7.03889C27.1541 6.98804 27.0627 6.95969 26.9688 6.95688C26.8749 6.95408 26.782 6.97693 26.7002 7.02298L22.5927 9.34033C22.492 9.39703 22.4133 9.48581 22.3689 9.59249C22.3246 9.69918 22.3173 9.81764 22.3481 9.92897L22.6458 11.0017L15.705 14.5031C15.4812 14.6165 15.2284 14.66 14.9796 14.628C14.7307 14.5961 14.4971 14.4901 14.3092 14.3238L12.1144 12.3834C12.2898 12.286 12.4862 12.2324 12.6867 12.2273C12.8873 12.2221 13.0861 12.2655 13.2663 12.3538L14.474 12.9327C14.5513 12.9699 14.6366 12.9872 14.7223 12.9831C14.8079 12.9789 14.8912 12.9535 14.9646 12.9091L17.0985 11.6219C17.1567 11.5869 17.2074 11.5407 17.2477 11.486C17.288 11.4313 17.3172 11.3692 17.3335 11.3033C17.3499 11.2373 17.353 11.1688 17.3429 11.1016C17.3328 11.0345 17.3095 10.9699 17.2744 10.9118C17.2393 10.8536 17.1931 10.8029 17.1384 10.7626C17.0838 10.7222 17.0217 10.6931 16.9557 10.6767C16.8898 10.6604 16.8213 10.6572 16.7541 10.6674C16.6869 10.6775 16.6224 10.7008 16.5642 10.7359L14.6683 11.8801L13.7143 11.4229C13.3336 11.2367 12.9084 11.1609 12.4868 11.2039C12.0652 11.2469 11.6641 11.4071 11.3288 11.6662L10.977 11.9347C10.9164 11.981 10.8667 12.0401 10.8316 12.1079C10.7965 12.1756 10.7769 12.2502 10.7741 12.3265C10.7712 12.4027 10.7853 12.4786 10.8153 12.5488C10.8453 12.6189 10.8904 12.6815 10.9475 12.7322L13.6243 15.0994C13.9669 15.4025 14.3927 15.5957 14.8464 15.654C15.3001 15.7124 15.7608 15.6332 16.169 15.4267L22.9279 12.0177L23.9853 15.8325C24.005 15.9033 24.0395 15.9691 24.0866 16.0255C24.1338 16.0819 24.1924 16.1276 24.2586 16.1596C24.3247 16.1916 24.397 16.2091 24.4705 16.2109C24.5439 16.2128 24.617 16.199 24.6847 16.1704L26.5191 15.396C26.6058 15.3593 26.6808 15.2997 26.7361 15.2236C26.7913 15.1474 26.8248 15.0576 26.8328 14.9639L27.2726 9.82471L30.9302 7.98023C32.4312 10.0877 33.4087 12.5223 33.7819 15.0826C32.4216 15.1727 31.082 15.4621 29.8058 15.9415C29.3628 16.116 28.9277 16.3231 28.5062 16.5236C27.4105 17.044 26.3703 17.5331 25.2884 17.4744C24.5856 17.3926 23.9 17.2018 23.256 16.9088C22.9052 16.772 22.5428 16.6308 22.1694 16.5159C20.6227 16.0434 19.2369 16.2903 18.4625 17.1781C17.7382 18.0078 17.7258 19.1939 17.7179 19.9787L17.6836 23.1803C17.6823 23.3173 17.7354 23.4491 17.8312 23.547C17.9271 23.6448 18.0579 23.7005 18.1949 23.7019H18.2005C18.3366 23.7018 18.4671 23.6481 18.5639 23.5524C18.6607 23.4567 18.7158 23.3267 18.7173 23.1906L18.7516 19.9887C18.7602 19.1511 18.8039 18.3578 19.2416 17.8569C19.8288 17.1834 20.9824 17.2325 21.8664 17.5024C22.2025 17.6061 22.5321 17.7343 22.8806 17.8704C23.6247 18.2055 24.4175 18.4197 25.229 18.5052C26.5808 18.5814 27.785 18.0096 28.9505 17.4561C29.3755 17.254 29.7774 17.0632 30.1868 16.9017C31.3797 16.4568 32.6315 16.1896 33.9021 16.1087C33.9403 16.5688 33.96 17.0322 33.9611 17.4989C33.9564 21.8648 32.2198 26.0506 29.1325 29.1376C26.0452 32.2247 21.8593 33.961 17.4934 33.9654ZM21.6936 7.64087L19.3193 5.56276L20.1383 4.84091L23.941 6.2849L21.6936 7.64087ZM23.4525 10.0421L26.3567 8.40406L25.8298 14.5648L24.8256 14.9893L23.4525 10.0421Z" fill="#061720"/>
<path id="Vector_8" d="M18.1874 24.7531C18.1196 24.7491 18.0516 24.7586 17.9874 24.7809C17.9233 24.8032 17.8641 24.838 17.8134 24.8832C17.7626 24.9284 17.7213 24.9832 17.6917 25.0444C17.6621 25.1055 17.6449 25.172 17.641 25.2398C17.6233 25.5992 17.5855 25.9573 17.5279 26.3125C17.5051 26.4477 17.5369 26.5864 17.6163 26.6981C17.6957 26.8098 17.8163 26.8854 17.9515 26.9083C17.9801 26.9132 18.0092 26.9157 18.0383 26.9157C18.1603 26.9155 18.2783 26.8722 18.3714 26.7933C18.4646 26.7145 18.5268 26.6053 18.5472 26.485C18.6118 26.0916 18.6543 25.695 18.6748 25.2968C18.6822 25.1601 18.635 25.026 18.5436 24.9241C18.4523 24.8221 18.3241 24.7606 18.1874 24.7531Z" fill="#061720"/>
<path id="Vector_9" d="M31.567 13.2703C31.6107 13.3966 31.7015 13.501 31.8205 13.5618C31.9394 13.6226 32.0773 13.635 32.2052 13.5964C32.3331 13.5578 32.4411 13.4712 32.5066 13.3548C32.5721 13.2383 32.5899 13.101 32.5564 12.9717C32.3796 12.3857 32.1688 11.8106 31.925 11.2492C31.8704 11.1234 31.7681 11.0245 31.6405 10.9742C31.513 10.9239 31.3707 10.9263 31.2449 10.9809C31.1192 11.0355 31.0202 11.1378 30.9699 11.2653C30.9196 11.3929 30.922 11.5352 30.9766 11.6609C31.2048 12.1853 31.4019 12.7227 31.567 13.2703Z" fill="#061720"/>
<path id="Vector_10" d="M10.9486 15.3071C10.6779 15.5478 10.4195 15.802 10.1745 16.0688C10.0844 16.17 10.0375 16.3025 10.0442 16.4379C10.0508 16.5733 10.1103 16.7006 10.2099 16.7925C10.3095 16.8844 10.4413 16.9335 10.5767 16.9292C10.7122 16.925 10.8405 16.8677 10.9342 16.7697C11.1554 16.5286 11.3887 16.2991 11.6333 16.0818C11.736 15.991 11.7985 15.8631 11.8069 15.7263C11.8154 15.5894 11.7691 15.4548 11.6783 15.3521C11.5875 15.2494 11.4596 15.1869 11.3228 15.1785C11.186 15.17 11.0514 15.2163 10.9486 15.3071Z" fill="#061720"/>
<path id="Vector_11" d="M6.95638 26.5585C6.95638 26.4572 6.95815 26.3556 6.96081 26.2543C6.96472 26.1172 6.91403 25.9842 6.81986 25.8845C6.7257 25.7848 6.59579 25.7266 6.45871 25.7227C6.32162 25.7188 6.1886 25.7695 6.0889 25.8636C5.9892 25.9578 5.93099 26.0877 5.92707 26.2248C5.92382 26.3347 5.92234 26.4448 5.92205 26.5559C5.92075 27.2052 5.97758 27.8533 6.09188 28.4925C6.11357 28.6115 6.17627 28.7191 6.26908 28.7966C6.36189 28.8742 6.47894 28.9168 6.59989 28.9169C6.6311 28.917 6.66224 28.9141 6.69292 28.9084C6.82776 28.8839 6.94734 28.8068 7.02538 28.6942C7.10342 28.5815 7.13352 28.4425 7.10908 28.3076C7.00608 27.7303 6.95497 27.145 6.95638 26.5585Z" fill="#061720"/>
<path id="Vector_12" d="M9.50552 17.6977C9.39172 17.6212 9.25224 17.5931 9.11772 17.6195C8.98319 17.6458 8.86464 17.7245 8.78811 17.8382C8.37252 18.4574 7.99657 19.1023 7.66251 19.769C7.63013 19.8298 7.61024 19.8965 7.60401 19.9651C7.59779 20.0338 7.60534 20.1029 7.62625 20.1686C7.64715 20.2343 7.68097 20.2951 7.72573 20.3475C7.77048 20.3999 7.82526 20.4428 7.88685 20.4738C7.94844 20.5047 8.01559 20.523 8.08435 20.5276C8.15311 20.5322 8.22209 20.5229 8.28724 20.5005C8.35239 20.478 8.41239 20.4428 8.46371 20.3968C8.51503 20.3508 8.55664 20.295 8.58608 20.2327C8.90083 19.6051 9.25487 18.998 9.64611 18.4151C9.72254 18.3013 9.75067 18.1618 9.7243 18.0273C9.69794 17.8927 9.61925 17.7742 9.50552 17.6977Z" fill="#061720"/>
<path id="Vector_13" d="M7.44521 21.5089C7.3812 21.4863 7.31335 21.4765 7.24556 21.4802C7.17777 21.4838 7.11135 21.5007 7.05011 21.53C6.98886 21.5593 6.93399 21.6004 6.88862 21.6509C6.84325 21.7014 6.80827 21.7603 6.78569 21.8244C6.53549 22.5296 6.33553 23.2517 6.1873 23.9852C6.17396 24.0517 6.17385 24.1202 6.187 24.1868C6.20014 24.2534 6.22628 24.3167 6.26391 24.3732C6.30154 24.4297 6.34993 24.4782 6.40632 24.5159C6.4627 24.5537 6.52598 24.58 6.59253 24.5933C6.62605 24.6002 6.66019 24.6037 6.69442 24.6036C6.81383 24.6036 6.92952 24.5621 7.02182 24.4863C7.11411 24.4106 7.17731 24.3052 7.20066 24.1881C7.33992 23.5025 7.52744 22.8276 7.76183 22.1684C7.78441 22.1044 7.79412 22.0364 7.79043 21.9686C7.78673 21.9007 7.76969 21.8343 7.74028 21.773C7.71087 21.7118 7.66967 21.6569 7.61904 21.6116C7.56841 21.5663 7.50934 21.5314 7.44521 21.5089Z" fill="#061720"/>
</g>
</g>
</svg>
