<svg width="30" height="23" viewBox="0 0 30 23" fill="none" xmlns="http://www.w3.org/2000/svg">
<g id="Group">
<g id="Group_2">
<path id="Vector" d="M28.2664 1.69852C27.1296 0.513048 25.5237 -0.104272 23.8855 0.0144519C21.7952 0.226432 20.17 1.73385 19.4045 2.58766C18.639 1.73385 17.0138 0.232321 14.9176 0.0144519C13.2794 -0.104272 11.6735 0.513048 10.5366 1.69852C9.59126 2.54519 8.99154 3.71093 8.85257 4.97244C7.90705 4.30315 6.78385 3.93013 5.62576 3.90076C4.15478 3.94875 2.75968 4.56504 1.73356 5.62016C0.381451 6.86819 -0.240211 8.71993 0.0848253 10.531C0.726655 15.0592 5.97317 20.6531 10.3364 22.8436C10.5031 22.9275 10.6997 22.9275 10.8664 22.8436C13.2669 21.5423 15.4132 19.8189 17.2022 17.756C17.821 18.1913 18.4682 18.5847 19.1395 18.9337C19.3061 19.0177 19.5028 19.0177 19.6695 18.9337C24.0033 16.7491 29.2792 11.1375 29.9152 6.6094C30.2402 4.79829 29.6185 2.94655 28.2664 1.69852ZM10.6014 21.66C6.57967 19.5108 1.82778 14.4468 1.25072 10.3662C0.97875 8.93772 1.46424 7.4702 2.53438 6.48574C3.34689 5.64018 4.45412 5.14033 5.62576 5.09021C8.15186 5.09021 10.1009 7.75174 10.1186 7.78118C10.2285 7.9356 10.406 8.02761 10.5955 8.02849C10.7851 8.02761 10.9626 7.9356 11.0725 7.78118C11.0725 7.78118 13.0333 5.09021 15.5888 5.09021C16.7605 5.14033 17.8677 5.64018 18.6802 6.48574C19.7525 7.46895 20.2403 8.93669 19.9698 10.3662C19.375 14.4468 14.6231 19.5108 10.6014 21.66ZM28.7492 6.44452C28.1604 10.5193 23.4497 15.5891 19.3985 17.7325C18.8987 17.4634 18.4133 17.1686 17.9441 16.8492C19.587 14.7942 20.8058 12.5566 21.0944 10.531C21.4194 8.71993 20.7977 6.86819 19.4456 5.62016C18.4264 4.5777 17.0457 3.96641 15.5888 3.91254C13.2629 3.91254 11.4669 5.59071 10.619 6.5093C10.46 6.32676 10.2598 6.12067 10.0302 5.92046C9.93963 4.66256 10.4299 3.43249 11.3609 2.58177C12.2539 1.63581 13.5186 1.13169 14.8174 1.2039C17.1727 1.43943 18.9392 3.85365 18.9392 3.87721C19.0491 4.03163 19.2267 4.12363 19.4162 4.12452C19.6057 4.12363 19.7833 4.03163 19.8931 3.87721C19.8931 3.87721 21.6596 1.44532 24.015 1.20979C25.316 1.135 26.5835 1.63941 27.4773 2.58766C28.5353 3.56969 29.0155 5.0258 28.7492 6.44452Z" fill="black"/>
</g>
</g>
</svg>
