<svg width="20" height="20" viewBox="0 0 20 20" fill="none" xmlns="http://www.w3.org/2000/svg">
<g id="Group 15">
<g id="Group">
<g id="Group_2">
<path id="Vector" d="M17.9945 18.3361C17.5988 18.6144 17.3129 18.8154 16.6649 18.8154C16.0169 18.8154 15.731 18.6144 15.3352 18.3361C14.8965 18.0276 14.3503 17.6437 13.3317 17.6437C12.3131 17.6437 11.767 18.0277 11.3282 18.3361C10.9325 18.6144 10.6466 18.8154 9.99876 18.8154C9.35087 18.8154 9.06498 18.6144 8.66928 18.3361C8.23049 18.0277 7.6844 17.6437 6.66585 17.6437C5.64723 17.6437 5.10118 18.0277 4.66239 18.3361C4.26669 18.6144 3.98079 18.8154 3.33291 18.8154C2.68502 18.8154 2.39916 18.6144 2.00346 18.3361C1.56468 18.0277 1.01863 17.6437 0 17.6437V18.8154C0.647847 18.8154 0.933783 19.0165 1.32948 19.2947C1.76827 19.6032 2.31436 19.9872 3.33291 19.9872C4.35153 19.9872 4.89758 19.6032 5.33637 19.2947C5.73207 19.0165 6.01797 18.8154 6.66585 18.8154C7.31374 18.8154 7.5996 19.0165 7.9953 19.2947C8.43408 19.6032 8.98017 19.9872 9.99872 19.9872C11.0173 19.9872 11.5634 19.6032 12.0022 19.2947C12.3979 19.0165 12.6838 18.8154 13.3317 18.8154C13.9796 18.8154 14.2656 19.0165 14.6613 19.2947C15.1001 19.6032 15.6462 19.9872 16.6648 19.9872C17.6835 19.9872 18.2296 19.6032 18.6684 19.2947C19.0641 19.0165 19.35 18.8154 19.998 18.8154V17.6437C18.9794 17.6437 18.4333 18.0276 17.9945 18.3361Z" fill="black"/>
</g>
</g>
<g id="Group_3">
<g id="Group_4">
<path id="Vector_2" d="M19.3927 4.27969C18.7484 2.89794 17.6614 1.81201 16.2975 1.17264L16.5738 0.413698L15.4726 0.0128021L15.1962 0.772133C12.0124 -0.0705176 8.64359 1.64537 7.49575 4.7991L7.25923 5.44898L7.93914 5.57546C9.03792 5.77987 10.0884 6.16221 11.0614 6.7119L11.1982 6.78916L11.3553 6.78764C11.375 6.78745 11.3948 6.78737 11.4145 6.78737C11.9317 6.78737 12.4427 6.8535 12.9364 6.981L10.2062 14.4821C10.1371 14.4812 10.0681 14.48 9.99897 14.48C8.18863 14.48 6.41072 14.7764 4.71459 15.3611C3.64605 15.7294 2.62328 16.2079 1.65735 16.789C2.10363 16.9746 2.43246 17.2055 2.67726 17.3776C2.73074 17.4152 2.77605 17.447 2.81668 17.4748C3.5464 17.0773 4.30796 16.7407 5.09647 16.4689C6.66946 15.9266 8.31891 15.6518 9.99897 15.6518C11.679 15.6518 13.3284 15.9266 14.9015 16.4688C15.6899 16.7406 16.4515 17.0773 17.1813 17.4748C17.2218 17.447 17.2671 17.4153 17.3204 17.3778C17.5653 17.2056 17.8943 16.9746 18.3406 16.7889C17.3747 16.2079 16.352 15.7294 15.2834 15.361C14.037 14.9314 12.7463 14.6581 11.4311 14.543L14.0376 7.38166C14.5153 7.6097 14.9648 7.90064 15.3731 8.25005L15.4925 8.3522L15.6469 8.38091C16.7457 8.58532 17.7962 8.96766 18.7692 9.51735L19.3714 9.8575L19.608 9.20758C20.1966 7.58994 20.1202 5.83987 19.3927 4.27969ZM18.6975 8.1581C17.8447 7.7465 16.9453 7.44482 16.0138 7.2583C14.7394 6.21479 13.1488 5.63585 11.5018 5.61609C10.6685 5.16027 9.78589 4.81332 8.868 4.58035C10.0661 2.26017 12.838 1.13217 15.3552 2.04834C16.6787 2.53005 17.7354 3.49833 18.3306 4.77484C18.8297 5.84518 18.9543 7.02479 18.6975 8.1581Z" fill="black"/>
</g>
</g>
<g id="Group_5">
<g id="Group_6">
<path id="Vector_3" d="M7.14347 10.5948L8.59291 9.83196L7.14347 9.06912L8.01729 7.68373L6.38062 7.7478L6.44468 6.11113L5.0593 6.98495L4.29646 5.53551L3.53361 6.98495L2.14823 6.11113L2.21229 7.7478L0.575621 7.68373L1.44944 9.06912L0 9.83196L1.44944 10.5948L0.575621 11.9802L2.21229 11.9161L2.14823 13.5528L3.53361 12.6789L4.29646 14.1284L5.0593 12.679L6.44468 13.5528L6.38062 11.9161L8.01729 11.9802L7.14347 10.5948ZM4.29646 11.9802C3.11002 11.9802 2.14823 11.0184 2.14823 9.83196C2.14823 8.64556 3.11002 7.68373 4.29646 7.68373C5.48289 7.68373 6.44468 8.64556 6.44468 9.83196C6.44468 11.0184 5.48289 11.9802 4.29646 11.9802Z" fill="black"/>
</g>
</g>
</g>
</svg>
