<svg width="20" height="18" viewBox="0 0 20 18" fill="none" xmlns="http://www.w3.org/2000/svg">
<g id="Group 16">
<g id="Group">
<g id="Group_2">
<path id="Vector" d="M19.7423 14.8748L11.5387 1.26963C11.2155 0.73365 10.6259 0.400681 9.99998 0.400681C9.37408 0.400681 8.78451 0.73365 8.46127 1.26967L0.257635 14.8748C-0.076389 15.4288 -0.0862719 16.1228 0.231814 16.6861C0.549978 17.2494 1.14943 17.5993 1.79631 17.5993H18.2037C18.8505 17.5993 19.45 17.2494 19.7682 16.6861C20.0863 16.1228 20.0764 15.4287 19.7423 14.8748ZM18.6344 16.0458C18.5468 16.2008 18.3817 16.2972 18.2037 16.2972H1.79631C1.61822 16.2972 1.45318 16.2009 1.36564 16.0458C1.27806 15.8908 1.2808 15.6997 1.37271 15.5472L9.57643 1.94205C9.66541 1.79451 9.82772 1.70283 10 1.70283C10.1723 1.70283 10.3346 1.79451 10.4236 1.94205L18.6272 15.5472C18.7192 15.6997 18.7219 15.8908 18.6344 16.0458Z" fill="black"/>
</g>
</g>
<g id="Group_3">
<g id="Group_4">
<path id="Vector_2" d="M10.0063 5.75824C9.51101 5.75824 9.12445 6.02402 9.12445 6.49519C9.12445 7.93277 9.29355 9.99855 9.29355 11.4362C9.29359 11.8107 9.6198 11.9677 10.0064 11.9677C10.2963 11.9677 10.707 11.8107 10.707 11.4362C10.707 9.99859 10.8761 7.93281 10.8761 6.49519C10.8761 6.02406 10.4775 5.75824 10.0063 5.75824Z" fill="black"/>
</g>
</g>
<g id="Group_5">
<g id="Group_6">
<path id="Vector_3" d="M10.0178 12.801C9.4863 12.801 9.08759 13.2239 9.08759 13.7313C9.08759 14.2266 9.48626 14.6615 10.0178 14.6615C10.5131 14.6615 10.936 14.2266 10.936 13.7313C10.936 13.2239 10.5131 12.801 10.0178 12.801Z" fill="black"/>
</g>
</g>
</g>
</svg>
