<svg width="16" height="18" viewBox="0 0 16 18" fill="none" xmlns="http://www.w3.org/2000/svg">
<path id="Vector" d="M4.7551 0.993676C4.967 1.13921 5.15454 1.31205 5.34194 1.48739C5.49885 1.62045 5.59976 1.63674 5.8069 1.62475C5.90695 1.6106 6.00581 1.59184 6.10491 1.57216C6.40668 1.51224 6.67972 1.48241 6.96388 1.62475C7.09905 1.73571 7.17647 1.8748 7.20929 2.04547C7.21895 2.26604 7.18209 2.43454 7.03947 2.60547C6.62827 2.99209 6.62827 2.99209 6.43798 2.99209C6.44598 3.0188 6.45398 3.04551 6.46222 3.07303C6.54104 3.35616 6.58644 3.59289 6.44674 3.86201C6.37019 3.97047 6.29706 4.03424 6.19256 4.11401C6.24536 4.14074 6.29817 4.16746 6.35103 4.19407C6.39627 4.21687 6.44145 4.23978 6.48658 4.26279C6.60477 4.32249 6.72018 4.3733 6.84555 4.4164C7.24968 4.59568 7.51786 5.08445 7.74601 5.44053C7.92636 5.7213 8.06445 5.91945 8.39476 6.01601C8.64378 6.06899 8.87278 6.07833 9.09883 5.95109C9.18626 5.89302 9.26885 5.82982 9.35233 5.7662C9.81931 5.42079 10.357 5.30071 10.9278 5.2907C10.9698 5.28953 10.9698 5.28953 11.0126 5.28832C11.2396 5.28924 11.3626 5.36479 11.5304 5.51859C11.6216 5.67158 11.6386 5.83246 11.6619 6.00724C12.1464 6.0051 12.4806 5.73376 12.8513 5.4553C13.3535 5.07845 13.8835 4.7218 14.5368 4.78014C14.9023 4.85531 15.1985 4.99211 15.4133 5.30604C15.5124 5.475 15.5119 5.64118 15.4834 5.83194C15.3272 6.21581 14.9175 6.43736 14.5849 6.6501C14.4986 6.7008 14.4986 6.7008 14.4667 6.77856C14.4649 6.85208 14.4654 6.92566 14.467 6.99919C14.4676 7.04373 14.4681 7.08827 14.4687 7.13416C14.4702 7.22803 14.4721 7.32186 14.4742 7.41573C14.478 7.7515 14.4544 7.96107 14.2213 8.21601C14.1692 8.25072 14.1692 8.25072 14.1161 8.28613C14.0719 8.42065 14.0865 8.52387 14.1139 8.66084C14.1468 8.85895 14.1612 9.05208 14.1643 9.25247C14.1652 9.2796 14.1661 9.30672 14.167 9.33467C14.1675 9.45579 14.1609 9.53358 14.0934 9.63567C13.9285 9.74136 13.7428 9.71245 13.5551 9.68853C13.2161 9.59345 12.9685 9.44078 12.7882 9.13853C12.695 8.99228 12.6199 8.9417 12.4533 8.89845C12.3498 8.87976 12.246 8.86582 12.1418 8.85147C12.0096 8.83057 11.9522 8.81947 11.8438 8.73753C11.7866 8.59923 11.7854 8.49421 11.8372 8.35625C11.977 8.13648 12.1779 7.99726 12.3982 7.86542C12.3573 7.86847 12.3573 7.86847 12.3157 7.87158C11.9937 7.88503 11.747 7.81321 11.4515 7.69012C11.3931 7.66672 11.3347 7.64333 11.2762 7.62C11.2878 7.66338 11.2994 7.70677 11.3113 7.75147C11.3458 7.91366 11.3453 8.06226 11.3388 8.22658C11.3277 8.52896 11.3317 8.73163 11.5312 8.9772C11.655 9.14128 11.6796 9.31192 11.6619 9.51323C11.6064 9.67707 11.5508 9.78964 11.4165 9.89889C11.3258 9.92953 11.242 9.9532 11.1491 9.97339C11.1241 9.97947 11.099 9.98555 11.0731 9.99181C10.9379 10.0239 10.8077 10.0437 10.6693 10.0567C10.4804 10.0911 10.3834 10.2265 10.2659 10.3662C10.1124 10.5467 9.93708 10.6558 9.73361 10.7754C9.36669 11.0241 9.25868 11.2568 9.15941 11.6813C9.04609 12.1596 8.85685 12.5674 8.42763 12.8461C8.21184 12.966 7.98051 13.0576 7.75228 13.1508C7.47871 13.2637 7.22988 13.3741 7.10385 13.6604C7.01354 13.8974 6.97183 14.1174 6.94854 14.369C6.84668 15.29 6.54024 16.2625 5.81484 16.8898C5.56152 17.082 5.36095 17.1848 5.03558 17.1563C4.66537 17.0675 4.45366 16.832 4.24221 16.5286C4.00843 16.1461 3.85831 15.7245 3.72084 15.3003C3.70411 15.2497 3.68736 15.1992 3.6706 15.1486C3.58226 14.8804 3.50153 14.6113 3.42785 14.3386C3.31534 13.918 3.31534 13.918 3.06168 13.5709C2.93106 13.4375 2.92332 13.32 2.9224 13.1369C2.92178 13.0909 2.92116 13.045 2.92052 12.9977C2.92027 12.9736 2.92002 12.9496 2.91977 12.9248C2.91468 12.5176 2.89933 12.1439 2.75669 11.7571C2.72554 11.6674 2.6951 11.5775 2.66466 11.4875C2.64997 11.4443 2.63528 11.4011 2.62015 11.3566C2.50476 10.9831 2.49145 10.6337 2.54633 10.2495C2.51234 10.2719 2.47836 10.2943 2.44334 10.3174C2.26906 10.4156 2.09989 10.4479 1.90251 10.4081C1.63482 10.3262 1.39324 10.1801 1.24911 9.93395C1.18168 9.70094 1.21897 9.55154 1.31923 9.33793C1.27824 9.31759 1.23725 9.29726 1.19502 9.2763C1.14073 9.24866 1.08645 9.221 1.03218 9.19331C1.00522 9.18002 0.978264 9.16673 0.950488 9.15304C0.75271 9.05118 0.614805 8.94581 0.512856 8.74191C0.478281 8.48588 0.508422 8.31322 0.665147 8.10659C0.767909 7.99001 0.856032 7.91464 1.00369 7.86542C1.08471 7.86207 1.16583 7.86086 1.24692 7.86103C1.2899 7.86094 1.33288 7.86085 1.37716 7.86076C1.47096 7.86448 1.54605 7.87246 1.63477 7.90048C1.57104 7.63625 1.46471 7.39523 1.34971 7.15013C1.22495 6.87973 1.13329 6.62017 1.21405 6.32278C1.29722 6.13332 1.42421 6.03691 1.61368 5.9615C1.7497 5.92515 1.88376 5.92 2.02413 5.9185C2.21551 5.8875 2.32734 5.78256 2.43745 5.63007C2.47186 5.57924 2.50595 5.52819 2.53976 5.47696C2.72113 5.21104 2.91547 4.97106 3.14413 4.74371C3.38916 4.48964 3.61936 4.11866 3.66825 3.76341C3.64438 3.75762 3.62052 3.75184 3.59593 3.74588C3.40047 3.64606 3.27463 3.49334 3.20493 3.28626C3.15928 3.08032 3.17658 2.87183 3.18631 2.66258C3.19132 2.45852 3.17363 2.34788 3.03717 2.18571C3.01575 2.15819 2.99432 2.13067 2.97225 2.10231C2.93068 2.05113 2.88905 2 2.84735 1.94892C2.75467 1.81765 2.70764 1.7007 2.71944 1.5393C2.721 1.5014 2.721 1.5014 2.72259 1.46274C2.79353 1.28922 2.93673 1.19897 3.10305 1.12266C3.22108 1.07742 3.33987 1.03713 3.46008 0.998058C3.50001 0.983958 3.53994 0.969857 3.58108 0.955329C3.97148 0.825708 4.39248 0.762417 4.7551 0.993676ZM3.72084 1.55463C3.67758 1.56968 3.67758 1.56968 3.63346 1.58504C3.56311 1.60958 3.49295 1.63464 3.42283 1.65981C3.43638 1.67893 3.44994 1.69805 3.46391 1.71774C3.48217 1.74418 3.50043 1.77062 3.51924 1.79786C3.53714 1.82349 3.55504 1.84911 3.57347 1.87551C3.76728 2.19956 3.78697 2.43644 3.76487 2.81063C3.75409 3.02266 3.75409 3.02266 3.85423 3.20396C3.88541 3.2266 3.9166 3.24924 3.94872 3.27257C3.96875 3.28925 3.98877 3.30592 4.00939 3.3231C4.02625 3.33608 4.04311 3.34905 4.06048 3.36241C4.17539 3.462 4.21903 3.52581 4.24345 3.67535C4.26191 4.23156 3.94182 4.77107 3.5806 5.17457C3.5283 5.23036 3.47572 5.28588 3.42283 5.3411C3.2605 5.51373 3.11786 5.68924 2.98677 5.88672C2.80469 6.15819 2.58985 6.40628 2.26585 6.49808C2.11408 6.51591 1.96271 6.52648 1.81007 6.53314C1.76635 6.66431 1.7894 6.69214 1.84582 6.81512C1.86143 6.8499 1.87705 6.88468 1.89313 6.92051C1.90983 6.95682 1.92653 6.99314 1.94374 7.03055C2.28099 7.7682 2.28099 7.7682 2.1541 8.15247C2.09097 8.30519 1.99488 8.42162 1.84513 8.49649C1.61046 8.51184 1.37682 8.48918 1.14393 8.46143C1.13236 8.49614 1.12079 8.53085 1.10887 8.56661C1.13265 8.57723 1.15642 8.58785 1.18091 8.5988C1.2857 8.64597 1.39012 8.69391 1.49453 8.74191C1.54402 8.76394 1.54402 8.76394 1.59451 8.78642C1.62515 8.80066 1.65579 8.81489 1.68736 8.82956C1.7152 8.84222 1.74304 8.85487 1.77172 8.86791C1.86662 8.93164 1.90285 8.98878 1.95031 9.09251C1.98174 9.32147 1.97485 9.52901 1.84513 9.72359C1.90385 9.78447 1.90385 9.78447 1.98537 9.82877C2.14166 9.78813 2.22205 9.70462 2.3294 9.58773C2.52009 9.39252 2.6752 9.26503 2.9539 9.25247C3.09633 9.25984 3.19856 9.29076 3.31765 9.37299C3.41523 9.48684 3.44521 9.59496 3.44008 9.7455C3.40245 9.92709 3.30069 10.0881 3.21247 10.2495C3.05762 10.5385 3.06979 10.8127 3.16312 11.1222C3.20128 11.2409 3.24172 11.3588 3.28259 11.4766C3.40374 11.8396 3.50431 12.1875 3.48596 12.5736C3.4631 13.0617 3.4631 13.0617 3.72357 13.4627C3.84007 13.606 3.87774 13.7725 3.92462 13.9483C4.01857 14.2983 4.12127 14.6435 4.23489 14.9876C4.25268 15.0417 4.2703 15.0958 4.28771 15.15C4.52239 15.9117 4.52239 15.9117 5.00052 16.5252C5.10103 16.5834 5.10103 16.5834 5.21088 16.5603C5.71067 16.3067 6.00858 15.653 6.18598 15.1491C6.28261 14.8384 6.31457 14.5114 6.35277 14.1894C6.41309 13.6911 6.52976 13.2155 6.92882 12.879C7.15135 12.7376 7.39827 12.6362 7.64097 12.5351C8.04794 12.3653 8.31672 12.2032 8.50651 11.7921C8.54278 11.6789 8.56767 11.5644 8.59197 11.4481C8.68234 11.0574 8.80088 10.6719 9.13759 10.4248C9.24236 10.3633 9.3478 10.3033 9.45373 10.2439C9.66326 10.1208 9.82407 9.96428 9.988 9.78617C10.1967 9.56167 10.3933 9.49882 10.6912 9.45845C10.7938 9.44439 10.894 9.42791 10.9958 9.40805C11.0073 9.38491 11.0189 9.36177 11.0308 9.33793C10.9878 9.25995 10.9436 9.18658 10.895 9.11223C10.7132 8.83035 10.683 8.61007 10.7372 8.27956C10.7585 8.14773 10.7585 8.14773 10.7175 8.03195C10.6424 7.76707 10.6418 7.50516 10.7727 7.25954C10.8638 7.14468 10.949 7.06908 11.0941 7.03795C11.351 7.03599 11.5271 7.08511 11.7587 7.19438C11.9947 7.29497 12.2271 7.28312 12.4796 7.26775C12.6978 7.25705 12.8172 7.27741 12.9942 7.40964C13.0912 7.57549 13.1198 7.70987 13.0994 7.90048C13.0393 8.08394 12.9619 8.19284 12.8189 8.32119C12.7957 8.34433 12.7726 8.36747 12.7488 8.39131C12.7699 8.3994 12.7911 8.40749 12.8128 8.41583C12.9894 8.48788 13.0971 8.54382 13.2045 8.70685C13.2399 8.75681 13.2757 8.80646 13.3119 8.85586C13.3289 8.8799 13.346 8.90394 13.3635 8.92872C13.4147 8.99712 13.4147 8.99712 13.5201 9.02239C13.5175 9.00237 13.515 8.98235 13.5124 8.96172C13.4235 8.18525 13.4235 8.18525 13.5902 7.93553C13.6506 7.88171 13.6506 7.88171 13.7173 7.83036C13.8233 7.74737 13.834 7.73122 13.8707 7.59151C13.8763 7.46328 13.8614 7.3385 13.8451 7.21147C13.8116 6.92008 13.8147 6.61743 13.9827 6.36496C14.1416 6.19027 14.3509 6.06478 14.5478 5.93692C14.6867 5.84538 14.7906 5.76019 14.8874 5.62158C14.7274 5.44272 14.6095 5.38712 14.3725 5.36302C13.9417 5.37773 13.5963 5.66203 13.2652 5.90781C12.7479 6.2905 12.2648 6.62221 11.5918 6.5682C11.4157 6.53016 11.2867 6.46261 11.1711 6.32278C11.1381 6.21828 11.1381 6.21828 11.1163 6.10585C11.097 5.99542 11.097 5.99542 11.0659 5.90206C10.7556 5.79862 10.2978 5.9426 10.0141 6.07736C9.85964 6.16036 9.71341 6.25401 9.56817 6.35209C9.18839 6.60492 8.85795 6.69437 8.40475 6.61408C7.93469 6.51403 7.62606 6.34048 7.34953 5.93712C7.31197 5.87834 7.27442 5.81955 7.23736 5.76045C6.96456 5.32579 6.74806 4.99577 6.24857 4.82616C5.9896 4.73168 5.75774 4.57669 5.62379 4.33025C5.55267 4.1319 5.57025 3.93954 5.65351 3.74807C5.72547 3.61995 5.80802 3.56858 5.94714 3.51799C5.93629 3.47749 5.92545 3.437 5.91427 3.39528C5.80975 2.96508 5.80975 2.96508 5.90509 2.74462C6.03661 2.5317 6.26901 2.39752 6.47715 2.26843C6.55271 2.21973 6.55271 2.21973 6.61328 2.11559C6.41794 2.12995 6.22688 2.14882 6.03479 2.1879C5.66651 2.25663 5.39117 2.24112 5.07242 2.03671C4.88897 1.90572 4.72653 1.75008 4.56282 1.59572C4.41857 1.47118 4.32754 1.43535 4.13238 1.44042C3.98852 1.45699 3.85643 1.50561 3.72084 1.55463Z" fill="#005CE8"/>
</svg>
