<svg width="20" height="19" viewBox="0 0 20 19" fill="none" xmlns="http://www.w3.org/2000/svg">
<path id="Vector" d="M9.99359 19C9.45496 19 8.95599 18.7649 8.62396 18.3545L6.62628 15.9046L3.12454 15.9026C1.40182 15.9026 0 14.547 0 12.8807V3.02187C0 1.35556 1.40182 0 3.125 0H16.875C18.5982 0 20 1.35556 20 3.02187V9.10338C20 9.52066 19.6503 9.85885 19.2188 9.85885C18.7872 9.85885 18.4375 9.52066 18.4375 9.10338V3.02187C18.4375 2.18879 17.7365 1.51093 16.875 1.51093H3.125C2.26349 1.51093 1.5625 2.18879 1.5625 3.02187V12.8807C1.5625 13.7138 2.26349 14.3917 3.125 14.3917L7.00592 14.3939C7.24503 14.394 7.47086 14.5001 7.61887 14.6816L9.85291 17.4212C9.89853 17.4777 9.95422 17.4891 9.99374 17.4891H9.99451C10.0339 17.4889 10.09 17.4773 10.1337 17.4225C10.135 17.4207 10.1364 17.419 10.1378 17.4174L12.3537 14.6813C12.5018 14.4985 12.7286 14.3917 12.9688 14.3917H16.875C17.7367 14.3917 18.4375 13.7138 18.4375 12.8807C18.4375 12.4634 18.7872 12.1252 19.2188 12.1252C19.6503 12.1252 20 12.4634 20 12.8807C20 14.547 18.5982 15.9026 16.875 15.9026H13.3493L11.3696 18.3468C11.0394 18.7599 10.5408 18.9979 10.0006 19C9.99832 19 9.99588 19 9.99359 19ZM10.7812 11.5209V7.44135C10.7812 7.02407 10.4315 6.68588 10 6.68588C9.56848 6.68588 9.21875 7.02407 9.21875 7.44135V11.5209C9.21875 11.9382 9.56848 12.2763 10 12.2763C10.4315 12.2763 10.7812 11.9382 10.7812 11.5209ZM10 4.07952C9.56848 4.07952 9.21875 4.41771 9.21875 4.83499C9.21875 5.25227 9.56848 5.59046 10 5.59046C10.4315 5.59046 10.7812 5.25227 10.7812 4.83499C10.7812 4.41771 10.4315 4.07952 10 4.07952Z" fill="#005CE8"/>
</svg>
