<svg width="16" height="19" viewBox="0 0 16 19" fill="none" xmlns="http://www.w3.org/2000/svg">
<g id="Group 1171275280">
<g id="Group">
<g id="Group_2">
<path id="Vector" d="M2.96506 6.63135C1.63031 6.63135 0.549805 7.71186 0.549805 9.0466C0.549805 10.3813 1.63031 11.4619 2.96506 11.4619C4.2998 11.4619 5.38031 10.3813 5.38031 9.0466C5.37608 7.71609 4.29557 6.63558 2.96506 6.63135ZM2.96506 10.6144C2.10065 10.6144 1.39726 9.91525 1.39726 9.0466C1.39726 8.1822 2.09642 7.47881 2.96506 7.47881C3.82947 7.47881 4.53286 8.17796 4.53286 9.0466C4.52862 9.91101 3.82947 10.6102 2.96506 10.6144Z" fill="#005CE8"/>
</g>
</g>
<g id="Group_3">
<g id="Group_4">
<path id="Vector_2" d="M15.1247 7.30957H6.50185C6.2688 7.30957 6.07812 7.50025 6.07812 7.7333C6.07812 7.96635 6.2688 8.15703 6.50185 8.15703H15.1247C15.3578 8.15703 15.5485 7.96635 15.5485 7.7333C15.5485 7.50025 15.3578 7.30957 15.1247 7.30957Z" fill="#005CE8"/>
</g>
</g>
<g id="Group_5">
<g id="Group_6">
<path id="Vector_3" d="M11.1459 9.93628H6.50185C6.2688 9.93628 6.07812 10.127 6.07812 10.36C6.07812 10.5931 6.26457 10.7837 6.50185 10.7837H11.1459C11.379 10.7837 11.5697 10.5931 11.5697 10.36C11.5697 10.127 11.379 9.93628 11.1459 9.93628Z" fill="#005CE8"/>
</g>
</g>
<g id="Group_7">
<g id="Group_8">
<path id="Vector_4" d="M2.96506 0C1.63031 0 0.549805 1.08051 0.549805 2.41525C0.549805 3.75 1.63031 4.83051 2.96506 4.83051C4.2998 4.83051 5.38031 3.75 5.38031 2.41525C5.37608 1.08051 4.29557 0 2.96506 0ZM2.96506 3.97881C2.10065 3.97881 1.39726 3.27966 1.39726 2.41102C1.39726 1.54237 2.09642 0.84322 2.96506 0.84322C3.82947 0.84322 4.53286 1.54237 4.53286 2.41102C4.52862 3.27966 3.82947 3.97881 2.96506 3.97881Z" fill="#005CE8"/>
</g>
</g>
<g id="Group_9">
<g id="Group_10">
<path id="Vector_5" d="M15.1247 0.656982H6.50185C6.2688 0.656982 6.07812 0.84766 6.07812 1.08071C6.07812 1.31376 6.2688 1.50444 6.50185 1.50444H15.1247C15.3578 1.50444 15.5485 1.31376 15.5485 1.08071C15.5485 0.84766 15.3578 0.656982 15.1247 0.656982Z" fill="#005CE8"/>
</g>
</g>
<g id="Group_11">
<g id="Group_12">
<path id="Vector_6" d="M11.1459 3.32642H6.50185C6.2688 3.32642 6.07812 3.51709 6.07812 3.75014C6.07812 3.9832 6.26457 4.17387 6.50185 4.17387H11.1459C11.379 4.17387 11.5697 3.9832 11.5697 3.75014C11.5697 3.51709 11.379 3.32642 11.1459 3.32642Z" fill="#005CE8"/>
</g>
</g>
<g id="Group_13">
<g id="Group_14">
<path id="Vector_7" d="M2.96506 13.2669C1.63031 13.2669 0.549805 14.3474 0.549805 15.6822C0.549805 17.0169 1.63031 18.0974 2.96506 18.0974C4.2998 18.0974 5.38031 17.0169 5.38031 15.6822C5.37608 14.3474 4.29557 13.2669 2.96506 13.2669ZM2.96506 17.2457C2.10065 17.2457 1.39726 16.5466 1.39726 15.6779C1.39726 14.8135 2.09642 14.1101 2.96506 14.1101C3.82947 14.1101 4.53286 14.8093 4.53286 15.6779C4.52862 16.5466 3.82947 17.2457 2.96506 17.2457Z" fill="#005CE8"/>
</g>
</g>
<g id="Group_15">
<g id="Group_16">
<path id="Vector_8" d="M15.1247 13.9197H6.50185C6.2688 13.9197 6.07812 14.1104 6.07812 14.3434C6.07812 14.5765 6.2688 14.7671 6.50185 14.7671H15.1247C15.3578 14.7671 15.5485 14.5765 15.5485 14.3434C15.5485 14.1104 15.3578 13.9197 15.1247 13.9197Z" fill="#005CE8"/>
</g>
</g>
<g id="Group_17">
<g id="Group_18">
<path id="Vector_9" d="M11.1459 16.5894H6.50185C6.2688 16.5894 6.07812 16.78 6.07812 17.0131C6.07812 17.2461 6.2688 17.4368 6.50185 17.4368H11.1459C11.379 17.4368 11.5697 17.2461 11.5697 17.0131C11.5697 16.78 11.379 16.5894 11.1459 16.5894Z" fill="#005CE8"/>
</g>
</g>
</g>
</svg>
