<svg width="250" height="237" viewBox="0 0 250 237" fill="none" xmlns="http://www.w3.org/2000/svg">
<g opacity="0.8">
<path d="M194.17 115.396C193.312 117.755 192.26 119.991 191.035 122.087C188.097 127.116 184.178 131.345 179.619 134.615C169.028 142.214 154.989 144.625 141.813 139.835C126.138 134.138 116.07 119.848 114.999 104.216C114.856 102.155 114.87 100.072 115.051 97.9825C115.348 94.4731 116.111 90.9441 117.371 87.4782C118.39 84.6744 119.685 82.0486 121.212 79.6235C121.229 79.5955 121.247 79.5688 121.264 79.5408C125.506 72.8418 131.53 67.6703 138.459 64.4289C140.424 63.5087 142.464 62.7443 144.556 62.1454C145.554 61.8592 146.566 61.611 147.585 61.4034C154.734 59.932 162.365 60.3598 169.731 63.0374C170.707 63.3923 171.662 63.7808 172.593 64.2016C173.909 64.7921 175.178 65.4472 176.4 66.1597C181.546 69.1599 185.852 73.1869 189.154 77.8744H189.156C191.213 80.7933 192.878 83.9674 194.111 87.3099C194.759 89.066 195.288 90.867 195.69 92.703C195.941 93.8461 196.143 94.9991 196.296 96.1661C196.664 98.9671 196.74 101.824 196.51 104.697C196.221 108.269 195.453 111.866 194.17 115.399V115.396Z" fill="#D7E5FF"/>
<path d="M148.973 79.5056C146.559 81.3753 147.199 86.3785 143.019 83.5592C138.839 80.7385 136.216 79.2055 135.033 81.6671C133.847 84.1287 137.552 85.4752 136.577 88.157C135.602 90.8388 133.619 91.1222 131.529 88.92C129.436 86.7179 129.376 84.5986 125.99 84.6687C122.603 84.7388 121.158 83.346 121.323 80.803C121.351 80.3556 121.307 79.9685 121.213 79.6234C121.229 79.5954 121.248 79.5687 121.264 79.5407C125.506 72.8417 131.53 67.6703 138.459 64.4288C140.424 63.5087 142.464 62.7442 144.556 62.1453C145.554 61.8592 146.566 61.6109 147.585 61.4033C148.766 61.883 150.032 62.8564 150.703 64.8089C152.177 69.1051 154.568 68.0938 152.537 71.693C150.505 75.2907 151.342 76.1744 153.559 76.835C155.776 77.4956 158.33 78.4242 157.982 80.1775C157.633 81.9308 151.389 77.6345 148.973 79.5056Z" fill="#AEC3FF"/>
<path d="M194.17 115.396C193.312 117.755 192.26 119.991 191.036 122.087C188.097 127.116 184.178 131.345 179.62 134.615C178.483 134.58 177.45 134.194 176.579 133.416C172.486 129.759 177.91 125.876 180.765 123.986C183.621 122.096 178.319 121.469 175.646 117.788C172.972 114.106 179.232 109.115 175.21 108.846C171.187 108.576 166.295 108.316 165.475 104.007C164.656 99.6978 168.888 100.584 168.147 96.9543C167.407 93.3243 170.906 92.644 174.65 93.6806C178.394 94.7157 178.855 91.9567 183.495 93.2093C188.136 94.4618 185.951 100.173 191.071 101.601C196.19 103.029 195.548 104.096 195.548 104.096C195.91 104.217 196.231 104.419 196.509 104.693C196.22 108.265 195.452 111.861 194.169 115.395L194.17 115.396Z" fill="#AEC3FF"/>
<path d="M196.298 96.1647C191.424 96.6738 191.754 90.5892 187.616 90.9511C183.443 91.3144 185.229 88.3479 183.164 85.2845C181.097 82.2212 174.132 83.8819 175.548 80.7807C176.963 77.6823 180.852 80.106 182.674 77.8786C184.496 75.6499 188.351 77.7734 188.351 77.7734C188.615 77.7692 188.884 77.8029 189.156 77.8744C189.156 77.8744 189.156 77.873 189.157 77.8744C191.215 80.7933 192.88 83.966 194.113 87.3099C194.761 89.066 195.29 90.867 195.692 92.703C195.943 93.8461 196.145 94.9991 196.298 96.1661V96.1647Z" fill="#AEC3FF"/>
<path d="M165.411 72.4687C165.411 72.4687 168.72 70.1264 165.609 67.9481C162.496 65.7712 162.12 67.0041 159.544 65.7432C156.966 64.4822 155.158 66.1752 156.346 69.1726C157.532 72.17 157.58 77.1114 160.242 75.4549C162.904 73.7984 163.192 71.9147 165.412 72.4687H165.411Z" fill="#AEC3FF"/>
</g>
<path d="M210.624 149.354C210.624 149.354 210.94 146.22 209.301 146.328C207.663 146.435 207.228 147.187 207.412 147.79C207.594 148.391 209.189 150.385 209.189 150.385L210.626 149.355L210.624 149.354Z" fill="#FFB27D"/>
<path d="M236.156 155.632C236.156 155.632 234.343 157.764 230.442 160.223C230.073 160.457 229.686 160.691 229.279 160.928C227.764 161.81 225.987 162.715 223.935 163.558C223.709 163.651 223.444 163.753 223.145 163.861C220.807 164.705 216.507 165.902 213.842 166.01C213.61 166.02 213.39 166.02 213.185 166.011C209.129 165.847 208.634 150.103 208.634 150.103C208.634 150.103 209.085 148.527 211.17 148.924C211.17 148.924 214.335 157.817 215.469 158.542C216.476 159.186 222.267 150.408 227.252 149.794C230.607 149.38 236.156 155.636 236.156 155.636V155.632Z" fill="#739AF0"/>
<path d="M225.256 232.414C225.256 232.414 225.557 235.88 224.823 236.241L215.447 236.221C215.447 236.221 215.447 235.138 216.953 234.898C218.459 234.659 221.105 233.776 221.552 231.813C222 229.849 225.256 232.414 225.256 232.414Z" fill="#1C3154"/>
<path d="M218.374 190.465C218.42 192.731 218.529 195.069 218.743 197.171C219.755 207.14 220.112 219.186 220.257 221.509C220.51 225.54 221.307 231.981 221.307 231.981C221.307 231.981 222.886 233.48 225.965 232.765C225.965 232.765 228.516 223.489 229.086 213.722C229.094 213.562 229.102 213.4 229.111 213.239C229.177 211.947 229.245 210.472 229.317 208.88C229.785 198.216 230.296 182.373 230.296 182.373L218.529 179.61C218.529 179.61 218.259 184.816 218.374 190.467V190.465Z" fill="#2A4E96"/>
<path d="M218.374 190.465C221.356 195.609 227.039 205.088 229.317 208.877C229.785 198.213 230.296 182.37 230.296 182.37L218.529 179.607C218.529 179.607 218.259 184.813 218.374 190.465Z" fill="#233862"/>
<path d="M223.144 163.86C220.806 164.704 216.505 165.9 213.84 166.008C214.249 165.933 217.217 165.344 218.313 164.019C219.492 162.594 221.476 158.726 223.056 160.305C223.799 161.049 223.58 162.517 223.144 163.861V163.86Z" fill="#6385DB"/>
<path d="M242.915 188.788C242.915 188.788 243.646 191.653 243.526 192.289C243.406 192.926 242.692 195.081 242.248 195.616C241.803 196.151 241.785 193.292 241.489 192.842C241.193 192.393 241.353 193.909 241.116 194.034C240.879 194.158 240.483 192.886 240.308 192.434C240.133 191.982 240.939 190.411 241.015 189.285C241.089 188.159 242.914 188.788 242.914 188.788H242.915Z" fill="#FFB27D"/>
<path d="M248.614 228.476C248.614 228.476 250.283 229.999 249.958 231.08C249.632 232.163 248.126 232.884 247.923 234.207C247.719 235.53 246.906 236.251 246.172 236.251H242.68C242.68 236.251 242.14 235.319 243.443 235.039C244.746 234.758 245.237 233.204 245.155 231.761C245.074 230.317 245.277 228.394 245.277 228.394L248.045 227.753L248.614 228.474V228.476Z" fill="#1C3154"/>
<path d="M220.382 182.611C220.382 182.611 231.397 206.178 237.258 216.518C243.12 226.859 244.952 229.745 244.952 229.745C244.952 229.745 248.31 228.423 248.616 227.521C248.616 227.521 246.374 207.557 242.448 202.691C240.231 199.942 237.625 191.689 237.503 188.804C237.381 185.919 234.807 179.03 234.807 179.03L220.382 182.611Z" fill="#2A4E96"/>
<path d="M218.33 181.385C218.33 181.385 221.917 185.245 228.011 186.411C230.686 186.923 236.115 187.418 237.462 185.513C237.778 185.066 237.78 184.404 237.71 183.37C237.529 180.684 236.853 175.49 239.904 165.053C240.189 164.083 240.379 163.151 240.49 162.263C241.157 156.924 241.084 152.894 236.452 150.741C229.51 147.515 226.662 150.169 226.662 150.169C226.662 150.169 222.97 151.894 221.283 156.921C217.909 166.976 218.329 181.384 218.329 181.384L218.33 181.385Z" fill="#739AF0"/>
<path d="M232.285 149.854C231.116 150.685 229.06 151.174 227.101 150.194C226.949 150.118 226.969 149.081 227.007 148.063C227.045 147.064 227.138 146.083 227.138 146.083L229.609 144.461L231.965 142.916C231.683 148.233 232.814 149.477 232.286 149.853L232.285 149.854Z" fill="#FFB27D"/>
<path d="M231.55 145.111C231.55 145.111 229.947 147.516 227.007 148.063C227.045 147.064 227.151 145.963 227.151 145.963L229.609 144.463L231.551 145.112L231.55 145.111Z" fill="#ED985F"/>
<path d="M224.925 145.459C224.925 145.459 230.9 147.689 232.23 144.007C233.56 140.325 235.226 138.134 231.467 136.555C227.708 134.975 226.455 136.114 225.708 137.235C224.96 138.356 223.405 144.784 224.925 145.459Z" fill="#FFB27D"/>
<path d="M235.953 136.968C236.021 136.915 236.16 136.888 236.452 136.931C236.452 136.931 236.25 136.741 235.944 136.672C235.963 136.26 235.89 135.51 235.236 135.203C235.236 135.203 235.567 135.473 235.532 135.908C234.897 134.932 233.305 133.998 228.499 133.437C222.165 132.697 223.432 137.096 224.145 137.731C224.859 138.367 227.148 137.464 228.63 137.88C230.111 138.297 229.968 140.527 230.418 140.925C230.87 141.325 230.773 140.757 231.525 140.582C232.276 140.406 232.117 141.563 231.77 142.268C231.424 142.972 232.178 144.141 232.178 144.141L233.341 143.298C234.504 142.456 236.271 138.26 236.02 137.242C235.998 137.152 235.977 137.061 235.954 136.97L235.953 136.968Z" fill="#2C3A64"/>
<path d="M237.71 183.37C237.529 180.684 236.853 175.49 239.904 165.053C240.189 164.083 240.379 163.151 240.49 162.263C238.224 161.516 234.094 163.178 234.094 163.178C234.094 163.178 233.124 176.974 237.712 183.369L237.71 183.37Z" fill="#6385DB"/>
<path d="M237.702 151.439C237.702 151.439 240.49 152.453 242.27 159.838C243.446 164.717 245.61 171.888 245.854 174.142C246.098 176.396 243.38 189.589 243.38 189.589C243.38 189.589 242.997 189.868 242.057 189.681C241.158 189.501 240.74 188.892 240.74 188.892C240.74 188.892 240.091 180.099 240.257 175.946C240.328 174.221 232.272 163.313 227.924 161.907C226.217 161.356 237.702 151.438 237.702 151.438V151.439Z" fill="#739AF0"/>
<path d="M198.691 141.88C198.691 141.88 206.752 141.652 216.054 143.364L217.026 140.915L218.092 138.232C218.092 138.232 208.753 134.212 203.14 128.613L198.691 141.88Z" fill="#AEC3FF"/>
<path d="M203.267 128.481L198.639 142.143C197.961 141.942 197.592 141.216 197.828 140.551L201.901 129.072C202.099 128.516 202.726 128.244 203.267 128.481Z" fill="#F99746"/>
<path d="M207.686 152.048C208.585 152.228 209.468 151.638 209.649 150.739L211.243 142.765C211.422 141.865 210.833 140.983 209.934 140.802C209.034 140.622 208.151 141.211 207.97 142.11L206.377 150.084C206.197 150.985 206.787 151.867 207.686 152.048Z" fill="#F99746"/>
<path d="M198.691 141.88C198.691 141.88 206.752 141.652 216.054 143.364L217.026 140.915C208.285 139.13 198.691 141.88 198.691 141.88Z" fill="#739AF0"/>
<path d="M213.483 142.871L216.002 143.314C215.964 143.315 218.341 143.777 219.121 141.669C219.193 141.524 219.239 141.382 219.271 141.214C219.877 138.587 218.435 138.103 218.435 138.103L215.194 136.839L214.164 140.485V140.497L213.485 142.871H213.483Z" fill="#F99746"/>
<path d="M213.483 142.871L216.002 143.314C215.964 143.315 218.341 143.777 219.121 141.669C217.696 140.632 214.163 140.483 214.163 140.483V140.496L213.484 142.869L213.483 142.871Z" fill="#ED7D2B"/>
<path d="M207.9 144.328C207.9 144.328 209.133 144.819 208.906 145.362C208.68 145.905 207.113 146.651 206.867 146.223C206.62 145.795 207.125 143.871 207.9 144.329V144.328Z" fill="#FFB27D"/>
<path d="M210.648 148.86C210.648 148.86 210.881 147.599 210.895 147.02C210.909 146.44 210.978 145.968 210.842 145.951C210.705 145.934 210.606 146.041 210.551 146.227C210.495 146.414 210.282 147.568 210.282 147.568L210.39 148.683L210.649 148.859L210.648 148.86Z" fill="#FFB27D"/>
<path d="M88.7694 148.037L81.7885 231.044C81.7885 231.044 81.0577 236.075 84.7999 236.085C90.9533 236.099 115.431 236.085 115.431 236.085C115.431 236.085 110.799 235.037 110.855 232.681C110.921 229.904 119.014 147.251 119.014 147.251L88.7694 148.037Z" fill="#7599EA"/>
<path d="M117.734 234.612C116.523 234.617 92.8271 234.656 86.8337 234.579C84.222 234.546 83.7634 232.256 83.7423 230.775C83.7311 230.065 83.8223 229.539 83.8223 229.539L84.0032 227.382L84.4661 221.884L84.8742 217.025L85.4002 210.782L85.842 205.512L90.8032 146.529L121.048 145.743C121.048 145.743 117.64 180.334 115.228 205.511C114.959 208.316 114.704 211.006 114.467 213.517C114.39 214.319 114.317 215.102 114.244 215.865C114.021 218.247 113.816 220.435 113.638 222.366C113.544 223.384 113.457 224.33 113.38 225.197C113.073 228.592 112.892 230.761 112.889 231.173C112.889 231.413 112.909 231.637 112.948 231.845C113.444 234.49 117.279 234.61 117.734 234.61V234.612Z" fill="#90AFF4"/>
<path d="M15.3195 102.866L32.3249 171.173L34.6533 180.527L42.5725 212.341H189.715L160.524 102.866H15.3195Z" fill="#AEC3FF"/>
<path d="M15.3196 102.866L12.9632 103.652L39.4406 214.717L42.574 212.341L15.3196 102.866Z" fill="#90AFF4"/>
<path d="M39.4404 214.718H185.677L189.715 212.341H42.5739L39.4404 214.718Z" fill="#7599EA"/>
<path d="M90.7934 236.117H122.456V234.612H90.7934V236.117Z" fill="#AEC3FF"/>
<path d="M114.408 214.717L114.244 215.868L84.4675 221.884L84.8757 217.025L85.0706 214.717H114.408Z" fill="#5888DD"/>
<path opacity="0.4" d="M117.734 234.612C116.523 234.617 92.8272 234.656 86.8338 234.579C84.2221 234.547 83.7634 232.256 83.7424 230.775L113.378 225.199C113.071 228.595 112.89 230.764 112.888 231.176C112.888 231.416 112.907 231.64 112.946 231.848C113.443 234.493 117.278 234.612 117.732 234.612H117.734Z" fill="#5888DD"/>
<path d="M15.3195 102.866H160.524L184.082 190.85H37.2229L15.3195 102.866Z" fill="#AEC3FF"/>
<path d="M177.234 187.037H41.2792L36.4205 167.683L34.541 160.195L33.7752 157.141L28.7818 137.252L28.5223 136.217L25.884 125.703L24.703 121L23.6959 116.987L21.3339 107.581H155.328L157.922 116.987L159.028 121L160.324 125.703L168.868 156.694V156.695L169.591 159.321L169.928 160.54L175.828 181.934L177.234 187.037Z" fill="#739AF0"/>
<path d="M157.922 116.987H23.6959L21.3339 107.579H155.33L157.922 116.987Z" fill="#607CF4"/>
<path d="M26.877 111.831C26.7157 111.181 27.1098 110.655 27.7592 110.655C28.4086 110.655 29.0665 111.181 29.2278 111.831C29.3891 112.48 28.9949 113.006 28.3455 113.006C27.6961 113.006 27.0383 112.48 26.877 111.831Z" fill="#E9F3FE"/>
<path d="M30.7845 111.831C30.6232 111.181 31.0173 110.655 31.6667 110.655C32.3161 110.655 32.974 111.181 33.1353 111.831C33.2966 112.48 32.9024 113.006 32.253 113.006C31.6036 113.006 30.9458 112.48 30.7845 111.831Z" fill="#E9F3FE"/>
<path d="M34.9923 111.831C34.831 111.181 35.2252 110.655 35.8746 110.655C36.524 110.655 37.1818 111.181 37.3431 111.831C37.5044 112.48 37.1103 113.006 36.4609 113.006C35.8115 113.006 35.1536 112.48 34.9923 111.831Z" fill="#E9F3FE"/>
<path d="M128.674 52.8909C134.17 46.4388 142.643 33.4785 148.347 26.8427C149.521 25.4765 148.545 23.3684 146.744 23.3684H136.363L146.155 1.22652C146.573 0.281154 145.286 -0.472058 144.666 0.355492L120.989 32.0436C120.299 32.968 121.054 34.2696 122.2 34.1279L133.952 32.6804L126.96 51.888C126.576 52.9456 127.945 53.7465 128.674 52.8895V52.8909Z" fill="#F77D48"/>
<path d="M79.7998 92.1868C81.0355 85.8456 81.8167 74.0691 83.1226 67.5273C83.3919 66.1807 81.9542 65.1456 80.7577 65.8189L73.8624 69.7013L72.0839 51.3325C72.0082 50.5485 70.8706 50.5302 70.7696 51.3115L66.897 81.2141C66.7848 82.0865 67.7722 82.6686 68.4806 82.1454L75.7448 76.7888L78.2849 92.1616C78.4252 93.0074 79.6342 93.027 79.7984 92.1854L79.7998 92.1868Z" fill="#AEC3FF"/>
<path d="M183.173 188.911L65.0399 198.864C56.0701 199.62 49.5787 190.474 53.2508 182.256L103.299 70.2469C107.096 61.7498 118.767 60.7666 123.932 68.5091L192.017 170.566C197.013 178.054 192.143 188.156 183.173 188.912V188.911Z" fill="#E6EFFF"/>
<path d="M183.549 193.378L65.4159 203.331C59.6062 203.821 54.1219 201.275 50.7472 196.52C47.3725 191.765 46.7778 185.749 49.1567 180.426L99.2052 68.4166C101.664 62.9126 106.719 59.3247 112.727 58.8184C118.734 58.312 124.318 61.0037 127.663 66.0195L195.748 168.076C198.984 172.926 199.405 178.958 196.873 184.209C194.341 189.46 189.36 192.888 183.551 193.378H183.549ZM113.48 67.7545C110.775 67.9817 108.5 69.5976 107.394 72.0746L57.3452 184.084C56.275 186.48 56.5429 189.188 58.0619 191.327C59.581 193.468 62.0496 194.614 64.6641 194.393L182.798 184.44C185.412 184.22 187.655 182.677 188.794 180.314C189.933 177.95 189.745 175.235 188.287 173.052L120.203 70.996C118.696 68.7392 116.184 67.5273 113.48 67.7545Z" fill="url(#paint0_linear_1132_69)"/>
<path d="M110.711 171.773C110.583 170.251 110.735 168.821 111.171 167.483C111.606 166.146 112.279 164.962 113.192 163.933C114.105 162.904 115.236 162.064 116.586 161.416C117.936 160.77 119.486 160.37 121.235 160.223C122.982 160.075 124.59 160.209 126.051 160.618C127.514 161.029 128.782 161.667 129.854 162.529C130.927 163.391 131.788 164.446 132.44 165.69C133.093 166.937 133.482 168.32 133.611 169.843C133.739 171.365 133.585 172.785 133.149 174.099C132.712 175.414 132.038 176.586 131.125 177.615C130.212 178.645 129.068 179.485 127.695 180.134C126.322 180.784 124.761 181.184 123.012 181.331C121.263 181.478 119.668 181.345 118.23 180.932C116.791 180.52 115.536 179.882 114.463 179.019C113.391 178.158 112.529 177.116 111.879 175.891C111.228 174.668 110.84 173.295 110.711 171.773ZM128.976 150.401L111.959 151.835L104.65 93.8966L126.488 92.0564L128.976 150.401Z" fill="#F77D48"/>
<path d="M37.3548 153.954C37.3548 153.954 37.7251 153.121 37.965 152.727C38.2048 152.333 39.2301 151.177 39.4041 151.438C39.578 151.7 40.2765 153.461 39.9062 153.954C39.5359 154.448 39.93 155.305 38.087 155.825L37.3562 153.954H37.3548Z" fill="#FFB27D"/>
<path d="M16.8666 148.694C16.8666 148.694 26.3049 156.573 29.984 155.844C32.8622 155.273 37.4109 153.831 37.4109 153.831C37.4109 153.831 38.6115 154.973 38.2721 156.342C38.2721 156.342 32.4764 161.795 28.3471 161.83C21.8922 161.885 18.8485 158.632 18.8485 158.632L16.8666 148.696V148.694Z" fill="#ED7D2B"/>
<path d="M0.31424 231.793C0.31424 231.793 0.58775 236.213 1.44335 236.276C1.55696 236.284 5.78028 236.284 5.78028 236.284L11.172 236.253C11.172 236.253 11.1369 234.955 9.56036 234.68C7.98521 234.405 5.34686 233.298 4.39168 231.215C3.3874 229.024 0.31424 231.793 0.31424 231.793Z" fill="#113C68"/>
<path d="M0.00288331 232.099C0.00288331 232.099 1.64115 232.647 2.92175 232.647C4.34962 232.647 5.64565 232.259 5.64565 232.259C5.64565 232.259 5.95422 229.275 7.6514 222.701C8.54207 219.255 9.81286 214.824 11.6208 209.319C16.6212 194.103 18.1417 185.202 18.2805 184.359C18.2875 184.314 18.2903 184.293 18.2903 184.293L18.2735 184.286L2.8993 177.537C2.8993 177.537 4.79986 198.507 2.37472 206.557C2.03529 207.682 1.74495 208.993 1.49528 210.413C-0.0363882 219.155 7.5319e-05 232.1 7.5319e-05 232.1L0.00288331 232.099Z" fill="#2A4E96"/>
<path d="M7.6529 222.701C8.54356 219.255 9.81434 214.824 11.6223 209.319C16.6227 194.103 18.1431 185.202 18.282 184.359C18.2806 184.334 18.2792 184.31 18.2764 184.285L2.9022 177.535C2.9022 177.535 4.80276 198.506 2.37762 206.556C2.03818 207.681 7.65149 222.701 7.65149 222.701H7.6529Z" fill="#233862"/>
<path d="M12.3221 231.793C12.3221 231.793 12.5957 236.213 13.4513 236.276C13.5649 236.284 17.7882 236.284 17.7882 236.284L23.1799 236.253C23.1799 236.253 23.1448 234.955 21.5683 234.68C19.9931 234.405 17.3548 233.298 16.3996 231.215C15.3953 229.024 12.3221 231.793 12.3221 231.793Z" fill="#15447C"/>
<path d="M21.0381 178.029C21.0381 178.029 21.2372 191.618 18.8864 208.303C16.5356 224.989 17.3323 232.071 17.3323 232.071C17.3323 232.071 15.7165 232.594 15.0657 232.647C13.405 232.782 11.7022 232.257 11.7022 232.257C11.7022 232.257 8.33729 215.566 9.3023 207.215C10.2673 198.864 4.69467 178.558 4.69467 178.558L21.0395 178.028L21.0381 178.029Z" fill="#2A4E96"/>
<path d="M10.1369 146.23L13.1371 148.198L15.8708 147.425C16.3702 146.713 16.5034 145.338 16.5104 144.149C16.5175 142.968 16.4024 141.966 16.4024 141.966L12.3531 140.179L10.8424 139.513C10.8466 139.537 10.9602 140.753 10.9757 140.931C11.2576 144.085 10.1355 146.23 10.1355 146.23H10.1369Z" fill="#FFB27D"/>
<path d="M21.1068 181.808C17.3716 185.414 3.23591 184.808 2.36488 180.834C1.49525 176.861 3.31446 147.01 9.69501 145.135C11.0191 144.746 18.0982 147.034 18.0982 147.034C18.0982 147.034 19.209 149.94 19.937 153.639C20.0787 154.358 20.491 161.987 20.7996 169.124C20.9441 172.462 21.0661 175.692 21.1278 178.058C21.1839 180.275 21.1867 181.73 21.1068 181.809V181.808Z" fill="#F99746"/>
<path d="M11.28 140.986C12.102 142.374 14.983 143.59 16.5104 144.147C16.5175 142.966 16.4024 141.965 16.4024 141.965L12.3531 140.178C11.4582 140.167 10.9126 140.366 11.2786 140.986H11.28Z" fill="#FCA56B"/>
<path d="M17.9299 141.718C17.9299 141.718 11.4062 143.753 10.2014 139.671C8.99652 135.59 7.34282 133.103 11.4567 131.632C15.5706 130.16 16.8442 131.477 17.5778 132.742C18.3114 134.008 19.5962 141.085 17.9299 141.719V141.718Z" fill="#FFB27D"/>
<path d="M17.3226 132.348C17.3226 132.348 16.906 137.099 15.9242 136.893C14.9423 136.687 13.8609 136.245 14.004 137.677C14.1484 139.109 13.0488 141.564 11.6321 141.558C8.59404 141.545 5.29366 133.749 6.12542 132.271C8.52531 128.006 20.7913 127.144 17.3226 132.348Z" fill="#163560"/>
<path d="M16.3631 145.237C16.2789 145.202 11.5072 143.062 10.949 143.245C10.3907 143.429 9.69501 145.135 9.69501 145.135L18.0981 147.034C18.0981 147.034 17.4361 145.689 16.3631 145.237Z" fill="#ED7D2B"/>
<path d="M46.072 168.355L19.3211 193.542C18.7965 194.036 18.1359 194.193 17.8512 193.891L16.9479 192.932C16.6646 192.63 16.8609 191.98 17.3855 191.486L44.1364 166.299C44.661 165.805 45.3216 165.648 45.6064 165.95L46.5096 166.909C46.793 167.211 46.5966 167.861 46.072 168.355Z" fill="#1F4D84"/>
<path d="M31.0597 182.489L19.3211 193.542C18.7965 194.036 18.1359 194.193 17.8512 193.891L16.9479 192.932C16.6646 192.63 16.8609 191.98 17.3855 191.486L29.1241 180.433L31.0597 182.488V182.489Z" fill="#739AF0"/>
<path d="M39.9244 158.845C40.9511 162.23 42.8531 165.4 45.6148 167.997C54.0488 175.932 67.3191 175.527 75.2537 167.094C83.0832 158.771 82.7929 145.741 74.6773 137.774C74.5693 137.667 74.4599 137.56 74.3476 137.457C65.9151 129.522 52.6462 129.925 44.7115 138.359C39.3746 144.031 37.8092 151.893 39.923 158.845H39.9244ZM45.9164 139.495C50.5338 134.587 57.1136 132.63 63.2921 133.7C66.8927 134.323 70.3544 135.973 73.2143 138.663C80.9821 145.971 81.3538 158.192 74.0461 165.961C71.3558 168.821 68.0008 170.676 64.4465 171.519C58.3437 172.964 51.6559 171.414 46.7482 166.795C38.9804 159.486 38.6073 147.265 45.9164 139.496V139.495Z" fill="#1F4D84"/>
<g opacity="0.5">
<path d="M74.0474 165.961C71.3572 168.821 68.0007 170.676 64.4479 171.519C58.345 172.963 51.6587 171.413 46.7495 166.794C38.9818 159.486 38.6087 147.264 45.9178 139.495C50.5352 134.587 57.1149 132.63 63.2935 133.7C66.8941 134.323 70.3571 135.973 73.2157 138.663C80.9834 145.971 81.3565 158.193 74.0474 165.961Z" fill="#B3CFF9"/>
</g>
<path d="M21.1279 178.057C6.38772 167.554 7.61362 153.538 7.61362 153.538C13.0011 156.576 18.3465 163.294 20.7997 169.122C20.9442 172.461 21.0662 175.691 21.1279 178.057Z" fill="#ED7D2B"/>
<path d="M35.6757 173.274C36.715 173.034 37.4135 172.249 37.558 172.111C37.558 172.111 38.0012 172.142 37.4851 173.088C37.4416 173.166 37.3462 173.37 37.2733 173.514C37.2438 173.573 37.2845 173.642 37.3504 173.646C37.9507 173.692 38.5539 173.454 39.7082 173.695C39.8681 173.729 39.9144 174.11 39.9074 174.273C39.8976 174.548 39.9172 174.858 39.5974 175.28C39.4109 175.525 38.8919 175.789 37.7347 176.255C37.2943 176.432 36.0333 176.298 34.8523 175.893L33.9084 175.455L34.2015 173.702L34.4386 173.751C34.8145 173.83 35.2815 173.371 35.6743 173.274H35.6757Z" fill="#FFB27D"/>
<path d="M12.1876 147.034C12.1876 147.034 -1.05604 149.556 16.0841 168.735C18.8248 171.803 33.6365 175.796 33.6365 175.796C33.6365 175.796 35.1387 174.518 34.3813 173.483C34.3813 173.483 24.1828 166.077 21.94 164.9C20.9301 164.37 18.0225 153.081 16.3772 150.362C14.7319 147.644 12.1876 147.034 12.1876 147.034Z" fill="#F99746"/>
<path d="M37.714 154.187C37.714 154.187 38.1474 153.36 38.2316 152.922C38.3157 152.486 38.8613 151.212 39.0858 150.988C39.1755 150.898 39.4729 151.014 39.5079 151.4C39.5234 151.568 39.4406 151.874 39.2948 152.238C39.0577 152.831 39.097 153.635 39.0142 153.902C38.8094 154.57 37.7126 154.187 37.7126 154.187H37.714Z" fill="#FFB27D"/>
<path d="M42.985 121.326C42.7592 121.585 42.7312 121.872 42.842 122.181C42.842 122.181 42.842 122.183 42.8448 122.185C43.051 122.754 43.7312 123.391 44.5223 124.026C44.6233 124.108 44.7131 124.182 44.7916 124.251C44.8127 124.269 44.8323 124.287 44.8519 124.306C44.8674 124.32 44.8828 124.334 44.8982 124.348C45.636 125.028 45.3583 125.184 46.6824 126.564C48.193 128.136 49.2323 128.166 49.5283 128.021C49.7794 127.899 49.2702 127.066 48.7064 126.128C48.6797 126.083 48.6517 126.036 48.625 125.992C48.5493 125.867 48.4749 125.74 48.4006 125.616C47.7399 124.488 47.9097 123.959 48.0668 122.28C48.1944 120.917 50.1917 114.661 50.1917 114.661L47.2967 114.162C47.2967 114.162 46.4229 119.143 45.4621 119.91C44.9487 120.318 44.3736 120.324 43.8799 120.627C43.8449 120.648 43.8112 120.669 43.7775 120.691C43.497 120.878 43.2109 121.068 42.985 121.328V121.326Z" fill="#FFB27D"/>
<path d="M42.985 121.326C42.7592 121.585 42.7312 121.872 42.842 122.181C42.842 122.181 42.842 122.183 42.8448 122.185C43.0973 122.754 43.7607 123.387 44.5251 124.021C44.6247 124.104 44.7131 124.179 44.7916 124.251C44.8127 124.269 44.8323 124.287 44.8519 124.306C44.8674 124.32 44.8828 124.334 44.8982 124.348C45.636 125.028 45.3583 125.184 46.6824 126.564C48.193 128.136 49.2323 128.166 49.5283 128.021C49.7794 127.899 49.2702 127.066 48.7064 126.128C48.4118 126.02 47.0456 125.464 46.0133 124.142C45.1367 123.022 44.542 121.597 43.9458 120.72C43.8799 120.708 43.8406 120.701 43.7761 120.688C43.4956 120.875 43.2095 121.066 42.9836 121.325L42.985 121.326Z" fill="#233862"/>
<path d="M66.3317 119.527C66.5098 120.42 67.7848 120.272 69.2071 119.925C70.6307 119.577 70.2927 119.991 72.3181 119.768C74.3435 119.545 74.9579 118.789 75.0196 118.489C75.0757 118.221 74.0742 118.127 73.0012 118.004C72.8665 117.988 72.7305 117.971 72.5944 117.955C71.3826 117.802 70.4947 117.019 69.3936 116.377C68.3515 115.768 66.796 113.288 66.796 113.288L64.0174 113.507C64.0174 113.507 65.4747 115.722 66.0386 116.684C66.3696 117.25 66.3527 117.999 66.3107 118.577C66.2896 118.891 66.2686 119.213 66.3317 119.528V119.527Z" fill="#FFB27D"/>
<path d="M69.2071 119.925C70.6307 119.577 70.2927 119.991 72.3181 119.768C74.3435 119.545 74.9579 118.789 75.0196 118.489C75.0757 118.221 74.0742 118.127 73.0012 118.004L72.9914 118.025C72.9914 118.025 71.7767 118.886 70.0907 118.925C68.7162 118.959 67.2616 118.563 66.3121 118.579C66.291 118.893 66.27 119.214 66.3331 119.53C66.5112 120.423 67.7862 120.274 69.2085 119.928L69.2071 119.925Z" fill="#233862"/>
<path d="M55.6915 101.76L53.0924 108.746L49.6994 117.869C49.6994 117.869 48.7793 117.957 47.8985 117.703C47.0877 117.469 46.1564 116.855 46.1564 116.855C46.1564 116.855 47.1018 107.057 48.8593 101.434C49.3095 99.9911 49.8145 98.8241 50.3713 98.1662C53.0952 94.95 55.6915 101.757 55.6915 101.757V101.76Z" fill="#233862"/>
<path d="M53.0559 90.6608C51.5776 90.1839 47.7203 90.651 43.5363 91.407C42.3805 91.616 41.215 91.0872 40.6062 90.0829L30.0781 89.2568C30.0781 89.2568 26.601 96.96 28.5016 101.871C28.7807 102.593 29.3936 103.043 30.3418 103.059C30.3418 103.059 36.7041 103.07 38.7393 103.07C43.9753 103.071 49.8215 99.4749 50.5775 99.3234C51.8146 99.0766 52.3097 101.552 53.5468 104.151C54.784 106.75 65.1774 115.665 65.1774 115.665C65.1774 115.665 66.775 115.682 67.4357 115.434C68.1454 115.167 68.4049 114.822 68.4049 114.822C68.4049 114.822 56.8935 91.8993 53.0559 90.6594V90.6608Z" fill="#2A4E96"/>
<path d="M39.4981 59.1648C38.7168 58.6991 37.9538 58.6276 37.4867 58.6402C37.1613 58.65 36.8373 58.6276 36.5161 58.5813C32.4976 57.9908 30.0766 63.8271 29.9336 65.5902C29.6727 68.8275 27.9587 69.3212 25.5476 71.348C20.7113 75.4128 22.128 80.1369 24.7705 81.8944C26.3569 82.9477 29.1523 81.8944 29.1523 81.8944C29.1916 81.9224 36.7994 77.6458 40.5486 75.5826C46.169 74.7859 41.7549 60.5085 39.4981 59.1634V59.1648Z" fill="#233862"/>
<path d="M37.4081 73.8251C37.425 73.8363 35.5637 74.4703 34.3196 73.919C33.1484 73.4015 32.2633 71.4742 32.2801 71.4742C32.8131 71.4504 33.398 70.9847 33.8483 67.9298L34.0755 68.0112L37.8878 69.3843C37.8878 69.3843 37.6115 70.6074 37.432 71.773C37.2805 72.7506 37.2006 73.6876 37.4081 73.8265V73.8251Z" fill="#FFB27D"/>
<path d="M37.8879 69.3844C37.8879 69.3844 37.735 70.045 37.5134 71.2779C35.3239 70.8824 34.3842 69.195 34.0756 68.0112L37.8879 69.3844Z" fill="#ED975D"/>
<path d="M38.4546 70.599C38.4546 70.599 33.2382 69.8963 33.725 66.6548C34.2117 63.4134 33.8666 61.1383 37.2189 61.4497C40.5698 61.7611 41.0298 63.095 41.1308 64.2171C41.2318 65.3392 39.825 70.6986 38.456 70.599H38.4546Z" fill="#FFB27D"/>
<path d="M40.9415 62.4386C40.9415 62.4386 37.6004 65.3154 35.3295 65.5468C33.0573 65.7782 32.1975 65.0489 32.1975 65.0489C32.1975 65.0489 33.537 63.938 34.3435 62.144C34.5805 61.6152 35.0827 61.252 35.6606 61.2029C37.282 61.064 40.358 61.0009 40.9415 62.4386Z" fill="#233862"/>
<path d="M38.8529 62.1805C38.8529 62.1805 39.9694 63.2605 40.3214 64.0628C40.6609 64.8357 40.7618 66.6857 40.4911 67.4193C40.4911 67.4193 42.2332 64.0348 41.2486 62.3909C40.2036 60.646 38.8529 62.1805 38.8529 62.1805Z" fill="#233862"/>
<path d="M41.7983 81.5129C41.637 92.0732 41.752 89.8669 40.5963 90.8684C40.3171 91.1096 39.5359 91.2527 38.505 91.3214C35.2663 91.5346 29.5744 91.0002 29.3584 90.4013C28.6122 88.3296 29.1396 87.6872 28.5182 84.5173C28.4537 84.1806 28.3738 83.8146 28.2784 83.4176C27.7594 81.2407 27.2545 80.4987 29.0989 77.002C30.7723 73.8335 32.5087 71.2625 32.6658 71.355C37.0757 73.9751 37.4319 71.7744 37.4319 71.7744C37.4319 71.7744 41.8783 76.3624 41.7983 81.5143V81.5129Z" fill="#F99746"/>
<path d="M53.0924 108.746L49.6994 117.869C49.6994 117.869 48.7793 117.957 47.8985 117.703C47.0877 117.469 46.1564 116.855 46.1564 116.855C46.1564 116.855 47.1018 107.057 48.8593 101.434L53.0924 108.745V108.746Z" fill="#2A4E96"/>
<path d="M37.432 71.7716C37.432 71.7716 41.9695 72.5431 42.5025 74.4969C43.0341 76.4508 44.7846 88.3114 44.7846 88.3114C44.7846 88.3114 43.504 89.5611 42.4394 88.4951C41.3734 87.4291 39.0885 77.3975 39.0885 77.3975L37.432 71.773V71.7716Z" fill="#F99746"/>
<path d="M38.5064 91.3201C35.2677 91.5333 29.5759 90.9989 29.3599 90.4C28.6137 88.3283 29.141 87.6859 28.5197 84.5159L30.0836 80.1187C30.0836 80.1187 29.8241 85.0167 31.2674 86.3043C32.7093 87.5933 37.1795 88.7926 37.8822 89.8698C38.2202 90.3859 38.4433 90.9049 38.5078 91.3201H38.5064Z" fill="#ED7D2B"/>
<path d="M34.7965 89.2595C34.7965 89.2595 37.9917 88.5498 38.5064 88.8332C39.0212 89.1165 40.2807 90.1502 40.4392 90.5093C40.5963 90.8684 39.2919 90.2358 38.8669 90.1222C38.592 90.0478 37.8682 90.2989 37.5092 90.4195C36.0013 90.9217 35.077 90.6622 35.077 90.6622L34.7951 89.2595H34.7965Z" fill="#FFB27D"/>
<path d="M32.6631 71.3508C32.6631 71.3508 28.3739 71.6131 26.8871 73.6848C24.7958 76.5995 20.644 89.0239 23.02 90.6818C25.6962 92.5487 35.2004 91.1742 35.2004 91.1742C35.2004 91.1742 35.5174 89.6958 35.077 88.9804C34.6366 88.2651 27.486 87.1079 27.1564 86.7769C26.8268 86.4473 31.2843 80.3417 31.2843 79.3514C31.2843 78.3612 32.6603 71.3508 32.6603 71.3508H32.6631Z" fill="#F99746"/>
<path d="M38.6607 89.7225C38.6607 89.7225 39.3298 90.5865 39.5486 90.6889C39.7674 90.7927 39.9105 90.766 39.9105 90.766L39.4602 89.9539L38.6607 89.7211V89.7225Z" fill="#FFB27D"/>
<path d="M38.5065 88.8332L40.4519 89.7786C40.4519 89.7786 40.3692 89.9146 40.1293 89.9034C39.8895 89.8922 39.285 89.6706 39.285 89.6706L38.5051 88.8332H38.5065Z" fill="#FFB27D"/>
<path d="M55.1247 91.0605L34.7951 91.0535V91.5024L54.9438 91.5094L55.1247 91.0605Z" fill="#233862"/>
<path d="M39.5486 91.5038L54.9439 91.5094L59.5795 79.9938L44.2082 79.9882L39.5486 91.5038Z" fill="#233862"/>
<path d="M51.0599 85.7488C51.1763 85.3435 50.9421 85.0153 50.5367 85.0153C50.1314 85.0153 49.7092 85.3435 49.5928 85.7474C49.4763 86.1528 49.7106 86.481 50.1159 86.481C50.5213 86.481 50.9435 86.1528 51.0599 85.7488Z" fill="white"/>
<path d="M155.248 134.932C153.174 134.243 151.739 135.113 151.739 135.113C145.768 135.358 145.546 141.479 146.246 143.757C147.231 146.957 143.747 149.479 147.611 150.773C152.094 152.275 155.856 150.493 155.599 151.267C169.775 152.383 159.965 136.499 155.248 134.932Z" fill="#163560"/>
<path d="M149.056 164.701C149.056 164.701 148.488 165.825 147.46 167.115C146.22 168.669 139.709 164.982 140.27 164.701C140.831 164.421 144.102 154.995 144.882 153.811C145.661 152.627 148.315 152.012 148.315 152.012L149.056 164.701Z" fill="#F99746"/>
<path d="M171.026 228.268C171.026 228.268 172.823 229.908 172.473 231.074C172.122 232.239 170.5 233.016 170.282 234.44C170.063 235.864 169.186 236.641 168.397 236.641H164.635C164.635 236.641 164.054 235.638 165.457 235.336C166.859 235.035 167.388 233.361 167.3 231.807C167.211 230.253 167.432 228.183 167.432 228.183L170.412 227.493L171.026 228.27V228.268Z" fill="#1F447F"/>
<path d="M155.816 228.965C155.816 228.965 156.463 235.913 155.675 236.301L145.579 236.28C145.579 236.28 145.579 235.115 147.2 234.856C148.822 234.597 151.67 233.647 152.153 231.534C152.635 229.42 155.816 228.965 155.816 228.965Z" fill="#1C3154"/>
<path d="M163.583 160.015C163.583 160.015 163.733 162.136 163.583 164.682C163.483 166.369 161.776 168.629 161.534 169.188C160.926 170.591 160.24 170.818 160.24 170.818L154.94 172.117L153.076 172.573L147.197 170.817C147.197 170.817 144.52 163.345 145.595 159.139C146.67 154.932 148.312 152.01 148.312 152.01C148.312 152.01 152.307 151.113 159.354 151.612L163.581 160.014L163.583 160.015Z" fill="#F99746"/>
<path d="M164.088 164.741C163.988 166.428 161.776 168.629 161.534 169.188C160.926 170.591 160.24 170.818 160.24 170.818L154.94 172.117L153.983 169.373C153.983 169.373 161.729 167.338 160.483 160.169L164.088 164.739V164.741Z" fill="#ED7D2B"/>
<path d="M147.573 171.951C147.573 171.951 144.663 181.011 144.475 184.097C144.288 187.181 150.039 227.918 150.27 229.339C150.488 230.678 152.153 231.532 152.153 231.532C152.153 231.532 152.919 231.984 154.01 231.675C155.525 231.247 156.004 230.736 156.004 230.736C156.004 230.736 158.27 201.683 156.868 191.305C155.466 180.927 155.45 171.951 155.45 171.951H147.575H147.573Z" fill="#233862"/>
<path d="M159.905 171.682C159.905 171.682 164.346 177.639 164.76 181.667C165.173 185.694 165.409 199.84 166.291 203.766C167.173 207.692 170.414 215.248 170.414 227.493C170.414 227.493 170.077 228.194 169.038 228.569C168.705 228.688 168.259 228.804 167.827 228.904C166.97 229.1 166.089 228.681 165.698 227.894C163.507 223.484 156.53 209.259 156.173 206.306C155.92 204.216 153.717 190.386 148.91 182.272C147.756 180.324 149.618 172.576 149.618 172.576L159.906 171.684L159.905 171.682Z" fill="#2A4E96"/>
<path d="M147.108 170.553C147.108 170.553 148.276 171.477 150.597 171.524C153.37 171.58 160.24 170.817 160.24 170.817C160.24 170.817 160.546 171.67 160.533 172.57C160.533 172.57 152.142 174.687 147.28 172.879C147.28 172.879 146.653 171.699 147.108 170.552V170.553Z" fill="#233862"/>
<path d="M149.932 173.914C149.235 173.914 148.667 173.271 148.667 172.482C148.667 171.692 149.235 171.05 149.932 171.05C150.629 171.05 151.198 171.692 151.198 172.482C151.198 173.271 150.629 173.914 149.932 173.914ZM149.932 171.469C149.465 171.469 149.087 171.923 149.087 172.482C149.087 173.04 149.467 173.494 149.932 173.494C150.398 173.494 150.778 173.04 150.778 172.482C150.778 171.923 150.399 171.469 149.932 171.469Z" fill="white"/>
<path d="M155.995 176.518L143.382 176.636L137.177 162.052L149.789 161.934L155.995 176.518Z" fill="#B5453C"/>
<path d="M154.345 169.927L153.421 168.791C153.421 168.791 152.795 168.233 152.341 168.139C151.886 168.044 150.928 167.491 150.836 167.647C150.743 167.803 151.572 168.913 151.572 168.913L151.614 168.919C150.662 169.636 148.258 169.003 147.962 169.295C147.603 169.648 148.457 170.414 148.916 170.845C149.374 171.274 150.686 171.991 151.708 171.674C152.456 171.441 153.631 171.204 153.631 171.204L154.345 169.927Z" fill="#FFB27D"/>
<path d="M138.125 164.617C138.125 164.617 138.918 163.717 139.423 164.149C139.928 164.581 139.291 166.707 138.81 166.491C138.329 166.275 137.849 164.882 138.125 164.617Z" fill="#FFB27D"/>
<path d="M159.355 151.613C159.355 151.613 162.966 152.012 165.556 156.719C167.6 160.432 171.092 167.275 169.774 169.208C169.196 170.057 163.649 173.076 152.951 171.351C152.951 171.351 153.119 170 153.982 169.373C153.982 169.373 162.985 166.483 162.97 165.908C162.94 164.821 161.754 163.881 156.724 158.85C155.356 157.482 159.354 151.612 159.354 151.612L159.355 151.613Z" fill="#F99746"/>
<path d="M156.577 151.804C156.7 151.637 156.542 151.107 156.342 150.12C156.163 149.225 155.859 147.84 155.864 146.283L155.598 146.328L151.123 147.082C151.123 147.082 151.226 148.278 151.229 149.406C151.229 149.415 151.229 149.424 151.229 149.434C151.234 150.413 150.965 151.893 151.294 152.085C152.99 153.078 156.098 152.445 156.577 151.804Z" fill="#FFB27D"/>
<path d="M151.125 147.081C151.125 147.081 151.213 148.769 151.217 149.895C153.721 149.835 155.058 147.404 155.6 146.328L151.126 147.081H151.125Z" fill="#E8945B"/>
<path d="M150.854 149.093C150.854 149.093 156.72 148.257 156.143 144.611C155.567 140.966 155.936 138.403 152.165 138.784C148.395 139.162 147.89 140.669 147.786 141.932C147.683 143.196 149.312 149.216 150.854 149.093Z" fill="#FFB27D"/>
<path d="M149.488 139.119C149.488 139.119 151.771 143.139 154.33 143.38C156.889 143.62 157.85 142.792 157.85 142.792C157.85 142.792 155.725 141.594 154.917 139.042C154.917 139.042 150.371 136.891 149.486 139.119H149.488Z" fill="#163560"/>
<path d="M149.939 139.404C149.939 139.404 148.823 140.038 148.471 140.982C148.127 141.904 147.899 143.092 148.213 144.453C148.213 144.453 146.542 141.739 147.638 139.879C148.798 137.907 149.939 139.404 149.939 139.404Z" fill="#163560"/>
<defs>
<linearGradient id="paint0_linear_1132_69" x1="198.512" y1="203.391" x2="39.317" y2="193.464" gradientUnits="userSpaceOnUse">
<stop stop-color="#54AB6A"/>
<stop offset="1" stop-color="#0099FF"/>
</linearGradient>
</defs>
</svg>
