<svg width="12" height="12" viewBox="0 0 12 12" fill="none" xmlns="http://www.w3.org/2000/svg">
<g id="Group 1171275263">
<path id="Vector" d="M3.79688 0.537727C4.16813 0.537727 4.53937 0.537727 4.92188 0.537727C4.92188 0.893509 4.92188 1.24929 4.92188 1.61585C6.18258 1.61585 7.44328 1.61585 8.74219 1.61585C8.74219 1.9871 8.74219 2.35835 8.74219 2.74085C8.20852 2.74085 7.67484 2.74085 7.125 2.74085C7.10953 2.81046 7.09406 2.88007 7.07812 2.95179C7.05452 3.03112 7.02613 3.10849 6.99756 3.18616C6.98939 3.20838 6.98122 3.2306 6.97281 3.25348C6.68445 4.02379 6.30965 4.77858 5.8125 5.43616C5.7879 5.47012 5.76337 5.50412 5.73889 5.53815C5.59254 5.74074 5.44301 5.93676 5.27548 6.12242C5.21748 6.18703 5.16552 6.24562 5.13281 6.32679C5.15616 6.3508 5.17963 6.3747 5.20312 6.39857C5.21618 6.41189 5.22923 6.42521 5.24268 6.43894C5.28714 6.48152 5.33233 6.52139 5.37909 6.56135C5.49906 6.66611 5.61088 6.77849 5.72314 6.8914C5.74547 6.91376 5.76779 6.93612 5.79013 6.95848C5.84828 7.01672 5.90636 7.07503 5.96443 7.13336C6.02394 7.19312 6.08352 7.2528 6.1431 7.31249C6.25953 7.42917 6.37588 7.54593 6.49219 7.66273C6.44852 7.81431 6.39974 7.96243 6.34323 8.10969C6.33246 8.13806 6.33246 8.13806 6.32146 8.16701C6.29886 8.22648 6.27614 8.28591 6.25342 8.34534C6.23792 8.38605 6.22243 8.42676 6.20695 8.46748C6.16931 8.56645 6.13156 8.66538 6.09375 8.76429C6 8.76429 6 8.76429 5.96321 8.73903C5.95137 8.72711 5.93953 8.71518 5.92733 8.7029C5.9136 8.68929 5.89986 8.67568 5.88571 8.66166C5.86353 8.63898 5.86353 8.63898 5.8409 8.61584C5.82512 8.60006 5.80933 8.58429 5.79306 8.56804C5.74085 8.51575 5.68897 8.46315 5.63708 8.41053C5.60098 8.37425 5.56486 8.33799 5.52871 8.30176C5.43357 8.20625 5.3387 8.11047 5.2439 8.01462C5.14713 7.9169 5.0501 7.81944 4.95309 7.72196C4.76274 7.5306 4.57268 7.33894 4.38281 7.1471C4.2975 7.18305 4.24358 7.23395 4.17876 7.29943C4.16803 7.3102 4.1573 7.32098 4.14624 7.33208C4.11036 7.36816 4.07465 7.4044 4.03894 7.44064C4.01323 7.46656 3.9875 7.49246 3.96177 7.51836C3.90641 7.57411 3.85112 7.62992 3.79588 7.68579C3.70858 7.77406 3.62106 7.86211 3.5335 7.95012C3.28456 8.20041 3.03586 8.45093 2.78751 8.7018C2.65031 8.84037 2.51291 8.97874 2.37528 9.11688C2.28812 9.20438 2.20123 9.29214 2.11452 9.38009C2.06062 9.43464 2.00647 9.48895 1.95226 9.54318C1.9271 9.56845 1.90204 9.59382 1.87709 9.61929C1.84311 9.65395 1.80879 9.68824 1.77436 9.72246C1.75521 9.74177 1.73606 9.76109 1.71633 9.781C1.66406 9.81898 1.66406 9.81898 1.61272 9.81519C1.56255 9.79194 1.53185 9.76553 1.49297 9.72618C1.47843 9.71164 1.46389 9.69709 1.44892 9.68211C1.43351 9.66634 1.4181 9.65057 1.40222 9.63432C1.38623 9.61822 1.37023 9.60213 1.35375 9.58555C1.30273 9.53412 1.25195 9.48246 1.20117 9.43079C1.16661 9.39588 1.13204 9.36098 1.09744 9.3261C1.01269 9.24058 0.928164 9.15484 0.84375 9.06898C0.880423 8.97484 0.946783 8.91894 1.02074 8.85381C1.20091 8.69122 1.37189 8.52009 1.543 8.34806C1.59923 8.29152 1.65554 8.23506 1.71187 8.17861C1.83126 8.05896 1.95055 7.93922 2.06982 7.81947C2.20862 7.68012 2.34745 7.54081 2.48638 7.40159C2.54158 7.34625 2.5967 7.29083 2.65183 7.23541C2.68589 7.20126 2.71996 7.16712 2.75403 7.13297C2.76909 7.11779 2.78416 7.1026 2.79968 7.08696C2.88873 6.9979 2.98053 6.91343 3.07607 6.83135C3.13247 6.78223 3.18533 6.73003 3.23804 6.67698C3.25858 6.65636 3.27913 6.63574 3.30029 6.61449C3.33147 6.58302 3.33147 6.58302 3.36328 6.55091C3.38479 6.52929 3.4063 6.50768 3.42847 6.4854C3.48101 6.43259 3.5335 6.37971 3.58594 6.32679C3.54475 6.23964 3.49311 6.17674 3.4292 6.10413C2.88673 5.47437 2.46253 4.76761 2.08594 4.02991C2.07635 4.01143 2.06677 3.99294 2.05689 3.9739C1.99219 3.84775 1.99219 3.84775 1.99219 3.79554C2.36344 3.79554 2.73469 3.79554 3.11719 3.79554C3.16118 3.87482 3.20517 3.95409 3.25049 4.03577C3.56651 4.59717 3.93486 5.11545 4.35938 5.60023C4.68341 5.26878 4.95527 4.88951 5.20312 4.49866C5.2195 4.47307 5.23588 4.44748 5.25275 4.42112C5.5787 3.90053 5.83733 3.34054 6.04688 2.76429C4.05141 2.75656 2.05594 2.74882 0 2.74085C0 2.3696 0 1.99835 0 1.61585C1.25297 1.61585 2.50594 1.61585 3.79688 1.61585C3.79688 1.26007 3.79688 0.90429 3.79688 0.537727Z" fill="#005CE8"/>
<path id="Vector_2" d="M8.4375 4.8971C8.80875 4.8971 9.18 4.8971 9.5625 4.8971C9.75808 5.40733 9.95203 5.9181 10.1435 6.42986C10.1775 6.52054 10.2115 6.61121 10.2454 6.70188C10.2951 6.83435 10.3447 6.96681 10.3943 7.09928C10.5153 7.42248 10.6365 7.74562 10.7577 8.06875C10.8033 8.19038 10.8489 8.312 10.8946 8.43363C11.0169 8.75989 11.1392 9.08614 11.2617 9.41238C11.3118 9.54591 11.3619 9.67945 11.412 9.81299C11.4459 9.90339 11.4798 9.99378 11.5137 10.0842C11.5807 10.2626 11.6476 10.441 11.7143 10.6195C11.7489 10.712 11.7837 10.8045 11.8185 10.8969C11.8354 10.942 11.8523 10.987 11.8692 11.0321C11.8899 11.0873 11.9107 11.1425 11.9315 11.1977C11.9406 11.222 11.9496 11.2463 11.959 11.2713C11.9669 11.2925 11.9749 11.3137 11.9831 11.3356C12 11.3893 12 11.3893 12 11.4596C11.6365 11.4596 11.273 11.4596 10.8984 11.4596C10.7666 11.1431 10.7666 11.1431 10.7228 11.0267C10.708 10.9875 10.708 10.9875 10.6929 10.9476C10.6828 10.9205 10.6726 10.8934 10.6621 10.8654C10.6514 10.8368 10.6406 10.8082 10.6295 10.7787C10.607 10.7188 10.5846 10.6589 10.5621 10.5989C10.5333 10.5221 10.5044 10.4453 10.4755 10.3685C10.4478 10.2949 10.4202 10.2213 10.3926 10.1477C10.3822 10.1201 10.3718 10.0925 10.3611 10.0641C10.3516 10.0387 10.3421 10.0133 10.3324 9.98719C10.324 9.96483 10.3156 9.94247 10.307 9.91942C10.2891 9.86585 10.2891 9.86585 10.2891 9.81898C9.43828 9.81898 8.5875 9.81898 7.71094 9.81898C7.68773 9.89632 7.66453 9.97366 7.64062 10.0534C7.61917 10.1145 7.59737 10.1753 7.57452 10.2359C7.56842 10.2523 7.56233 10.2687 7.55604 10.2855C7.53646 10.338 7.51677 10.3905 7.49707 10.443C7.48346 10.4794 7.46986 10.5158 7.45626 10.5522C7.42908 10.625 7.40185 10.6977 7.3746 10.7704C7.33949 10.8641 7.30463 10.9578 7.26984 11.0516C7.25086 11.1027 7.23188 11.1537 7.21289 11.2047C7.20422 11.2282 7.19554 11.2516 7.1866 11.2757C7.17872 11.2968 7.17084 11.3179 7.16272 11.3397C7.15594 11.3579 7.14917 11.3761 7.14219 11.3949C7.125 11.4362 7.125 11.4362 7.10156 11.4596C7.06703 11.4618 7.03239 11.4624 6.99778 11.4623C6.97573 11.4623 6.95368 11.4623 6.93096 11.4623C6.90698 11.4621 6.88301 11.462 6.85831 11.4619C6.82168 11.4618 6.82168 11.4618 6.78432 11.4618C6.70598 11.4617 6.62765 11.4614 6.54932 11.4611C6.49635 11.4609 6.44339 11.4608 6.39043 11.4607C6.26028 11.4605 6.13014 11.4601 6 11.4596C6.03466 11.2762 6.09589 11.1075 6.16251 10.9336C6.17437 10.9023 6.18621 10.8711 6.19805 10.8398C6.22348 10.7726 6.24901 10.7054 6.27461 10.6382C6.31571 10.5304 6.35662 10.4225 6.39748 10.3145C6.41158 10.2773 6.42568 10.2401 6.43977 10.2029C6.44682 10.1842 6.45387 10.1656 6.46114 10.1464C6.48283 10.0892 6.50455 10.0319 6.52627 9.97464C6.66903 9.59822 6.81045 9.22131 6.95165 8.8443C6.98446 8.75671 7.01729 8.66913 7.05012 8.58154C7.09643 8.45797 7.14275 8.3344 7.18906 8.21082C7.27677 7.97675 7.36453 7.74269 7.4523 7.50864C7.45903 7.49069 7.46577 7.47273 7.47271 7.45423C7.53965 7.27573 7.60659 7.09723 7.67354 6.91874C7.7059 6.83245 7.73827 6.74615 7.77063 6.65986C7.77695 6.64301 7.78327 6.62616 7.78978 6.6088C7.87731 6.37541 7.96476 6.142 8.05217 5.90856C8.08701 5.8155 8.12187 5.72244 8.15673 5.62939C8.1839 5.55685 8.21106 5.48431 8.2382 5.41177C8.26756 5.33328 8.29696 5.25481 8.32635 5.17634C8.33499 5.15323 8.34362 5.13013 8.35252 5.10633C8.36035 5.08543 8.36819 5.06453 8.37626 5.043C8.38305 5.02488 8.38983 5.00676 8.39682 4.98809C8.41406 4.94398 8.41406 4.94398 8.4375 4.8971ZM8.97656 6.42054C8.96849 6.44278 8.96042 6.46501 8.9521 6.48792C8.912 6.5983 8.87179 6.70865 8.83154 6.81898C8.82025 6.84994 8.82025 6.84994 8.80872 6.88154C8.70446 7.16708 8.59888 7.45211 8.49207 7.7367C8.48646 7.75165 8.48085 7.76659 8.47507 7.78199C8.41896 7.93145 8.36277 8.08088 8.30646 8.23026C8.29042 8.27282 8.2744 8.31539 8.25838 8.35796C8.23858 8.41058 8.21874 8.46318 8.19887 8.51576C8.19014 8.53897 8.18141 8.56217 8.17241 8.58608C8.16473 8.60645 8.15705 8.62681 8.14913 8.6478C8.13151 8.6895 8.13151 8.6895 8.13281 8.71741C8.70516 8.71741 9.2775 8.71741 9.86719 8.71741C9.76776 8.43333 9.66792 8.15013 9.56223 7.86845C9.54954 7.83453 9.53687 7.80061 9.52419 7.76669C9.49141 7.67897 9.45856 7.59126 9.42571 7.50357C9.3729 7.36259 9.32018 7.22157 9.26746 7.08056C9.2493 7.03202 9.23112 6.98349 9.21294 6.93496C9.14885 6.76381 9.08547 6.59244 9.02344 6.42054C9.00797 6.42054 8.9925 6.42054 8.97656 6.42054Z" fill="#005CE8"/>
</g>
</svg>
