<?xml version="1.0" encoding="UTF-8"?>
<svg version="1.1" xmlns="http://www.w3.org/2000/svg" width="512" height="512">
<path d="M0 0 C1.63375056 1.34359646 3.25875222 2.69789915 4.875 4.0625 C5.70902344 4.76117188 6.54304687 5.45984375 7.40234375 6.1796875 C13.65451456 11.59373988 18.86214042 17.49490013 23.875 24.0625 C24.45765625 24.80628906 25.0403125 25.55007812 25.640625 26.31640625 C47.0811964 55.12091222 54.00778608 91.00782651 48.875 126.0625 C44.38870418 154.08524417 30.44847403 179.05898237 10.2265625 198.703125 C3.60729535 205.34438307 -1.5020308 212.40907717 -5.125 221.0625 C-5.48335937 221.9184375 -5.84171875 222.774375 -6.2109375 223.65625 C-11.21092346 237.03967107 -12.39743438 251.78679077 -12.74682617 265.97094727 C-12.97234793 273.25648708 -12.97234793 273.25648708 -15.125 276.0625 C-18.25925147 278.00065681 -20.66336655 278.31496682 -24.31785583 278.32319641 C-25.89291901 278.33382362 -25.89291901 278.33382362 -27.49980164 278.34466553 C-28.64640762 278.34218811 -29.79301361 278.33971069 -30.97436523 278.3371582 C-32.1861142 278.34226913 -33.39786316 278.34738007 -34.64633179 278.35264587 C-37.96665504 278.36416452 -41.28672866 278.36661544 -44.60705447 278.36408257 C-47.38041952 278.36301235 -50.15376158 278.36789755 -52.9271217 278.372688 C-59.47071909 278.38378055 -66.01425908 278.38422201 -72.55786133 278.37817383 C-79.3050729 278.37213328 -86.05207598 278.38444753 -92.79925197 278.4057439 C-98.59555465 278.42336527 -104.391791 278.42936042 -110.18811947 278.42610615 C-113.64851079 278.424294 -117.10875337 278.42692255 -120.56912041 278.44082069 C-124.42824346 278.45574064 -128.28710138 278.44642418 -132.14624023 278.43481445 C-133.29082199 278.44245819 -134.43540375 278.45010193 -135.6146698 278.45797729 C-137.19396271 278.44745583 -137.19396271 278.44745583 -138.80516052 278.4367218 C-140.17314364 278.43697341 -140.17314364 278.43697341 -141.56876278 278.43723011 C-144.68355827 277.98061847 -146.57240191 276.87373353 -149.125 275.0625 C-151.0696375 272.20593509 -151.38050741 269.87017059 -151.43359375 266.45703125 C-151.45655518 265.56419434 -151.4795166 264.67135742 -151.50317383 263.75146484 C-151.52275146 262.80223145 -151.5423291 261.85299805 -151.5625 260.875 C-152.48933085 233.43990471 -159.83290518 212.69033932 -179.75 193.5625 C-203.18060852 170.29925297 -213.5830946 135.77014516 -214.375 103.5 C-213.39496546 66.08574028 -198.59281291 32.35781524 -171.52001953 6.53173828 C-152.07309807 -11.4658784 -128.04895432 -22.31303178 -102.125 -26.9375 C-101.0525 -27.13085938 -99.98 -27.32421875 -98.875 -27.5234375 C-63.10570543 -31.47296378 -28.3459177 -22.15896043 0 0 Z M-157.125 16.0625 C-157.87394531 16.65804687 -158.62289062 17.25359375 -159.39453125 17.8671875 C-165.11563891 22.58399816 -169.61904932 28.20149893 -174.125 34.0625 C-175.03765625 35.23425781 -175.03765625 35.23425781 -175.96875 36.4296875 C-193.50979422 60.11009719 -200.3918194 90.46158373 -196.62109375 119.5234375 C-196.00448342 123.42644468 -195.11251739 127.23587013 -194.125 131.0625 C-193.87556641 132.03727295 -193.87556641 132.03727295 -193.62109375 133.03173828 C-187.92661079 154.66550087 -176.42651212 172.12110494 -160.4375 187.6875 C-140.80820318 207.13588164 -136.89048837 233.79036045 -134.125 260.0625 C-99.805 260.0625 -65.485 260.0625 -30.125 260.0625 C-29.135 252.4725 -28.145 244.8825 -27.125 237.0625 C-22.46779641 217.08554778 -16.69846498 200.77768968 -1.45703125 186.5 C16.95231796 169.0844717 27.62944183 145.77545052 31.875 121.0625 C32.00648438 120.32515625 32.13796875 119.5878125 32.2734375 118.828125 C36.41279947 89.96446589 28.34555481 59.52541269 11.38964844 35.96655273 C3.00112263 24.86078512 -7.16435184 14.25945162 -19.125 7.0625 C-19.68348633 6.71380859 -20.24197266 6.36511719 -20.81738281 6.00585938 C-31.10560009 -0.38143152 -41.47772469 -4.68179761 -53.125 -7.9375 C-54.27613281 -8.2778125 -55.42726563 -8.618125 -56.61328125 -8.96875 C-92.27044061 -17.85219455 -129.43549917 -6.82950205 -157.125 16.0625 Z " fill="#231F20" transform="translate(338.125,137.9375)"/>
<path d="M0 0 C1.44245338 -0.00856522 1.44245338 -0.00856522 2.91404724 -0.01730347 C3.96759903 -0.01842133 5.02115082 -0.01953918 6.10662842 -0.02069092 C7.21748306 -0.02565582 8.32833771 -0.03062073 9.47285461 -0.03573608 C13.15644953 -0.05036895 16.84000137 -0.05716192 20.52362061 -0.06268311 C23.08089194 -0.06843402 25.63816326 -0.07419176 28.19543457 -0.07995605 C32.87592786 -0.08912518 37.5564082 -0.09542392 42.2369082 -0.09845281 C49.11645633 -0.10292962 55.99580539 -0.12046061 62.87529302 -0.1494534 C68.8409412 -0.17371835 74.80654007 -0.18139929 80.77223969 -0.18312836 C83.30635409 -0.18615474 85.84046767 -0.19418273 88.37454987 -0.20731354 C91.92211443 -0.22438227 95.46919561 -0.22249132 99.01678467 -0.21600342 C100.06223953 -0.2252182 101.1076944 -0.23443298 102.18482971 -0.243927 C109.38624148 -0.20270473 114.28319284 0.66821872 120.00799561 5.32794189 C123.70232797 9.82104883 126.50470469 14.26211859 126.75799561 20.20294189 C125.97947358 27.20964008 123.29010458 32.17083292 118.32049561 37.14044189 C112.88670574 39.95436879 107.81321837 41.25740584 101.72438049 41.28088379 C100.83164429 41.28659393 99.93890808 41.29230408 99.01911926 41.29818726 C98.05227707 41.29930511 97.08543488 41.30042297 96.08929443 41.30157471 C95.06099518 41.30653961 94.03269592 41.31150452 92.97323608 41.31661987 C89.5746595 41.33121236 86.17612961 41.33803917 82.77752686 41.34356689 C80.40966287 41.34932136 78.0417989 41.35507906 75.67393494 41.36083984 C70.70838199 41.37134197 65.7428452 41.3771896 60.77728271 41.38067627 C54.43007811 41.38615499 48.08308866 41.41017331 41.73595142 41.43864822 C36.84331143 41.45731947 31.95072276 41.46248263 27.05805016 41.46401215 C24.71899936 41.46702977 22.37994928 41.47502806 20.04093361 41.48819733 C16.76001493 41.50534909 13.47961538 41.50335498 10.19866943 41.49688721 C9.24194839 41.50610199 8.28522736 41.51531677 7.29951477 41.52481079 C0.15807698 41.48095304 -7.29421242 40.73366235 -13.11700439 36.27325439 C-18.56162061 29.27692256 -20.75152984 24.14270687 -19.67950439 15.14044189 C-17.81522344 8.45026912 -13.53246715 4.61376065 -7.67950439 1.14044189 C-4.80228044 0.18136724 -2.98874888 0.01063215 0 0 Z M-2.67950439 18.14044189 C-2.18194348 20.89685606 -2.18194348 20.89685606 -0.67950439 23.14044189 C0.72460877 23.2359112 2.13349369 23.26232718 3.54084778 23.26069641 C4.45095108 23.26207108 5.36105438 23.26344574 6.29873657 23.26486206 C7.30502106 23.26126678 8.31130554 23.25767151 9.3480835 23.25396729 C10.40161514 23.25411331 11.45514679 23.25425934 12.54060364 23.25440979 C16.04147361 23.25371015 19.54229112 23.24591537 23.04315186 23.23809814 C25.46310904 23.23623415 27.8830666 23.23481016 30.30302429 23.23381042 C36.68664585 23.22998381 43.07024482 23.22015231 49.45385742 23.20910645 C55.96213475 23.1988954 62.47041571 23.19431346 68.97869873 23.18927002 C81.75930735 23.17853017 94.53990028 23.16164301 107.32049561 23.14044189 C107.65049561 21.49044189 107.98049561 19.84044189 108.32049561 18.14044189 C105.21483316 16.07000027 104.55531474 15.88996872 101.03840637 15.88647461 C100.164991 15.88083496 99.29157562 15.87519531 98.39169312 15.86938477 C97.43628632 15.87343323 96.48087952 15.87748169 95.496521 15.88165283 C94.48813675 15.87814819 93.4797525 15.87464355 92.44081116 15.87103271 C89.09985516 15.86221384 85.7591101 15.86806562 82.41815186 15.87481689 C80.10031595 15.87347019 77.78248032 15.87152961 75.46464539 15.86901855 C70.60317296 15.86606699 65.74177396 15.87036563 60.88031006 15.87969971 C54.64459156 15.89108785 48.40904533 15.88453893 42.17333317 15.87255478 C37.38558146 15.86533168 32.59787066 15.86762631 27.81011772 15.87281036 C25.51077695 15.87414594 23.21143248 15.87250236 20.91209602 15.86785126 C17.69925204 15.86277942 14.48668787 15.87050604 11.27386475 15.88165283 C10.32048218 15.87760437 9.36709961 15.87355591 8.38482666 15.86938477 C7.07047386 15.87784424 7.07047386 15.87784424 5.72956848 15.88647461 C4.97022035 15.88722866 4.21087221 15.88798271 3.42851353 15.88875961 C1.0356922 16.17444539 -0.59889874 16.9530485 -2.67950439 18.14044189 Z " fill="#231F20" transform="translate(202.67950439453125,423.85955810546875)"/>
<path d="M0 0 C0.82654083 -0.00832352 1.65308167 -0.01664703 2.50466919 -0.02522278 C5.23655923 -0.04931251 7.96821032 -0.05809451 10.70019531 -0.06469727 C12.60345531 -0.07366582 14.50671459 -0.08278771 16.40997314 -0.09205627 C20.40126253 -0.10854705 24.39246804 -0.1162463 28.38378906 -0.11914062 C33.48603038 -0.12451824 38.58747767 -0.16217222 43.68949509 -0.20788479 C47.62216024 -0.23770353 51.55463552 -0.24486526 55.48740387 -0.24586678 C57.36760334 -0.25006109 59.24780379 -0.26246361 61.12789154 -0.28338432 C63.76553277 -0.31039331 66.40135128 -0.30544521 69.0390625 -0.29296875 C69.80817963 -0.30780304 70.57729675 -0.32263733 71.36972046 -0.33792114 C77.92977386 -0.25004103 82.64771955 2.28297251 87.34550095 6.81992435 C91.96422312 12.04080358 92.1413837 16.81652973 92.05175781 23.55639648 C91.38692699 30.24269499 87.43705319 33.99823146 82.46191406 38.14233398 C78.50435466 40.87865116 74.2401469 40.46096757 69.63842773 40.4675293 C68.80882034 40.4724942 67.97921295 40.47745911 67.12446594 40.48257446 C64.37756523 40.49718952 61.63072228 40.50399719 58.88378906 40.50952148 C56.97430927 40.51527372 55.06482949 40.52103145 53.15534973 40.52679443 C49.14970633 40.53730272 45.14408298 40.54314644 41.13842773 40.54663086 C36.01040043 40.55211353 30.88263892 40.57613748 25.75469494 40.60460281 C21.80926239 40.62324444 17.86389366 40.62843562 13.91842079 40.62996674 C12.02821717 40.63299062 10.13801459 40.64101024 8.24785423 40.65415192 C5.60049716 40.67124338 2.95378664 40.66932459 0.30639648 40.6628418 C-0.47148224 40.67205658 -1.24936096 40.68127136 -2.05081177 40.69076538 C-8.30940141 40.64285663 -12.20588222 39.04091989 -16.90917969 34.99389648 C-21.84579489 29.25674908 -22.78139158 24.6622534 -22.56933594 17.21264648 C-21.90318763 11.64394603 -19.4119137 8.17364514 -15.22167969 4.49389648 C-10.00275457 0.68843025 -6.44299963 0.00551005 0 0 Z M-5.22167969 18.30639648 C-5.22167969 19.62639648 -5.22167969 20.94639648 -5.22167969 22.30639648 C-2.27179216 23.78134025 0.71620583 23.4537529 3.95019531 23.45166016 C4.68854614 23.45501877 5.42689697 23.45837738 6.18762207 23.46183777 C8.63453847 23.47135687 11.08138654 23.47329123 13.52832031 23.47436523 C15.22460967 23.4775767 16.92089874 23.48094069 18.6171875 23.48445129 C22.17481122 23.49044465 25.73241064 23.49229094 29.29003906 23.49169922 C33.85681445 23.49159748 38.42343476 23.50526064 42.99017334 23.52247143 C46.49365968 23.53356863 49.99710823 23.53561915 53.50061035 23.53508949 C55.18477921 23.53627264 56.86894895 23.54071303 58.55310059 23.54842186 C60.90432737 23.55817772 63.25521349 23.55536157 65.60644531 23.54931641 C66.3067688 23.55493591 67.00709229 23.56055542 67.7286377 23.56634521 C71.69738973 23.64314214 71.69738973 23.64314214 74.77832031 21.30639648 C74.61165365 19.22306315 74.61165365 19.22306315 73.77832031 17.30639648 C70.85124102 15.84285684 67.90667152 16.15902851 64.69824219 16.16113281 C63.96964493 16.1577742 63.24104767 16.15441559 62.4903717 16.1509552 C60.07592069 16.14143656 57.66153893 16.13950176 55.24707031 16.13842773 C53.5732012 16.13521624 51.89933238 16.13185225 50.22546387 16.12834167 C46.71491851 16.12234844 43.20439777 16.12050202 39.69384766 16.12109375 C35.18760557 16.12119549 30.68152065 16.10753228 26.17531586 16.09032154 C22.71815256 16.0792241 19.26102756 16.07717383 15.80384827 16.07770348 C14.14200803 16.07652037 12.48016689 16.07208019 10.81834412 16.06437111 C8.49824886 16.05461474 6.1784988 16.05743159 3.85839844 16.06347656 C2.82193932 16.0550473 2.82193932 16.0550473 1.76454163 16.04644775 C-2.17019357 15.97562371 -2.17019357 15.97562371 -5.22167969 18.30639648 Z " fill="#231F20" transform="translate(221.2216796875,471.693603515625)"/>
<path d="M0 0 C5.12612345 1.71643953 10.06431257 3.80198886 15 6 C15.90492188 6.39058594 16.80984375 6.78117188 17.7421875 7.18359375 C24.87028746 10.47436194 30.90863882 15.08969955 37 20 C37.85722656 20.68964844 38.71445312 21.37929687 39.59765625 22.08984375 C58.88548318 38.50436524 71.05537756 62.26620834 73.44140625 87.4375 C73.57021069 89.06210321 73.6938664 90.68712243 73.8125 92.3125 C73.87791992 93.09020752 73.94333984 93.86791504 74.01074219 94.66918945 C74.2883669 99.35182663 74.0447519 102.17210278 71 106 C68.45770394 107.92863839 67.21654982 108.00902291 64 107.875 C60.32839917 106.80411643 59.27220277 106.08870274 57 103 C56.17694517 99.62028755 55.89128834 96.20797652 55.5625 92.75 C53.18915561 72.57409528 46.55932575 56.36538348 33 41 C32.24203125 40.10087891 32.24203125 40.10087891 31.46875 39.18359375 C17.67377387 24.01615826 -3.88301059 15.7037236 -23.9375 14.5 C-32.36086485 13.95065012 -32.36086485 13.95065012 -36 11 C-37.5625 7.6875 -37.5625 7.6875 -38 4 C-33.26384214 -8.78762622 -10.54826273 -3.01378935 0 0 Z " fill="#231F20" transform="translate(285,147)"/>
<path d="M0 0 C5.05883452 5.22541659 8.69666452 11.5622779 12.5625 17.6875 C13.98033145 19.92847229 15.39830169 22.16935678 16.81640625 24.41015625 C17.51781738 25.5202002 18.21922852 26.63024414 18.94189453 27.77392578 C20.83661142 30.74388888 22.76551304 33.68679354 24.71484375 36.62109375 C25.27292725 37.4716333 25.83101074 38.32217285 26.40600586 39.19848633 C27.44019196 40.77281251 28.48595723 42.33961589 29.54516602 43.8972168 C32.48212347 48.41517713 33.70781077 51.44059306 33 57 C31.5625 59.9375 31.5625 59.9375 29 62 C25.82468359 62.78198091 23.11942326 63.02577999 20 62 C15.35952751 57.29106152 12.05315323 51.58445369 8.5625 46 C4.76187563 39.93761046 0.95062646 33.89344461 -3.02734375 27.9453125 C-3.99426147 26.48158203 -3.99426147 26.48158203 -4.98071289 24.98828125 C-6.21707186 23.11948141 -7.46701873 21.25958022 -8.73217773 19.41015625 C-12.30220979 13.96345698 -13.86325676 10.53608687 -13 4 C-9.97013869 -1.62688528 -5.80314063 -1.50081223 0 0 Z " fill="#231F20" transform="translate(135,37)"/>
<path d="M0 0 C2.375 1 2.375 1 4 3 C4.90693419 5.72080258 5.41725634 8.15222546 5 11 C2.34890128 14.82214088 -0.12966177 16.95253739 -4.234375 19.09375 C-5.27239258 19.64337402 -6.31041016 20.19299805 -7.37988281 20.75927734 C-8.49202148 21.33371582 -9.60416016 21.9081543 -10.75 22.5 C-12.4976754 23.41759104 -14.24533931 24.33520525 -15.99212646 25.25448608 C-17.19048587 25.88465396 -18.38959104 26.51340556 -19.5894165 27.14077759 C-23.71000135 29.30012053 -27.78437343 31.53157773 -31.84375 33.8046875 C-32.92172852 34.40474609 -33.99970703 35.00480469 -35.11035156 35.62304688 C-37.16417017 36.76909682 -39.21323364 37.92372095 -41.25683594 39.08789062 C-42.18786133 39.60287109 -43.11888672 40.11785156 -44.078125 40.6484375 C-44.88668945 41.10395996 -45.69525391 41.55948242 -46.52832031 42.02880859 C-49.54795979 43.21530858 -51.78079786 43.30922292 -55 43 C-57.875 40.9375 -57.875 40.9375 -60 38 C-60.61864986 34.15062307 -60.59281485 32.01362989 -58.61328125 28.62890625 C-54.82147293 24.81442643 -50.4142079 22.80662734 -45.625 20.4375 C-43.5575952 19.38868475 -41.49121585 18.3378461 -39.42578125 17.28515625 C-38.36697754 16.74777832 -37.30817383 16.21040039 -36.21728516 15.65673828 C-31.03266914 12.98692463 -25.92220169 10.18486368 -20.8125 7.375 C-19.00669217 6.38248173 -17.20071581 5.39027002 -15.39453125 4.3984375 C-14.64018799 3.98255371 -13.88584473 3.56666992 -13.10864258 3.13818359 C-12.41279053 2.76258301 -11.71693848 2.38698242 -11 2 C-10.32155029 1.62697754 -9.64310059 1.25395508 -8.9440918 0.86962891 C-5.88364736 -0.49936558 -3.29871854 -0.29452844 0 0 Z " fill="#231F20" transform="translate(465,122)"/>
<path d="M0 0 C2.9375 1.07421875 2.9375 1.07421875 6 2.6875 C6.57613037 2.98785156 7.15226074 3.28820312 7.74584961 3.59765625 C15.772701 7.84081703 23.63688215 12.39927921 31.51953125 16.90234375 C36.83235472 19.92743572 42.21202522 22.78333357 47.671875 25.53515625 C50.18729142 27.11784276 51.49967583 28.44552649 53 31 C53.38214572 34.56669336 53.39783678 37.05513764 52 40.375 C49.00258011 42.81040366 45.75268676 43.05515134 42 43 C39.34170084 42.0455979 37.29329747 41.14145792 34.88671875 39.765625 C34.23840088 39.41636459 33.59008301 39.06710419 32.92211914 38.70726013 C30.83232422 37.57469982 28.76016544 36.41356544 26.6875 35.25 C25.25381109 34.46314017 23.81931702 33.67774566 22.3840332 32.89379883 C18.8754318 30.97003527 15.38158534 29.02124327 11.89306641 27.06134033 C9.19548107 25.54894959 6.48725673 24.05585115 3.78125 22.55859375 C2.08175376 21.60437032 0.38368445 20.64759798 -1.3125 19.6875 C-2.06893799 19.26307617 -2.82537598 18.83865234 -3.60473633 18.40136719 C-10.07836403 14.64371744 -10.07836403 14.64371744 -12 11 C-11.93108944 7.14100853 -11.52415508 4.78623262 -9.375 1.5625 C-6.08213344 -0.60385958 -3.89793341 -0.27784012 0 0 Z " fill="#231F20" transform="translate(54,122)"/>
<path d="M0 0 C3.00696226 0.68103944 4.11361663 2.08360627 6.03515625 4.4609375 C6.54309082 7.3067627 6.54309082 7.3067627 6.55273438 10.63476562 C6.56534302 11.88286011 6.57795166 13.13095459 6.59094238 14.41687012 C6.58378253 15.775315 6.57557854 17.13375472 6.56640625 18.4921875 C6.56910194 19.88936635 6.57298501 21.28654338 6.57800293 22.68371582 C6.58389451 25.60915014 6.57534688 28.53409529 6.55664062 31.45947266 C6.53385019 35.20575141 6.54697525 38.95088395 6.57093048 42.69712067 C6.5853983 45.58140672 6.5807782 48.46542188 6.57041931 51.34971619 C6.56775469 52.73079057 6.57101255 54.11188971 6.58033752 55.49293518 C6.59051713 57.42432167 6.57224512 59.35579461 6.55273438 61.28710938 C6.54796082 62.93447083 6.54796082 62.93447083 6.54309082 64.6151123 C5.91698288 68.12303211 4.79510993 69.27924466 2.03515625 71.4609375 C-1.34364886 72.79467636 -2.69442158 72.55638062 -6.15234375 71.3359375 C-9.42236517 69.15592322 -9.83702541 68.1385312 -10.96484375 64.4609375 C-11.21881104 61.72937012 -11.21881104 61.72937012 -11.22363281 58.74023438 C-11.22993713 57.61556763 -11.23624146 56.49090088 -11.24273682 55.33215332 C-11.23868835 54.1268396 -11.23463989 52.92152588 -11.23046875 51.6796875 C-11.23333893 49.81032532 -11.23333893 49.81032532 -11.23626709 47.90319824 C-11.23797468 44.59740186 -11.22994076 41.29179427 -11.21875 37.98602295 C-11.21484732 35.96278892 -11.21873688 33.9397284 -11.22558594 31.91650391 C-11.23794148 28.0249833 -11.23644372 24.13371881 -11.23046875 20.2421875 C-11.23451721 19.03687378 -11.23856567 17.83156006 -11.24273682 16.58972168 C-11.2364325 15.46505493 -11.23012817 14.34038818 -11.22363281 13.18164062 C-11.22204163 12.19522583 -11.22045044 11.20881104 -11.21881104 10.19250488 C-10.94263059 7.22202189 -10.33278453 5.10900169 -8.96484375 2.4609375 C-5.75047846 0.31802731 -3.79057766 0.16067959 0 0 Z " fill="#231F20" transform="translate(257.96484375,-0.4609375)"/>
<path d="M0 0 C2.375 1 2.375 1 4 3 C5.12679403 7.01784004 5.64271333 9.48082913 3.99850464 13.36721802 C2.42264485 16.04702432 0.73089346 18.60162428 -1.03515625 21.16015625 C-1.66602646 22.10886093 -2.29689667 23.05756561 -2.94688416 24.03501892 C-4.96531427 27.05824061 -7.01373373 30.05977768 -9.0625 33.0625 C-10.41531038 35.08531988 -11.76624295 37.10939694 -13.11523438 39.13476562 C-28.07240008 61.45071129 -28.07240008 61.45071129 -31.99671936 62.56898499 C-35.33114019 62.75466488 -37.64928369 62.21042979 -40.5 60.5 C-42.61397849 56.97670251 -42.7357519 53.95028701 -42 50 C-40.30020757 46.33755338 -38.07880946 43.09255072 -35.796875 39.76953125 C-35.16267639 38.81608322 -34.52847778 37.86263519 -33.87506104 36.8802948 C-31.85036386 33.845906 -29.80049192 30.82950109 -27.75 27.8125 C-26.38508553 25.77257622 -25.02178617 23.73157078 -23.66015625 21.68945312 C-8.74038889 -0.60278544 -8.74038889 -0.60278544 0 0 Z " fill="#231F20" transform="translate(389,39)"/>
</svg>
