<svg width="20" height="27" viewBox="0 0 20 27" fill="none" xmlns="http://www.w3.org/2000/svg">
<g id="Group">
<path id="Vector" d="M14.0419 2.72458H17.3832C18.2994 2.72458 19 3.42518 19 4.34135V24.3892C19 25.3054 18.2455 26.006 17.3832 26.006H2.61677C1.7006 26.006 1 25.3054 1 24.3892V4.34135C1 3.42518 1.75449 2.72458 2.61677 2.72458H5.95808" stroke="black" stroke-miterlimit="10" stroke-linecap="round" stroke-linejoin="round"/>
<path id="Vector_2" d="M12.8028 4.17964H7.19802C6.55131 4.17964 6.01239 3.64072 6.01239 2.99401V2.18563C6.01239 1.53892 6.55131 1 7.19802 1H12.8028C13.4495 1 13.9884 1.53892 13.9884 2.18563V2.99401C14.0423 3.64072 13.4495 4.17964 12.8028 4.17964Z" stroke="black" stroke-miterlimit="10" stroke-linecap="round" stroke-linejoin="round"/>
<path id="Vector_3" d="M4.28711 9.73052L5.0416 10.485L7.30507 8.22153" stroke="black" stroke-miterlimit="10" stroke-linecap="round" stroke-linejoin="round"/>
<path id="Vector_4" d="M9.62292 8.65269H15.7127" stroke="black" stroke-miterlimit="10" stroke-linecap="round" stroke-linejoin="round"/>
<path id="Vector_5" d="M9.62292 10.3773H12.6948" stroke="black" stroke-miterlimit="10" stroke-linecap="round" stroke-linejoin="round"/>
<path id="Vector_6" d="M4.28711 14.7425L5.0416 15.497L7.30507 13.2874" stroke="black" stroke-miterlimit="10" stroke-linecap="round" stroke-linejoin="round"/>
<path id="Vector_7" d="M9.62292 13.7185H15.7127" stroke="black" stroke-miterlimit="10" stroke-linecap="round" stroke-linejoin="round"/>
<path id="Vector_8" d="M9.62292 15.3892H12.6948" stroke="black" stroke-miterlimit="10" stroke-linecap="round" stroke-linejoin="round"/>
<path id="Vector_9" d="M4.28711 19.8084L5.0416 20.5629L7.30507 18.2994" stroke="black" stroke-miterlimit="10" stroke-linecap="round" stroke-linejoin="round"/>
<path id="Vector_10" d="M9.62292 18.7306H15.7127" stroke="black" stroke-miterlimit="10" stroke-linecap="round" stroke-linejoin="round"/>
<path id="Vector_11" d="M9.62292 20.4012H12.6948" stroke="black" stroke-miterlimit="10" stroke-linecap="round" stroke-linejoin="round"/>
</g>
</svg>
