<svg width="15" height="20" viewBox="0 0 15 20" fill="none" xmlns="http://www.w3.org/2000/svg">
<g id="Group 10">
<g id="Group">
<g id="Group_2">
<path id="Vector" d="M7.00946 0.322754C3.14442 0.322754 0 3.46718 0 7.33218C0 12.1288 6.27278 19.1704 6.53985 19.4679C6.7907 19.7472 7.22867 19.7468 7.47907 19.4679C7.74614 19.1704 14.0189 12.1288 14.0189 7.33218C14.0188 3.46718 10.8745 0.322754 7.00946 0.322754ZM7.00946 18.0793C4.89835 15.5716 1.26228 10.6242 1.26228 7.33225C1.26228 4.16318 3.84043 1.58503 7.00946 1.58503C10.1785 1.58503 12.7566 4.16318 12.7566 7.33221C12.7566 10.6243 9.1211 15.5708 7.00946 18.0793Z" fill="white"/>
</g>
</g>
<g id="Group_3">
<g id="Group_4">
<path id="Vector_2" d="M7.00942 3.80557C5.06483 3.80557 3.48283 5.38761 3.48283 7.33221C3.48283 9.2768 5.06487 10.8588 7.00942 10.8588C8.95398 10.8588 10.536 9.2768 10.536 7.33221C10.536 5.38761 8.95398 3.80557 7.00942 3.80557ZM7.00942 9.59657C5.76083 9.59657 4.7451 8.5808 4.7451 7.33221C4.7451 6.08362 5.76087 5.06785 7.00942 5.06785C8.25798 5.06785 9.27375 6.08362 9.27375 7.33221C9.27375 8.5808 8.25798 9.59657 7.00942 9.59657Z" fill="white"/>
</g>
</g>
</g>
</svg>
