<svg width="12" height="17" viewBox="0 0 12 17" fill="none" xmlns="http://www.w3.org/2000/svg">
<g id="Group">
<g id="Group_2">
<path id="Vector" d="M6 0C2.69158 0 0 2.69158 0 5.99997C0 10.1058 5.36941 16.1333 5.59802 16.3879C5.81275 16.6271 6.18764 16.6267 6.40198 16.3879C6.63059 16.1333 12 10.1058 12 5.99997C11.9999 2.69158 9.30839 0 6 0ZM6 9.01872C4.33545 9.01872 2.98128 7.66451 2.98128 5.99997C2.98128 4.33542 4.33549 2.98125 6 2.98125C7.66452 2.98125 9.01869 4.33545 9.01869 6C9.01869 7.66455 7.66452 9.01872 6 9.01872Z" fill="#8B8D98"/>
</g>
</g>
</svg>
