<?xml version="1.0" encoding="UTF-8"?>
<svg id="Layer_1" data-name="Layer 1" xmlns="http://www.w3.org/2000/svg" xmlns:xlink="http://www.w3.org/1999/xlink" viewBox="0 0 51.33 8.76">
  <defs>
    <style>
      .cls-1 {
        fill: url(#linear-gradient);
      }

      .cls-1, .cls-2, .cls-3, .cls-4, .cls-5, .cls-6, .cls-7, .cls-8, .cls-9, .cls-10 {
        stroke-width: 0px;
      }

      .cls-2 {
        fill: url(#linear-gradient-6);
      }

      .cls-3 {
        fill: url(#linear-gradient-5);
      }

      .cls-4 {
        fill: url(#linear-gradient-2);
      }

      .cls-5 {
        fill: url(#linear-gradient-7);
      }

      .cls-6 {
        fill: url(#linear-gradient-3);
      }

      .cls-7 {
        fill: url(#linear-gradient-9);
      }

      .cls-8 {
        fill: url(#linear-gradient-8);
      }

      .cls-9 {
        fill: url(#linear-gradient-10);
      }

      .cls-10 {
        fill: url(#linear-gradient-4);
      }
    </style>
    <linearGradient id="linear-gradient" x1="3.97" y1="21.5" x2="3.97" y2="-18.5" gradientUnits="userSpaceOnUse">
      <stop offset="0" stop-color="#0099fd"/>
      <stop offset="1" stop-color="#49a97e"/>
    </linearGradient>
    <linearGradient id="linear-gradient-2" x1="11.42" y1="21.5" x2="11.42" y2="-18.5" xlink:href="#linear-gradient"/>
    <linearGradient id="linear-gradient-3" x1="15.45" y1="21.5" x2="15.45" y2="-18.5" xlink:href="#linear-gradient"/>
    <linearGradient id="linear-gradient-4" x1="19.65" y1="21.5" x2="19.65" y2="-18.5" xlink:href="#linear-gradient"/>
    <linearGradient id="linear-gradient-5" x1="24.93" y1="21.5" x2="24.93" y2="-18.5" xlink:href="#linear-gradient"/>
    <linearGradient id="linear-gradient-6" x1="28.02" y1="21.5" x2="28.02" y2="-18.5" xlink:href="#linear-gradient"/>
    <linearGradient id="linear-gradient-7" x1="32.23" y1="21.5" x2="32.23" y2="-18.5" xlink:href="#linear-gradient"/>
    <linearGradient id="linear-gradient-8" x1="38.25" y1="21.5" x2="38.25" y2="-18.5" xlink:href="#linear-gradient"/>
    <linearGradient id="linear-gradient-9" x1="45.41" y1="21.5" x2="45.41" y2="-18.5" xlink:href="#linear-gradient"/>
    <linearGradient id="linear-gradient-10" x1="50.71" y1="21.5" x2="50.71" y2="-18.5" xlink:href="#linear-gradient"/>
  </defs>
  <path class="cls-1" d="m3.07,3.38L.19,0h1.72l2.02,2.43L5.96,0h1.67l-2.85,3.4,3.15,3.72h-1.7l-2.33-2.77-2.27,2.77H0l3.07-3.74Z"/>
  <path class="cls-4" d="m8.71,2.03h1.23v.51c.15-.24.37-.42.65-.54s.6-.18.96-.18c.54,0,1,.11,1.39.34.39.22.69.54.89.94.21.4.31.87.31,1.41s-.11,1.03-.33,1.44c-.22.41-.53.73-.94.95-.4.22-.88.34-1.43.34-.65,0-1.15-.19-1.51-.56v2.08h-1.23V2.03Zm1.58,3.68c.24.24.61.36,1.09.36s.84-.13,1.09-.39c.25-.26.38-.65.38-1.18s-.13-.9-.38-1.15c-.25-.25-.6-.38-1.03-.38-.48,0-.85.12-1.12.37s-.4.57-.4.97v.4c0,.44.12.78.36,1.02Z"/>
  <path class="cls-6" d="m14.84,0h1.23v7.12h-1.23V0Z"/>
  <path class="cls-10" d="m17.58,6.51c-.5-.48-.75-1.14-.75-1.97,0-.56.12-1.04.35-1.45.23-.41.56-.72.99-.94.43-.22.93-.33,1.49-.33s1.06.11,1.48.33c.42.22.75.53.98.93.23.4.35.88.35,1.44s-.12,1.04-.35,1.44c-.23.41-.56.72-.99.94-.43.22-.93.33-1.5.33-.87,0-1.55-.24-2.05-.72Zm.9-.84c.26.27.64.4,1.16.4s.92-.14,1.18-.41c.26-.27.39-.65.39-1.15s-.13-.87-.39-1.14c-.26-.27-.66-.41-1.18-.41s-.9.13-1.16.4-.39.65-.39,1.15.13.88.39,1.14Z"/>
  <path class="cls-3" d="m23.24,2.03h1.23v.47c.16-.2.38-.34.65-.44.27-.09.56-.14.87-.14.19,0,.4.02.64.07l-.16,1.16c-.19-.05-.4-.07-.63-.07-.39,0-.71.09-.97.26s-.39.43-.39.77v3.01h-1.23V2.03Z"/>
  <path class="cls-2" d="m27.4,0h1.24v1.32h-1.24V0Zm.01,2h1.23v5.12h-1.23V2Z"/>
  <path class="cls-5" d="m30.17,6.51c-.5-.48-.75-1.14-.75-1.97,0-.56.12-1.04.35-1.45.23-.41.56-.72.99-.94.43-.22.93-.33,1.49-.33s1.06.11,1.48.33c.42.22.75.53.98.93.23.4.35.88.35,1.44s-.12,1.04-.35,1.44c-.23.41-.56.72-.99.94-.43.22-.93.33-1.5.33-.87,0-1.55-.24-2.05-.72Zm.9-.84c.26.27.64.4,1.16.4s.92-.14,1.18-.41c.26-.27.39-.65.39-1.15s-.13-.87-.39-1.14c-.26-.27-.66-.41-1.18-.41s-.9.13-1.16.4-.39.65-.39,1.15.13.88.39,1.14Z"/>
  <path class="cls-8" d="m35.76,2h1.23v.49c.16-.21.4-.37.71-.49s.63-.18.95-.18c.68,0,1.21.17,1.56.51.36.34.53.82.53,1.45v3.34h-1.24v-3.05c0-.37-.07-.65-.21-.82-.14-.17-.4-.26-.76-.26-.23,0-.46.04-.7.11-.24.07-.44.19-.6.35-.16.16-.24.36-.24.6v3.07h-1.23V2Z"/>
  <path class="cls-7" d="m44.87,0h1.09l3.36,7.12h-1.47l-.89-1.93h-3.09l-.89,1.93h-1.45l3.37-7.12Zm1.52,3.94l-.99-2.12-.97,2.12h1.95Z"/>
  <path class="cls-9" d="m50.09,0h1.24v1.32h-1.24V0Zm.01,2h1.23v5.12h-1.23V2Z"/>
</svg>