<svg width="10" height="13" viewBox="0 0 10 13" fill="none" xmlns="http://www.w3.org/2000/svg">
<g id="Group 2">
<path id="Vector" fill-rule="evenodd" clip-rule="evenodd" d="M3.125 4.375C3.125 3.33946 3.96446 2.5 5 2.5C6.03554 2.5 6.875 3.33946 6.875 4.375C6.875 5.41054 6.03554 6.25 5 6.25C3.96446 6.25 3.125 5.41054 3.125 4.375ZM5 3.33333C4.42471 3.33333 3.95833 3.79971 3.95833 4.375C3.95833 4.95029 4.42471 5.41667 5 5.41667C5.57529 5.41667 6.04167 4.95029 6.04167 4.375C6.04167 3.79971 5.57529 3.33333 5 3.33333Z" fill="#2C64E3"/>
<path id="Vector_2" fill-rule="evenodd" clip-rule="evenodd" d="M4.74665 12.4141C4.49019 12.2174 4.24646 12.0049 4.00583 11.7894C3.56687 11.3961 2.98067 10.833 2.39325 10.1542C1.23598 8.81673 0 6.94627 0 5C0 2.23858 2.23858 0 5 0C7.76142 0 10 2.23858 10 5C10 6.94627 8.76402 8.81673 7.60675 10.1542C7.01933 10.833 6.43312 11.3961 5.99417 11.7894C5.75396 12.0045 5.50973 12.2177 5.25356 12.414C5.10577 12.5273 4.89452 12.5274 4.74665 12.4141ZM5 0.833333C2.69881 0.833333 0.833333 2.69881 0.833333 5C0.833333 6.62671 1.88902 8.2979 3.02342 9.6089C3.58183 10.2542 4.14146 10.792 4.56187 11.1687C4.81188 11.3926 5.18812 11.3926 5.43813 11.1687C5.85854 10.792 6.41817 10.2542 6.97658 9.6089C8.11098 8.2979 9.16667 6.62671 9.16667 5C9.16667 2.69881 7.30119 0.833333 5 0.833333Z" fill="url(#paint0_linear_2_1936)"/>
</g>
<defs>
<linearGradient id="paint0_linear_2_1936" x1="10" y1="12.499" x2="-0.573867" y2="11.9931" gradientUnits="userSpaceOnUse">
<stop stop-color="#54AB6A"/>
<stop offset="1" stop-color="#0099FF"/>
</linearGradient>
</defs>
</svg>
