<svg width="16" height="15" viewBox="0 0 16 15" fill="none" xmlns="http://www.w3.org/2000/svg">
<path id="Vector" d="M10.9096 11.4849V12.6568C10.9096 13.9492 9.85823 15.0006 8.56579 15.0006H2.67686C1.38442 15.0006 0.333008 13.9492 0.333008 12.6568V2.34384C0.333008 1.0514 1.38442 -1.52588e-05 2.67686 -1.52588e-05H8.56579C9.85823 -1.52588e-05 10.9096 1.0514 10.9096 2.34384V3.51576C10.9096 3.83942 10.6473 4.10173 10.3237 4.10173C10 4.10173 9.73772 3.83942 9.73772 3.51576V2.34384C9.73772 1.69768 9.21195 1.17191 8.56579 1.17191H2.67686C2.0307 1.17191 1.50493 1.69768 1.50493 2.34384V12.6568C1.50493 13.303 2.0307 13.8287 2.67686 13.8287H8.56579C9.21195 13.8287 9.73772 13.303 9.73772 12.6568V11.4849C9.73772 11.1612 10 10.8989 10.3237 10.8989C10.6473 10.8989 10.9096 11.1612 10.9096 11.4849ZM14.9046 6.49376L13.5925 5.18164C13.3636 4.95275 12.9926 4.95275 12.7638 5.18164C12.5349 5.41042 12.5349 5.78145 12.7638 6.01023L13.6971 6.94365H6.66141C6.33776 6.94365 6.07545 7.20596 6.07545 7.52961C6.07545 7.85327 6.33776 8.11557 6.66141 8.11557H13.6971L12.7638 9.049C12.5349 9.27777 12.5349 9.64881 12.7638 9.87758C12.8782 9.99203 13.0282 10.0493 13.1781 10.0493C13.3281 10.0493 13.478 9.99203 13.5925 9.87758L14.9046 8.56546C15.4758 7.99426 15.4758 7.06496 14.9046 6.49376Z" fill="black"/>
</svg>
