<svg width="50" height="50" viewBox="0 0 50 50" fill="none" xmlns="http://www.w3.org/2000/svg">
<g id="Frame 818147">
<rect width="50" height="50" rx="25" fill="#FDF3F3"/>
<g id="Group 1171275255">
<path id="Vector" d="M16.9575 14.4856C17.0057 14.4854 17.054 14.4852 17.1038 14.485C17.2653 14.4845 17.4269 14.4845 17.5885 14.4846C17.7044 14.4843 17.8203 14.4841 17.9363 14.4837C18.2184 14.483 18.5005 14.4828 18.7826 14.4827C19.0121 14.4827 19.2416 14.4825 19.471 14.4822C20.1222 14.4814 20.7734 14.481 21.4246 14.4811C21.4597 14.4811 21.4948 14.4811 21.5309 14.4811C21.5661 14.4811 21.6012 14.4811 21.6374 14.4811C22.2063 14.4812 22.7752 14.4803 23.3441 14.4791C23.9289 14.4779 24.5137 14.4773 25.0985 14.4773C25.4265 14.4774 25.7546 14.4771 26.0826 14.4762C26.362 14.4754 26.6414 14.4752 26.9208 14.4758C27.0631 14.4761 27.2055 14.476 27.3479 14.4753C27.5027 14.4746 27.6574 14.4751 27.8122 14.4757C27.8788 14.4751 27.8788 14.4751 27.9467 14.4744C28.6394 14.481 29.1964 14.799 29.6732 15.2813C30.1015 15.7487 30.2964 16.296 30.2957 16.9241C30.296 16.9598 30.2963 16.9955 30.2966 17.0323C30.2974 17.1489 30.2976 17.2655 30.2977 17.3821C30.2979 17.4638 30.2982 17.5455 30.2985 17.6273C30.2991 17.798 30.2992 17.9686 30.2992 18.1393C30.2992 18.3576 30.3004 18.5759 30.3019 18.7942C30.3028 18.9627 30.303 19.1312 30.303 19.2998C30.3031 19.3803 30.3034 19.4607 30.3041 19.5412C30.305 19.6538 30.3047 19.7663 30.3042 19.8789C30.3047 19.9118 30.3052 19.9447 30.3057 19.9786C30.3029 20.2168 30.2433 20.3549 30.1088 20.5521C29.8645 20.7781 29.6822 20.8318 29.3545 20.824C29.0774 20.799 28.9369 20.6559 28.7671 20.4527C28.6525 20.2884 28.665 20.1189 28.6651 19.9274C28.6649 19.8787 28.6649 19.8787 28.6647 19.829C28.6644 19.7585 28.6641 19.688 28.664 19.6174C28.6637 19.5055 28.663 19.3936 28.6622 19.2817C28.6599 18.9634 28.6578 18.6451 28.6571 18.3268C28.6567 18.1321 28.6554 17.9373 28.6536 17.7426C28.653 17.6687 28.6528 17.5947 28.6529 17.5208C28.6613 16.9432 28.6613 16.9432 28.4535 16.4139C28.192 16.1615 27.9464 16.1461 27.5929 16.1473C27.554 16.1473 27.515 16.1472 27.4749 16.1472C27.3442 16.1471 27.2136 16.1474 27.0829 16.1476C26.9893 16.1476 26.8957 16.1476 26.8021 16.1476C26.5478 16.1476 26.2935 16.1478 26.0392 16.1481C25.7735 16.1484 25.5078 16.1484 25.2421 16.1485C24.7389 16.1486 24.2356 16.149 23.7324 16.1494C23.1596 16.1499 22.5867 16.1501 22.0138 16.1504C20.8353 16.1508 19.6568 16.1516 18.4783 16.1525C18.5085 16.1694 18.5388 16.1863 18.57 16.2037C18.7101 16.282 18.8502 16.3603 18.9903 16.4386C19.0616 16.4784 19.0616 16.4784 19.1345 16.519C19.454 16.6977 19.7714 16.8796 20.0873 17.0646C20.1355 17.0928 20.1836 17.121 20.2333 17.15C20.2709 17.1721 20.3086 17.1942 20.3474 17.217C20.6221 17.378 20.8977 17.5372 21.1735 17.6962C21.2436 17.7366 21.2436 17.7366 21.315 17.7778C21.5336 17.9039 21.7523 18.0297 21.9714 18.155C24.0209 19.3271 24.0209 19.3271 24.2932 20.3147C24.3533 20.6047 24.365 20.881 24.3641 21.1764C24.3642 21.2435 24.3642 21.2435 24.3642 21.312C24.3643 21.4615 24.3641 21.6111 24.3638 21.7606C24.3638 21.868 24.3638 21.9753 24.3638 22.0826C24.3638 22.3135 24.3637 22.5445 24.3635 22.7754C24.3631 23.1092 24.363 23.4431 24.363 23.7769C24.3629 24.3186 24.3626 24.8603 24.3622 25.4021C24.3618 25.9282 24.3615 26.4543 24.3613 26.9804C24.3613 27.0128 24.3612 27.0453 24.3612 27.0787C24.3612 27.2415 24.3611 27.4043 24.3611 27.5671C24.3606 28.9168 24.3598 30.2666 24.3589 31.6163C24.8364 31.6147 25.3139 31.6121 25.7914 31.6083C26.0131 31.6066 26.2348 31.6052 26.4565 31.6045C26.6706 31.6039 26.8847 31.6024 27.0988 31.6003C27.1804 31.5997 27.262 31.5993 27.3435 31.5993C27.458 31.5992 27.5725 31.598 27.687 31.5966C27.7205 31.5968 27.754 31.597 27.7886 31.5972C28.0737 31.5918 28.2621 31.5028 28.4671 31.2978C28.6109 31.0689 28.6386 30.8355 28.6396 30.5694C28.6398 30.5405 28.64 30.5116 28.6403 30.4817C28.6407 30.4195 28.641 30.3572 28.641 30.2949C28.6412 30.1962 28.6419 30.0975 28.6428 29.9988C28.6452 29.7183 28.6466 29.4378 28.6476 29.1573C28.6483 28.9852 28.6496 28.8131 28.6513 28.6411C28.6518 28.5758 28.6521 28.5104 28.6521 28.4451C28.6521 28.3537 28.6529 28.2623 28.6539 28.1709C28.6541 28.119 28.6543 28.0671 28.6545 28.0137C28.6814 27.7841 28.7616 27.6475 28.9272 27.489C29.1708 27.3137 29.376 27.2638 29.6732 27.3039C29.9431 27.3918 30.0913 27.532 30.2431 27.77C30.2996 27.9117 30.2948 28.0365 30.2957 28.1889C30.296 28.2207 30.2963 28.2525 30.2966 28.2853C30.2974 28.3906 30.2976 28.4958 30.2977 28.601C30.2979 28.6746 30.2982 28.7482 30.2985 28.8218C30.2991 28.9763 30.2992 29.1308 30.2992 29.2853C30.2992 29.4818 30.3004 29.6783 30.3019 29.8749C30.3028 30.0271 30.303 30.1793 30.303 30.3315C30.3031 30.4039 30.3034 30.4762 30.3041 30.5486C30.3108 31.3374 30.1315 32.011 29.5743 32.5946C29.073 33.0615 28.4475 33.2796 27.771 33.2766C27.734 33.2766 27.697 33.2766 27.6589 33.2766C27.5373 33.2766 27.4157 33.2762 27.2941 33.2759C27.2095 33.2758 27.1249 33.2757 27.0403 33.2757C26.8182 33.2755 26.596 33.2751 26.3739 33.2746C26.147 33.2742 25.9201 33.274 25.6932 33.2738C25.2484 33.2733 24.8037 33.2725 24.3589 33.2716C24.3599 33.3282 24.3599 33.3282 24.3609 33.3859C24.3632 33.529 24.3648 33.672 24.3661 33.8151C24.3667 33.8764 24.3676 33.9377 24.3687 33.999C24.3832 34.7927 24.2446 35.4957 23.6844 36.0928C23.1905 36.588 22.5934 36.8141 21.9032 36.8245C21.1106 36.8134 20.5441 36.4595 19.879 36.0625C19.6171 35.9061 19.3527 35.754 19.0881 35.6021C18.9937 35.5477 18.8993 35.4932 18.805 35.4387C18.7583 35.4118 18.7115 35.3848 18.6634 35.3571C18.5218 35.2754 18.3803 35.1937 18.2387 35.112C18.1686 35.0716 18.1686 35.0716 18.097 35.0303C18.003 34.976 17.9089 34.9218 17.8148 34.8675C17.5248 34.7001 17.2347 34.5329 16.9445 34.3658C16.8017 34.2835 16.659 34.2009 16.5164 34.1183C16.3575 34.0264 16.1982 33.9355 16.0379 33.8461C15.3174 33.4408 14.7955 32.9591 14.5579 32.1391C14.5192 31.9752 14.5087 31.8235 14.5085 31.6552C14.5083 31.6014 14.5081 31.5476 14.5079 31.4922C14.5079 31.4326 14.5079 31.373 14.5079 31.3135C14.5078 31.2501 14.5076 31.1867 14.5074 31.1233C14.507 30.9491 14.5068 30.7748 14.5067 30.6006C14.5065 30.4127 14.5061 30.2248 14.5057 30.0369C14.5049 29.5831 14.5044 29.1292 14.504 28.6754C14.5039 28.4616 14.5036 28.2478 14.5034 28.0339C14.5027 27.323 14.502 26.612 14.5017 25.9011C14.5016 25.7166 14.5015 25.5322 14.5015 25.3477C14.5014 25.3019 14.5014 25.256 14.5014 25.2088C14.501 24.4664 14.4999 23.724 14.4985 22.9816C14.4971 22.2191 14.4963 21.4565 14.4961 20.694C14.4961 20.266 14.4957 19.838 14.4946 19.41C14.4936 19.0454 14.4933 18.6809 14.4937 18.3163C14.4939 18.1305 14.4938 17.9446 14.493 17.7587C14.4922 17.5883 14.4922 17.4178 14.4929 17.2473C14.493 17.186 14.4928 17.1246 14.4923 17.0633C14.4859 16.2583 14.7409 15.6753 15.2984 15.1071C15.3225 15.0819 15.3467 15.0567 15.3716 15.0307C15.802 14.6206 16.384 14.4839 16.9575 14.4856Z" fill="#FF3829"/>
<path id="Vector_2" d="M31.7821 20.8701C32.0709 21.0186 32.2888 21.2694 32.515 21.4975C32.5659 21.5482 32.6167 21.5989 32.6676 21.6495C32.7737 21.7554 32.8796 21.8617 32.9852 21.9681C33.12 22.1039 33.2556 22.239 33.3915 22.3738C33.4965 22.4782 33.6011 22.583 33.7056 22.6879C33.7554 22.7378 33.8054 22.7876 33.8555 22.8373C34.4162 23.3945 34.4162 23.3945 34.4897 23.7715C34.4896 23.8274 34.4896 23.8274 34.4895 23.8845C34.4905 23.9217 34.4914 23.959 34.4924 23.9974C34.4018 24.4165 34.0179 24.724 33.7267 25.0165C33.6753 25.0684 33.624 25.1204 33.5726 25.1723C33.4652 25.2806 33.3576 25.3887 33.2497 25.4966C33.1123 25.6343 32.9758 25.773 32.8396 25.912C32.7339 26.0194 32.6276 26.1262 32.521 26.2327C32.4704 26.2836 32.4201 26.3346 32.37 26.386C31.8466 26.9214 31.8466 26.9214 31.4594 26.9554C31.1834 26.942 30.9803 26.8759 30.7801 26.681C30.6206 26.4882 30.5643 26.2843 30.5761 26.0393C30.6385 25.5962 31.0185 25.3037 31.3182 25.0051C31.3444 24.979 31.3706 24.9528 31.3976 24.9259C31.4617 24.8618 31.5259 24.7979 31.5901 24.7339C31.5596 24.7338 31.5292 24.7337 31.4978 24.7337C30.7565 24.7321 30.0152 24.7295 29.2738 24.7259C28.9153 24.7241 28.5568 24.7227 28.1983 24.7221C27.8858 24.7215 27.5732 24.7203 27.2607 24.7184C27.0952 24.7174 26.9298 24.7168 26.7644 24.7168C26.6085 24.7168 26.4526 24.7161 26.2967 24.7147C26.2126 24.7141 26.1285 24.7144 26.0444 24.7148C25.7087 24.7107 25.4456 24.6824 25.1937 24.4385C25.1701 24.4014 25.1701 24.4014 25.1459 24.3636C25.1211 24.3266 25.1211 24.3266 25.0957 24.2887C24.9867 24.0754 24.969 23.8234 25.0423 23.596C25.1586 23.3408 25.3064 23.1769 25.5736 23.0737C25.8183 23.0088 26.0722 23.0216 26.3235 23.0211C26.3804 23.0207 26.4374 23.0203 26.4961 23.0198C26.6516 23.0186 26.8071 23.018 26.9626 23.0174C27.1254 23.0167 27.2882 23.0156 27.451 23.0144C27.7589 23.0124 28.0668 23.0108 28.3747 23.0094C28.7254 23.0077 29.0761 23.0055 29.4268 23.0034C30.1479 22.9989 30.869 22.995 31.5901 22.9915C31.5644 22.9667 31.5387 22.9419 31.5122 22.9163C31.3952 22.803 31.2789 22.689 31.1626 22.5749C31.1222 22.5359 31.0817 22.4969 31.04 22.4568C30.8071 22.2272 30.6307 22.049 30.5708 21.7201C30.5743 21.4512 30.6436 21.2515 30.8196 21.0422C31.1181 20.7923 31.4165 20.7307 31.7821 20.8701Z" fill="#FF3829"/>
</g>
</g>
</svg>
