<svg width="25" height="25" viewBox="0 0 25 25" fill="none" xmlns="http://www.w3.org/2000/svg">
<g id="Page-1">
<g id="059---Money-Bag">
<path id="Shape" d="M22.5575 19.44C23.0513 18.761 23.319 17.9437 23.3225 17.1041C23.3279 16.9936 23.2891 16.8856 23.2148 16.8038C23.1405 16.722 23.0367 16.6731 22.9263 16.6678C22.6973 16.6592 22.5034 16.8353 22.49 17.0641C22.4931 17.7295 22.2881 18.3793 21.9037 18.9225C21.0907 19.9492 19.5482 20.0013 19.2469 20.0013C19.0168 20.0013 18.8302 20.1879 18.8302 20.418C18.8302 20.6481 19.0168 20.8347 19.2469 20.8347C19.6152 20.8347 21.5058 20.7676 22.5575 19.44Z" fill="black"/>
<path id="Shape_2" d="M14.1675 14.1678C14.1675 13.9376 13.9809 13.7511 13.7508 13.7511C13.5206 13.7511 13.3341 13.9376 13.3341 14.1678C13.3341 15.0883 14.0803 15.8345 15.0009 15.8345V16.2512C15.0009 16.4813 15.1874 16.6679 15.4175 16.6679C15.6477 16.6679 15.8342 16.4813 15.8342 16.2512V15.8345C16.7548 15.8345 17.501 15.0883 17.501 14.1678C17.501 13.2472 16.7548 12.501 15.8342 12.501V10.8342C16.2945 10.8342 16.6676 11.2074 16.6676 11.6676C16.6676 11.8978 16.8542 12.0843 17.0843 12.0843C17.3144 12.0843 17.501 11.8978 17.501 11.6676C17.501 10.7471 16.7548 10.0009 15.8342 10.0009V9.58417C15.8342 9.35404 15.6477 9.16748 15.4175 9.16748C15.1874 9.16748 15.0009 9.35404 15.0009 9.58417V10.0009C14.0803 10.0009 13.3341 10.7471 13.3341 11.6676C13.3341 12.5881 14.0803 13.3344 15.0009 13.3344V15.0011C14.5406 15.0011 14.1675 14.628 14.1675 14.1678ZM14.1675 11.6676C14.1675 11.2074 14.5406 10.8342 15.0009 10.8342V12.501C14.5406 12.501 14.1675 12.1279 14.1675 11.6676ZM15.8342 13.3344C16.2945 13.3344 16.6676 13.7075 16.6676 14.1678C16.6676 14.628 16.2945 15.0011 15.8342 15.0011V13.3344Z" fill="black"/>
<path id="Shape_3" d="M24.653 14.0723C23.6263 9.70918 21.3437 7.18113 19.6953 5.86064C21.7625 6.01648 22.4279 6.87653 22.4475 6.90236C22.578 7.08872 22.8339 7.1359 23.0224 7.00835C23.2108 6.8808 23.2621 6.62569 23.1375 6.43525C23.1075 6.39025 22.5288 5.56354 20.8457 5.18518C21.2761 4.83141 21.5307 4.30748 21.5429 3.75052C21.4871 2.82711 20.8443 2.04408 19.9494 1.80958C19.9861 1.50858 20.0048 1.20567 20.0053 0.902444C20.0048 0.623095 19.8645 0.362551 19.6314 0.208525C19.3984 0.0544996 19.1036 0.0274821 18.8465 0.136568C18.6361 0.231813 18.4407 0.357161 18.2664 0.508672C18.0619 0.718818 17.7804 0.836238 17.4872 0.83369C17.1945 0.835751 16.9135 0.71838 16.7093 0.508672C15.9749 -0.169557 14.8426 -0.169557 14.1083 0.508672C13.9038 0.719275 13.6218 0.83676 13.3282 0.83369C13.0355 0.836123 12.7546 0.718685 12.5507 0.508672C12.3769 0.357486 12.1821 0.232289 11.9723 0.136985C11.7153 0.0286299 11.4212 0.0560164 11.1886 0.209951C10.956 0.363885 10.8159 0.623958 10.8152 0.902861C10.8152 1.93959 11.0202 3.78885 12.3182 5.03059C11.636 5.44538 10.999 5.93011 10.4172 6.47692V3.33383C10.4172 2.38378 9.07342 1.66707 7.29207 1.66707C5.51072 1.66707 4.1669 2.38378 4.1669 3.33383V7.53198C2.70557 7.67782 1.66676 8.33411 1.66676 9.16749V19.766C0.660037 20.0364 0 20.5848 0 21.2515V23.3349C0 24.285 1.34382 25.0017 3.12517 25.0017C4.71818 25.0017 5.95866 24.4279 6.20326 23.6266C6.92253 24.0075 7.72868 24.1942 8.54214 24.1683C10.3235 24.1683 11.6673 23.4516 11.6673 22.5016V17.0846C11.6673 16.1345 10.3235 15.4178 8.54214 15.4178C8.3334 15.4177 8.12479 15.4281 7.91711 15.4491V9.16749C7.91711 8.25494 6.67662 7.5599 5.00028 7.50615V4.48764C5.70916 4.84795 6.49723 5.02433 7.29207 5.00059C8.08692 5.02433 8.87498 4.84795 9.58387 4.48764V7.32947C9.30927 7.63657 9.03342 7.97117 8.76132 8.34202C8.63672 8.52757 8.68069 8.77837 8.86099 8.91046C9.04128 9.04255 9.29367 9.00887 9.43302 8.83414C9.70065 8.47182 9.98747 8.12408 10.2922 7.79241C10.2956 7.78866 10.2985 7.78491 10.3018 7.78158C11.0973 6.89756 12.0313 6.14898 13.0674 5.5652C13.2717 5.66373 13.4877 5.73558 13.7103 5.77897L12.6361 6.78152C12.4679 6.9387 12.4589 7.20249 12.6161 7.37072C12.7733 7.53895 13.0371 7.5479 13.2053 7.39072L14.8721 5.83605H15.005V7.08612C15.005 7.31625 15.1916 7.50281 15.4217 7.50281C15.6518 7.50281 15.8384 7.31625 15.8384 7.08612V5.83397H15.9713L17.6381 7.38864C17.7469 7.49032 17.9017 7.52621 18.0442 7.48281C18.1866 7.4394 18.2951 7.32329 18.3288 7.17821C18.3624 7.03313 18.3161 6.88111 18.2073 6.77944L17.126 5.77272C17.3472 5.72892 17.5619 5.6568 17.7647 5.55812C18.866 6.15399 22.4862 8.50828 23.8422 14.2632C24.4318 16.7683 24.2193 18.6847 23.2109 19.9577C21.9208 21.5848 19.6823 21.6682 19.2469 21.6682H13.3341C13.1039 21.6682 12.9174 21.8547 12.9174 22.0849C12.9174 22.315 13.1039 22.5016 13.3341 22.5016H19.2469C19.9553 22.5016 22.3742 22.3553 23.8638 20.4752C25.0381 18.9922 25.3039 16.8379 24.653 14.0723ZM3.12517 20.4181C4.50317 20.4181 5.41697 20.9181 5.41697 21.2515C5.41697 21.5848 4.50317 22.0849 3.12517 22.0849C1.74718 22.0849 0.83338 21.5848 0.83338 21.2515C0.83338 20.9181 1.74718 20.4181 3.12517 20.4181ZM3.12517 24.1683C1.74718 24.1683 0.83338 23.6683 0.83338 23.3349V22.4053C1.54226 22.7656 2.33033 22.942 3.12517 22.9183C3.92002 22.942 4.70808 22.7656 5.41697 22.4053V23.3349C5.41697 23.6683 4.50317 24.1683 3.12517 24.1683ZM8.54214 23.3349C7.16415 23.3349 6.25035 22.8349 6.25035 22.5016V18.2384C6.95923 18.5987 7.7473 18.7751 8.54214 18.7514C9.33698 18.7751 10.1251 18.5987 10.8339 18.2384V22.5016C10.8339 22.8349 9.92014 23.3349 8.54214 23.3349ZM10.8339 17.0846C10.8339 17.4179 9.92014 17.918 8.54214 17.918C7.16415 17.918 6.25035 17.4179 6.25035 17.0846C6.25035 16.7512 7.16415 16.2512 8.54214 16.2512C9.92014 16.2512 10.8339 16.7512 10.8339 17.0846ZM5.41697 17.0846V20.0977C4.70808 19.7374 3.92002 19.561 3.12517 19.5847C2.91644 19.5846 2.70782 19.595 2.50014 19.616V10.3213C3.20902 10.6816 3.99709 10.858 4.79193 10.8342C5.58678 10.858 6.37484 10.6816 7.08373 10.3213V15.5991C6.077 15.8695 5.41697 16.4179 5.41697 17.0846ZM7.08373 9.16749C7.08373 9.50084 6.16993 10.0009 4.79193 10.0009C3.41394 10.0009 2.50014 9.50084 2.50014 9.16749C2.50014 8.83414 3.41394 8.33411 4.79193 8.33411C6.16993 8.33411 7.08373 8.83414 7.08373 9.16749ZM7.29207 4.16721C5.91408 4.16721 5.00028 3.66718 5.00028 3.33383C5.00028 3.00048 5.91408 2.50045 7.29207 2.50045C8.67007 2.50045 9.58387 3.00048 9.58387 3.33383C9.58387 3.66718 8.67007 4.16721 7.29207 4.16721ZM20.7095 3.75052C20.7095 4.43347 19.9699 4.99392 19.0427 5.00059C18.8876 4.99961 18.7331 4.98186 18.5819 4.94767C19.1866 4.30245 19.607 3.50662 19.799 2.64337C20.3006 2.79116 20.6613 3.22985 20.7095 3.75052ZM12.029 1.15871C12.3809 1.48845 12.846 1.67044 13.3282 1.66707C13.8108 1.67069 14.2762 1.48869 14.6283 1.15871C14.8343 0.950755 15.1148 0.83376 15.4075 0.83376C15.7002 0.83376 15.9808 0.950755 16.1867 1.15871C16.5388 1.48893 17.0045 1.67097 17.4872 1.66707C17.9699 1.6708 18.4355 1.48879 18.7877 1.15871C18.9032 1.05665 19.0317 0.970341 19.1698 0.902028C19.1698 1.67582 19.0261 3.58884 17.6835 4.63765C17.3814 4.8645 17.0153 4.98981 16.6376 4.99559C16.9983 4.37602 17.2838 3.71562 17.4881 3.0284C17.528 2.88489 17.4883 2.73099 17.3839 2.62469C17.2796 2.51838 17.1265 2.47581 16.9822 2.51301C16.838 2.55022 16.7246 2.66154 16.6847 2.80505C16.4539 3.58833 16.0991 4.32957 15.6338 5.00059H15.2054C14.741 4.32898 14.3862 3.58791 14.1541 2.80505C14.0923 2.58332 13.8625 2.45366 13.6408 2.51545C13.419 2.57724 13.2894 2.80708 13.3512 3.02881C13.5556 3.71663 13.8414 4.37759 14.2025 4.99767C13.8172 4.99569 13.4428 4.86959 13.1349 4.63807C11.7923 3.58968 11.6486 1.67665 11.6486 0.905361C11.7866 0.971519 11.9147 1.05681 12.029 1.15871Z" fill="black"/>
</g>
</g>
</svg>
