<svg width="24" height="24" viewBox="0 0 24 24" fill="none" xmlns="http://www.w3.org/2000/svg">
<g id="Group 1171275230">
<path id="Vector" d="M23.9423 23.0161L19.7072 13.1354C19.5959 12.876 19.3407 12.7077 19.0585 12.7077H16.3689C17.4574 10.8059 18.3526 8.70115 18.3526 6.92027C18.3526 -2.25073 5.64733 -2.36261 5.64733 6.92027C5.64733 8.70115 6.54253 10.8059 7.63109 12.7077H4.94146C4.65911 12.7077 4.40386 12.876 4.29272 13.1354L0.0576757 23.0161C-0.141543 23.4809 0.199765 24 0.706418 24H23.2935C23.7991 24 24.1419 23.482 23.9423 23.0161ZM18.5929 14.1192L20.6826 18.9946C20.6173 19.0287 13.8157 22.5606 13.7669 22.5884H12.2895C12.2521 22.5467 12.5696 22.8658 7.96929 18.266L10.5245 16.9583C11.0455 17.6231 11.4104 18.0456 11.4673 18.1111C11.7486 18.4348 12.2516 18.4343 12.5325 18.1111C12.6506 17.9753 14.0894 16.3081 15.5068 14.1192H18.5929ZM12 1.41522C14.3796 1.41522 16.9409 3.13805 16.9409 6.92027C16.9409 10.1004 13.376 14.8332 12 16.5412C10.6239 14.833 7.05907 10.1004 7.05907 6.92027C7.05907 3.11754 9.54051 1.41522 12 1.41522ZM5.40691 14.1192C8.82622 14.1192 8.43767 14.1198 8.49242 14.1181C8.88994 14.7321 9.28911 15.305 9.66045 15.8148L3.28069 19.0799L5.40691 14.1192ZM2.41003 21.1113L6.64892 18.9419L10.296 22.5884H1.77685L2.41003 21.1113ZM16.8263 22.5884L21.2404 20.2956L22.2231 22.5884H16.8263Z" fill="black"/>
<path id="Vector_2" d="M14.1174 6.35577C14.1174 5.18829 13.1674 4.23834 12 4.23834C10.8323 4.23834 9.88235 5.18829 9.88235 6.35577C9.88235 7.52325 10.8323 8.47302 12 8.47302C13.1674 8.47302 14.1174 7.52325 14.1174 6.35577ZM11.2941 6.35577C11.2941 5.96649 11.6107 5.6499 12 5.6499C12.3891 5.6499 12.7058 5.96649 12.7058 6.35577C12.7058 6.74487 12.3891 7.06146 12 7.06146C11.6107 7.06146 11.2941 6.74487 11.2941 6.35577Z" fill="black"/>
</g>
</svg>
