<svg width="15" height="16" viewBox="0 0 15 16" fill="none" xmlns="http://www.w3.org/2000/svg">
<g id="Group">
<path id="Vector" fill-rule="evenodd" clip-rule="evenodd" d="M6.80124 10.2683C6.80124 9.85183 6.63592 9.45265 6.34137 9.15863C6.04735 8.86408 5.64817 8.69876 5.23172 8.69876C4.1927 8.69876 2.60854 8.69876 1.56952 8.69876C1.15307 8.69876 0.75389 8.86408 0.459867 9.15863C0.165321 9.45265 0 9.85183 0 10.2683V13.9305C0 14.3469 0.165321 14.7461 0.459867 15.0401C0.75389 15.3347 1.15307 15.5 1.56952 15.5H5.23172C5.64817 15.5 6.04735 15.3347 6.34137 15.0401C6.63592 14.7461 6.80124 14.3469 6.80124 13.9305V10.2683ZM14.6488 10.2683C14.6488 9.85183 14.4835 9.45265 14.189 9.15863C13.8949 8.86408 13.4958 8.69876 13.0793 8.69876C12.0403 8.69876 10.4561 8.69876 9.4171 8.69876C9.00065 8.69876 8.60147 8.86408 8.30745 9.15863C8.0129 9.45265 7.84758 9.85183 7.84758 10.2683V13.9305C7.84758 14.3469 8.0129 14.7461 8.30745 15.0401C8.60147 15.3347 9.00065 15.5 9.4171 15.5H13.0793C13.4958 15.5 13.8949 15.3347 14.189 15.0401C14.4835 14.7461 14.6488 14.3469 14.6488 13.9305V10.2683ZM12.3579 7.54412L14.5405 5.36145C15.1532 4.74881 15.1532 3.75478 14.5405 3.14215L12.3579 0.959476C11.7452 0.346841 10.7512 0.346841 10.1386 0.959476L7.95588 3.14215C7.34325 3.75478 7.34325 4.74881 7.95588 5.36145L10.1386 7.54412C10.7512 8.15676 11.7452 8.15676 12.3579 7.54412ZM6.80124 2.4207C6.80124 2.00425 6.63592 1.60507 6.34137 1.31105C6.04735 1.0165 5.64817 0.851179 5.23172 0.851179C4.1927 0.851179 2.60854 0.851179 1.56952 0.851179C1.15307 0.851179 0.75389 1.0165 0.459867 1.31105C0.165321 1.60507 0 2.00425 0 2.4207V6.0829C0 6.49935 0.165321 6.89853 0.459867 7.19255C0.75389 7.4871 1.15307 7.65242 1.56952 7.65242H5.23172C5.64817 7.65242 6.04735 7.4871 6.34137 7.19255C6.63592 6.89853 6.80124 6.49935 6.80124 6.0829V2.4207Z" fill="white"/>
</g>
</svg>
