<svg width="12" height="13" viewBox="0 0 12 13" fill="none" xmlns="http://www.w3.org/2000/svg">
<g id="Navigation">
<path id="Vector" d="M11.9582 1.15388L6.88132 12.2307C6.83884 12.3234 6.7668 12.3995 6.67648 12.447C6.58616 12.4945 6.48264 12.5107 6.38212 12.4932C6.2816 12.4756 6.18975 12.4252 6.12092 12.3498C6.05209 12.2745 6.01018 12.1784 6.00173 12.0767L5.5725 6.92756L0.423324 6.49833C0.321626 6.48988 0.225596 6.44797 0.150252 6.37914C0.0749082 6.31032 0.0244992 6.21846 0.00690894 6.11794C-0.0106813 6.01742 0.00553904 5.9139 0.0530333 5.82358C0.100528 5.73326 0.176617 5.66123 0.269403 5.61874L11.3462 0.541886C11.4318 0.502643 11.5274 0.49054 11.6201 0.507203C11.7128 0.523866 11.7982 0.568498 11.8648 0.635104C11.9314 0.70171 11.9761 0.787101 11.9927 0.879811C12.0094 0.97252 11.9974 1.06825 11.9582 1.15388Z" fill="#005CE8"/>
</g>
</svg>
