<svg width="20" height="20" viewBox="0 0 20 20" fill="none" xmlns="http://www.w3.org/2000/svg">
<g id="Layer_x0020_1" opacity="0.5">
<g id="_21">
<g id="Group">
<g id="Group_2">
<g id="Group_3">
<path id="Vector" fill-rule="evenodd" clip-rule="evenodd" d="M9.99422 19.6134C6.09264 19.6134 2.91748 16.4382 2.91748 12.5366C2.91748 8.63506 6.09264 5.4599 9.99422 5.4599C11.3885 5.4599 12.7242 5.85826 13.8841 6.61983C13.9544 6.6667 13.9895 6.74871 13.9895 6.83073C13.9778 6.91274 13.931 6.99476 13.8489 7.02991L13.1928 7.32282L13.9661 7.68603C14.013 7.70946 14.0598 7.74461 14.0833 7.80319L14.4348 8.57648L14.798 7.80319C14.8214 7.74461 14.8566 7.70946 14.9034 7.68603L14.9269 7.67431C15.0206 7.63916 15.126 7.66259 15.1963 7.73289C16.4031 9.04514 17.071 10.7557 17.071 12.5366C17.071 16.4382 13.8958 19.6134 9.99422 19.6134ZM9.99422 5.92856C6.3504 5.92856 3.38614 8.89282 3.38614 12.5366C3.38614 16.1805 6.3504 19.1447 9.99422 19.1447C13.638 19.1447 16.6023 16.1805 16.6023 12.5366C16.6023 10.9784 16.0634 9.49036 15.0792 8.307L14.6457 9.2326C14.6105 9.31462 14.5285 9.3732 14.4348 9.3732C14.341 9.3732 14.259 9.31462 14.2239 9.2326L13.6966 8.07267L12.5367 7.54543C12.4547 7.49856 12.3961 7.41655 12.3961 7.32282C12.3961 7.2408 12.4547 7.15879 12.5367 7.11192L13.2514 6.78386C12.2672 6.22147 11.1424 5.92856 9.99422 5.92856Z" fill="black"/>
</g>
<g id="Group_4">
<path id="Vector_2" fill-rule="evenodd" clip-rule="evenodd" d="M9.994 19.6134C8.20139 19.6134 6.79541 16.5085 6.79541 12.5366C6.79541 8.56476 8.20139 5.4599 9.994 5.4599C11.7866 5.4599 13.1926 8.56476 13.1926 12.5366C13.1926 16.5085 11.7866 19.6134 9.994 19.6134ZM9.994 5.92856C8.51773 5.92856 7.26407 8.95141 7.26407 12.5366C7.26407 16.1219 8.51773 19.1447 9.994 19.1447C11.482 19.1447 12.7239 16.1219 12.7239 12.5366C12.7239 8.95141 11.482 5.92856 9.994 5.92856Z" fill="black"/>
</g>
<g id="Group_5">
<path id="Vector_3" fill-rule="evenodd" clip-rule="evenodd" d="M9.99422 15.7352C6.03406 15.7352 2.91748 14.3293 2.91748 12.5366C2.91748 10.744 6.03406 9.33804 9.99422 9.33804C13.9661 9.33804 17.071 10.744 17.071 12.5366C17.071 14.3293 13.9661 15.7352 9.99422 15.7352ZM9.99422 9.8067C6.4207 9.8067 3.38614 11.0604 3.38614 12.5366C3.38614 14.0129 6.4207 15.2666 9.99422 15.2666C13.5795 15.2666 16.6023 14.0129 16.6023 12.5366C16.6023 11.0604 13.5795 9.8067 9.99422 9.8067Z" fill="black"/>
</g>
<g id="Group_6">
<path id="Vector_4" fill-rule="evenodd" clip-rule="evenodd" d="M9.99409 19.6134C9.86521 19.6134 9.75977 19.5079 9.75977 19.3791V5.69423C9.75977 5.56535 9.86521 5.4599 9.99409 5.4599C10.123 5.4599 10.2284 5.56535 10.2284 5.69423V19.3791C10.2284 19.5079 10.123 19.6134 9.99409 19.6134Z" fill="black"/>
</g>
<g id="Group_7">
<path id="Vector_5" fill-rule="evenodd" clip-rule="evenodd" d="M16.8366 12.771H3.15181C3.02293 12.771 2.91748 12.6655 2.91748 12.5366C2.91748 12.4078 3.02293 12.3023 3.15181 12.3023H16.8366C16.9655 12.3023 17.071 12.4078 17.071 12.5366C17.071 12.6655 16.9655 12.771 16.8366 12.771Z" fill="black"/>
</g>
<g id="Group_8">
<path id="Vector_6" fill-rule="evenodd" clip-rule="evenodd" d="M14.4347 9.37319C14.3409 9.37319 14.2589 9.31461 14.2238 9.2326L13.6965 8.07267L12.5366 7.54543C12.4546 7.49856 12.396 7.41655 12.396 7.32281C12.396 7.2408 12.4546 7.15878 12.5366 7.11192L13.6965 6.58468L14.2238 5.42475C14.2589 5.34273 14.3409 5.28415 14.4347 5.28415C14.5284 5.28415 14.6104 5.34273 14.6456 5.42475L15.1845 6.58468L16.3444 7.11192C16.4265 7.15878 16.4733 7.2408 16.4733 7.32281C16.4733 7.41655 16.4265 7.49856 16.3444 7.54543L15.1845 8.07267L14.6456 9.2326C14.6104 9.31461 14.5284 9.37319 14.4347 9.37319ZM13.1927 7.32281L13.966 7.68602C14.0129 7.70946 14.0597 7.74461 14.0832 7.80319L14.4347 8.57647L14.7979 7.80319C14.8213 7.74461 14.8565 7.70946 14.9033 7.68602L15.6883 7.32281L14.9033 6.97132C14.8565 6.94789 14.8213 6.91274 14.7979 6.85416L14.4347 6.08087L14.0832 6.85416C14.0597 6.91274 14.0129 6.94789 13.966 6.97132L13.1927 7.32281Z" fill="black"/>
</g>
<g id="Group_9">
<path id="Vector_7" fill-rule="evenodd" clip-rule="evenodd" d="M16.5904 6.78384C16.5084 6.78384 16.4147 6.72526 16.3795 6.64324L15.8523 5.48331L14.6924 4.95607C14.6103 4.92092 14.5518 4.83891 14.5518 4.74518C14.5518 4.65145 14.6103 4.56943 14.6924 4.53428L15.8523 3.99532L16.3795 2.83539C16.4147 2.75338 16.5084 2.70651 16.5904 2.70651C16.6842 2.70651 16.7662 2.75338 16.813 2.83539L17.3403 3.99532L18.5002 4.53428C18.5822 4.56943 18.6408 4.65145 18.6408 4.74518C18.6408 4.83891 18.5822 4.92092 18.5002 4.95607L17.3403 5.48331L16.813 6.64324C16.7662 6.72526 16.6842 6.78384 16.5904 6.78384ZM15.3485 4.74518L16.1218 5.09667C16.1803 5.1201 16.2155 5.16697 16.2389 5.21384L16.5904 5.98712L16.9536 5.21384C16.9771 5.16697 17.0122 5.1201 17.0708 5.09667L17.8441 4.74518L17.0708 4.38197C17.0122 4.35853 16.9771 4.32338 16.9536 4.27652L16.5904 3.49152L16.2389 4.27652C16.2155 4.32338 16.1803 4.35853 16.1218 4.38197L15.3485 4.74518Z" fill="black"/>
</g>
<g id="Group_10">
<path id="Vector_8" fill-rule="evenodd" clip-rule="evenodd" d="M2.39013 10.7323C2.3667 10.7323 2.34327 10.7323 2.33155 10.7206L0.503783 10.2402C0.386619 10.2051 0.304603 10.0762 0.339753 9.9473C0.374902 9.83013 0.503783 9.74812 0.632664 9.78326L2.44872 10.2754C2.5776 10.2988 2.6479 10.4277 2.61275 10.5566C2.58931 10.662 2.49558 10.7323 2.39013 10.7323Z" fill="black"/>
</g>
<g id="Group_11">
<path id="Vector_9" fill-rule="evenodd" clip-rule="evenodd" d="M2.12068 12.771H0.234329C0.105448 12.771 0 12.6655 0 12.5366C0 12.4078 0.105448 12.3023 0.234329 12.3023H2.12068C2.24956 12.3023 2.35501 12.4078 2.35501 12.5366C2.35501 12.6655 2.24956 12.771 2.12068 12.771Z" fill="black"/>
</g>
<g id="Group_12">
<path id="Vector_10" fill-rule="evenodd" clip-rule="evenodd" d="M0.574082 15.3017C0.468634 15.3017 0.374902 15.2314 0.339753 15.126C0.304603 14.9971 0.386619 14.8682 0.503783 14.8331L2.33155 14.3527C2.44872 14.3175 2.5776 14.3878 2.61275 14.5167C2.6479 14.6456 2.5776 14.7745 2.44872 14.7979L0.632664 15.29C0.609231 15.29 0.585799 15.3017 0.574082 15.3017Z" fill="black"/>
</g>
<g id="Group_13">
<path id="Vector_11" fill-rule="evenodd" clip-rule="evenodd" d="M1.54634 17.6567C1.46433 17.6567 1.38231 17.6099 1.33545 17.5396C1.27686 17.4224 1.31201 17.2818 1.42918 17.2115L3.05777 16.2742C3.16321 16.2039 3.31553 16.2507 3.37411 16.3562C3.44441 16.4734 3.39754 16.614 3.2921 16.6843L1.66351 17.6216C1.62836 17.645 1.58149 17.6567 1.54634 17.6567Z" fill="black"/>
</g>
<g id="Group_14">
<path id="Vector_12" fill-rule="evenodd" clip-rule="evenodd" d="M18.4533 17.6567C18.4064 17.6567 18.3712 17.645 18.3361 17.6216L16.7075 16.6843C16.5903 16.614 16.5552 16.4734 16.6138 16.3562C16.6841 16.2507 16.8247 16.2039 16.9418 16.2742L18.5704 17.2115C18.6759 17.2818 18.7227 17.4224 18.6524 17.5396C18.6173 17.6099 18.5353 17.6567 18.4533 17.6567Z" fill="black"/>
</g>
<g id="Group_15">
<path id="Vector_13" fill-rule="evenodd" clip-rule="evenodd" d="M19.4261 15.3017C19.4027 15.3017 19.391 15.29 19.3675 15.29L17.5515 14.7979C17.4226 14.7745 17.3523 14.6456 17.3874 14.5167C17.4226 14.3878 17.5397 14.3175 17.6686 14.3527L19.4847 14.8331C19.6136 14.8682 19.6839 14.9971 19.6487 15.126C19.6253 15.2314 19.5315 15.3017 19.4261 15.3017Z" fill="black"/>
</g>
<g id="Group_16">
<path id="Vector_14" fill-rule="evenodd" clip-rule="evenodd" d="M19.7657 12.771H17.8793C17.7505 12.771 17.645 12.6655 17.645 12.5366C17.645 12.4078 17.7505 12.3023 17.8793 12.3023H19.7657C19.8946 12.3023 20 12.4078 20 12.5366C20 12.6655 19.8946 12.771 19.7657 12.771Z" fill="black"/>
</g>
<g id="Group_17">
<path id="Vector_15" fill-rule="evenodd" clip-rule="evenodd" d="M17.61 10.7323C17.5046 10.7323 17.4109 10.662 17.3874 10.5566C17.3523 10.4277 17.4226 10.2988 17.5515 10.2754L19.3675 9.78326C19.4964 9.74812 19.6253 9.83013 19.6487 9.9473C19.6839 10.0762 19.6136 10.2051 19.4847 10.2402L17.6686 10.7206C17.6452 10.7323 17.6335 10.7323 17.61 10.7323Z" fill="black"/>
</g>
<g id="Group_18">
<path id="Vector_16" fill-rule="evenodd" clip-rule="evenodd" d="M9.99409 4.42884C9.86521 4.42884 9.75977 4.32339 9.75977 4.19451V0.620987C9.75977 0.480389 9.86521 0.386658 9.99409 0.386658C10.123 0.386658 10.2284 0.480389 10.2284 0.620987V4.19451C10.2284 4.32339 10.123 4.42884 9.99409 4.42884Z" fill="black"/>
</g>
<g id="Group_19">
<path id="Vector_17" fill-rule="evenodd" clip-rule="evenodd" d="M13.7085 0.855316H6.29195C6.16307 0.855316 6.05762 0.749868 6.05762 0.620987C6.05762 0.480389 6.16307 0.386658 6.29195 0.386658H13.7085C13.8373 0.386658 13.9428 0.480389 13.9428 0.620987C13.9428 0.749868 13.8373 0.855316 13.7085 0.855316Z" fill="black"/>
</g>
<g id="Group_20">
<path id="Vector_18" fill-rule="evenodd" clip-rule="evenodd" d="M8.82271 6.02227C8.77584 6.02227 8.71726 6.01056 8.67039 5.97541C8.62353 5.92854 8.58838 5.85824 8.58838 5.78794V4.1945C8.58838 4.06562 8.69383 3.96017 8.82271 3.96017H11.166C11.2949 3.96017 11.4003 4.06562 11.4003 4.1945V5.78794C11.4003 5.85824 11.3769 5.92854 11.3183 5.97541C11.2714 6.02227 11.2011 6.03399 11.1309 6.02227C10.3927 5.89339 9.60771 5.89339 8.86957 6.02227C8.85786 6.02227 8.83442 6.02227 8.82271 6.02227ZM9.05704 4.42883V5.51846C9.67801 5.43645 10.3224 5.43645 10.9317 5.51846V4.42883H9.05704Z" fill="black"/>
</g>
</g>
</g>
</g>
</g>
</svg>
