<svg width="26" height="26" viewBox="0 0 26 26" fill="none" xmlns="http://www.w3.org/2000/svg">
<g id="Group">
<g id="Group_2">
<path id="Vector" d="M25.5181 18.4549C25.0371 17.7481 24.2212 17.5755 23.3348 17.9926L22.865 18.1994C23.6057 16.6206 23.6976 14.8606 23.3289 13.1981C22.9054 11.2887 21.8825 9.43904 20.2886 7.70039C20.1477 7.54663 19.9089 7.53626 19.7551 7.67722C19.6013 7.81813 19.5909 8.057 19.7319 8.21081C21.235 9.85039 22.1971 11.5834 22.5915 13.3616C23.007 15.2347 22.7653 17.1664 21.7051 18.7101L17.0042 20.7799L17.0081 20.249C17.0082 20.2356 17.0076 20.2222 17.0062 20.2089C16.8977 19.1177 16.0636 18.2483 14.9779 18.0947C14.9746 18.0942 14.9714 18.0938 14.9681 18.0934L10.7901 17.6123C9.18346 17.3836 8.76969 16.4209 6.59385 15.8719C6.44352 14.5962 6.64391 13.238 7.19315 11.8764C8.02035 9.82572 9.63863 7.83339 11.8821 6.09928C12.7182 6.69214 16.4487 6.76592 17.2835 6.00112C17.7112 6.32591 18.1193 6.66061 18.4996 6.9994C18.5715 7.06356 18.6613 7.09509 18.7507 7.09509C18.8546 7.09509 18.9582 7.05243 19.0328 6.96868C19.1715 6.81296 19.1577 6.57424 19.002 6.43549C18.5852 6.06418 18.1369 5.69779 17.6666 5.3437C17.7768 4.87644 17.6226 4.32956 17.2157 4.00402C18.3981 2.21052 18.7421 1.03664 18.267 0.421615C17.9407 -0.000872244 17.5348 0.197403 17.3614 0.282112C17.0676 0.425543 16.9074 0.433097 16.6371 0.256226C16.1213 -0.08125 15.5792 -0.0921282 15.0469 0.256226C14.7731 0.435364 14.5575 0.435364 14.2838 0.256226C13.768 -0.08125 13.2261 -0.0921282 12.6936 0.256226C12.4202 0.435213 12.2594 0.424133 11.9702 0.2804C11.797 0.194331 11.3916 -0.00721788 11.0632 0.41532C10.5988 1.01302 10.9095 2.14989 12.0122 3.88239C11.9447 3.9189 11.8803 3.96176 11.8202 4.01071C11.3817 3.54759 10.6631 3.06456 9.62408 3.1806C8.76223 3.27704 8.12672 2.99224 7.74527 2.7364C7.57203 2.62037 7.33744 2.6666 7.22131 2.83975C7.10517 3.01299 7.15145 3.24758 7.32465 3.36371C7.81089 3.68971 8.619 4.05262 9.70788 3.93119C10.5107 3.84115 11.0554 4.25139 11.3945 4.6689C11.3898 4.68501 11.3855 4.70123 11.3816 4.71744C11.0923 4.72198 10.6601 4.74897 10.1841 4.84798C9.03922 5.08615 8.18942 5.63021 7.72644 6.42149C7.62113 6.60149 7.68167 6.83285 7.86166 6.93821C8.0417 7.04352 8.27302 6.98293 8.37832 6.80294C9.06697 5.62603 10.7479 5.48209 11.4156 5.47308C11.4184 5.48139 11.4218 5.4896 11.4248 5.49785C9.0423 7.33572 7.38357 9.3853 6.49277 11.5937C5.92972 12.9896 5.70481 14.388 5.81898 15.717C5.45682 15.6634 5.09049 15.6347 4.72239 15.6322V15.4038C4.72239 14.7995 4.23076 14.3079 3.62647 14.3079H1.8928C1.28851 14.3079 0.796875 14.7995 0.796875 15.4038V24.1992C0.796875 24.8035 1.28851 25.2951 1.8928 25.2951H3.62641C4.23071 25.2951 4.72234 24.8035 4.72234 24.1992V24.0916L8.50408 25.4992C9.01228 25.6883 9.54491 25.7842 10.0872 25.7842H15.722C16.5835 25.7842 17.4234 25.5405 18.1511 25.0794C25.6681 20.3142 25.2116 20.6106 25.255 20.5722C25.8605 20.0347 25.9736 19.1245 25.5181 18.4549ZM16.5748 5.55361C15.1938 5.90231 13.851 5.90231 12.4697 5.55361C11.877 5.40378 12.0487 4.34668 12.6857 4.50643C13.9215 4.81666 15.1229 4.81666 16.3588 4.50643C16.9847 4.3493 17.177 5.40141 16.5748 5.55361ZM11.6253 0.952481C11.6282 0.953941 11.6312 0.955452 11.634 0.956862C12.1452 1.21089 12.593 1.22469 13.1072 0.88832C13.7506 0.467142 13.8204 1.14245 14.6653 1.14245C15.072 1.14245 15.2965 0.995591 15.4603 0.88832C15.7342 0.709132 15.9498 0.709232 16.2236 0.88832C16.74 1.22625 17.177 1.20958 17.703 0.955906C17.7807 1.23602 17.6048 2.07107 16.485 3.73836C15.9289 3.72889 15.1219 4.27506 12.8374 3.76666C11.7199 2.07782 11.5472 1.23466 11.6253 0.952481ZM24.774 19.9888L17.7468 24.4417C17.1403 24.826 16.4401 25.0292 15.722 25.0292H10.0872C9.63521 25.0292 9.19122 24.9492 8.76757 24.7915L4.72234 23.2859V19.2189C4.72234 19.0103 4.55328 18.8412 4.34473 18.8412C4.13618 18.8412 3.96711 19.0103 3.96711 19.2189V24.1994C3.96711 24.3872 3.81427 24.54 3.62647 24.54H1.8928C1.70495 24.54 1.55215 24.3872 1.55215 24.1994V15.404C1.55215 15.2161 1.70495 15.0634 1.8928 15.0634H3.62641C3.81427 15.0634 3.96706 15.2162 3.96706 15.404V17.4534C3.96706 17.662 4.13613 17.8311 4.34468 17.8311C4.55323 17.8311 4.72229 17.662 4.72229 17.4534V16.3876C7.8463 16.4116 8.5487 18.0581 10.689 18.3609C10.6922 18.3614 10.6954 18.3618 10.6987 18.3621L14.8765 18.8431C15.6081 18.9487 16.1711 19.5313 16.2526 20.2647L16.2473 20.9831H12.3511C12.1425 20.9831 11.9734 21.1521 11.9734 21.3607C11.9734 21.5693 12.1425 21.7384 12.3511 21.7384H16.6222C16.6699 21.7384 16.725 21.7278 16.773 21.7069C16.7807 21.7035 23.6354 18.6855 23.6435 18.6819C24.1376 18.4623 24.588 18.431 24.8935 18.8799C25.1311 19.2288 25.0785 19.7004 24.774 19.9888Z" fill="black"/>
<path id="Vector_2" d="M14.6217 17.1331C14.8303 17.1331 14.9994 16.964 14.9994 16.7554V16.1294C16.0596 15.9574 16.6782 15.0993 16.8127 14.2987C16.9808 13.2987 16.457 12.429 15.4783 12.0831C15.3053 12.0219 15.1462 11.9634 14.9993 11.907V9.49908C15.4461 9.57317 15.7143 9.80438 15.7339 9.82165C15.8873 9.96116 16.1247 9.95083 16.2655 9.79823C16.4069 9.64493 16.3972 9.40602 16.2439 9.2646C16.2173 9.24002 15.7547 8.82358 14.9993 8.7365V8.19944C14.9993 7.99084 14.8303 7.82178 14.6217 7.82178C14.4131 7.82178 14.2441 7.99084 14.2441 8.19944V8.76702C14.153 8.78445 14.0597 8.80661 13.9639 8.83546C13.3233 9.0284 12.8445 9.5777 12.7142 10.2689C12.596 10.8962 12.7949 11.4994 13.2332 11.8432C13.4848 12.0406 13.8016 12.2213 14.2441 12.4144V15.401C13.8073 15.3825 13.5385 15.3005 13.0695 14.9937C12.895 14.8796 12.6609 14.9284 12.5468 15.103C12.4326 15.2775 12.4815 15.5116 12.6561 15.6257C13.2725 16.029 13.6846 16.1342 14.2441 16.156V16.7554C14.2441 16.964 14.4131 17.1331 14.6217 17.1331ZM13.6993 11.2489C13.4837 11.0798 13.3906 10.7579 13.4564 10.4088C13.5174 10.0851 13.74 9.69177 14.1818 9.55871C14.2028 9.55237 14.2234 9.54693 14.2441 9.54139V11.5813C14.0179 11.4684 13.8406 11.3598 13.6993 11.2489ZM15.2266 12.7952C16.1663 13.1273 16.1081 13.9342 16.0679 14.1736C15.9846 14.6692 15.6208 15.1983 14.9993 15.3575V12.7133C15.0729 12.7402 15.148 12.7674 15.2266 12.7952Z" fill="black"/>
</g>
</g>
</svg>
