<svg width="15" height="15" viewBox="0 0 15 15" fill="none" xmlns="http://www.w3.org/2000/svg">
<g id="Group 1171275245">
<g id="Group">
<g id="Group_2">
<path id="Vector" d="M3.25677 11.7482C0.924852 9.40831 0.924852 5.59643 3.25677 3.25651L4.50073 4.50047V0.752594H0.752858L2.20081 2.20055C-0.727093 5.12445 -0.727093 9.88029 2.20081 12.8082C4.04875 14.6521 6.62066 15.3361 9.00458 14.8481V13.3042C7.01665 13.8202 4.81272 13.3042 3.25677 11.7482Z" fill="black"/>
</g>
</g>
<g id="Group_3">
<g id="Group_4">
<path id="Vector_2" d="M12.8077 2.20054C10.9597 0.348604 8.38783 -0.335374 6.00391 0.15261V1.69656C7.99184 1.18058 10.1998 1.70456 11.7517 3.25651C14.0916 5.59643 14.0916 9.4083 11.7517 11.7482L10.5078 10.5043V14.2561H14.2596L12.8117 12.8082C15.7356 9.88029 15.7356 5.12444 12.8077 2.20054Z" fill="black"/>
</g>
</g>
</g>
</svg>
