<svg width="18" height="18" viewBox="0 0 18 18" fill="none" xmlns="http://www.w3.org/2000/svg">
<g id="Group" opacity="0.5">
<path id="Vector" d="M4.13933 8.27867C6.42167 8.27867 8.27867 6.42167 8.27867 4.13965C8.27867 1.857 6.42167 0 4.13933 0C1.857 0 0 1.857 0 4.13965C0 6.42167 1.857 8.27867 4.13933 8.27867ZM4.13933 1.28571C5.71289 1.28571 6.99295 2.56578 6.99295 4.13965C6.99295 5.71289 5.71289 6.99295 4.13933 6.99295C2.56578 6.99295 1.28571 5.71289 1.28571 4.13965C1.28571 2.56578 2.56578 1.28571 4.13933 1.28571Z" fill="black"/>
<path id="Vector_2" d="M4.13933 18C6.42167 18 8.27867 16.143 8.27867 13.8604C8.27867 11.5783 6.42167 9.72134 4.13933 9.72134C1.857 9.72134 0 11.5783 0 13.8604C0 16.143 1.857 18 4.13933 18ZM4.13933 11.0071C5.71289 11.0071 6.99295 12.2871 6.99295 13.8604C6.99295 15.4342 5.71289 16.7143 4.13933 16.7143C2.56578 16.7143 1.28571 15.4342 1.28571 13.8604C1.28571 12.2871 2.56578 11.0071 4.13933 11.0071Z" fill="black"/>
<path id="Vector_3" d="M13.8605 9.72134C11.5782 9.72134 9.72119 11.5783 9.72119 13.8604C9.72119 16.143 11.5782 18 13.8605 18C16.1429 18 17.9999 16.143 17.9999 13.8604C17.9999 11.5783 16.1429 9.72134 13.8605 9.72134ZM13.8605 16.7143C12.287 16.7143 11.0069 15.4342 11.0069 13.8604C11.0069 12.2871 12.287 11.0071 13.8605 11.0071C15.4341 11.0071 16.7141 12.2871 16.7141 13.8604C16.7141 15.4342 15.4341 16.7143 13.8605 16.7143Z" fill="black"/>
<path id="Vector_4" d="M17.357 3.49679H14.5034V0.642857C14.5034 0.287528 14.2155 0 13.8605 0C13.5055 0 13.2177 0.287528 13.2177 0.642857V3.49679H10.364C10.009 3.49679 9.72119 3.78432 9.72119 4.13965C9.72119 4.49498 10.009 4.78251 10.364 4.78251H13.2177V7.63581C13.2177 7.99114 13.5055 8.27867 13.8605 8.27867C14.2155 8.27867 14.5034 7.99114 14.5034 7.63581V4.78251H17.357C17.712 4.78251 17.9999 4.49498 17.9999 4.13965C17.9999 3.78432 17.712 3.49679 17.357 3.49679Z" fill="black"/>
</g>
</svg>
