<svg width="25" height="27" viewBox="0 0 25 27" fill="none" xmlns="http://www.w3.org/2000/svg">
<g id="Group 6">
<path id="Vector" d="M12.8654 0.446899C12.2743 0.446899 11.731 0.842433 11.5717 1.43975L6.2565 21.2753C6.06543 21.9887 6.48998 22.7244 7.20337 22.916L17.5533 25.6892C18.2605 25.8798 19.0024 25.4552 19.1926 24.7418L24.5073 4.9058C24.6984 4.19241 24.2738 3.4567 23.5613 3.26563L13.2109 0.492435C13.0957 0.461631 12.9797 0.446899 12.8654 0.446899Z" fill="#F5F9EC"/>
<path id="Vector_2" d="M22.5207 12.32L15.6667 5.466H10.4926L6.2565 21.2753C6.06543 21.9887 6.48998 22.7244 7.20337 22.9159L17.5533 25.6891C18.2604 25.8797 19.0024 25.4552 19.1926 24.7418L22.5207 12.32Z" fill="#E4E8DB"/>
<path id="Vector_3" d="M9.26019 10.0638L22.1963 13.5299L24.5074 4.90535C24.6985 4.19197 24.2739 3.45626 23.5614 3.26519L13.2106 0.492435C13.0954 0.461631 12.9794 0.446899 12.8655 0.446899C12.2745 0.446899 11.7312 0.842433 11.5718 1.43975L9.26019 10.0638Z" fill="#DCC69F"/>
<path id="Vector_4" d="M9.26019 10.0637L22.1963 13.5298L22.5204 12.32L15.6664 5.466H10.4923L9.26019 10.0637Z" fill="#CDB994"/>
<path id="Vector_5" d="M8.06587 23.1468L14.0739 0.723683L13.2105 0.492435C13.0953 0.461631 12.9792 0.446899 12.8654 0.446899C12.2743 0.446899 11.731 0.842433 11.5717 1.43975L6.2565 21.2753C6.06543 21.9887 6.48998 22.7244 7.20337 22.916L8.06587 23.1468Z" fill="#EA672C"/>
<path id="Vector_6" d="M0.892562 24.0039C0.646582 24.0039 0.446136 23.8039 0.446136 23.5574V5.70039C0.446136 5.45397 0.646582 5.25397 0.892562 5.25397H14.2853C15.0237 5.25397 15.6246 5.85486 15.6246 6.59324V22.6646C15.6246 23.403 15.0237 24.0039 14.2853 24.0039H0.892562Z" fill="#125D9D"/>
<path id="Vector_7" d="M8.03548 7.48615C5.07702 7.48615 2.67838 9.88479 2.67838 12.8433C2.67838 15.8017 5.07702 18.2004 8.03548 18.2004C10.9939 18.2004 13.3926 15.8017 13.3926 12.8433C13.3926 9.88479 10.9944 7.48615 8.03548 7.48615ZM12.0002 10.8343H10.0694C9.88458 9.9089 9.59619 9.16114 9.302 8.58435C10.4815 8.93658 11.4502 9.75443 12.0002 10.8343ZM9.37476 12.8433C9.37476 13.2419 9.34485 13.608 9.30378 13.9593H6.76719C6.72612 13.608 6.69621 13.2419 6.69621 12.8433C6.69621 12.4446 6.72567 12.0785 6.7663 11.7272H9.30467C9.3453 12.0785 9.37476 12.4446 9.37476 12.8433ZM6.9154 10.8343C7.16317 9.7156 7.5721 8.90265 7.90558 8.39194C7.94977 8.3906 7.99084 8.379 8.03548 8.379C8.08057 8.379 8.12209 8.39105 8.16673 8.39239C8.50155 8.90623 8.90914 9.71961 9.15601 10.8343H6.9154ZM6.76897 8.58435C6.47567 9.16024 6.18684 9.9089 6.00202 10.8343H4.07078C4.62077 9.75443 5.58952 8.93658 6.76897 8.58435ZM3.72971 11.7272H5.86675C5.82925 12.0808 5.80336 12.4486 5.80336 12.8433C5.80336 13.2383 5.83014 13.6058 5.86809 13.9593H3.72971C3.6364 13.6004 3.57123 13.2308 3.57123 12.8433C3.57123 12.4558 3.6364 12.0861 3.72971 11.7272ZM4.07078 14.8522H6.00425C6.19085 15.7794 6.47969 16.5339 6.76764 17.1017C5.58863 16.7495 4.62077 15.9316 4.07078 14.8522ZM7.90558 17.2946C7.58549 16.8022 7.16897 15.9874 6.9163 14.8522H9.15468C8.90244 15.9865 8.48637 16.8013 8.16539 17.2946C8.1212 17.2959 8.08013 17.3075 8.03548 17.3075C7.99084 17.3075 7.94977 17.2959 7.90558 17.2946ZM9.30378 17.1017C9.59217 16.533 9.88056 15.7794 10.0667 14.8522H12.0002C11.4502 15.9316 10.4828 16.7495 9.30378 17.1017ZM12.3413 13.9593H10.2033C10.2408 13.6058 10.2676 13.2383 10.2676 12.8433C10.2676 12.4486 10.2417 12.0808 10.2047 11.7272H12.3413C12.4346 12.0861 12.4997 12.4558 12.4997 12.8433C12.4997 13.2308 12.4346 13.6004 12.3413 13.9593Z" fill="#E7BE29"/>
<path id="Vector_8" d="M12.4997 20.8789H3.57117V21.7718H12.4997V20.8789Z" fill="white"/>
<g id="Group">
<path id="Vector_9" d="M19.1159 16.4024L19.5783 14.6776L18.7159 14.4465L18.2535 16.1713L19.1159 16.4024Z" fill="#010101"/>
<path id="Vector_10" d="M17.0365 24.1612L18.6539 18.1246L17.7915 17.8935L16.174 23.9302L17.0365 24.1612Z" fill="#010101"/>
<path id="Vector_11" d="M23.6757 2.83436L13.3267 0.0611603C13.1718 0.0196427 13.0164 0 12.8633 0C12.0749 0 11.3535 0.526336 11.1397 1.3241L10.2062 4.80756H0.892852C0.399998 4.80756 0 5.20711 0 5.70041V23.5574C0 24.0507 0.399998 24.4503 0.892852 24.4503H11.2053L17.4365 26.1199C17.5914 26.1614 17.7468 26.1811 17.8999 26.1811C18.6883 26.1811 19.4097 25.6548 19.6235 24.857L24.9387 5.02095C25.194 4.06873 24.6284 3.08971 23.6757 2.83436ZM0.892852 5.70041H14.2856C14.778 5.70041 15.1785 6.10086 15.1785 6.59326V22.6646C15.1785 23.157 14.778 23.5574 14.2856 23.5574H0.892852V5.70041ZM24.0762 4.79015L18.761 24.6262C18.6566 25.0164 18.3021 25.2887 17.8994 25.2887C17.8218 25.2887 17.7436 25.2784 17.6673 25.2579L14.5539 24.4235C15.412 24.2927 16.0713 23.5588 16.0713 22.6646V15.5865L16.5285 15.7093L16.991 13.9843L16.1285 13.753L16.0713 13.9664V6.87094C16.3495 6.94549 16.6709 7.03165 16.9825 7.11514L18.0383 10.5673L18.7776 10.7656L18.7075 7.57763C19.1927 7.70799 19.6887 7.84058 20.0133 7.92763L20.5874 8.93968L21.0802 9.07182L20.9954 7.66245L21.7735 6.48434L21.2807 6.35219L20.2776 6.94192C19.9526 6.85487 19.457 6.72228 18.9713 6.59192L20.6258 3.86605L19.8865 3.66783L17.2459 6.12943C16.7267 5.99014 16.1602 5.83836 15.853 5.75622C15.553 5.19461 14.9673 4.80756 14.2856 4.80756H11.1307L12.0022 1.5549C12.1066 1.16517 12.4611 0.892852 12.8638 0.892405C12.9414 0.892405 13.0196 0.902673 13.0959 0.923209L23.4449 3.69641C23.6753 3.75801 23.8677 3.90578 23.9869 4.11248C24.1061 4.31962 24.1378 4.55979 24.0762 4.79015Z" fill="#010101"/>
</g>
</g>
</svg>
