<svg width="15" height="17" viewBox="0 0 15 17" fill="none" xmlns="http://www.w3.org/2000/svg">
<g id="Layer 2">
<path id="Vector" d="M7.5 16.9644C7.27089 16.9642 7.04564 16.9053 6.8457 16.7935L4.25331 15.3534C2.96459 14.6368 1.89077 13.5889 1.14298 12.318C0.395183 11.0471 0.000579186 9.59951 2.97672e-07 8.12496V4.12821C-0.000221076 3.79546 0.123038 3.47446 0.345912 3.22737C0.568785 2.98028 0.875416 2.82468 1.20643 2.7907C2.23773 2.68144 3.25273 2.45203 4.23077 2.10713C5.12754 1.7902 5.9878 1.37819 6.79688 0.878159C7.00858 0.748712 7.25191 0.680247 7.50005 0.680313C7.74819 0.68038 7.99149 0.748976 8.20312 0.878536C9.01229 1.3783 9.87254 1.79017 10.7692 2.10713C11.7473 2.45204 12.7623 2.68146 13.7936 2.79072C14.1246 2.8247 14.4312 2.9803 14.6541 3.22738C14.877 3.47447 15.0002 3.79546 15 4.12821V8.12498C14.9994 9.59954 14.6048 11.0471 13.857 12.318C13.1092 13.5889 12.0354 14.6368 10.7467 15.3534L8.15355 16.7939C7.95381 16.9055 7.72883 16.9642 7.5 16.9644ZM7.5 1.83291C7.4661 1.83276 7.43282 1.84199 7.40385 1.85958C6.52455 2.40257 5.58976 2.85044 4.61539 3.19482C3.55239 3.56993 2.44912 3.81928 1.32812 3.93776C1.28049 3.94189 1.23615 3.96376 1.20388 3.99903C1.1716 4.0343 1.15375 4.0804 1.15385 4.12821V8.12498C1.1543 9.39376 1.49383 10.6394 2.1373 11.7329C2.78076 12.8264 3.70477 13.7281 4.8137 14.3446L7.40685 15.785C7.43516 15.8009 7.46709 15.8093 7.49958 15.8094C7.53207 15.8095 7.56403 15.8012 7.5924 15.7854L10.1863 14.3446C11.2952 13.7281 12.2193 12.8264 12.8627 11.7329C13.5062 10.6394 13.8457 9.39377 13.8462 8.12498V4.12821C13.8462 4.08041 13.8284 4.03431 13.7961 3.99904C13.7638 3.96378 13.7195 3.94192 13.6719 3.93778C12.5509 3.81929 11.4476 3.56994 10.3846 3.19482C9.41024 2.85043 8.47545 2.40293 7.59615 1.85994C7.56728 1.84207 7.53395 1.8327 7.5 1.83291Z" fill="black"/>
<path id="Vector_2" d="M7.11583 10.5356C6.97456 10.5358 6.83816 10.4839 6.73276 10.3899L5.00199 8.8514C4.88815 8.74965 4.8193 8.60691 4.81052 8.45448C4.80175 8.30205 4.85377 8.15236 4.95518 8.03822C5.0566 7.92408 5.19913 7.85481 5.35153 7.84558C5.50394 7.83636 5.65378 7.88794 5.76822 7.98901L7.07907 9.15413L9.57983 6.48699C9.63142 6.43074 9.69365 6.38529 9.76292 6.35326C9.83219 6.32123 9.90714 6.30326 9.9834 6.3004C10.0597 6.29754 10.1357 6.30984 10.2072 6.33658C10.2787 6.36333 10.3442 6.40399 10.3998 6.45622C10.4555 6.50844 10.5002 6.57119 10.5314 6.64083C10.5627 6.71046 10.5798 6.7856 10.5818 6.8619C10.5838 6.93819 10.5706 7.01412 10.543 7.08529C10.5155 7.15646 10.474 7.22145 10.4212 7.2765L7.53657 10.3534C7.48269 10.411 7.41753 10.4569 7.34515 10.4883C7.27277 10.5196 7.19471 10.5357 7.11583 10.5356Z" fill="black"/>
</g>
</svg>
