<svg width="41" height="45" viewBox="0 0 41 45" fill="none" xmlns="http://www.w3.org/2000/svg">
<g id="Group 1171275247">
<path id="Vector" d="M13.7605 24.7731C15.3032 25.7897 17.0629 26.4908 18.9138 26.6745C18.9708 26.6802 19.0279 26.6859 19.0867 26.6918C22.1707 26.9791 25.2059 26.1909 27.7097 24.353C28.281 23.968 29.0055 24.005 29.6595 24.12C29.7914 24.1467 29.923 24.1747 30.0544 24.2036C30.1254 24.219 30.1963 24.2344 30.2694 24.2503C31.4381 24.5148 32.5636 24.9075 33.6301 25.4554C33.6832 25.4826 33.7363 25.5099 33.7911 25.5379C35.4693 26.4093 37.0701 27.6187 38.2452 29.1127C38.2827 29.1597 38.3201 29.2066 38.3587 29.255C39.0216 30.0916 39.5835 30.9514 40.0739 31.8992C40.1163 31.9785 40.1588 32.0577 40.2025 32.1394C40.4166 32.5691 40.4518 32.8092 40.3351 33.2925C40.1997 33.5694 40.0363 33.8242 39.8671 34.0816C39.8203 34.1541 39.7735 34.2265 39.7253 34.3012C39.0806 35.2853 38.3455 36.1728 37.5486 37.0369C37.4197 37.1819 37.2909 37.3271 37.1622 37.4723C33.3746 41.6756 27.9236 44.2146 22.3098 44.6998C22.022 44.7128 21.7346 44.716 21.4465 44.7175C21.366 44.7181 21.2856 44.7187 21.2027 44.7193C20.944 44.7209 20.6854 44.7214 20.4268 44.7216C20.3385 44.7216 20.2502 44.7217 20.1593 44.7217C18.8843 44.7204 17.6426 44.6885 16.3885 44.4386C16.3072 44.4232 16.226 44.4078 16.1423 44.3919C12.3847 43.6699 8.65083 42.1259 5.76486 39.5622C5.69033 39.496 5.61579 39.4299 5.539 39.3618C5.39067 39.2289 5.24291 39.0953 5.09578 38.9611C4.92235 38.8041 4.74602 38.6521 4.56753 38.5009C3.7283 37.7674 2.95327 36.9685 2.28171 36.079C2.21414 35.9945 2.14656 35.91 2.07694 35.8229C1.66303 35.3034 1.285 34.7697 0.931989 34.2068C0.876951 34.1192 0.876951 34.1192 0.820802 34.0299C0.490923 33.4938 0.303416 33.154 0.453055 32.5088C0.543317 32.2754 0.652776 32.0555 0.768716 31.8339C0.800104 31.7729 0.831492 31.7118 0.863831 31.6489C2.06135 29.3531 3.85407 27.4578 6.0261 26.0649C6.07671 26.0324 6.12732 25.9998 6.17946 25.9663C8.30399 24.6221 11.4951 23.2764 13.7605 24.7731Z" fill="#888888"/>
<path id="Vector_2" d="M23.5289 0.463784C23.5912 0.48152 23.6536 0.499255 23.7178 0.517528C25.5904 1.06836 27.1675 2.09431 28.5795 3.42446C28.6373 3.47666 28.6951 3.52886 28.7546 3.58263C30.1361 4.88001 31.1521 6.74032 31.6272 8.56211C31.6439 8.62146 31.6606 8.68082 31.6778 8.74197C32.2058 10.6618 32.1844 12.922 31.6272 14.8318C31.6095 14.8941 31.5918 14.9564 31.5735 15.0207C31.1308 16.5256 30.379 17.9065 29.3632 19.0986C29.2987 19.1752 29.2343 19.2518 29.1679 19.3306C27.5531 21.1868 25.5318 22.3635 23.1806 23.0172C23.1201 23.034 23.0596 23.0509 22.9973 23.0683C21.342 23.5014 19.3389 23.4625 17.6946 23.0172C17.5767 22.9883 17.4588 22.9593 17.3409 22.9304C15.3848 22.4258 13.7902 21.3874 12.2957 20.0565C12.2323 20.0005 12.1689 19.9445 12.1036 19.8868C10.6966 18.5658 9.73438 16.692 9.18267 14.8699C9.16536 14.8135 9.14806 14.7571 9.13022 14.699C8.84834 13.7195 8.78075 12.7337 8.78537 11.7187C8.78559 11.6615 8.78581 11.6042 8.78603 11.5452C8.79132 10.6393 8.83074 9.78591 9.07382 8.91043C9.09302 8.84065 9.11221 8.77087 9.13199 8.69898C9.70688 6.68117 10.6857 5.0357 12.1216 3.51154C12.1738 3.45373 12.226 3.39592 12.2798 3.33636C13.5771 1.95492 15.4374 0.938871 17.2592 0.463784C17.3186 0.447087 17.3779 0.43039 17.4391 0.413187C19.3589 -0.114784 21.6191 -0.0934202 23.5289 0.463784Z" fill="#888888"/>
</g>
</svg>
