<svg width="16" height="16" viewBox="0 0 16 16" fill="none" xmlns="http://www.w3.org/2000/svg">
<g id="Group 1171275266">
<path id="Vector" d="M7.62059 0.63888C7.64063 0.644992 7.66067 0.651105 7.68131 0.657402C8.62433 0.955162 9.31402 1.63014 9.7849 2.48147C9.81184 2.47748 9.81184 2.47748 9.83933 2.47342C9.9223 2.46126 10.0053 2.44943 10.0883 2.4376C10.1166 2.43341 10.1448 2.42923 10.1739 2.42492C10.9038 2.32204 11.6529 2.50267 12.25 2.93979C12.8553 3.40352 13.2463 4.04104 13.3734 4.79625C13.3899 4.95062 13.3868 5.10498 13.3823 5.25998C13.4131 5.26179 13.4439 5.2636 13.4756 5.26546C14.0788 5.34298 14.6174 5.76097 14.9848 6.22469C15.4027 6.79473 15.5683 7.48418 15.4746 8.18449C15.351 8.87594 14.9948 9.49174 14.419 9.90552C13.893 10.2547 13.3558 10.3828 12.7316 10.3824C12.6924 10.3825 12.6531 10.3826 12.6139 10.3827C12.5064 10.3829 12.399 10.3829 12.2915 10.383C12.1755 10.383 12.0594 10.3832 11.9434 10.3834C11.6897 10.3838 11.4361 10.384 11.1825 10.3841C11.0239 10.3842 10.8653 10.3843 10.7067 10.3845C10.2671 10.3848 9.8274 10.3851 9.38775 10.3852C9.35963 10.3852 9.33151 10.3852 9.30255 10.3852C9.27436 10.3853 9.24618 10.3853 9.21714 10.3853C9.16004 10.3853 9.10294 10.3853 9.04584 10.3853C9.00336 10.3853 9.00336 10.3853 8.96001 10.3853C8.50167 10.3854 8.04332 10.386 7.58498 10.3866C7.11365 10.3873 6.64231 10.3877 6.17097 10.3877C5.90665 10.3878 5.64232 10.3879 5.378 10.3885C5.15279 10.3889 4.92758 10.3891 4.70237 10.3888C4.58768 10.3887 4.47299 10.3887 4.3583 10.3891C3.2326 10.393 3.2326 10.393 2.72895 10.2119C2.70761 10.2045 2.68627 10.1971 2.66428 10.1894C1.8064 9.87834 1.185 9.24018 0.785827 8.4363C0.43087 7.66072 0.410527 6.73685 0.702462 5.93833C0.841457 5.5799 1.03006 5.26515 1.27389 4.9675C1.29395 4.94262 1.31401 4.91774 1.33467 4.8921C1.75717 4.39449 2.42924 3.95987 3.08724 3.88535C3.08656 3.85149 3.08588 3.81763 3.08518 3.78275C3.08613 3.05992 3.42086 2.32544 3.87692 1.77953C3.9009 1.75076 3.92487 1.722 3.94958 1.69236C4.83165 0.668553 6.32401 0.236397 7.62059 0.63888ZM4.71618 2.28393C4.32187 2.70202 4.05393 3.30123 4.04726 3.87975C4.04656 3.91125 4.04587 3.94275 4.04515 3.9752C4.04389 4.0407 4.04298 4.1062 4.04241 4.17171C4.03747 4.36374 4.02611 4.49239 3.90616 4.64578C3.79277 4.73877 3.67101 4.75404 3.5296 4.77374C2.98161 4.86202 2.55152 5.07657 2.15132 5.46471C2.13307 5.48081 2.11482 5.49691 2.09602 5.51349C1.70544 5.86977 1.50135 6.44695 1.46926 6.96478C1.44398 7.63367 1.68311 8.21236 2.12207 8.71118C2.36748 8.97023 2.67187 9.15122 3.00315 9.27785C3.02129 9.28483 3.03942 9.29181 3.05811 9.299C3.3511 9.40431 3.64453 9.42169 3.9535 9.42074C3.99285 9.42083 4.03221 9.42094 4.07156 9.42108C4.17887 9.42138 4.28617 9.42132 4.39348 9.42119C4.50954 9.42112 4.62559 9.42138 4.74165 9.4216C4.96867 9.42197 5.1957 9.42203 5.42273 9.42196C5.60733 9.42191 5.79193 9.42196 5.97653 9.42208C6.016 9.42211 6.016 9.42211 6.05628 9.42214C6.10975 9.42217 6.16322 9.42221 6.21669 9.42224C6.7176 9.42256 7.21851 9.4225 7.71942 9.42232C8.17723 9.42217 8.63504 9.4225 9.09286 9.42305C9.5635 9.42362 10.0341 9.42386 10.5048 9.42375C10.7688 9.4237 11.0328 9.42377 11.2968 9.42418C11.5215 9.42453 11.7463 9.42457 11.971 9.42422C12.0855 9.42404 12.2001 9.42401 12.3146 9.42436C12.4197 9.42468 12.5247 9.42459 12.6298 9.42418C12.6853 9.42407 12.7409 9.42438 12.7965 9.42472C13.2634 9.4218 13.7149 9.27909 14.0563 8.94973C14.391 8.58099 14.5389 8.17379 14.5301 7.68078C14.5028 7.25574 14.3092 6.86551 13.9965 6.57611C13.6707 6.30372 13.2987 6.17963 12.8797 6.15568C12.7217 6.1437 12.63 6.11885 12.5049 6.02041C12.4241 5.88935 12.4072 5.79455 12.4117 5.64179C12.4122 5.61323 12.4122 5.61323 12.4127 5.58409C12.4141 5.50352 12.4166 5.423 12.419 5.34246C12.434 4.79132 12.2876 4.32365 11.9048 3.91904C11.5557 3.57312 11.0835 3.35991 10.5892 3.35158C10.313 3.35466 10.0568 3.41261 9.80501 3.52524C9.61619 3.60846 9.47394 3.62818 9.27856 3.55814C9.13458 3.46104 9.07087 3.34499 9.01533 3.18341C8.76508 2.50949 8.30841 2.01834 7.66503 1.6999C6.6168 1.22639 5.52114 1.49944 4.71618 2.28393Z" fill="#005CE8"/>
<path id="Vector_2" d="M6.56951 11.0712C6.69617 11.1363 6.76813 11.2177 6.83102 11.3434C6.92138 11.6767 6.69801 12.0036 6.55248 12.2944C6.53405 12.3315 6.51562 12.3686 6.4972 12.4057C6.45882 12.4828 6.42031 12.5599 6.38171 12.6369C6.33256 12.7351 6.28383 12.8334 6.23522 12.9318C6.19738 13.0083 6.15927 13.0846 6.12109 13.1608C6.10302 13.197 6.08504 13.2332 6.06716 13.2695C5.8282 13.7537 5.8282 13.7537 5.60994 13.8606C5.46493 13.9053 5.33344 13.8813 5.19316 13.8295C5.09922 13.7759 5.03545 13.7115 4.97746 13.6193C4.92285 13.3735 4.96547 13.1896 5.07983 12.9703C5.09337 12.9433 5.1069 12.9162 5.12085 12.8883C5.15346 12.8232 5.18632 12.7583 5.21937 12.6935C5.29469 12.5453 5.36791 12.396 5.44142 12.2469C5.48482 12.1592 5.52825 12.0714 5.57171 11.9837C5.60078 11.925 5.62982 11.8664 5.65882 11.8076C5.70019 11.724 5.7418 11.6405 5.78348 11.5571C5.79593 11.5318 5.80838 11.5066 5.82121 11.4805C5.97824 11.1676 6.19428 10.9452 6.56951 11.0712Z" fill="#005CE8"/>
<path id="Vector_3" d="M14.9324 11.051C15.0618 11.1157 15.1429 11.1957 15.2249 11.3142C15.3128 11.5779 15.2196 11.7687 15.1033 12.0034C15.0814 12.0468 15.0594 12.0902 15.0374 12.1336C15.0149 12.1787 14.9925 12.2239 14.97 12.2691C14.9231 12.3635 14.8757 12.4577 14.828 12.5517C14.7672 12.6719 14.7073 12.7925 14.6477 12.9133C14.6015 13.0066 14.5549 13.0996 14.5081 13.1926C14.4858 13.2369 14.4637 13.2814 14.4417 13.3259C14.4109 13.3883 14.3794 13.4502 14.3477 13.5121C14.3389 13.5303 14.33 13.5485 14.3209 13.5673C14.2501 13.7031 14.1595 13.7878 14.0258 13.8587C13.8701 13.903 13.7361 13.8972 13.587 13.8295C13.4491 13.7017 13.362 13.5955 13.3425 13.4045C13.3451 13.2402 13.419 13.1104 13.4925 12.9668C13.5069 12.9376 13.5214 12.9084 13.5363 12.8783C13.5668 12.8168 13.5975 12.7553 13.6284 12.6939C13.6879 12.5748 13.7458 12.4549 13.8037 12.335C13.8603 12.2181 13.9177 12.1016 13.9752 11.9852C14.0044 11.9258 14.0335 11.8663 14.0623 11.8068C14.105 11.7188 14.1482 11.6311 14.1916 11.5435C14.2043 11.5171 14.2169 11.4907 14.23 11.4635C14.3857 11.153 14.5786 11.0112 14.9324 11.051Z" fill="#005CE8"/>
<path id="Vector_4" d="M2.29757 11.051C2.46286 11.1091 2.54603 11.2013 2.6266 11.3544C2.69248 11.585 2.61332 11.7358 2.50939 11.941C2.49493 11.9703 2.48048 11.9996 2.46559 12.0298C2.43503 12.0917 2.4043 12.1535 2.37341 12.2153C2.3283 12.3056 2.28381 12.3963 2.23956 12.4871C2.16803 12.6337 2.09579 12.78 2.02317 12.9261C1.99362 12.9857 1.9642 13.0454 1.93489 13.1051C1.89162 13.1932 1.84798 13.2812 1.80425 13.3691C1.7913 13.3956 1.77835 13.4222 1.765 13.4496C1.67673 13.6255 1.58657 13.7478 1.42015 13.8587C1.22189 13.8984 1.07857 13.8891 0.901004 13.7801C0.79158 13.6677 0.75268 13.558 0.736572 13.4031C0.739512 13.2397 0.813741 13.1097 0.886837 12.9668C0.901301 12.9376 0.915765 12.9084 0.930667 12.8783C0.961193 12.8167 0.991898 12.7553 1.02277 12.6938C1.08233 12.5748 1.14017 12.4549 1.19804 12.335C1.25465 12.2181 1.31208 12.1016 1.36961 11.9852C1.39882 11.9258 1.42784 11.8663 1.45669 11.8068C1.49936 11.7188 1.54263 11.6311 1.58603 11.5435C1.59868 11.5171 1.61133 11.4907 1.62436 11.4635C1.77766 11.1578 1.95346 11.0219 2.29757 11.051Z" fill="#005CE8"/>
<path id="Vector_5" d="M12.1873 12.7078C12.2972 12.7637 12.3727 12.8406 12.4274 12.9511C12.4891 13.144 12.4517 13.3256 12.3647 13.5026C12.3518 13.5272 12.339 13.5519 12.3258 13.5772C12.3054 13.6178 12.3054 13.6178 12.2847 13.6592C12.2521 13.7243 12.2193 13.7893 12.1862 13.8541C12.1109 14.0023 12.0377 14.1515 11.9642 14.3006C11.9208 14.3884 11.8773 14.4761 11.8339 14.5638C11.8048 14.6225 11.7758 14.6812 11.7468 14.7399C11.7054 14.8235 11.6638 14.907 11.6221 14.9905C11.6096 15.0157 11.5972 15.041 11.5844 15.067C11.4937 15.2476 11.4087 15.4082 11.218 15.4966C11.0572 15.5206 10.9127 15.5178 10.7647 15.4491C10.6258 15.3171 10.5594 15.2042 10.5417 15.015C10.5486 14.8731 10.6168 14.7579 10.6818 14.634C10.7037 14.5905 10.7037 14.5905 10.726 14.5461C10.7569 14.4846 10.788 14.4232 10.8194 14.3618C10.8816 14.2395 10.9414 14.116 11.0012 13.9925C11.0607 13.8699 11.1211 13.7478 11.1816 13.6257C11.2124 13.5633 11.243 13.5008 11.2735 13.4382C11.3185 13.3459 11.364 13.254 11.4096 13.162C11.423 13.1342 11.4365 13.1064 11.4503 13.0777C11.6056 12.7682 11.8281 12.599 12.1873 12.7078Z" fill="#005CE8"/>
<path id="Vector_6" d="M3.8311 12.7364C3.96902 12.8642 4.04548 12.9822 4.0559 13.171C4.04292 13.4351 3.85405 13.7109 3.73913 13.9433C3.72982 13.9621 3.7205 13.981 3.7109 14.0005C3.66168 14.1001 3.61232 14.1997 3.56284 14.2992C3.5121 14.4013 3.46191 14.5037 3.41183 14.6062C3.37288 14.6856 3.3335 14.7649 3.29401 14.8441C3.27533 14.8817 3.2568 14.9194 3.23844 14.9572C3.12725 15.1858 3.03047 15.3787 2.79465 15.4966C2.63076 15.514 2.46668 15.5294 2.32486 15.4344C2.20216 15.327 2.14753 15.2136 2.13599 15.0512C2.13919 14.8208 2.26083 14.6241 2.36359 14.4239C2.38558 14.3801 2.40752 14.3363 2.42942 14.2924C2.47527 14.201 2.52149 14.1097 2.56803 14.0186C2.62751 13.9022 2.6862 13.7853 2.74464 13.6684C2.78985 13.578 2.83536 13.4878 2.88097 13.3976C2.90271 13.3546 2.92439 13.3115 2.94599 13.2684C2.97628 13.2081 3.00695 13.1481 3.03773 13.0881C3.05507 13.054 3.07241 13.0198 3.09028 12.9847C3.25989 12.7054 3.52422 12.5913 3.8311 12.7364Z" fill="#005CE8"/>
<path id="Vector_7" d="M10.7813 11.0699C10.8913 11.1256 10.9693 11.2007 11.023 11.312C11.1225 11.6231 10.9696 11.8858 10.8311 12.1558C10.8092 12.1995 10.7873 12.2433 10.7655 12.2871C10.7198 12.3784 10.6737 12.4695 10.6272 12.5604C10.5679 12.6765 10.5095 12.7932 10.4514 12.91C10.4064 13.0003 10.361 13.0903 10.3155 13.1804C10.2938 13.2233 10.2722 13.2663 10.2507 13.3093C10.2206 13.3695 10.19 13.4293 10.1592 13.4892C10.1333 13.5402 10.1333 13.5402 10.1069 13.5923C10.0272 13.7154 9.93749 13.8026 9.79965 13.8596C9.62771 13.8935 9.49757 13.8964 9.34609 13.8002C9.2356 13.7044 9.17003 13.5926 9.14136 13.4493C9.15321 13.2812 9.18664 13.1611 9.26242 13.0085C9.27656 12.9797 9.27656 12.9797 9.29097 12.9503C9.3219 12.8875 9.35334 12.825 9.38482 12.7625C9.40667 12.7186 9.4285 12.6747 9.45032 12.6308C9.49599 12.5391 9.54192 12.4475 9.58803 12.3559C9.64693 12.239 9.70514 12.1217 9.76315 12.0043C9.80805 11.9136 9.85334 11.8232 9.89873 11.7328C9.92035 11.6896 9.94184 11.6464 9.9632 11.6031C9.99317 11.5425 10.0236 11.4822 10.0543 11.4219C10.0715 11.3876 10.0887 11.3533 10.1064 11.318C10.2608 11.0769 10.503 10.9828 10.7813 11.0699Z" fill="#005CE8"/>
<path id="Vector_8" d="M7.97353 12.7088C8.10084 12.7752 8.1767 12.8514 8.2347 12.9813C8.28713 13.2919 8.16071 13.5297 8.02334 13.7965C8.00141 13.8402 7.97954 13.8839 7.95771 13.9277C7.91207 14.0188 7.86596 14.1097 7.81948 14.2004C7.7601 14.3164 7.70173 14.4328 7.64366 14.5493C7.59867 14.6395 7.55325 14.7295 7.50771 14.8193C7.48603 14.8622 7.46446 14.9051 7.443 14.948C7.4129 15.0081 7.38227 15.0678 7.35149 15.1275C7.32558 15.1784 7.32558 15.1784 7.29914 15.2304C7.22232 15.3488 7.13426 15.4326 7.0063 15.4966C6.84455 15.5114 6.70183 15.5182 6.55297 15.4491C6.42177 15.3244 6.35582 15.2346 6.34668 15.0512C6.35073 14.8028 6.46325 14.6044 6.57422 14.3889C6.59614 14.3452 6.61802 14.3015 6.63984 14.2577C6.68549 14.1666 6.73159 14.0757 6.77808 13.985C6.83746 13.869 6.89583 13.7527 6.95389 13.6361C6.99889 13.5459 7.0443 13.456 7.08985 13.3661C7.11152 13.3232 7.1331 13.2803 7.15456 13.2374C7.18466 13.1773 7.21528 13.1176 7.24607 13.0579C7.26334 13.024 7.28062 12.99 7.29842 12.955C7.45297 12.7168 7.69676 12.6174 7.97353 12.7088Z" fill="#005CE8"/>
</g>
</svg>
