<svg width="15" height="15" viewBox="0 0 15 15" fill="none" xmlns="http://www.w3.org/2000/svg">
<path id="Vector" d="M3.35732 14.9941C3.19297 14.9941 3.02978 14.9428 2.8905 14.8421C2.63106 14.6541 2.50986 14.3309 2.58047 14.019L3.54546 9.76824L0.272828 6.89822C0.032267 6.68821 -0.0596313 6.35564 0.0391336 6.05133C0.137899 5.7476 0.406612 5.53256 0.724766 5.50315L5.05486 5.11003L6.76682 1.1037C6.89305 0.809354 7.18054 0.619263 7.49995 0.619263C7.81936 0.619263 8.10684 0.809354 8.23308 1.10302L9.94504 5.11003L14.2744 5.50315C14.5933 5.53187 14.862 5.7476 14.9608 6.05133C15.0595 6.35507 14.9682 6.68821 14.7276 6.89822L11.455 9.76767L12.42 14.0183C12.4907 14.3309 12.3694 14.6541 12.1101 14.8415C11.8513 15.029 11.5063 15.0434 11.2338 14.8796L7.49995 12.6483L3.76611 14.8809C3.63988 14.9559 3.49923 14.9941 3.35732 14.9941ZM7.49995 11.6871C7.64186 11.6871 7.7824 11.7252 7.90874 11.8002L11.4326 13.9078L10.5218 9.89573C10.4568 9.61019 10.5538 9.31207 10.7744 9.11888L13.8645 6.40886L9.77624 6.0376C9.48189 6.01071 9.22874 5.82565 9.11372 5.55442L7.49995 1.77366L5.88423 5.55499C5.77048 5.82439 5.51733 6.00945 5.22366 6.03634L1.13482 6.4076L4.2248 9.11763C4.44613 9.31138 4.54295 9.60893 4.47738 9.89516L3.56732 13.9071L7.09116 11.8002C7.21739 11.7252 7.35804 11.6871 7.49995 11.6871ZM5.02178 5.18751C5.02178 5.18751 5.02178 5.1882 5.0211 5.18877L5.02178 5.18751ZM9.97686 5.18568L9.97754 5.18694C9.97754 5.18625 9.97754 5.18625 9.97686 5.18568Z" fill="black"/>
</svg>
