<svg width="15" height="14" viewBox="0 0 15 14" fill="none" xmlns="http://www.w3.org/2000/svg">
<g id="Layer 46">
<path id="Vector" d="M14.7337 3.61305C14.6166 3.55124 14.4798 3.53836 14.3533 3.57727C14.2267 3.61617 14.1208 3.70366 14.0586 3.82057L13.2511 5.36817C12.411 1.75293 8.32578 -0.624721 4.69304 0.592858C3.33353 1.02796 2.14693 1.88282 1.30375 3.03461C0.460572 4.18641 0.00420922 5.57584 0.000236301 7.00327C-0.0447666 12.4486 6.34815 15.6863 10.7009 12.4211C10.8032 12.3409 10.8703 12.224 10.8879 12.0953C10.9055 11.9665 10.8722 11.8359 10.7952 11.7312C10.7181 11.6265 10.6033 11.5559 10.4751 11.5344C10.3469 11.5129 10.2154 11.5422 10.1084 11.6161C9.25594 12.2426 8.24644 12.6205 7.19211 12.7076C6.13779 12.7948 5.07993 12.5879 4.13614 12.11C3.19235 11.632 2.3996 10.9016 1.846 10.0001C1.29241 9.09858 0.999661 8.0612 1.0003 7.00327C1.00447 5.78747 1.3939 4.60427 2.11263 3.62365C2.83137 2.64302 3.84242 1.91544 5.00056 1.54542C8.28577 0.447849 11.9385 2.7705 12.386 6.14072L10.2309 5.00314C10.1135 4.94115 9.97635 4.92831 9.84952 4.96746C9.72269 5.00661 9.6166 5.09454 9.55461 5.21191C9.49261 5.32927 9.47977 5.46646 9.51892 5.59329C9.55807 5.72012 9.646 5.8262 9.76337 5.8882L12.7111 7.4433C12.7693 7.47421 12.8331 7.49329 12.8987 7.49946C12.9643 7.50563 13.0305 7.49875 13.0935 7.47924C13.1565 7.45972 13.215 7.42794 13.2656 7.38573C13.3163 7.34352 13.3581 7.29171 13.3886 7.23329L14.9437 4.2856C15.0045 4.16847 15.0166 4.03204 14.9773 3.90605C14.9379 3.78007 14.8504 3.67475 14.7337 3.61305Z" fill="black"/>
</g>
</svg>
