<svg width="16" height="14" viewBox="0 0 16 14" fill="none" xmlns="http://www.w3.org/2000/svg">
<g id="Group 1171275270">
<path id="Vector" d="M7.63272 0.335087C7.7337 0.436066 7.77363 0.492017 7.78292 0.635504C7.7809 0.728826 7.77887 0.822148 7.77684 0.915471C7.81248 0.90888 7.84813 0.90229 7.88485 0.8955C8.25224 0.83068 8.60777 0.805591 8.98045 0.808353C9.00743 0.808437 9.0344 0.808522 9.06219 0.808609C9.51554 0.810749 9.95122 0.845987 10.3944 0.946632C10.4205 0.952301 10.4465 0.95797 10.4734 0.963811C11.275 1.14175 12.0702 1.48617 12.7315 1.97496C12.7642 1.99886 12.7969 2.02276 12.8306 2.04739C13.0715 2.22645 13.294 2.42172 13.5106 2.62936C13.5271 2.64506 13.5437 2.66077 13.5607 2.67695C13.8192 2.9232 14.0482 3.18224 14.2584 3.47072C14.2711 3.48794 14.2839 3.50517 14.2969 3.52292C15.3042 4.90474 15.6765 6.66127 15.4231 8.33971C15.2503 9.39709 14.8203 10.4124 14.165 11.2611C14.1517 11.2784 14.1384 11.2957 14.1246 11.3135C13.0486 12.6921 11.4982 13.5236 9.77835 13.7709C9.63995 13.7877 9.50258 13.7913 9.36328 13.7926C9.33669 13.7929 9.31009 13.7932 9.28269 13.7935C7.52579 13.8096 5.88091 13.3084 4.58424 12.0836C4.51975 12.023 4.45444 11.9658 4.38607 11.9097C4.18973 11.7424 4.03517 11.5331 3.87386 11.3332C3.85766 11.3132 3.84146 11.2932 3.82478 11.2726C3.80159 11.2436 3.80159 11.2436 3.77794 11.214C3.76415 11.1968 3.75036 11.1796 3.73616 11.1619C3.69468 11.1053 3.69468 11.1053 3.66428 11.0218C3.6093 10.9441 3.6093 10.9441 3.53382 10.9354C3.44105 10.9299 3.3494 10.9296 3.25647 10.9307C3.22214 10.9305 3.18781 10.9302 3.15244 10.93C3.04233 10.9293 2.93226 10.9296 2.82215 10.93C2.71294 10.9301 2.60375 10.93 2.49454 10.9294C2.42659 10.929 2.35864 10.9291 2.2907 10.9297C1.81314 10.9279 1.39579 10.7578 1.05142 10.4261C1.02905 10.4034 1.00668 10.3808 0.983624 10.3574C0.96607 10.3405 0.948516 10.3237 0.93043 10.3063C0.587151 9.94762 0.50682 9.48935 0.507148 9.01422C0.506961 8.97002 0.506749 8.92582 0.506513 8.88162C0.505965 8.76211 0.505817 8.64261 0.505777 8.5231C0.505732 8.44825 0.505599 8.37339 0.505434 8.29853C0.504859 8.03682 0.504603 7.7751 0.504652 7.51339C0.50469 7.27035 0.504033 7.02733 0.503048 6.78429C0.50223 6.5749 0.501899 6.36551 0.501939 6.15611C0.501954 6.03138 0.501781 5.90665 0.501117 5.78192C0.500508 5.66444 0.500512 5.54697 0.500962 5.42949C0.501057 5.36649 0.500542 5.3035 0.5 5.2405C0.503647 4.70372 0.694933 4.26452 1.06847 3.88336C1.46936 3.52132 1.95401 3.40322 2.48192 3.40423C2.50935 3.40416 2.53679 3.40409 2.56505 3.40401C2.65642 3.40382 2.74779 3.40384 2.83917 3.40387C2.90491 3.40377 2.97065 3.40367 3.0364 3.40355C3.21461 3.40328 3.39283 3.4032 3.57105 3.40318C3.68251 3.40316 3.79397 3.40309 3.90543 3.40301C4.2946 3.40272 4.68377 3.4026 5.07294 3.40262C5.43517 3.40264 5.79739 3.40231 6.15962 3.40182C6.47106 3.40141 6.7825 3.40124 7.09394 3.40126C7.27975 3.40127 7.46556 3.40118 7.65137 3.40085C7.82621 3.40055 8.00106 3.40055 8.1759 3.40077C8.23987 3.40081 8.30383 3.40073 8.36779 3.40055C9.04188 3.39868 9.58001 3.4706 10.0965 3.94581C10.5155 4.37748 10.6276 4.90695 10.6246 5.49159C10.6249 5.55264 10.6249 5.55264 10.6251 5.61492C10.6256 5.72515 10.6254 5.83536 10.6251 5.94559C10.6249 6.06183 10.6251 6.17808 10.6252 6.29432C10.6254 6.4894 10.6252 6.68448 10.6247 6.87956C10.6242 7.10397 10.6244 7.32838 10.6249 7.5528C10.6253 7.74669 10.6254 7.94058 10.6251 8.13447C10.625 8.24974 10.625 8.36501 10.6253 8.48028C10.6256 8.60895 10.6252 8.73761 10.6246 8.86629C10.6248 8.90366 10.625 8.94104 10.6252 8.97954C10.621 9.55297 10.4562 10.0368 10.0516 10.4509C9.6383 10.8097 9.21013 10.9273 8.67333 10.9283C8.63287 10.9286 8.5924 10.9289 8.55071 10.9292C8.44057 10.9301 8.33044 10.9305 8.22029 10.9309C8.10489 10.9314 7.98948 10.9323 7.87407 10.9331C7.6559 10.9345 7.43772 10.9357 7.21954 10.9367C6.971 10.9379 6.72246 10.9394 6.47392 10.941C5.963 10.9442 5.45207 10.947 4.94114 10.9495C5.01996 11.0293 5.09897 11.1089 5.17802 11.1884C5.21119 11.222 5.21119 11.222 5.24503 11.2563C6.20888 12.2248 7.59518 12.7413 8.95013 12.7567C10.3731 12.7591 11.7362 12.2137 12.7627 11.2299C12.7894 11.2052 12.816 11.1805 12.8435 11.1551C13.8614 10.1825 14.3892 8.79882 14.4436 7.40879C14.4648 6.19429 14.0829 4.95507 13.3236 4.00046C13.3036 3.97521 13.3036 3.97521 13.2832 3.94945C12.3714 2.80923 11.0799 2.06509 9.62401 1.88783C9.49239 1.87605 9.36082 1.8777 9.22877 1.87844C9.18365 1.8785 9.18365 1.8785 9.13762 1.87857C9.04238 1.87874 8.94715 1.87913 8.85191 1.87953C8.78699 1.87969 8.72207 1.87983 8.65715 1.87996C8.49875 1.8803 8.34034 1.88084 8.18194 1.88148C8.19076 1.89856 8.19958 1.91563 8.20866 1.93323C8.22009 1.95565 8.23152 1.97808 8.2433 2.00118C8.25468 2.0234 8.26607 2.04562 8.27781 2.06851C8.34645 2.21703 8.32353 2.36228 8.27153 2.5125C8.18272 2.64275 8.08515 2.73433 7.93265 2.78516C7.67449 2.81154 7.50575 2.73211 7.27825 2.61572C7.2442 2.59877 7.21015 2.58181 7.17507 2.56435C7.07414 2.51385 6.97365 2.46257 6.87315 2.41122C6.81843 2.38393 6.7637 2.35666 6.70895 2.32943C6.66172 2.30548 6.61453 2.28146 6.56738 2.25736C6.54619 2.24676 6.525 2.23616 6.50317 2.22524C6.37726 2.15909 6.28693 2.10117 6.21876 1.97496C6.18624 1.74215 6.24256 1.57015 6.34852 1.36573C6.36191 1.33887 6.3753 1.31202 6.3891 1.28435C6.41735 1.22803 6.44591 1.17187 6.47476 1.11585C6.51866 1.03043 6.5614 0.944504 6.60402 0.858442C6.63175 0.803531 6.65954 0.748652 6.6874 0.69381C6.7064 0.655585 6.7064 0.655585 6.72579 0.616588C6.81659 0.442189 6.91138 0.31808 7.09299 0.230038C7.29673 0.180634 7.46519 0.203752 7.63272 0.335087ZM1.70034 4.71718C1.49621 5.02414 1.51337 5.28095 1.51337 5.65202C4.17675 5.65202 6.84012 5.65202 9.58421 5.65202C9.60503 5.08064 9.60503 5.08064 9.33382 4.64633C9.11604 4.45496 8.87943 4.43205 8.59866 4.43235C8.5581 4.43221 8.5581 4.43221 8.51672 4.43207C8.42614 4.4318 8.33555 4.43175 8.24496 4.4317C8.18 4.43156 8.11504 4.4314 8.05008 4.43123C7.8736 4.43083 7.69712 4.43062 7.52064 4.43049C7.41036 4.43039 7.30008 4.43027 7.1898 4.43013C6.84467 4.4297 6.49954 4.4294 6.15441 4.42928C5.75615 4.42914 5.3579 4.42859 4.95964 4.42769C4.6517 4.42702 4.34376 4.4267 4.03582 4.42666C3.85194 4.42663 3.66807 4.42645 3.4842 4.42589C3.31119 4.42537 3.13819 4.42531 2.96519 4.42558C2.90179 4.4256 2.83839 4.42547 2.77499 4.42516C2.68824 4.42476 2.6015 4.42495 2.51474 4.42527C2.48984 4.42502 2.46494 4.42477 2.43928 4.42451C2.1596 4.42695 1.89704 4.51233 1.70034 4.71718ZM1.51337 6.68036C1.29124 8.26038 1.29124 8.26038 1.70034 9.60954C1.91951 9.82687 2.07696 9.89942 2.38352 9.89854C2.41156 9.8987 2.4396 9.89886 2.46848 9.89903C2.56244 9.8995 2.6564 9.89952 2.75036 9.89954C2.81773 9.89978 2.88509 9.90004 2.95246 9.90033C3.1355 9.90101 3.31855 9.90129 3.5016 9.90144C3.616 9.90156 3.73039 9.90175 3.84479 9.90197C4.24399 9.90274 4.64319 9.90314 5.04239 9.90325C5.41431 9.90337 5.78621 9.9043 6.15812 9.9056C6.47755 9.90669 6.79698 9.90717 7.11641 9.90719C7.30713 9.90721 7.49784 9.90749 7.68856 9.90837C7.86804 9.90919 8.04751 9.90926 8.22699 9.90876C8.29274 9.9087 8.35848 9.90891 8.42423 9.90941C8.89131 9.9261 8.89131 9.9261 9.30375 9.73419C10.0084 9.01014 9.58421 7.18316 9.58421 6.68036C6.92083 6.68036 4.25745 6.68036 1.51337 6.68036Z" fill="#005CE8"/>
<path id="Vector_2" d="M6.24473 7.8274C6.26623 7.82714 6.28772 7.82689 6.30987 7.82663C6.381 7.82585 6.45214 7.82534 6.52327 7.82489C6.54763 7.82472 6.57199 7.82456 6.59708 7.82439C6.72607 7.82355 6.85506 7.82295 6.98406 7.8225C7.09054 7.82208 7.19701 7.82122 7.30349 7.81994C7.43231 7.8184 7.56111 7.81763 7.68993 7.81741C7.73887 7.8172 7.7878 7.81673 7.83673 7.81598C8.3362 7.80878 8.3362 7.80878 8.52504 7.98922C8.62434 8.10774 8.6542 8.24118 8.64968 8.39432C8.61369 8.56851 8.53986 8.68651 8.40039 8.79942C8.2748 8.86205 8.17012 8.86991 8.03061 8.87079C8.00972 8.871 7.98882 8.87121 7.96729 8.87143C7.89851 8.87202 7.82975 8.87214 7.76097 8.87221C7.71289 8.87241 7.6648 8.87262 7.61671 8.87284C7.516 8.87321 7.41528 8.87332 7.31457 8.87329C7.186 8.87328 7.05746 8.87413 6.9289 8.87521C6.82958 8.8759 6.73027 8.87603 6.63095 8.87599C6.58358 8.87607 6.53621 8.87634 6.48884 8.87682C6.02732 8.8811 6.02732 8.8811 5.81398 8.73709C5.67565 8.59166 5.64845 8.47292 5.6516 8.27831C5.66567 8.12647 5.73356 8.03017 5.84515 7.93274C5.98281 7.83235 6.07796 7.82912 6.24473 7.8274Z" fill="#005CE8"/>
</g>
</svg>
