<svg width="50" height="50" viewBox="0 0 50 50" fill="none" xmlns="http://www.w3.org/2000/svg">
<g id="Frame 818147">
<rect width="50" height="50" rx="25" fill="#FDF3F3"/>
<g id="Group 1171275253">
<path id="Vector" d="M20.5881 26.4355C20.6618 26.4353 20.7354 26.435 20.809 26.4347C21.007 26.4341 21.205 26.4341 21.403 26.4342C21.5693 26.4343 21.7356 26.434 21.9018 26.4338C22.2947 26.4333 22.6876 26.4332 23.0804 26.4335C23.4834 26.4338 23.8864 26.4332 24.2894 26.4322C24.6375 26.4314 24.9855 26.4311 25.3336 26.4313C25.5405 26.4313 25.7475 26.4312 25.9545 26.4306C27.8948 26.4248 27.8948 26.4248 28.7193 26.7159C28.7713 26.7338 28.7713 26.7338 28.8243 26.7521C29.4497 26.9778 30.0111 27.3087 30.5225 27.7319C30.583 27.7807 30.583 27.7807 30.6447 27.8305C30.9884 28.1219 31.252 28.4661 31.5206 28.8251C31.5634 28.8761 31.5634 28.8761 31.607 28.9281C31.6632 29.0152 31.6632 29.0152 31.6632 29.2053C31.5905 29.2863 31.5905 29.2863 31.4969 29.3598C31.466 29.3846 31.4351 29.4093 31.4033 29.4348C31.3673 29.4624 31.3673 29.4624 31.3305 29.4905C31.1949 29.4283 31.1192 29.3757 31.0067 29.2707C30.6093 28.9228 30.0874 28.6873 29.5719 28.5874C29.518 28.5766 29.464 28.5659 29.4085 28.5547C28.4857 28.4738 27.6439 28.6798 26.9102 29.2529C26.8775 29.2771 26.8448 29.3014 26.8112 29.3264C26.1882 29.8228 25.833 30.6175 25.7219 31.3917C25.6359 32.3113 25.878 33.177 26.4556 33.9049C26.5115 33.9708 26.5677 34.0364 26.625 34.101C26.5627 34.2365 26.5088 34.3143 26.4051 34.4278C26.2335 34.6206 26.1156 34.8394 25.9936 35.0653C25.8738 35.2846 25.8738 35.2846 25.7694 35.3368C25.6675 35.3416 25.5655 35.3432 25.4636 35.3435C25.4318 35.3436 25.4 35.3438 25.3673 35.3439C25.2603 35.3443 25.1534 35.3444 25.0464 35.3445C24.9699 35.3447 24.8934 35.3449 24.8169 35.3452C24.6084 35.3458 24.4 35.3461 24.1916 35.3463C24.0611 35.3465 23.9307 35.3467 23.8003 35.3469C23.3916 35.3475 22.9829 35.348 22.5742 35.3482C22.1036 35.3484 21.6331 35.3492 21.1625 35.3506C20.7982 35.3516 20.434 35.3521 20.0697 35.3522C19.8525 35.3522 19.6352 35.3525 19.418 35.3533C19.213 35.3541 19.0081 35.3542 18.8031 35.3538C18.7284 35.3538 18.6538 35.354 18.5792 35.3544C17.4658 35.3611 16.4568 35.094 15.6405 34.2963C14.9504 33.5821 14.7688 32.6911 14.7798 31.728C14.818 30.2209 15.5151 28.888 16.5928 27.8602C17.7008 26.836 19.1013 26.4327 20.5881 26.4355Z" fill="#FF3829"/>
<path id="Vector_2" d="M27.0552 14.3608C27.1337 14.4288 27.212 14.4971 27.2899 14.5658C27.3199 14.5895 27.3498 14.6132 27.3807 14.6377C27.6444 14.8473 27.8454 15.1082 28.0504 15.3738C28.0794 15.411 28.1084 15.4482 28.1382 15.4865C28.9989 16.6492 29.338 18.1569 29.1332 19.5803C28.8918 21.0469 28.1259 22.3868 26.9097 23.264C25.6216 24.1391 24.1217 24.4766 22.5844 24.2146C21.5977 24.0242 20.7249 23.5872 19.9702 22.9313C19.9188 22.8905 19.8673 22.8499 19.8157 22.8095C18.9047 22.002 18.2075 20.683 18.1165 19.4615C18.04 17.8519 18.3143 16.3829 19.3998 15.1362C19.7589 14.7425 20.129 14.3664 20.5881 14.0905C20.636 14.0601 20.6839 14.0296 20.7333 13.9982C22.6559 12.8282 25.289 12.931 27.0552 14.3608Z" fill="#FF3829"/>
<path id="Vector_3" d="M28.9396 30.655C28.9937 30.6526 29.0478 30.6501 29.1036 30.6476C29.706 30.7499 30.1225 31.3022 30.5289 31.7185C30.5977 31.7882 30.6665 31.8579 30.7354 31.9276C30.9028 32.097 31.0695 32.2671 31.2359 32.4374C31.372 32.3759 31.4677 32.3119 31.571 32.2044C31.598 32.1767 31.625 32.1489 31.6528 32.1203C31.6815 32.0903 31.7103 32.0604 31.7398 32.0295C31.802 31.9659 31.8642 31.9023 31.9264 31.8387C32.0237 31.7389 32.1207 31.6388 32.2174 31.5384C32.988 30.7391 32.988 30.7391 33.4955 30.6489C33.8741 30.657 34.1375 30.6936 34.419 30.9562C34.6979 31.2545 34.761 31.5056 34.7798 31.9064C34.7056 32.3278 34.4489 32.6335 34.1493 32.922C34.1148 32.9562 34.0803 32.9903 34.0448 33.0255C33.9359 33.133 33.8262 33.2397 33.7165 33.3464C33.6419 33.4198 33.5674 33.4932 33.493 33.5666C33.3116 33.7454 33.1296 33.9235 32.9471 34.101C33.1352 34.3276 33.3325 34.538 33.5445 34.7423C33.6034 34.7999 33.6623 34.8575 33.7211 34.9151C33.8124 35.0044 33.9039 35.0934 33.9958 35.182C34.0856 35.2686 34.1746 35.3559 34.2634 35.4434C34.3043 35.4822 34.3043 35.4822 34.346 35.5217C34.5766 35.7508 34.7235 36.0121 34.7768 36.3351C34.7688 36.6843 34.7297 36.9539 34.5007 37.2262C34.2134 37.4667 34.0054 37.5779 33.6303 37.5886C33.5748 37.5909 33.5193 37.5932 33.4621 37.5956C33.048 37.5391 32.759 37.2676 32.4775 36.9772C32.4443 36.9437 32.4112 36.9103 32.377 36.8759C32.2725 36.7703 32.1686 36.664 32.0648 36.5577C31.9935 36.4855 31.9222 36.4133 31.8508 36.3412C31.677 36.1653 31.5038 35.9889 31.331 35.8121C31.1923 35.8746 31.0958 35.9411 30.9901 36.0502C30.9618 36.0791 30.9336 36.108 30.9044 36.1377C30.8744 36.1689 30.8443 36.2 30.8134 36.2321C30.7486 36.2981 30.6838 36.364 30.619 36.43C30.5175 36.5338 30.4162 36.6378 30.3152 36.742C30.2173 36.8428 30.1188 36.943 30.0202 37.0431C29.9905 37.074 29.9609 37.105 29.9303 37.1369C29.693 37.3768 29.4567 37.5455 29.1179 37.596C28.7312 37.5925 28.4525 37.5714 28.1604 37.3073C27.9305 37.0629 27.8275 36.8124 27.7959 36.4805C27.8356 35.7262 28.5277 35.2341 29.0287 34.7367C29.0863 34.6794 29.1439 34.622 29.2015 34.5646C29.3408 34.4258 29.4803 34.2871 29.6199 34.1485C29.4346 33.9257 29.241 33.7174 29.0328 33.516C28.9761 33.4603 28.9194 33.4046 28.8627 33.349C28.7748 33.2628 28.6868 33.1768 28.5984 33.0912C28.512 33.0074 28.4263 32.9231 28.3406 32.8386C28.3145 32.8136 28.2883 32.7885 28.2613 32.7627C27.9838 32.4871 27.8325 32.18 27.7989 31.7898C27.8049 31.4962 27.8976 31.227 28.0928 31.0057C28.3576 30.7649 28.5776 30.6647 28.9396 30.655Z" fill="#FF3829"/>
</g>
</g>
</svg>
