<svg width="15" height="16" viewBox="0 0 15 16" fill="none" xmlns="http://www.w3.org/2000/svg">
<g id="Group 1171275246">
<path id="Vector" d="M0.106074 6.66501C0.0358753 7.07657 0.000392346 7.49331 0 7.91082H1.5431C1.54384 7.53421 1.58067 7.15853 1.65308 6.78895C1.13555 6.75936 0.620254 6.72056 0.106074 6.66501Z" fill="#005CE8"/>
<path id="Vector_2" d="M1.23928 3.80911C0.889359 4.33518 0.607948 4.90373 0.401855 5.50099C0.935017 5.55682 1.47041 5.5906 2.00664 5.61656C2.16471 5.24459 2.36048 4.88981 2.59089 4.55777C2.1357 4.31641 1.68516 4.06685 1.23928 3.80911Z" fill="#005CE8"/>
<path id="Vector_3" d="M13.2951 3.26869C12.6266 2.42591 11.7834 1.73809 10.8234 1.2526C9.86354 0.767113 8.80979 0.49551 7.7348 0.456508C6.65981 0.417505 5.58914 0.612029 4.59658 1.02668C3.60401 1.44132 2.71314 2.06623 1.98535 2.85835C2.44854 3.12223 2.91583 3.37848 3.3872 3.62711C3.99103 3.05063 4.71028 2.60881 5.49746 2.33083C6.28464 2.05285 7.12184 1.94503 7.95377 2.0145C8.7857 2.08396 9.59342 2.32913 10.3236 2.7338C11.0538 3.13848 11.6898 3.69346 12.1897 4.36209L10.512 6.01991H15.0001V1.58379L13.2951 3.26869Z" fill="#005CE8"/>
<path id="Vector_4" d="M14.8937 9.33445C14.9639 8.92288 14.9994 8.50615 14.9998 8.08864H13.4567C13.4559 8.46534 13.4191 8.84111 13.3467 9.21079C13.8642 9.24066 14.3795 9.27862 14.8937 9.33445Z" fill="#005CE8"/>
<path id="Vector_5" d="M13.7608 12.1909C14.1108 11.6649 14.3922 11.0963 14.5982 10.499C14.0651 10.4432 13.5297 10.4097 12.9934 10.3835C12.8354 10.7554 12.6396 11.1102 12.4092 11.4422C12.8644 11.684 13.3149 11.9335 13.7608 12.1909Z" fill="#005CE8"/>
<path id="Vector_6" d="M1.705 12.7313C2.37346 13.5741 3.21671 14.262 4.17663 14.7475C5.13656 15.2329 6.19033 15.5045 7.26533 15.5435C8.34033 15.5825 9.41101 15.3879 10.4036 14.9732C11.3961 14.5585 12.287 13.9336 13.0147 13.1414C12.5515 12.8775 12.0842 12.6212 11.6129 12.3724C11.0091 12.9486 10.29 13.3903 9.50292 13.6682C8.71589 13.9461 7.87886 14.054 7.04709 13.9846C6.21532 13.9152 5.40773 13.6702 4.67761 13.2657C3.9475 12.8613 3.31147 12.3066 2.81152 11.6382L4.48916 9.9801H0V14.4162L1.705 12.7313Z" fill="#005CE8"/>
</g>
</svg>
