<svg width="12" height="13" viewBox="0 0 12 13" fill="none" xmlns="http://www.w3.org/2000/svg">
<path id="Vector" d="M3.90002 0.567139C2.40885 0.567139 1.20002 1.77597 1.20002 3.26714V10.1671H0.600018C0.357342 10.1671 0.138558 10.3133 0.0456902 10.5375C-0.0471778 10.7617 0.00415231 11.0198 0.175752 11.1914L1.37575 12.3914C1.61007 12.6257 1.98997 12.6257 2.22428 12.3914L3.42428 11.1914C3.59588 11.0198 3.64721 10.7617 3.55435 10.5375C3.46148 10.3133 3.24269 10.1671 3.00002 10.1671H2.40002V3.26714C2.40002 2.43871 3.07159 1.76714 3.90002 1.76714C4.72844 1.76714 5.4 2.43871 5.4 3.26714V9.86714C5.4 11.3583 6.60882 12.5671 8.1 12.5671C9.59118 12.5671 10.8 11.3583 10.8 9.86714V4.06471C11.4991 3.8176 12 3.15086 12 2.36714C12 1.37303 11.1941 0.567139 10.2 0.567139C9.20586 0.567139 8.4 1.37303 8.4 2.36714C8.4 3.15088 8.90088 3.81763 9.6 4.06472V9.86714C9.6 10.6956 8.92842 11.3671 8.1 11.3671C7.27158 11.3671 6.6 10.6956 6.6 9.86714V3.26714C6.6 1.77597 5.39118 0.567139 3.90002 0.567139Z" fill="#8B8D98"/>
</svg>
