<svg width="16" height="16" viewBox="0 0 16 16" fill="none" xmlns="http://www.w3.org/2000/svg">
<g id="Group 1171275283">
<path id="Vector" d="M11.3496 6.47202C11.398 6.49424 11.4463 6.51639 11.4947 6.53847C11.591 6.58253 11.6869 6.62718 11.7827 6.67236C11.8801 6.71832 11.978 6.76315 12.0763 6.80722C12.1126 6.82372 12.1126 6.82372 12.1497 6.84054C12.1954 6.86129 12.2412 6.88179 12.2871 6.90197C12.4248 6.9651 12.5165 7.03537 12.6195 7.14932C12.6611 7.19056 12.7027 7.23179 12.7443 7.27299C12.7907 7.31905 12.837 7.36511 12.8834 7.41118C12.9178 7.44526 12.9178 7.44526 12.953 7.48003C13.0823 7.60876 13.2054 7.74045 13.3244 7.87872C13.4135 7.97996 13.5103 8.07292 13.6069 8.16698C13.719 8.27718 13.719 8.27718 13.7536 8.3464C13.9168 8.33359 14.0408 8.27139 14.1849 8.20003C14.7439 7.92433 14.7439 7.92433 15.0452 7.99988C15.2254 8.07108 15.3433 8.19107 15.4547 8.3464C15.5184 8.53756 15.5117 8.76458 15.4547 8.95675C15.2468 9.22968 14.9711 9.35143 14.6652 9.48675C14.5905 9.51981 14.5161 9.55349 14.4417 9.58729C14.3935 9.60898 14.3453 9.63064 14.2971 9.65226C14.2753 9.66211 14.2534 9.67195 14.2309 9.6821C13.6713 9.92903 13.6713 9.92903 13.3638 9.81519C13.1068 9.69025 12.9251 9.44596 12.7427 9.23252C12.6538 9.13338 12.5585 9.04075 12.4637 8.94725C12.3603 8.84465 12.2636 8.73836 12.1692 8.62758C12.0725 8.51828 11.9678 8.41681 11.8635 8.3149C11.7825 8.52118 11.7183 8.73028 11.6564 8.94297C11.6408 8.99593 11.6408 8.99593 11.625 9.04995C11.5922 9.16193 11.5595 9.27395 11.5268 9.38597C11.5045 9.46223 11.4821 9.53848 11.4598 9.61473C11.4052 9.80097 11.3508 9.98723 11.2964 10.1735C11.4 10.2774 11.5043 10.3806 11.6091 10.4832C11.7577 10.6287 11.9057 10.7746 12.0535 10.9207C12.1426 11.0089 12.2319 11.0968 12.3215 11.1844C12.4087 11.2695 12.4955 11.3551 12.5819 11.441C12.6147 11.4735 12.6477 11.5058 12.6808 11.5379C12.9593 11.8081 13.0627 11.9869 13.0728 12.377C13.0739 12.4763 13.0735 12.5757 13.0731 12.675C13.0732 12.7283 13.0733 12.7816 13.0734 12.8349C13.0735 12.9462 13.0733 13.0575 13.0729 13.1688C13.0723 13.3109 13.0727 13.4529 13.0732 13.5949C13.0736 13.7049 13.0735 13.8148 13.0732 13.9248C13.0731 13.9771 13.0732 14.0294 13.0734 14.0818C13.0755 14.6987 13.0755 14.6987 12.9072 14.9096C12.8864 14.9262 12.8655 14.9428 12.844 14.9599C12.8233 14.9771 12.8026 14.9942 12.7812 15.0119C12.5984 15.1328 12.4238 15.1428 12.21 15.1194C11.9989 15.0623 11.8782 14.9254 11.769 14.7413C11.7332 14.634 11.735 14.5552 11.737 14.4421C11.7376 14.3992 11.7382 14.3564 11.7388 14.3136C11.7391 14.2909 11.7395 14.2682 11.7399 14.2449C11.7418 14.0989 11.7418 13.9528 11.7421 13.8068C11.7426 13.6788 11.7437 13.5508 11.7462 13.4228C11.7487 13.2987 11.7492 13.1747 11.7486 13.0505C11.7486 13.0035 11.7494 12.9565 11.7508 12.9095C11.76 12.6208 11.76 12.6208 11.6278 12.3735C11.5343 12.2827 11.4315 12.2055 11.3279 12.1267C11.2829 12.0845 11.2386 12.0416 11.1954 11.9977C11.1759 11.9781 11.1563 11.9586 11.1362 11.9385C11.1168 11.9189 11.0974 11.8994 11.0774 11.8792C11.0563 11.858 11.0351 11.8368 11.0133 11.815C10.9475 11.749 10.8818 11.6829 10.816 11.6167C10.7707 11.5712 10.7254 11.5258 10.6801 11.4803C10.5704 11.3703 10.4609 11.2602 10.3514 11.1501C10.2808 11.256 10.2348 11.366 10.1866 11.4831C10.1767 11.5068 10.1669 11.5306 10.1567 11.5551C10.125 11.6314 10.0935 11.7077 10.062 11.7841C10.0413 11.8337 10.0207 11.8834 10.0001 11.9331C9.97959 11.9826 9.95906 12.0321 9.93853 12.0816C9.92835 12.1061 9.91817 12.1307 9.90768 12.1559C9.85608 12.2805 9.80507 12.4052 9.75509 12.5304C9.74531 12.5548 9.73553 12.5791 9.72545 12.6041C9.70702 12.65 9.68877 12.6959 9.67073 12.7419C9.58058 12.9654 9.4817 13.0885 9.26178 13.1836C9.12222 13.2349 8.99755 13.2426 8.84999 13.2415C8.81098 13.2417 8.81098 13.2417 8.77118 13.242C8.68595 13.2424 8.60074 13.2421 8.51552 13.2418C8.45581 13.2418 8.39611 13.2419 8.33641 13.2421C8.21156 13.2422 8.08672 13.242 7.96187 13.2416C7.80242 13.241 7.64299 13.2413 7.48354 13.2419C7.36032 13.2422 7.23712 13.2421 7.1139 13.2419C7.05514 13.2418 6.99637 13.2419 6.93761 13.2421C6.85523 13.2424 6.77287 13.242 6.69049 13.2415C6.66657 13.2417 6.64266 13.2418 6.61801 13.242C6.41724 13.2397 6.21627 13.2035 6.05638 13.0759C6.03977 13.055 6.02316 13.0342 6.00605 13.0127C5.98887 12.9919 5.97169 12.9712 5.954 12.9499C5.83311 12.7671 5.82315 12.5924 5.84657 12.3787C5.90367 12.1676 6.04058 12.0468 6.2246 11.9376C6.33359 11.9013 6.42014 11.9011 6.53515 11.8997C6.55698 11.8994 6.57881 11.8991 6.6013 11.8987C6.6734 11.8977 6.7455 11.897 6.8176 11.8962C6.86761 11.8955 6.91762 11.8949 6.96763 11.8942C7.09923 11.8925 7.23082 11.8909 7.36242 11.8894C7.49672 11.8878 7.63101 11.886 7.76531 11.8843C8.02879 11.8809 8.29227 11.8777 8.55575 11.8746C8.59075 11.7904 8.62574 11.7062 8.66072 11.622C8.67166 11.5957 8.6826 11.5694 8.69387 11.5422C8.7549 11.3953 8.8158 11.2483 8.87649 11.1013C9.08921 10.5861 9.08921 10.5861 9.18629 10.3644C9.45065 9.75343 9.63909 9.11682 9.83455 8.48127C9.84398 8.45061 9.85342 8.41996 9.86314 8.38838C9.92478 8.18638 9.98188 7.98341 10.0364 7.77936C9.25487 7.87988 9.25487 7.87988 8.62622 8.29395C8.44082 8.62782 8.3703 9.02922 8.3215 9.40458C8.2896 9.62701 8.20698 9.79683 8.02401 9.93459C7.84897 10.0434 7.65255 10.0391 7.45318 10.016C7.24747 9.94495 7.11049 9.79825 7.01215 9.60649C6.91739 9.35666 7.00921 9.09162 7.07958 8.84859C7.08977 8.81256 7.09996 8.77653 7.11046 8.73941C7.13202 8.66345 7.15374 8.58755 7.17561 8.51169C7.20886 8.39622 7.24154 8.28061 7.27413 8.16495C7.29522 8.09093 7.31635 8.01691 7.33751 7.9429C7.34719 7.90863 7.35688 7.87437 7.36686 7.83906C7.54244 7.23357 7.54244 7.23357 7.7997 7.08631C7.95931 7.01889 8.12286 6.96679 8.28799 6.91502C8.33722 6.89922 8.38644 6.88337 8.43565 6.86749C8.54287 6.83297 8.65019 6.79878 8.75757 6.76472C8.91369 6.715 9.06924 6.66364 9.2247 6.61191C9.35745 6.5678 9.49035 6.52418 9.62328 6.48064C9.68815 6.45931 9.75297 6.4378 9.81773 6.41612C10.431 6.21134 10.7646 6.1956 11.3496 6.47202Z" fill="#005CE8"/>
<path id="Vector_2" d="M5.60243 0.870549C5.63422 0.870651 5.63422 0.870651 5.66666 0.870754C6.01777 0.872549 6.35509 0.893398 6.69713 0.9749C6.72348 0.981158 6.74983 0.987417 6.77697 0.993865C8.08359 1.3154 9.22321 2.12137 9.932 3.26865C10.2439 3.78696 10.6617 4.53776 10.6034 5.16469C10.5762 5.24627 10.5552 5.28014 10.4853 5.33007C10.39 5.36184 10.3254 5.36798 10.2254 5.3537C10.0483 5.22218 10.0252 5.06962 9.98123 4.86542C9.80138 4.11501 9.45751 3.46206 8.93378 2.89653C8.91022 2.87089 8.91022 2.87089 8.88617 2.84474C8.31605 2.23144 7.57451 1.78001 6.76013 1.57344C6.72228 1.56371 6.72228 1.56371 6.68367 1.55378C6.01288 1.38936 5.25736 1.36543 4.58648 1.54194C4.56226 1.54803 4.53804 1.55412 4.51308 1.5604C3.33177 1.86344 2.32019 2.60176 1.69656 3.65464C1.07778 4.73765 0.919112 5.99011 1.24407 7.19558C1.57854 8.36172 2.36726 9.33206 3.42452 9.92065C3.79595 10.1231 4.17711 10.2569 4.58648 10.3625C4.61871 10.3711 4.61871 10.3711 4.65158 10.3798C5.20176 10.5196 5.82982 10.4951 6.38798 10.4199C6.5062 10.4274 6.55214 10.4683 6.63412 10.5516C6.66924 10.6723 6.67635 10.7419 6.63412 10.8607C6.50158 11.0056 6.28579 11.0085 6.09859 11.0241C5.94372 11.0302 5.78891 11.0318 5.63393 11.032C5.61226 11.032 5.5906 11.032 5.56828 11.032C5.20274 11.0315 4.84967 11.0087 4.49198 10.9296C4.4687 10.9245 4.44542 10.9194 4.42144 10.9142C3.39622 10.6813 2.3818 10.0825 1.71979 9.25997C1.68287 9.21428 1.68287 9.21428 1.64522 9.16768C1.46158 8.93669 1.29841 8.69804 1.15275 8.44091C1.14244 8.4228 1.13214 8.40469 1.12152 8.38603C0.490835 7.25879 0.336378 5.86949 0.675355 4.62592C0.89233 3.88171 1.23759 3.19725 1.75129 2.61301C1.775 2.58548 1.79872 2.55795 1.82315 2.52958C2.77003 1.44976 4.17806 0.864266 5.60243 0.870549Z" fill="#005CE8"/>
<path id="Vector_3" d="M13.0821 4.05423C13.3482 4.2457 13.5687 4.48302 13.6275 4.81816C13.6546 5.2409 13.6248 5.5841 13.341 5.92074C13.1031 6.1704 12.8285 6.29959 12.483 6.31364C12.2436 6.31662 12.0442 6.29243 11.8319 6.17275C11.7831 6.14546 11.7831 6.14546 11.7334 6.11762C11.4516 5.89706 11.2576 5.65401 11.2018 5.29069C11.1735 4.94456 11.2206 4.63688 11.4282 4.35153C11.8477 3.86202 12.5192 3.69862 13.0821 4.05423Z" fill="#005CE8"/>
<path id="Vector_4" d="M5.66059 3.10461C5.753 3.12378 5.79278 3.1678 5.84652 3.24305C5.88529 3.35935 5.88292 3.46707 5.8831 3.5882C5.88334 3.62648 5.88334 3.62648 5.88358 3.66553C5.88404 3.75002 5.88425 3.8345 5.88442 3.91899C5.88461 3.97773 5.88479 4.03647 5.88497 4.09521C5.8853 4.21843 5.88548 4.34165 5.88559 4.46487C5.88577 4.6226 5.88652 4.78032 5.88742 4.93805C5.88801 5.05942 5.88817 5.18079 5.88822 5.30216C5.88831 5.3603 5.88857 5.41844 5.88898 5.47658C5.88952 5.55801 5.88946 5.63943 5.88925 5.72087C5.88954 5.74478 5.88983 5.7687 5.89013 5.79334C5.88828 6.0296 5.80443 6.1638 5.64077 6.32673C5.61197 6.35563 5.58316 6.38452 5.55349 6.41429C5.52217 6.44523 5.49085 6.47617 5.45951 6.50709C5.42729 6.53922 5.39509 6.57136 5.3629 6.60352C5.29566 6.67063 5.22825 6.73757 5.16073 6.8044C5.07411 6.89013 4.98776 6.97613 4.90151 7.06224C4.83513 7.12849 4.76866 7.19465 4.70215 7.26078C4.67027 7.29248 4.63841 7.3242 4.60656 7.35593C4.56215 7.40012 4.51763 7.44419 4.4731 7.48825C4.44778 7.51335 4.42246 7.53846 4.39637 7.56432C4.31178 7.64287 4.28272 7.65251 4.1651 7.66123C4.0509 7.65335 4.0509 7.65335 3.97608 7.62185C3.91394 7.54536 3.89894 7.47348 3.88354 7.37709C3.9022 7.24395 3.97827 7.15079 4.08054 7.06879C4.13007 7.03402 4.17983 6.99959 4.22978 6.96544C4.67785 6.65472 5.22656 6.24211 5.34805 5.67646C5.46221 5.00647 5.41093 4.29235 5.35638 3.61816C5.3546 3.59375 5.35283 3.56933 5.351 3.54417C5.34763 3.49884 5.34373 3.45353 5.33917 3.4083C5.33149 3.30083 5.3345 3.25342 5.40135 3.16666C5.49338 3.09866 5.54965 3.09903 5.66059 3.10461Z" fill="#005CE8"/>
</g>
</svg>
