<svg width="8" height="12" viewBox="0 0 8 12" fill="none" xmlns="http://www.w3.org/2000/svg">
<path id="Vector" d="M0.734132 0.0104281C0.777858 0.0100401 0.777858 0.0100401 0.822468 0.00964426C0.919656 0.00898558 1.0168 0.00950573 1.11399 0.0100283C1.18386 0.00980354 1.25374 0.00950826 1.32361 0.0091479C1.51305 0.00839281 1.70248 0.00868478 1.89192 0.00921075C2.0903 0.00963091 2.28867 0.00924112 2.48705 0.00898092C2.82017 0.00867938 3.15328 0.00907652 3.4864 0.00986641C3.87137 0.0107687 4.25634 0.0104764 4.64131 0.00956358C4.97201 0.00881086 5.3027 0.00870515 5.6334 0.0091389C5.83084 0.00939722 6.02827 0.00943233 6.22571 0.00888415C6.41135 0.00840474 6.59696 0.00873827 6.78259 0.00969563C6.85067 0.00991462 6.91874 0.00985232 6.98682 0.00948628C7.07985 0.00903218 7.17283 0.00960257 7.26587 0.0104281C7.31789 0.0104906 7.36991 0.0105531 7.42351 0.0106175C7.63844 0.0423652 7.76498 0.146237 7.91192 0.300912C8.01132 0.515006 8.01052 0.711285 7.97927 0.9434C7.88371 1.14924 7.76185 1.24943 7.56477 1.35791C7.44421 1.37926 7.3271 1.37734 7.20499 1.3741C7.1713 1.37386 7.13761 1.37363 7.1029 1.37339C6.99603 1.37247 6.88923 1.37039 6.78238 1.36827C6.70963 1.36744 6.63687 1.36668 6.56412 1.366C6.38642 1.36418 6.20876 1.36132 6.03109 1.35791C6.05655 1.39879 6.082 1.43968 6.10823 1.4818C6.44011 2.02066 6.44011 2.02066 6.53109 2.32423C6.54696 2.37536 6.56283 2.4265 6.57918 2.47918C6.6114 2.60143 6.6114 2.60143 6.6114 2.68433C6.63898 2.68346 6.66655 2.6826 6.69497 2.6817C6.82082 2.67824 6.94666 2.67609 7.07254 2.67397C7.11593 2.67258 7.15931 2.67119 7.20402 2.66976C7.46376 2.66647 7.61665 2.67504 7.81347 2.85014C7.96387 3.00845 7.99212 3.13543 8 3.34754C7.99212 3.55966 7.96387 3.68664 7.81347 3.84495C7.58373 4.04933 7.37004 4.03065 7.07254 4.02112C7.02819 4.02037 6.98384 4.01962 6.93815 4.01885C6.82919 4.01691 6.72031 4.01419 6.6114 4.01076C6.60527 4.04213 6.59914 4.07351 6.59282 4.10583C6.48518 4.63379 6.2293 5.14627 5.86528 5.54444C5.8321 5.58141 5.79892 5.61839 5.76473 5.65648C5.17034 6.28615 4.36729 6.65818 3.50065 6.68482C3.36659 6.6882 3.23253 6.69026 3.09845 6.6921C3.02882 6.69348 2.9592 6.69491 2.88957 6.6964C2.72086 6.69988 2.55215 6.70266 2.38342 6.70506C2.40492 6.72648 2.42642 6.7479 2.44857 6.76998C2.97152 7.29109 3.49423 7.81243 4.01669 8.33403C4.26935 8.58627 4.52209 8.83843 4.77502 9.0904C4.99544 9.31 5.21573 9.52975 5.43583 9.74967C5.5524 9.86613 5.66904 9.98252 5.78585 10.0987C5.89579 10.2081 6.00553 10.3177 6.11512 10.4274C6.15538 10.4676 6.19572 10.5078 6.23613 10.5479C6.29129 10.6026 6.34617 10.6577 6.40104 10.7127C6.43184 10.7434 6.46263 10.7742 6.49436 10.8058C6.66885 11.0038 6.6708 11.1772 6.6658 11.434C6.64224 11.6538 6.53767 11.7554 6.38342 11.9019C6.17377 11.9993 5.96821 12.0096 5.74093 11.9693C5.55815 11.8599 5.40749 11.7307 5.25831 11.5801C5.22507 11.5471 5.22507 11.5471 5.19116 11.5134C5.11746 11.44 5.04406 11.3663 4.97065 11.2927C4.91768 11.2398 4.86469 11.1869 4.81168 11.1341C4.66813 10.991 4.52485 10.8475 4.38163 10.704C4.23165 10.5538 4.08147 10.4039 3.93132 10.2538C3.67932 10.002 3.42749 9.74997 3.17576 9.49784C2.88465 9.20629 2.59325 8.91503 2.30169 8.62393C2.05132 8.37393 1.8011 8.12377 1.55102 7.87347C1.40168 7.724 1.25228 7.57458 1.10274 7.42531C0.96224 7.28505 0.821947 7.1446 0.681809 7.00398C0.630314 6.95237 0.578748 6.90084 0.527107 6.84938C0.45671 6.77921 0.386572 6.70879 0.316495 6.6383C0.295939 6.61793 0.275384 6.59756 0.254205 6.57657C0.0705861 6.39084 0.00849899 6.26634 0.00518135 6.00558C0.00938304 5.78971 0.033182 5.6644 0.186528 5.50299C0.370264 5.35935 0.48883 5.31643 0.72127 5.31587C0.748741 5.31557 0.776212 5.31528 0.804516 5.31497C0.894787 5.31418 0.985018 5.31452 1.07529 5.31484C1.1387 5.31443 1.20211 5.31393 1.26551 5.31336C1.43233 5.31202 1.59913 5.31158 1.76595 5.31141C2.03185 5.31105 2.29774 5.30956 2.56363 5.30759C2.65566 5.30708 2.74769 5.3071 2.83973 5.30719C3.58837 5.30512 4.19261 5.21232 4.74369 4.67899C4.88017 4.53308 4.97821 4.38706 5.06541 4.20716C5.08343 4.17026 5.10145 4.13335 5.12002 4.09533C5.13342 4.06742 5.14682 4.03951 5.16062 4.01076C5.1365 4.01091 5.11237 4.01106 5.08752 4.01122C4.50007 4.01489 3.91262 4.01763 3.32516 4.01935C3.04107 4.0202 2.75699 4.02137 2.4729 4.02327C2.19876 4.0251 1.92463 4.02606 1.65049 4.02649C1.54587 4.02679 1.44126 4.02739 1.33665 4.02829C1.19017 4.02949 1.04373 4.02966 0.897243 4.02958C0.853952 4.03018 0.81066 4.03077 0.766056 4.03139C0.517137 4.02997 0.376535 4.00986 0.186528 3.84495C0.0361311 3.68664 0.00787546 3.55966 0 3.34754C0.00787546 3.13543 0.0361311 3.00845 0.186528 2.85014C0.411566 2.65483 0.607052 2.66151 0.897243 2.66551C0.943369 2.66549 0.989495 2.66546 1.03702 2.66544C1.18909 2.66555 1.34113 2.66684 1.4932 2.66814C1.59879 2.66845 1.70438 2.66869 1.80997 2.66885C2.05923 2.66942 2.30849 2.67073 2.55775 2.67239C2.84164 2.67425 3.12553 2.67516 3.40942 2.67599C3.99316 2.67772 4.57689 2.68063 5.16062 2.68433C5.11597 2.59825 5.07094 2.51236 5.02574 2.42656C5.00071 2.37871 4.97567 2.33086 4.94988 2.28156C4.69658 1.84747 4.30642 1.62923 3.84343 1.47384C3.48967 1.38637 3.12965 1.39328 2.76759 1.39237C2.67259 1.39207 2.57761 1.39141 2.48261 1.39065C2.2128 1.38849 1.943 1.38649 1.67318 1.38585C1.50745 1.38543 1.34174 1.38421 1.17602 1.38248C1.11318 1.38197 1.05033 1.38175 0.987482 1.38185C0.899598 1.38195 0.811777 1.38102 0.723901 1.37988C0.649099 1.37951 0.649099 1.37951 0.572785 1.37914C0.360693 1.3464 0.233263 1.2413 0.0880829 1.08848C-0.0113175 0.874384 -0.0105208 0.678105 0.0207254 0.44599C0.165557 0.134045 0.397816 0.0108322 0.734132 0.0104281Z" fill="#005CE8"/>
</svg>
