<svg width="18" height="21" viewBox="0 0 18 21" fill="none" xmlns="http://www.w3.org/2000/svg">
<g id="Group 1171275272">
<path id="Vector" d="M9.27296 0.0233225C9.42581 0.0887606 9.55294 0.18088 9.68641 0.279334C9.85968 0.40482 10.0386 0.522251 10.2164 0.641084C10.2572 0.66838 10.2979 0.695676 10.3399 0.723799C10.7377 0.988569 11.1467 1.22899 11.5643 1.46102C11.5948 1.4783 11.6253 1.49558 11.6567 1.51339C13.3184 2.45308 15.1916 2.99831 17.0921 3.13304C17.1357 3.13627 17.1792 3.13951 17.224 3.14284C17.2626 3.14536 17.3013 3.14787 17.3411 3.15047C17.5789 3.18943 17.7535 3.3192 17.8963 3.50806C17.9723 3.68226 17.9946 3.83053 17.995 4.02022C17.9952 4.06515 17.9954 4.11008 17.9956 4.15637C17.9956 4.20542 17.9956 4.25447 17.9955 4.30501C17.9958 4.38286 17.9958 4.38286 17.996 4.46229C17.9964 4.63468 17.9965 4.80707 17.9966 4.97945C17.9967 5.06955 17.9968 5.15965 17.9969 5.24975C17.9973 5.53409 17.9974 5.81843 17.9973 6.10277C17.9973 6.39277 17.9978 6.68276 17.9985 6.97276C17.9991 7.22373 17.9993 7.4747 17.9993 7.72567C17.9993 7.87462 17.9994 8.02356 17.9999 8.1725C18.004 9.70093 17.9013 11.1814 17.4499 12.6481C17.4386 12.6851 17.4273 12.7221 17.4157 12.7603C16.9052 14.4041 15.9744 15.8684 14.8075 17.1213C14.7807 17.1501 14.7538 17.179 14.7261 17.2088C14.5365 17.409 14.3358 17.592 14.1252 17.7699C14.0993 17.7919 14.0734 17.8138 14.0466 17.8364C12.5193 19.114 10.5045 20.2707 8.46425 20.1511C6.44887 19.9159 4.20526 18.0469 2.95213 16.5372C2.88715 16.4542 2.8226 16.3709 2.75838 16.2873C2.71391 16.2316 2.66939 16.176 2.62483 16.1204C1.42376 14.6057 0.631707 12.8309 0.242409 10.9409C0.232092 10.8918 0.232092 10.8918 0.221568 10.8418C0.00735392 9.79697 0.00354059 8.7141 0.00425451 7.6518C0.00407917 7.54052 0.00388428 7.42925 0.00367111 7.31798C0.00334019 7.0878 0.00334597 6.85763 0.00358542 6.62746C0.00384883 6.33289 0.00307556 6.03833 0.00204225 5.74376C0.00138119 5.51532 0.00134114 5.28688 0.00148147 5.05843C0.00145848 4.94972 0.00122388 4.84101 0.000770556 4.7323C0.000216288 4.58121 0.00051943 4.43015 0.00104066 4.27906C0.000697244 4.2347 0.000353825 4.19033 0 4.14462C0.00244499 3.82395 0.0461654 3.60554 0.262065 3.35643C0.449171 3.1967 0.584831 3.1569 0.829808 3.13793C0.884281 3.13331 0.938754 3.12868 0.994878 3.12392C1.05328 3.1191 1.11169 3.11429 1.17186 3.10932C3.92482 2.8618 6.32971 1.67847 8.56895 0.118411C8.78578 -0.0265778 9.02088 -0.0112173 9.27296 0.0233225ZM8.70978 1.82308C6.78309 3.22523 4.48523 4.11752 2.14396 4.50016C2.08123 4.5105 2.01851 4.52085 1.95579 4.53121C1.80401 4.55626 1.65221 4.58116 1.5004 4.60599C1.49829 5.14309 1.49671 5.68019 1.49574 6.21729C1.49528 6.46682 1.49465 6.71634 1.49362 6.96587C1.46555 8.78552 1.46555 8.78552 1.68853 10.587C1.70297 10.6588 1.70297 10.6588 1.71771 10.732C2.06804 12.4034 2.81543 14.0389 3.92651 15.3438C3.96696 15.3925 4.00738 15.4413 4.04778 15.49C4.50134 16.0328 4.98494 16.5261 5.54392 16.9612C5.58753 16.9966 5.63115 17.032 5.67608 17.0684C6.65562 17.8494 8.06171 18.7992 9.36281 18.6685C9.59716 18.617 9.81533 18.5347 10.0367 18.4438C10.0893 18.4229 10.0893 18.4229 10.1429 18.4015C11.0514 18.037 11.9109 17.6058 12.6875 17.0061C12.7124 16.987 12.7374 16.9678 12.7631 16.948C14.8035 15.3554 16.0625 12.994 16.4165 10.4466C16.5027 9.69251 16.5188 8.93998 16.5152 8.18181C16.515 8.07765 16.5149 7.97349 16.5148 7.86933C16.5144 7.59938 16.5136 7.32943 16.5126 7.05948C16.5116 6.78234 16.5112 6.5052 16.5108 6.22805C16.5098 5.68736 16.5083 5.14668 16.5064 4.60599C16.462 4.59862 16.4176 4.59125 16.3718 4.58365C16.204 4.55572 16.0362 4.52748 15.8685 4.49915C15.7964 4.48702 15.7244 4.47498 15.6523 4.46303C13.3542 4.0815 11.0645 3.1426 9.19397 1.74478C8.99315 1.62691 8.87774 1.69666 8.70978 1.82308Z" fill="#005CE8"/>
<path id="Vector_2" d="M12.8253 7.37761C13.0196 7.47747 13.1291 7.60376 13.227 7.79583C13.3031 8.06462 13.2604 8.27016 13.1372 8.51468C13.0036 8.68595 12.8506 8.83632 12.6958 8.98808C12.65 9.03397 12.6042 9.07992 12.5585 9.12593C12.4349 9.24998 12.3105 9.37319 12.1859 9.49624C12.0554 9.62537 11.9256 9.75524 11.7958 9.88502C11.5778 10.1027 11.3594 10.3198 11.1405 10.5366C10.8597 10.8148 10.5798 11.0938 10.3001 11.3731C10.0593 11.6135 9.81819 11.8535 9.57699 12.0935C9.49957 12.1705 9.4222 12.2476 9.34484 12.3247C9.22333 12.4458 9.10159 12.5666 8.97965 12.6873C8.93495 12.7316 8.89032 12.7759 8.84578 12.8204C8.78496 12.881 8.72385 12.9414 8.66272 13.0017C8.6286 13.0356 8.59449 13.0694 8.55934 13.1043C8.39237 13.2504 8.26399 13.2908 8.04343 13.2939C8.00231 13.2952 7.96119 13.2965 7.91882 13.2978C7.64017 13.2527 7.44272 13.0326 7.24934 12.84C7.21083 12.8022 7.21083 12.8022 7.17153 12.7636C7.08734 12.6807 7.00349 12.5975 6.9197 12.5142C6.89087 12.4856 6.86204 12.457 6.83234 12.4276C6.67987 12.2764 6.52767 12.1251 6.37568 11.9735C6.21918 11.8175 6.06186 11.6623 5.90433 11.5073C5.78281 11.3875 5.6619 11.267 5.54114 11.1464C5.48342 11.089 5.42548 11.0317 5.3673 10.9748C4.79795 10.4162 4.79795 10.4162 4.7356 10.0422C4.75567 9.75183 4.84245 9.57101 5.05009 9.36831C5.19088 9.28096 5.30373 9.26394 5.46849 9.26161C5.50908 9.26034 5.54968 9.25906 5.59151 9.25775C5.98219 9.31881 6.23781 9.6398 6.50166 9.90815C6.5455 9.95225 6.58937 9.99631 6.63327 10.0403C6.74798 10.1556 6.86228 10.2712 6.97649 10.3869C7.09341 10.5052 7.21072 10.6231 7.328 10.7411C7.5575 10.972 7.78656 11.2034 8.01535 11.435C8.25614 11.2342 8.47909 11.0217 8.69946 10.7988C8.735 10.763 8.77055 10.7273 8.80717 10.6904C8.88388 10.6133 8.96053 10.536 9.03714 10.4588C9.15845 10.3365 9.27994 10.2143 9.40149 10.0923C9.74689 9.74537 10.0921 9.39828 10.4369 9.05071C10.6481 8.83774 10.8597 8.62512 11.0716 8.41269C11.1521 8.33179 11.2325 8.25077 11.3128 8.16963C11.4249 8.05629 11.5375 7.94337 11.6501 7.83055C11.6996 7.78023 11.6996 7.78023 11.7501 7.72891C12.0599 7.42032 12.381 7.22839 12.8253 7.37761Z" fill="#005CE8"/>
</g>
</svg>
