<svg width="20" height="20" viewBox="0 0 20 20" fill="none" xmlns="http://www.w3.org/2000/svg">
<g id="Group 1171275274">
<path id="Vector" d="M11.7594 0.260147C11.8003 0.267899 11.8412 0.275651 11.8834 0.283638C13.6925 0.639321 15.3112 1.45014 16.6906 2.66562C16.7207 2.69194 16.7207 2.69194 16.7514 2.7188C18.3518 4.12351 19.4011 6.05092 19.8277 8.12803C19.8338 8.15731 19.8398 8.18659 19.8461 8.21676C19.961 8.81211 19.9931 9.40237 19.9906 10.0073C19.9905 10.0613 19.9905 10.0613 19.9903 10.1165C19.9884 10.6738 19.9668 11.2182 19.8578 11.7663C19.8502 11.8041 19.8427 11.842 19.835 11.8809C19.7457 12.3173 19.6396 12.7472 19.4969 13.1695C19.5234 13.1563 19.5499 13.143 19.5771 13.1294C19.7035 13.1184 19.7897 13.1155 19.9044 13.1723C20.0143 13.2878 19.9984 13.3775 19.9988 13.5348C19.9992 13.5781 19.9992 13.5781 19.9996 13.6223C20.0003 13.7181 19.9999 13.8138 19.9993 13.9096C19.9994 13.9765 19.9996 14.0434 19.9998 14.1103C20 14.2508 19.9997 14.3914 19.9989 14.5319C19.998 14.7107 19.9986 14.8894 19.9995 15.0682C20.0001 15.2066 19.9999 15.345 19.9995 15.4835C19.9994 15.5493 19.9995 15.6151 19.9999 15.6809C20.0049 16.8042 19.4176 17.6112 18.655 18.3813C17.2001 19.8218 17.2001 19.8218 16.6547 19.8763C16.4295 19.8553 16.269 19.7122 16.0892 19.5841C16.0601 19.5634 16.031 19.5428 16.0011 19.5215C15.6508 19.2714 15.306 19.0245 15.0031 18.7173C14.9319 18.6522 14.9319 18.6522 14.8519 18.6736C14.7635 18.703 14.6846 18.7387 14.6016 18.781C13.5114 19.325 12.3687 19.6808 11.158 19.8246C11.1297 19.8284 11.1015 19.8322 11.0724 19.8361C10.1514 19.9468 9.14042 19.9167 8.23134 19.7444C8.19035 19.7367 8.14936 19.7289 8.10713 19.721C6.28606 19.3629 4.57014 18.5419 3.21994 17.2588C3.16424 17.2101 3.1083 17.1616 3.05206 17.1135C2.73973 16.8405 2.47573 16.5407 2.21766 16.2164C2.18304 16.1743 2.14838 16.1322 2.11368 16.0902C1.36773 15.1772 0.829038 14.123 0.453654 13.0091C0.443073 12.9778 0.432491 12.9465 0.421589 12.9143C0.311986 12.5833 0.2323 12.2487 0.165499 11.9066C0.159282 11.8748 0.153064 11.843 0.146658 11.8102C0.0368701 11.2126 -0.00251446 10.624 0.000123318 10.0173C0.000196397 9.98225 0.000269476 9.94718 0.000344769 9.91105C0.00227532 9.35911 0.0272416 8.82146 0.132925 8.27838C0.139592 8.24284 0.146259 8.2073 0.153127 8.17069C0.317191 7.31832 0.593979 6.49229 0.974839 5.71254C0.996981 5.66679 0.996981 5.66679 1.01957 5.62011C2.15054 3.30838 4.24468 1.5225 6.66406 0.678001C7.17951 0.503704 7.69584 0.357431 8.23134 0.260147C8.26619 0.253642 8.30104 0.247137 8.33695 0.240434C9.43398 0.0452046 10.6652 0.0515963 11.7594 0.260147ZM8.3917 1.78361C8.35775 1.79049 8.32379 1.79737 8.28881 1.80446C6.70175 2.1314 5.24606 2.8821 4.08153 4.01092C4.02379 4.06685 3.96539 4.12211 3.90697 4.17733C3.62093 4.45366 3.37667 4.75281 3.13976 5.07108C3.10147 5.1224 3.10147 5.1224 3.0624 5.17476C2.16459 6.4201 1.54266 7.98957 1.52656 9.53718C1.52617 9.5686 1.52577 9.60003 1.52537 9.63241C1.50134 12.0476 2.28399 14.0967 3.94158 15.8556C3.96923 15.885 3.99688 15.9143 4.02537 15.9446C5.41863 17.3806 7.53624 18.2764 9.52772 18.3146C9.66189 18.3163 9.79602 18.3165 9.9302 18.3162C9.98286 18.3162 9.98286 18.3162 10.0366 18.3162C10.6234 18.3148 11.1856 18.2711 11.7594 18.1408C11.7929 18.1335 11.8264 18.1262 11.861 18.1187C12.5072 17.9752 13.1922 17.7584 13.7639 17.4192C13.7771 17.3927 13.7904 17.3662 13.804 17.339C13.7652 17.2671 13.7227 17.1973 13.6787 17.1285C13.3319 16.5514 13.2764 16.0164 13.2775 15.3612C13.2775 15.3017 13.2774 15.2422 13.2774 15.1828C13.2773 15.0587 13.2774 14.9347 13.2776 14.8107C13.2778 14.6517 13.2777 14.4927 13.2775 14.3337C13.2773 14.2112 13.2774 14.0886 13.2775 13.9661C13.2775 13.9074 13.2774 13.8488 13.2774 13.7901C13.2773 13.7084 13.2774 13.6267 13.2776 13.5449C13.2777 13.4752 13.2777 13.4752 13.2777 13.404C13.2828 13.2898 13.2828 13.2898 13.3229 13.1695C13.5066 13.1296 13.6772 13.129 13.8636 13.1341C14.8194 13.158 15.6851 12.8699 16.3874 12.2023C16.4097 12.179 16.4319 12.1558 16.4549 12.1318C16.5302 12.087 16.5302 12.087 16.6483 12.0899C16.7893 12.1328 16.8465 12.1826 16.9487 12.2875C17.1174 12.448 17.2905 12.5705 17.4899 12.6884C17.516 12.7039 17.5421 12.7193 17.569 12.7352C17.676 12.7972 17.7757 12.8496 17.8933 12.8889C18.6822 11.1347 18.5974 8.93639 17.9459 7.15582C17.7024 6.52378 17.4042 5.90439 17.0113 5.35172C16.9826 5.31131 16.9538 5.27089 16.9242 5.22926C16.3895 4.49926 15.779 3.84146 15.0468 3.30707C15.0045 3.27586 14.9621 3.24464 14.9184 3.21248C14.5879 2.97641 14.2416 2.77733 13.8842 2.58543C13.8176 2.54892 13.8176 2.54892 13.7497 2.51167C13.1665 2.20442 12.5453 1.99824 11.9047 1.84876C11.8638 1.83919 11.8229 1.82963 11.7808 1.81978C11.1896 1.68916 10.6111 1.64806 10.0079 1.65081C9.95779 1.65092 9.95779 1.65092 9.90669 1.65103C9.39296 1.65292 8.89563 1.67654 8.3917 1.78361ZM16.3247 12.8488C15.7045 13.3281 14.9959 13.5535 14.2234 13.636C14.1512 13.644 14.1512 13.644 14.0775 13.6522C13.9596 13.6652 13.8417 13.6781 13.7238 13.6907C13.7191 14.0155 13.7156 14.3404 13.7134 14.6652C13.7124 14.8161 13.711 14.967 13.7087 15.1179C13.7065 15.264 13.7053 15.4101 13.7048 15.5562C13.7044 15.6115 13.7037 15.6667 13.7026 15.722C13.688 16.4931 14.0037 17.0556 14.52 17.6079C14.5959 17.6891 14.6674 17.7724 14.7386 17.8577C15.0666 18.2323 15.4587 18.5451 15.8539 18.8453C15.9335 18.9061 16.0123 18.9679 16.0911 19.0297C16.1447 19.0709 16.1984 19.112 16.2521 19.1531C16.2769 19.1728 16.3017 19.1924 16.3273 19.2127C16.429 19.2892 16.5017 19.3426 16.6311 19.3468C16.7663 19.2879 16.8812 19.2082 16.9988 19.1205C17.0235 19.1024 17.0482 19.0844 17.0737 19.0657C17.3963 18.8281 17.7033 18.5773 17.999 18.3068C18.0817 18.2319 18.1661 18.1599 18.2516 18.0882C18.8167 17.594 19.3137 16.9547 19.4969 16.2164C19.5037 16.1045 19.5037 16.1045 19.4969 16.016C19.4705 16.016 19.444 16.016 19.4168 16.016C19.4168 15.2486 19.4168 14.4813 19.4168 13.6907C19.0728 13.651 18.7288 13.6113 18.3744 13.5704C18.1236 13.4997 17.8903 13.4309 17.6528 13.3299C17.6147 13.3137 17.6147 13.3137 17.5758 13.2973C17.2521 13.156 16.9776 12.9768 16.7037 12.7575C16.5319 12.6303 16.4756 12.7271 16.3247 12.8488Z" fill="#005CE8"/>
<path id="Vector_2" d="M14.2575 6.66721C14.478 6.73823 14.5348 6.88132 14.6458 7.07564C14.6797 7.12673 14.6797 7.12673 14.7143 7.17884C14.8107 7.32628 14.8802 7.45371 14.9265 7.62439C14.8591 7.84768 14.6779 7.92421 14.4855 8.03783C14.4283 8.0723 14.3712 8.10681 14.3141 8.14134C14.2148 8.20122 14.1153 8.26089 14.0156 8.32018C13.7473 8.47974 13.482 8.64359 13.2176 8.80958C12.8263 9.05521 12.4335 9.29821 12.0396 9.53956C11.9989 9.56451 11.9582 9.58946 11.9163 9.61516C11.8771 9.63925 11.8378 9.66333 11.7974 9.68814C11.6385 9.787 11.4817 9.88897 11.3252 9.99157C11.2381 10.0424 11.2381 10.0424 11.1579 10.0424C11.1563 10.0879 11.1546 10.1333 11.1529 10.1802C11.1156 10.4685 10.9404 10.6854 10.7169 10.8617C10.4573 11.0516 10.2289 11.0475 9.91994 11.0162C9.7794 11.0482 9.76992 11.0584 9.69615 11.1731C9.66129 11.2367 9.62747 11.3009 9.59435 11.3654C9.57318 11.4041 9.55201 11.4429 9.53019 11.4828C9.46931 11.5945 9.4093 11.7065 9.34976 11.8189C9.28333 11.9442 9.21651 12.0693 9.14975 12.1945C9.13637 12.2196 9.12299 12.2447 9.1092 12.2705C8.98996 12.4941 8.86905 12.7167 8.74743 12.939C8.58134 13.2426 8.41601 13.5467 8.2513 13.851C8.20792 13.9311 8.16454 14.0111 8.12116 14.0911C8.0326 14.2545 7.94445 14.4182 7.85649 14.5819C7.81354 14.6615 7.77057 14.7411 7.72761 14.8207C7.70802 14.8574 7.68843 14.8941 7.66825 14.9319C7.43346 15.3657 7.43346 15.3657 7.27157 15.4597C7.18888 15.4547 7.18888 15.4547 7.07613 15.372C6.98843 15.2542 6.98843 15.2542 6.99677 15.1391C7.02782 15.0164 7.06683 14.9238 7.12812 14.8135C7.14882 14.7759 7.16952 14.7382 7.19085 14.6994C7.21335 14.6592 7.23586 14.6191 7.25904 14.5777C7.30682 14.491 7.35458 14.4044 7.40234 14.3177C7.42685 14.2735 7.45137 14.2293 7.47663 14.1838C7.5901 13.9784 7.70137 13.7719 7.8128 13.5654C7.97844 13.2594 8.14469 12.9537 8.31144 12.6483C8.39164 12.5013 8.47182 12.3543 8.55198 12.2073C8.57435 12.1663 8.59671 12.1253 8.61975 12.0831C8.68913 11.9558 8.75838 11.8285 8.82761 11.7012C8.84859 11.6627 8.86957 11.6243 8.89119 11.5846C9.03811 11.314 9.17754 11.0402 9.31371 10.764C9.28865 10.7332 9.26358 10.7023 9.23776 10.6705C9.0481 10.4302 9.01007 10.2202 8.99298 9.92211C8.9642 9.91144 8.93542 9.90077 8.90576 9.88978C8.7905 9.84107 8.69054 9.78391 8.5844 9.71774C8.5438 9.69257 8.50321 9.6674 8.46139 9.64147C8.41769 9.61419 8.37399 9.5869 8.32898 9.55879C8.23459 9.50019 8.14013 9.44171 8.04567 9.38323C8.02135 9.36815 7.99703 9.35307 7.97197 9.33753C7.73514 9.19082 7.49705 9.04623 7.25873 8.90198C6.88065 8.6731 6.50305 8.44344 6.12644 8.21215C6.06114 8.17206 5.99581 8.13204 5.93048 8.09201C5.27848 7.69098 5.27848 7.69098 5.18433 7.59683C5.19755 7.37585 5.26466 7.22201 5.38478 7.04056C5.39956 7.0173 5.41434 6.99405 5.42957 6.97009C5.53545 6.8047 5.53545 6.8047 5.58524 6.75491C5.88747 6.70197 6.08947 6.87385 6.33444 7.03304C6.38041 7.06224 6.42643 7.09137 6.47249 7.12043C6.54457 7.16592 6.61661 7.21147 6.68851 7.25724C6.92336 7.40675 7.16117 7.55116 7.39956 7.69493C7.51654 7.76551 7.63336 7.83635 7.75016 7.90722C7.77325 7.92123 7.79635 7.93524 7.82015 7.94968C7.98595 8.0504 8.15131 8.15182 8.31645 8.25363C8.3514 8.27518 8.3514 8.27518 8.38706 8.29716C8.49722 8.36511 8.60732 8.43315 8.71736 8.5013C8.79631 8.55008 8.87545 8.59858 8.95477 8.64675C9.03777 8.69766 9.11998 8.74985 9.20158 8.80297C9.26453 8.84268 9.26453 8.84268 9.32875 8.88319C9.36627 8.9075 9.40379 8.9318 9.44244 8.95685C9.59038 9.01396 9.64948 8.97601 9.79481 8.91983C9.93231 8.912 9.93231 8.912 10.0704 8.91482C10.1166 8.91554 10.1628 8.91627 10.2104 8.91701C10.2627 8.91841 10.2627 8.91841 10.316 8.91983C10.3312 8.8901 10.3463 8.86037 10.3619 8.82974C10.4185 8.71913 10.4752 8.60864 10.5321 8.49822C10.5686 8.42703 10.605 8.35572 10.6413 8.2844C10.6645 8.23957 10.6876 8.19474 10.7114 8.14855C10.7326 8.10719 10.7538 8.06583 10.7757 8.02321C10.8304 7.92926 10.8709 7.86223 10.9575 7.79728C11.1053 7.78976 11.1053 7.78976 11.2381 7.79728C11.3007 7.89311 11.3185 7.94989 11.3158 8.06539C11.2809 8.18851 11.2384 8.27654 11.1756 8.3869C11.1482 8.43534 11.1482 8.43534 11.1203 8.48475C11.0992 8.52151 11.0992 8.52151 11.0777 8.55901C11.0978 8.54658 11.1178 8.53415 11.1385 8.52135C11.568 8.25509 11.9979 7.98942 12.4283 7.72462C12.4928 7.68492 12.4928 7.68492 12.5587 7.64441C12.7664 7.51662 12.9742 7.38887 13.182 7.26116C13.2784 7.20191 13.3748 7.14264 13.4712 7.08337C13.5395 7.04137 13.6078 6.9994 13.6762 6.95743C13.7174 6.93205 13.7587 6.90666 13.8013 6.88051C13.8377 6.85814 13.8741 6.83577 13.9116 6.81272C14.1339 6.6742 14.1339 6.6742 14.2575 6.66721ZM9.45654 9.64899C9.36944 9.80577 9.34121 9.94348 9.35381 10.1226C9.40574 10.2874 9.49352 10.385 9.62191 10.4984C9.81489 10.5931 9.99342 10.6403 10.2043 10.577C10.3762 10.4983 10.5 10.4091 10.5966 10.2428C10.6486 10.0706 10.6468 9.95832 10.5741 9.79683C10.4716 9.61733 10.3553 9.47869 10.1514 9.41439C9.86429 9.36399 9.6682 9.45904 9.45654 9.64899Z" fill="#005CE8"/>
<path id="Vector_3" d="M17.8532 14.7331C17.9535 14.8007 17.9535 14.8007 18.0136 14.8934C18.002 15.0715 17.9343 15.1538 17.8115 15.2786C17.7771 15.3139 17.7427 15.3492 17.7072 15.3855C17.6694 15.4235 17.6315 15.4614 17.5936 15.4993C17.5547 15.5386 17.5159 15.5778 17.4771 15.6171C17.3958 15.6992 17.3141 15.781 17.2322 15.8627C17.1275 15.9671 17.0239 16.0725 16.9205 16.1783C16.8406 16.2596 16.7601 16.3403 16.6794 16.4208C16.6409 16.4594 16.6027 16.4983 16.5646 16.5373C16.2616 16.8476 16.2616 16.8476 16.0527 16.8887C15.9269 16.8574 15.8702 16.8345 15.7801 16.7436C15.7437 16.7072 15.7437 16.7072 15.7066 16.6701C15.6703 16.6316 15.6703 16.6316 15.6332 16.5923C15.608 16.5675 15.5829 16.5428 15.5569 16.5173C15.4442 16.4016 15.3754 16.3211 15.3259 16.1654C15.3275 16.0561 15.3275 16.0561 15.4077 15.9358C15.533 15.9082 15.533 15.9082 15.6883 15.9358C15.8082 16.0318 15.9091 16.1402 16.009 16.2565C16.2147 16.0853 16.4027 15.9048 16.5879 15.7118C16.6441 15.6541 16.7004 15.5964 16.7567 15.5388C16.8444 15.4488 16.9319 15.3587 17.0187 15.268C17.1033 15.1797 17.1888 15.0924 17.2744 15.0052C17.3002 14.9779 17.3259 14.9506 17.3524 14.9225C17.515 14.7589 17.6114 14.6929 17.8532 14.7331Z" fill="#005CE8"/>
</g>
</svg>
