<svg width="14" height="16" viewBox="0 0 14 16" fill="none" xmlns="http://www.w3.org/2000/svg">
<g id="Group">
<path id="Vector" fill-rule="evenodd" clip-rule="evenodd" d="M12.6 2.39997V3.35141C12.6 5.35845 11.2694 7.12245 9.33969 7.67405L8.68 7.86221V8.13773L9.33969 8.32589C11.2694 8.87749 12.6 10.6415 12.6 12.6485V13.6H1.4V12.6485C1.4 10.6415 2.73055 8.87749 4.66032 8.32589L5.32 8.13773V7.86221L4.66032 7.67405C2.73055 7.12245 1.4 5.35845 1.4 3.35141V2.39997H12.6ZM0.56 1.27997C0.25088 1.27997 0 1.02909 0 0.719973C0 0.410853 0.25088 0.159973 0.56 0.159973H13.44C13.7491 0.159973 14 0.410853 14 0.719973C14 1.02909 13.7491 1.27997 13.44 1.27997H0.56ZM0.56 15.84C0.25088 15.84 0 15.5891 0 15.28C0 14.9709 0.25088 14.72 0.56 14.72H13.44C13.7491 14.72 14 14.9709 14 15.28C14 15.5891 13.7491 15.84 13.44 15.84H0.56Z" fill="#888888"/>
</g>
</svg>
