<svg width="12" height="16" viewBox="0 0 12 16" fill="none" xmlns="http://www.w3.org/2000/svg">
<path id="Vector" d="M10.6387 0.048275H1.41135C0.65985 0.048275 0 0.6665 0 1.39827V15.0483C0 15.2932 0.068175 15.4974 0.17805 15.6551C0.30945 15.8436 0.521025 15.9517 0.7479 15.9517C0.9624 15.9517 1.19077 15.8562 1.40167 15.676L5.52998 12.1709C5.65748 12.062 5.84062 11.9996 6.03105 11.9996C6.2214 11.9996 6.40417 12.062 6.53205 12.1712L10.6465 15.6755C10.8582 15.8562 11.0708 15.9517 11.285 15.9517C11.6471 15.9517 12 15.6724 12 15.0484V1.39827C12 0.6665 11.3902 0.048275 10.6387 0.048275Z" fill="white"/>
</svg>
