<svg width="17" height="22" viewBox="0 0 17 22" fill="none" xmlns="http://www.w3.org/2000/svg">
<path id="Vector" d="M14.2844 0H2.21759C1.15415 0 0.250977 0.857693 0.250977 1.96661V19.8093C0.254106 21.2168 1.97325 21.8773 2.95061 20.8893L7.55013 16.291C7.91872 15.9065 8.58323 15.9065 8.95183 16.291L13.5513 20.8893C14.5291 21.8776 16.2481 21.2162 16.251 19.8093V1.96661C16.251 0.857693 15.3478 0 14.2844 0ZM14.9992 19.8094C14.9977 20.1074 14.6273 20.2057 14.4356 20.0034C13.5161 19.0825 10.8939 16.4611 9.83777 15.4068C9.0069 14.5378 7.4963 14.5376 6.66581 15.4051C5.93622 16.1334 4.50806 17.5611 3.38225 18.6866L2.07251 19.9957C1.88379 20.196 1.50873 20.1291 1.50268 19.8207V1.96661C1.50268 1.5668 1.82675 1.25174 2.21759 1.25174H14.2843C14.6746 1.25174 14.9992 1.5663 14.9992 1.96661V19.8094Z" fill="black"/>
</svg>
