<svg width="22" height="25" viewBox="0 0 22 25" fill="none" xmlns="http://www.w3.org/2000/svg">
<g id="Group 1171275232">
<path id="Vector" d="M11.1531 18.8745C11.1531 18.5828 11.1814 18.2979 11.2217 18.0165H9.43724C8.96366 18.0165 8.57931 17.6331 8.57931 17.1586C8.57931 16.6842 8.96366 16.3007 9.43724 16.3007H11.7408C12.7068 14.2751 14.7693 12.869 17.1586 12.869C17.7549 12.869 18.3305 12.959 18.8745 13.1221V4.28965C18.8745 1.92434 16.9501 0 14.5848 0H4.28965C1.92434 0 0 1.92434 0 4.28965V18.0165C0 20.3819 1.92434 22.3062 4.28965 22.3062H11.9836C11.4825 21.3161 11.1531 20.1708 11.1531 18.8745ZM9.43724 4.28965H15.4428C15.9163 4.28965 16.3007 4.67401 16.3007 5.14758C16.3007 5.62116 15.9163 6.00552 15.4428 6.00552H9.43724C8.96366 6.00552 8.57931 5.62116 8.57931 5.14758C8.57931 4.67401 8.96366 4.28965 9.43724 4.28965ZM9.43724 10.2952H15.4428C15.9163 10.2952 16.3007 10.6795 16.3007 11.1531C16.3007 11.6267 15.9163 12.011 15.4428 12.011H9.43724C8.96366 12.011 8.57931 11.6267 8.57931 11.1531C8.57931 10.6795 8.96366 10.2952 9.43724 10.2952ZM7.47429 16.474L5.1493 18.8333C4.98801 18.9963 4.76752 19.089 4.53845 19.089H4.5213C4.28536 19.0838 4.0623 18.9826 3.90359 18.8084L2.79685 17.5919C2.4777 17.2418 2.50344 16.6988 2.85434 16.3796C3.20523 16.0613 3.7483 16.0871 4.06659 16.4371L4.56333 16.9836L6.2526 15.2695C6.58548 14.9323 7.12855 14.928 7.46657 15.2609C7.80374 15.5938 7.80803 16.1368 7.47515 16.474H7.47429ZM7.47429 10.4685L5.1493 12.8278C4.98801 12.9908 4.76752 13.0834 4.53845 13.0834H4.5213C4.28622 13.0783 4.0623 12.9771 3.90359 12.8029L2.79685 11.5872C2.4777 11.2372 2.50344 10.6941 2.85434 10.375C3.20523 10.0549 3.7483 10.0824 4.06659 10.4324L4.56333 10.9781L6.2526 9.26394C6.58548 8.92677 7.12855 8.92334 7.46657 9.25536C7.80374 9.58823 7.80803 10.1313 7.47515 10.4693L7.47429 10.4685ZM7.47429 4.46296L5.1493 6.82227C4.98801 6.98613 4.76752 7.07793 4.53845 7.07793H4.5213C4.28622 7.07278 4.0623 6.97155 3.90359 6.79739L2.79685 5.5817C2.4777 5.23166 2.50344 4.68859 2.85434 4.36944C3.20523 4.05029 3.7483 4.07689 4.06659 4.42692L4.56333 4.97257L6.2526 3.25842C6.58548 2.92211 7.12855 2.91697 7.46657 3.24984C7.80374 3.58272 7.80803 4.12579 7.47515 4.46381L7.47429 4.46296Z" fill="#888888"/>
<path id="Vector_2" d="M17.1588 14.5848C14.7935 14.5848 12.8691 16.5092 12.8691 18.8745C12.8691 22.7909 16.6157 24.7101 16.7753 24.7899C16.8963 24.85 17.0275 24.88 17.1588 24.88C17.2901 24.88 17.4222 24.85 17.5423 24.7899C17.7019 24.7101 21.4484 22.7918 21.4484 18.8745C21.4484 16.5092 19.5241 14.5848 17.1588 14.5848ZM17.1588 20.5904C16.2108 20.5904 15.4429 19.8225 15.4429 18.8745C15.4429 17.9265 16.2108 17.1586 17.1588 17.1586C18.1068 17.1586 18.8747 17.9265 18.8747 18.8745C18.8747 19.8225 18.1068 20.5904 17.1588 20.5904Z" fill="#888888"/>
</g>
</svg>
