<svg width="12" height="16" viewBox="0 0 12 16" fill="none" xmlns="http://www.w3.org/2000/svg">
<g id="share">
<path id="Vector" d="M10.288 4.67558H8.7308C8.41586 4.67558 8.16026 4.93081 8.16026 5.24612C8.16026 5.56144 8.41586 5.81667 8.7308 5.81667H10.2884C10.6029 5.81667 10.8589 6.07265 10.8589 6.38721V13.8484C10.8589 14.1629 10.6029 14.4189 10.2884 14.4189H1.71162C1.39706 14.4189 1.14108 14.1629 1.14108 13.8484V6.38721C1.14108 6.07265 1.39706 5.81667 1.71162 5.81667H3.2692C3.58452 5.81667 3.83974 5.56144 3.83974 5.24612C3.83974 4.93081 3.58452 4.67558 3.2692 4.67558H1.71162C0.767948 4.67558 0 5.44353 0 6.38721V13.8484C0 14.792 0.767948 15.56 1.71162 15.56H10.2884C11.2321 15.56 12 14.792 12 13.8484V6.38721C11.9996 5.44315 11.2321 4.67558 10.288 4.67558ZM3.87245 3.52385L5.44829 1.94802V9.45938C5.44829 9.77432 5.70351 10.0299 6.01883 10.0299C6.33415 10.0299 6.58937 9.77432 6.58937 9.45938V1.94802L8.1652 3.52385C8.27665 3.6353 8.42271 3.69083 8.56877 3.69083C8.71482 3.69083 8.86088 3.6353 8.97233 3.52385C9.19522 3.30134 9.19522 2.93962 8.97233 2.71711L6.42277 0.167169C6.1995 -0.0557228 5.83854 -0.0557228 5.61565 0.167169L3.06571 2.71711C2.84282 2.93962 2.84282 3.30134 3.06571 3.52385C3.2886 3.74674 3.64956 3.74674 3.87245 3.52385Z" fill="black"/>
</g>
</svg>
