<svg width="10" height="14" viewBox="0 0 10 14" fill="none" xmlns="http://www.w3.org/2000/svg">
<g id="Group 1171275267">
<path id="Vector" d="M1.55253 0.191085C1.59867 0.190923 1.6448 0.190726 1.69094 0.190496C1.81552 0.18999 1.9401 0.190021 2.06469 0.190183C2.16899 0.190271 2.2733 0.190098 2.3776 0.189927C2.6238 0.18953 2.87 0.189573 3.1162 0.189896C3.36956 0.190221 3.62291 0.189822 3.87627 0.189063C4.09441 0.188434 4.31256 0.188248 4.5307 0.188414C4.66072 0.188509 4.79074 0.188443 4.92075 0.187954C5.04306 0.187514 5.16536 0.18763 5.28766 0.188161C5.33234 0.188264 5.37701 0.188179 5.42168 0.187881C5.67773 0.186304 5.89954 0.200951 6.13253 0.315819C6.15573 0.327099 6.17892 0.338378 6.20283 0.35C6.41519 0.465401 6.57824 0.632199 6.7468 0.80214C6.77891 0.834097 6.81105 0.86603 6.8432 0.897941C6.92983 0.984056 7.0161 1.07052 7.10229 1.15707C7.19291 1.24798 7.28381 1.33861 7.37466 1.42929C7.52713 1.58155 7.67936 1.73405 7.83146 1.88669C8.00684 2.06268 8.18262 2.23826 8.35861 2.41364C8.51022 2.56473 8.6616 2.71604 8.8128 2.86754C8.90289 2.95779 8.99304 3.04798 9.0834 3.13796C9.16837 3.2226 9.25306 3.30752 9.33754 3.39266C9.36843 3.42369 9.39941 3.45463 9.4305 3.48547C9.75599 3.80857 9.99479 4.14974 9.99953 4.62323C9.99928 4.6546 9.99902 4.68597 9.99876 4.71829C9.99903 4.76951 9.99903 4.76951 9.9993 4.82176C9.99967 4.91567 9.99954 5.00956 9.99919 5.10347C9.99893 5.20508 9.99933 5.30669 9.99964 5.4083C10.0001 5.60702 10 5.80574 9.99971 6.00446C9.99945 6.16606 9.99942 6.32766 9.99954 6.48926C9.99956 6.51231 9.99957 6.53535 9.99959 6.5591C9.99963 6.60593 9.99966 6.65276 9.9997 6.69959C10 7.13818 9.99965 7.57677 9.99904 8.01536C9.99854 8.39118 9.99863 8.767 9.99915 9.14282C9.99975 9.57986 9.99999 10.0169 9.99965 10.4539C9.99961 10.5006 9.99957 10.5473 9.99954 10.5939C9.99951 10.6283 9.99951 10.6283 9.99949 10.6635C9.99939 10.8247 9.99955 10.986 9.99982 11.1473C10.0001 11.344 10 11.5407 9.99945 11.7375C9.99915 11.8377 9.99903 11.938 9.99941 12.0382C9.99981 12.1472 9.99933 12.2561 9.99876 12.3651C9.99914 12.412 9.99914 12.412 9.99953 12.4599C9.99556 12.8576 9.84666 13.1619 9.57901 13.4503C9.2925 13.7215 8.96532 13.8105 8.57959 13.8083C8.54767 13.8084 8.51575 13.8086 8.48285 13.8087C8.3765 13.8091 8.27015 13.8089 8.16379 13.8087C8.08729 13.8089 8.01078 13.8091 7.93428 13.8093C7.74841 13.8098 7.56254 13.8098 7.37667 13.8097C7.22551 13.8096 7.07435 13.8096 6.92319 13.8098C6.90163 13.8098 6.88007 13.8098 6.85786 13.8098C6.81405 13.8099 6.77025 13.8099 6.72645 13.81C6.31615 13.8103 5.90586 13.8102 5.49557 13.8099C5.12073 13.8096 4.74589 13.81 4.37105 13.8106C3.98558 13.8113 3.6001 13.8116 3.21463 13.8114C2.99845 13.8113 2.78227 13.8114 2.56609 13.8119C2.38206 13.8123 2.19803 13.8123 2.014 13.8118C1.92022 13.8116 1.82646 13.8116 1.73268 13.8119C1.63074 13.8123 1.52881 13.812 1.42687 13.8115C1.39763 13.8118 1.3684 13.812 1.33828 13.8123C0.947552 13.8084 0.644569 13.6542 0.361837 13.3919C0.0474837 13.0598 0.00211278 12.6938 0.00390748 12.2549C0.00378916 12.2077 0.00363398 12.1605 0.00344527 12.1133C0.00303685 11.9841 0.00315577 11.8549 0.003365 11.7258C0.00349919 11.5863 0.00314457 11.4468 0.00285472 11.3073C0.0023681 11.0341 0.00234409 10.761 0.00249257 10.4879C0.00260711 10.2659 0.00256611 10.0439 0.00241478 9.82187C0.00239358 9.79025 0.00237233 9.75863 0.00235049 9.72605C0.00230712 9.66181 0.00226352 9.59757 0.00221976 9.53333C0.0018311 8.93114 0.001985 8.32894 0.00230998 7.72674C0.00259127 7.17608 0.00222485 6.62542 0.0015472 6.07476C0.000856276 5.50903 0.000584293 4.94331 0.000772654 4.37758C0.000871537 4.06009 0.000808407 3.74261 0.000312289 3.42512C-0.000104815 3.15485 -0.000122471 2.88458 0.000370955 2.6143C0.000611929 2.47648 0.00067302 2.33866 0.000239253 2.20083C-0.000153358 2.07452 -1.74856e-05 1.94821 0.000529236 1.8219C0.000635604 1.77635 0.0005534 1.7308 0.00025708 1.68525C-0.00250421 1.22808 0.104771 0.889513 0.420252 0.549479C0.750779 0.236659 1.11549 0.189695 1.55253 0.191085ZM1.03626 1.2717C0.93809 1.4264 0.914133 1.57443 0.913997 1.75554C0.913907 1.77405 0.913816 1.79257 0.913722 1.81165C0.913488 1.87344 0.913655 1.93522 0.913821 1.99702C0.913736 2.04187 0.913625 2.08672 0.913493 2.13157C0.913202 2.25463 0.913264 2.37769 0.913385 2.50075C0.913455 2.63354 0.913199 2.76634 0.912987 2.89913C0.912626 3.15921 0.912575 3.41929 0.912642 3.67938C0.912692 3.89078 0.912643 4.10217 0.912522 4.31357C0.912505 4.34366 0.912488 4.37374 0.912471 4.40474C0.912437 4.46585 0.912402 4.52697 0.912368 4.58808C0.91206 5.16126 0.912121 5.73444 0.912294 6.30763C0.91244 6.83198 0.912121 7.35632 0.911583 7.88067C0.911034 8.4191 0.9108 8.95752 0.910907 9.49594C0.910961 9.79822 0.91089 10.1005 0.91049 10.4028C0.910153 10.6601 0.910113 10.9174 0.910456 11.1748C0.910623 11.306 0.910653 11.4373 0.910314 11.5686C0.910007 11.6888 0.910094 11.809 0.910491 11.9293C0.910566 11.9727 0.910499 12.0161 0.910272 12.0596C0.899464 12.4187 0.899464 12.4187 1.04228 12.7372C1.22237 12.904 1.44163 12.8993 1.67175 12.8984C1.71614 12.8985 1.71614 12.8985 1.76144 12.8987C1.86043 12.899 1.95941 12.8989 2.0584 12.8988C2.12945 12.8989 2.2005 12.899 2.27155 12.8992C2.4444 12.8995 2.61724 12.8996 2.79009 12.8995C2.93063 12.8995 3.07117 12.8995 3.2117 12.8997C3.24174 12.8997 3.24174 12.8997 3.27238 12.8997C3.31306 12.8997 3.35374 12.8998 3.39442 12.8998C3.77569 12.9001 4.15697 12.9001 4.53825 12.8999C4.88678 12.8997 5.2353 12.9001 5.58383 12.9006C5.942 12.9011 6.30018 12.9014 6.65835 12.9013C6.85931 12.9012 7.06028 12.9013 7.26124 12.9017C7.45024 12.9021 7.63923 12.902 7.82823 12.9016C7.89754 12.9016 7.96686 12.9016 8.03617 12.9019C8.13089 12.9022 8.2256 12.9019 8.32032 12.9016C8.34766 12.9018 8.37499 12.902 8.40315 12.9022C8.58337 12.9008 8.77874 12.887 8.92485 12.7699C9.09541 12.5831 9.0863 12.3572 9.08544 12.12C9.08555 12.0882 9.08566 12.0564 9.08577 12.0237C9.08606 11.9172 9.08595 11.8108 9.08584 11.7044C9.08596 11.628 9.08611 11.5517 9.08628 11.4753C9.08664 11.2895 9.08669 11.1037 9.08662 10.9179C9.08657 10.7669 9.08662 10.6158 9.08674 10.4648C9.08677 10.4325 9.08677 10.4325 9.08679 10.3996C9.08683 10.3559 9.08686 10.3121 9.0869 10.2684C9.08721 9.85867 9.08714 9.4489 9.08697 9.03914C9.08683 8.66451 9.08714 8.28989 9.08768 7.91526C9.08823 7.53033 9.08847 7.1454 9.08836 6.76048C9.08831 6.54447 9.08838 6.32847 9.08878 6.11247C9.08911 5.92858 9.08915 5.74469 9.08881 5.5608C9.08864 5.46703 9.08866 5.37328 9.08895 5.27952C9.08925 5.17772 9.08902 5.07595 9.08866 4.97416C9.08887 4.94473 9.08908 4.9153 9.08929 4.88498C9.08739 4.62882 9.04905 4.42913 8.86309 4.24266C8.85013 4.22944 8.83717 4.21621 8.82381 4.20258C8.78083 4.15893 8.73728 4.11591 8.6937 4.07287C8.66254 4.04147 8.63141 4.01004 8.60031 3.97858C8.51614 3.89363 8.43144 3.80923 8.34661 3.72494C8.25768 3.63644 8.16917 3.54753 8.0806 3.45869C7.93181 3.30959 7.78266 3.16085 7.63331 3.01231C7.46093 2.84085 7.28917 2.66879 7.11771 2.4964C6.97019 2.34811 6.82234 2.20015 6.67421 2.05246C6.58587 1.96439 6.49765 1.8762 6.40972 1.78771C6.32702 1.70452 6.24391 1.62175 6.16047 1.53929C6.13001 1.50906 6.09969 1.47868 6.06954 1.44815C5.80307 1.17866 5.62432 1.09993 5.24466 1.09733C5.20667 1.0975 5.16867 1.09767 5.13068 1.09785C5.09004 1.09774 5.0494 1.09759 5.00875 1.0974C4.89903 1.09702 4.78932 1.09716 4.6796 1.09743C4.56439 1.09765 4.44918 1.09745 4.33398 1.09732C4.14056 1.09716 3.94715 1.09736 3.75374 1.09777C3.53061 1.09823 3.30748 1.09808 3.08436 1.09761C2.89226 1.09723 2.70017 1.09717 2.50807 1.0974C2.39357 1.09753 2.27907 1.09755 2.16457 1.09727C2.05688 1.09702 1.94921 1.09719 1.84152 1.09768C1.80217 1.09779 1.76282 1.09776 1.72346 1.09757C1.34805 1.08951 1.34805 1.08951 1.03626 1.2717Z" fill="#005CE8"/>
<path id="Vector_2" d="M3.13418 6.53916C3.16832 6.53892 3.20246 6.53868 3.23764 6.53843C3.27472 6.53846 3.3118 6.53848 3.35 6.53851C3.38975 6.53834 3.4295 6.53815 3.46924 6.53793C3.57692 6.53743 3.6846 6.5373 3.79228 6.53726C3.85966 6.53722 3.92704 6.5371 3.99442 6.53695C4.22981 6.53643 4.46519 6.5362 4.70057 6.53624C4.91947 6.53628 5.13836 6.53568 5.35726 6.53478C5.5456 6.53404 5.73394 6.53374 5.92228 6.53377C6.03459 6.53379 6.14688 6.53363 6.25919 6.53303C6.36492 6.53248 6.47064 6.53248 6.57637 6.53289C6.63327 6.53297 6.69018 6.5325 6.74708 6.53201C7.02949 6.53396 7.26622 6.58453 7.47736 6.78173C7.6382 6.96062 7.72578 7.15766 7.72656 7.39984C7.72692 7.45105 7.72692 7.45105 7.72729 7.5033C7.72725 7.55892 7.72725 7.55892 7.72722 7.61566C7.72738 7.65541 7.72758 7.69515 7.72779 7.7349C7.72829 7.84258 7.72843 7.95025 7.72846 8.05793C7.7285 8.12531 7.72862 8.19269 7.72877 8.26008C7.7293 8.49546 7.72953 8.73084 7.72948 8.96623C7.72945 9.18513 7.73005 9.40402 7.73094 9.62291C7.73168 9.81125 7.73199 9.99959 7.73195 10.1879C7.73194 10.3002 7.73209 10.4125 7.7327 10.5248C7.73325 10.6306 7.73325 10.7363 7.73284 10.842C7.73275 10.8989 7.73322 10.9558 7.73371 11.0127C7.73176 11.2951 7.6812 11.5319 7.484 11.743C7.3051 11.9039 7.10806 11.9914 6.86589 11.9922C6.81467 11.9926 6.81467 11.9926 6.76243 11.9929C6.72535 11.9929 6.68827 11.9929 6.65006 11.9929C6.61032 11.993 6.57057 11.9932 6.53082 11.9934C6.42315 11.9939 6.31547 11.9941 6.20779 11.9941C6.14041 11.9942 6.07303 11.9943 6.00565 11.9944C5.77026 11.995 5.53488 11.9952 5.29949 11.9951C5.0806 11.9951 4.86171 11.9957 4.64281 11.9966C4.45447 11.9973 4.26613 11.9976 4.07779 11.9976C3.96548 11.9976 3.85318 11.9977 3.74088 11.9984C3.63515 11.9989 3.52943 11.9989 3.4237 11.9985C3.3668 11.9984 3.30989 11.9989 3.25299 11.9994C2.97058 11.9974 2.73385 11.9469 2.52271 11.7497C2.36187 11.5708 2.27429 11.3737 2.27351 11.1315C2.27327 11.0974 2.27302 11.0633 2.27278 11.0281C2.2728 10.991 2.27283 10.9539 2.27285 10.9157C2.27268 10.876 2.27249 10.8362 2.27228 10.7965C2.27178 10.6888 2.27164 10.5811 2.27161 10.4734C2.27157 10.4061 2.27145 10.3387 2.2713 10.2713C2.27077 10.0359 2.27054 9.80053 2.27059 9.56515C2.27062 9.34625 2.27002 9.12736 2.26913 8.90847C2.26838 8.72013 2.26808 8.53179 2.26812 8.34344C2.26813 8.23114 2.26797 8.11884 2.26737 8.00654C2.26682 7.9008 2.26682 7.79508 2.26723 7.68935C2.26732 7.63245 2.26685 7.57555 2.26636 7.51865C2.2683 7.23623 2.31887 6.99951 2.51607 6.78836C2.69497 6.62752 2.89201 6.53994 3.13418 6.53916ZM3.1874 7.45305C3.1874 8.64939 3.1874 9.84573 3.1874 11.0783C3.63603 11.0783 4.08465 11.0783 4.54688 11.0783C4.54688 9.88199 4.54688 8.68565 4.54688 7.45305C4.09825 7.45305 3.64962 7.45305 3.1874 7.45305ZM5.45319 7.45305C5.45319 7.90168 5.45319 8.35031 5.45319 8.81253C5.90182 8.81253 6.35045 8.81253 6.81267 8.81253C6.81267 8.3639 6.81267 7.91528 6.81267 7.45305C6.36404 7.45305 5.91542 7.45305 5.45319 7.45305ZM5.45319 9.71885C5.45319 10.1675 5.45319 10.6161 5.45319 11.0783C5.90182 11.0783 6.35045 11.0783 6.81267 11.0783C6.81267 10.6297 6.81267 10.1811 6.81267 9.71885C6.36404 9.71885 5.91542 9.71885 5.45319 9.71885Z" fill="#005CE8"/>
</g>
</svg>
