<svg width="17" height="16" viewBox="0 0 17 16" fill="none" xmlns="http://www.w3.org/2000/svg">
<path id="Vector" d="M12.7461 4.11772C11.9174 1.72331 9.64968 0 6.98877 0C3.62005 0 0.86377 2.75669 0.86377 6.125C0.86377 8.78591 2.58708 11.0536 4.98149 11.8823C5.81018 14.2767 8.07786 16 10.7388 16C14.1075 16 16.8638 13.2433 16.8638 9.875C16.8638 7.21409 15.1405 4.94641 12.7461 4.11772ZM1.80127 6.125C1.80127 3.26459 4.12836 0.9375 6.98877 0.9375C9.01905 0.9375 10.7788 2.12431 11.6192 3.84447C11.3316 3.80309 11.0377 3.78125 10.7388 3.78125C7.37014 3.78125 4.64502 6.52484 4.64502 9.875C4.64502 10.1739 4.66686 10.4678 4.70824 10.7554C2.98808 9.915 1.80127 8.15528 1.80127 6.125ZM10.2865 10.0856L6.77814 6.57728C6.97868 6.33684 7.20061 6.11491 7.44105 5.91437L10.9494 9.42272C10.7489 9.66316 10.5269 9.88509 10.2865 10.0856ZM8.57914 11.0299L5.83383 8.28466C5.93861 7.96225 6.07433 7.65372 6.23752 7.3625L9.50127 10.6263C9.21008 10.7894 8.90155 10.9252 8.57914 11.0299ZM5.60614 9.38278L7.48102 11.2576C6.89002 11.3139 6.30049 11.2687 5.73511 11.1287C5.59521 10.5638 5.54986 9.97425 5.60614 9.38278ZM11.49 8.6375L8.22627 5.37375C8.51749 5.21056 8.82599 5.07484 9.14839 4.97006L11.8937 7.71534C11.7889 8.03775 11.6532 8.34628 11.49 8.6375ZM12.1214 6.61722L10.2465 4.74237C10.8376 4.68612 11.4271 4.73134 11.9924 4.87134C12.1323 5.43625 12.1777 6.02575 12.1214 6.61722ZM10.7388 15.0625C8.70849 15.0625 6.94877 13.8757 6.10836 12.1555C10.1528 12.7373 13.5987 9.27253 13.0193 5.24456C14.7395 6.085 15.9263 7.84472 15.9263 9.875C15.9263 12.7354 13.5992 15.0625 10.7388 15.0625Z" fill="#005CE8"/>
</svg>
