<svg width="8" height="8" viewBox="0 0 8 8" fill="none" xmlns="http://www.w3.org/2000/svg">
<g id="Group 3">
<path id="Vector" d="M2.91528 2.34688C3.07618 2.31122 3.20184 2.18555 3.2375 2.02465L3.61365 0.332418C3.71215 -0.110806 4.34387 -0.110806 4.44236 0.332418L4.81851 2.02465C4.85417 2.18555 4.97983 2.31122 5.14074 2.34688L6.83297 2.72303C7.27619 2.82152 7.27619 3.45324 6.83297 3.55174L5.14074 3.92788C4.97983 3.96354 4.85417 4.08921 4.81851 4.25011L4.44236 5.94234C4.34387 6.38557 3.71215 6.38557 3.61365 5.94234L3.2375 4.25011C3.20184 4.08921 3.07618 3.96354 2.91528 3.92788L1.22304 3.55174C0.779819 3.45324 0.779819 2.82152 1.22304 2.72303L2.91528 2.34688Z" fill="url(#paint0_linear_2_1940)"/>
<path id="Vector_2" d="M0.657407 5.82046C0.818309 5.78479 0.943974 5.65913 0.979635 5.49823L1.09469 4.98028C1.13587 4.79433 1.40078 4.79433 1.44196 4.98028L1.55702 5.49823C1.59268 5.65913 1.71834 5.78479 1.87924 5.82046L2.39719 5.93551C2.58314 5.97669 2.58314 6.2416 2.39719 6.28278L1.87924 6.39784C1.71834 6.4335 1.59268 6.55916 1.55702 6.72006L1.44196 7.23801C1.40078 7.42396 1.13587 7.42396 1.09469 7.23801L0.979635 6.72006C0.943974 6.55916 0.818309 6.4335 0.657407 6.39784L0.139463 6.28278C-0.0464876 6.2416 -0.0464876 5.97669 0.139463 5.93551L0.657407 5.82046Z" fill="url(#paint1_linear_2_1940)"/>
</g>
<defs>
<linearGradient id="paint0_linear_2_1940" x1="7.16539" y1="6.27476" x2="0.539048" y2="5.87846" gradientUnits="userSpaceOnUse">
<stop stop-color="#54AB6A"/>
<stop offset="1" stop-color="#0099FF"/>
</linearGradient>
<linearGradient id="paint1_linear_2_1940" x1="2.53665" y1="7.37747" x2="-0.142129" y2="7.21726" gradientUnits="userSpaceOnUse">
<stop stop-color="#54AB6A"/>
<stop offset="1" stop-color="#0099FF"/>
</linearGradient>
</defs>
</svg>
