<svg width="93" height="93" viewBox="0 0 93 93" fill="none" xmlns="http://www.w3.org/2000/svg">
<g id="Successmark" clip-path="url(#clip0_677_641)">
<g id="Sticker">
<path id="Vector" d="M89.7272 46.4981C91.1635 44.8256 92.1699 42.8278 92.6594 40.6782C93.1488 38.5287 93.1063 36.2921 92.5357 34.1627C91.965 32.0332 90.8834 30.0751 89.3847 28.4583C87.886 26.8415 86.0155 25.6147 83.9353 24.8845C84.3429 22.7178 84.2157 20.4844 83.5647 18.378C82.9136 16.2716 81.7585 14.3559 80.1994 12.7971C78.6404 11.2382 76.7245 10.0833 74.6181 9.43258C72.5116 8.78182 70.2782 8.65486 68.1116 9.06271C67.3819 6.98209 66.1554 5.11103 64.5385 3.61196C62.9217 2.1129 60.9634 1.03114 58.8336 0.460625C56.7038 -0.109895 54.467 -0.151937 52.3173 0.338149C50.1676 0.828235 48.17 1.83564 46.4979 3.27289C44.8254 1.83662 42.8277 0.830132 40.6781 0.340723C38.5285 -0.148686 36.292 -0.10623 34.1625 0.464407C32.033 1.03504 30.075 2.11663 28.4581 3.61533C26.8413 5.11403 25.6146 6.98459 24.8843 9.06473C22.7178 8.65753 20.4846 8.78506 18.3785 9.43626C16.2724 10.0875 14.357 11.2427 12.7984 12.8016C11.2398 14.3606 10.0851 16.2764 9.43443 18.3826C8.78377 20.4889 8.65682 22.7221 9.06457 24.8885C6.98443 25.6188 5.11386 26.8455 3.61516 28.4623C2.11646 30.0792 1.03487 32.0372 0.464231 34.1667C-0.106406 36.2962 -0.148869 38.5327 0.34054 40.6823C0.829949 42.8319 1.83646 44.8296 3.27272 46.5021C1.83602 48.1746 0.829203 50.1725 0.339655 52.3223C-0.149893 54.4721 -0.107394 56.7089 0.463493 58.8386C1.03438 60.9682 2.11638 62.9264 3.6156 64.5431C5.11482 66.1597 6.98596 67.3861 9.06658 68.1157C8.65848 70.2822 8.78529 72.5156 9.43603 74.622C10.0868 76.7283 11.2418 78.6441 12.8008 80.2029C14.3597 81.7616 16.2756 82.9164 18.3821 83.5669C20.4885 84.2173 22.7219 84.3439 24.8884 83.9355C25.6186 86.0156 26.8453 87.8862 28.4622 89.3849C30.079 90.8836 32.0371 91.9652 34.1665 92.5358C36.296 93.1064 38.5325 93.1489 40.6821 92.6595C42.8317 92.1701 44.8294 91.1636 46.502 89.7273C48.1745 91.164 50.1723 92.1709 52.3221 92.6604C54.4719 93.1499 56.7087 93.1074 58.8384 92.5366C60.968 91.9657 62.9262 90.8837 64.5429 89.3844C66.1596 87.8852 67.386 86.0141 68.1156 83.9335C70.2822 84.3415 72.5155 84.2146 74.622 83.5638C76.7284 82.9131 78.6441 81.7581 80.2031 80.1992C81.762 78.6403 82.917 76.7245 83.5677 74.6181C84.2185 72.5117 84.3453 70.2783 83.9373 68.1117C86.0176 67.3816 87.8884 66.1549 89.3871 64.538C90.8859 62.9212 91.9675 60.9629 92.5379 58.8333C93.1084 56.7037 93.1506 54.4671 92.6608 52.3175C92.1709 50.1679 91.164 48.1703 89.7272 46.4981Z" fill="#18C07A"/>
<path id="Vector_2" d="M38.153 64.2484L25.2312 51.3346C24.7408 50.8434 24.4653 50.1777 24.4653 49.4836C24.4653 48.7895 24.7408 48.1238 25.2312 47.6326L26.8011 46.0607C27.2923 45.5703 27.958 45.2949 28.6521 45.2949C29.3462 45.2949 30.0119 45.5703 30.5031 46.0607L39.8962 55.4478L62.0177 31.9398C62.4937 31.4347 63.1506 31.1392 63.8443 31.118C64.538 31.0969 65.2118 31.3518 65.7177 31.827L67.3299 33.3485C67.8356 33.8245 68.1315 34.4819 68.1526 35.1761C68.1738 35.8703 67.9185 36.5445 67.4427 37.0505L41.9175 64.1899C41.6772 64.4461 41.3878 64.6513 41.0666 64.7933C40.7453 64.9354 40.3988 65.0114 40.0476 65.0169C39.6965 65.0223 39.3477 64.9571 39.0223 64.8251C38.6968 64.6931 38.4012 64.4969 38.153 64.2484Z" fill="white"/>
</g>
</g>
<defs>
<clipPath id="clip0_677_641">
<rect width="93" height="93" fill="white"/>
</clipPath>
</defs>
</svg>
