<svg width="35" height="32" viewBox="0 0 35 32" fill="none" xmlns="http://www.w3.org/2000/svg">
<g id="Group 1171275258">
<path id="Vector" d="M7.87846 18.7367C8.01754 18.853 8.19713 18.9093 8.37772 18.8932C8.55831 18.8771 8.72511 18.79 8.84143 18.6509C8.95774 18.5118 9.01405 18.3322 8.99795 18.1516C8.98185 17.971 8.89468 17.8042 8.7556 17.6879C7.9782 17.0385 7.3772 16.2035 7.00825 15.2602C6.63929 14.3168 6.5143 13.2956 6.64485 12.2911C6.77541 11.2866 7.15728 10.3313 7.75512 9.51361C8.35295 8.69591 9.14743 8.04226 10.065 7.61317C10.9826 7.18408 11.9936 6.99343 13.0044 7.05886C14.0152 7.12429 14.9932 7.44369 15.8478 7.98749C16.7024 8.53129 17.4059 9.28191 17.8934 10.1699C18.3808 11.0578 18.6363 12.0544 18.6363 13.0673C18.6363 13.2486 18.7083 13.4225 18.8365 13.5507C18.9647 13.6789 19.1386 13.7509 19.3199 13.7509C19.5012 13.7509 19.6751 13.6789 19.8033 13.5507C19.9315 13.4225 20.0035 13.2486 20.0035 13.0673C20.0035 11.8244 19.6899 10.6016 19.0918 9.51207C18.4937 8.42254 17.6303 7.50152 16.5817 6.83427C15.5331 6.16702 14.3331 5.7751 13.0928 5.6948C11.8525 5.6145 10.6119 5.84841 9.48605 6.37488C8.36015 6.90135 7.38527 7.70336 6.65165 8.70666C5.91803 9.70997 5.44939 10.8821 5.28911 12.1147C5.12883 13.3472 5.28209 14.6003 5.7347 15.7578C6.18732 16.9154 6.92465 17.9401 7.87846 18.737V18.7367Z" fill="#005CE8"/>
<path id="Vector_2" d="M12.6156 4.11257C12.7053 4.11257 12.7942 4.09489 12.8772 4.06053C12.9601 4.02618 13.0355 3.97582 13.0989 3.91235C13.1624 3.84887 13.2128 3.77351 13.2471 3.69057C13.2815 3.60763 13.2992 3.51873 13.2992 3.42896V1.13511C13.2992 0.953802 13.2271 0.779923 13.0989 0.651721C12.9707 0.523519 12.7969 0.451496 12.6156 0.451496C12.4343 0.451496 12.2604 0.523519 12.1322 0.651721C12.004 0.779923 11.9319 0.953802 11.9319 1.13511V3.42896C11.9319 3.61026 12.004 3.78414 12.1322 3.91235C12.2604 4.04055 12.4343 4.11257 12.6156 4.11257Z" fill="#005CE8"/>
<path id="Vector_3" d="M7.20449 5.06224C7.24905 5.14061 7.30867 5.2094 7.37992 5.26463C7.45117 5.31987 7.53265 5.36047 7.61965 5.38409C7.70666 5.40771 7.79747 5.41389 7.88688 5.40227C7.97628 5.39065 8.0625 5.36146 8.14058 5.31638C8.21865 5.2713 8.28704 5.21122 8.3418 5.13961C8.39656 5.06799 8.43662 4.98625 8.45966 4.89909C8.48271 4.81193 8.48828 4.72108 8.47607 4.63175C8.46386 4.54243 8.4341 4.4564 8.3885 4.37863L7.24161 2.39206C7.19672 2.31431 7.13696 2.24616 7.06574 2.19151C6.99452 2.13686 6.91323 2.09677 6.82651 2.07353C6.65138 2.02661 6.46478 2.05117 6.30776 2.14182C6.15074 2.23247 6.03617 2.38179 5.98924 2.55692C5.94231 2.73205 5.96688 2.91865 6.05753 3.07567L7.20449 5.06224Z" fill="#005CE8"/>
<path id="Vector_4" d="M1.94034 7.69304L3.92691 8.84C4.08384 8.92923 4.26968 8.95276 4.4439 8.90546C4.61811 8.85816 4.76654 8.74388 4.8568 8.58754C4.94707 8.43121 4.97183 8.24552 4.92569 8.071C4.87955 7.89648 4.76625 7.74729 4.61052 7.65599L2.62395 6.50903C2.54617 6.46344 2.46015 6.43367 2.37082 6.42146C2.2815 6.40925 2.19064 6.41482 2.10348 6.43787C2.01632 6.46091 1.93458 6.50097 1.86297 6.55573C1.79135 6.61049 1.73127 6.67888 1.6862 6.75696C1.64112 6.83503 1.61193 6.92125 1.60031 7.01066C1.58869 7.10006 1.59486 7.19088 1.61849 7.27788C1.64211 7.36489 1.68271 7.44636 1.73794 7.51761C1.79318 7.58886 1.86196 7.64848 1.94034 7.69304Z" fill="#005CE8"/>
<path id="Vector_5" d="M3.66114 13.0673C3.66114 12.886 3.58912 12.7121 3.46092 12.5839C3.33272 12.4557 3.15884 12.3837 2.97753 12.3837H0.68361C0.502305 12.3837 0.328427 12.4557 0.200225 12.5839C0.072023 12.7121 0 12.886 0 13.0673C0 13.2486 0.072023 13.4225 0.200225 13.5507C0.328427 13.6789 0.502305 13.7509 0.68361 13.7509H2.97753C3.15884 13.7509 3.33272 13.6789 3.46092 13.5507C3.58912 13.4225 3.66114 13.2486 3.66114 13.0673Z" fill="#005CE8"/>
<path id="Vector_6" d="M4.61052 18.4781C4.76754 18.3874 4.88211 18.2381 4.92904 18.063C4.97597 17.8879 4.95141 17.7013 4.86075 17.5443C4.7701 17.3872 4.62079 17.2727 4.44566 17.2257C4.27053 17.1788 4.08393 17.2034 3.92691 17.294L1.94034 18.441C1.86196 18.4855 1.79318 18.5452 1.73794 18.6164C1.68271 18.6877 1.64211 18.7691 1.61849 18.8561C1.59486 18.9431 1.58869 19.034 1.60031 19.1234C1.61193 19.2128 1.64112 19.299 1.6862 19.3771C1.73127 19.4551 1.79135 19.5235 1.86297 19.5783C1.93458 19.6331 2.01632 19.6731 2.10348 19.6962C2.19064 19.7192 2.2815 19.7248 2.37082 19.7126C2.46015 19.7003 2.54617 19.6706 2.62395 19.625L4.61052 18.4781Z" fill="#005CE8"/>
<path id="Vector_7" d="M17.0927 5.31223C17.1705 5.35721 17.2563 5.38643 17.3453 5.3982C17.4343 5.40998 17.5248 5.40409 17.6116 5.38087C17.6983 5.35765 17.7796 5.31756 17.8509 5.26289C17.9221 5.20821 17.9819 5.14003 18.0267 5.06224L19.1736 3.07566C19.2629 2.91874 19.2864 2.73289 19.2391 2.55867C19.1918 2.38446 19.0775 2.23603 18.9212 2.14577C18.7648 2.05551 18.5792 2.03074 18.4046 2.07688C18.2301 2.12303 18.0809 2.23632 17.9896 2.39205L16.8425 4.37863C16.7519 4.53563 16.7274 4.72217 16.7743 4.89725C16.8212 5.07232 16.9358 5.22159 17.0927 5.31223Z" fill="#005CE8"/>
<path id="Vector_8" d="M26.0768 21.5899C26.3444 20.2391 26.1312 18.8372 25.474 17.6271C24.8169 16.4169 23.7571 15.4748 22.4784 14.9638C21.1996 14.4528 19.7824 14.4051 18.4723 14.8291C17.1621 15.2531 16.0415 16.1219 15.3045 17.2852C14.1799 16.8526 12.9318 16.8701 11.8198 17.334C10.7077 17.7979 9.81722 18.6725 9.33343 19.7761C8.52574 19.6446 7.69956 19.6818 6.90698 19.8855C6.1144 20.0892 5.3726 20.4548 4.72835 20.9594C4.0841 21.464 3.55136 22.0965 3.16371 22.8172C2.77606 23.5379 2.54191 24.3311 2.47602 25.1468C2.41013 25.9624 2.51393 26.7829 2.78088 27.5565C3.04782 28.33 3.47212 29.0399 4.02703 29.6414C4.58194 30.2428 5.25543 30.7228 6.00504 31.051C6.75465 31.3792 7.56414 31.5486 8.38246 31.5485H24.6821C25.9066 31.5485 27.0898 31.1059 28.0137 30.3023C28.9377 29.4987 29.5401 28.3883 29.7099 27.1756C29.8797 25.963 29.6055 24.7298 28.9379 23.7033C28.2702 22.6768 27.254 21.9262 26.0766 21.5899H26.0768ZM24.6822 30.1813H8.38246C7.7328 30.1807 7.09076 30.0412 6.4994 29.7722C5.90805 29.5032 5.38105 29.1109 4.95374 28.6215C4.52643 28.1321 4.20869 27.5571 4.02183 26.9349C3.83496 26.3127 3.78329 25.6577 3.87028 25.0139C3.95727 24.37 4.18091 23.7523 4.52621 23.202C4.8715 22.6516 5.33046 22.1815 5.87232 21.8231C6.41418 21.4647 7.02641 21.2263 7.66795 21.1239C8.30949 21.0214 8.96552 21.0573 9.59204 21.2292C9.7661 21.277 9.95201 21.254 10.1092 21.1653C10.2664 21.0765 10.3821 20.9292 10.431 20.7555C10.5675 20.272 10.812 19.8259 11.146 19.4508C11.4801 19.0757 11.895 18.7813 12.3594 18.59C12.8239 18.3986 13.3257 18.3153 13.8271 18.3462C14.3284 18.3772 14.8162 18.5216 15.2536 18.7686C15.3349 18.8147 15.4249 18.8435 15.5178 18.8534C15.6108 18.8634 15.7048 18.8541 15.794 18.8262C15.8833 18.7984 15.9658 18.7525 16.0367 18.6914C16.1075 18.6304 16.165 18.5555 16.2057 18.4713C16.708 17.4332 17.5871 16.6255 18.6639 16.2126C19.7408 15.7997 20.9345 15.8127 22.0021 16.2489C23.0697 16.6852 23.931 17.5118 24.4106 18.5607C24.8902 19.6095 24.9521 20.8017 24.5837 21.8946C24.5512 21.9906 24.5405 22.0927 24.5524 22.1934C24.5642 22.2941 24.5983 22.3909 24.6522 22.4768C24.7061 22.5626 24.7784 22.6355 24.8639 22.69C24.9494 22.7444 25.046 22.7792 25.1466 22.7918C26.0832 22.9093 26.9399 23.3795 27.5419 24.1066C28.144 24.8337 28.4461 25.763 28.3869 26.7052C28.3276 27.6473 27.9114 28.5314 27.2229 29.1773C26.5345 29.8233 25.6257 30.1824 24.6817 30.1816L24.6822 30.1813Z" fill="#005CE8"/>
<path id="Vector_9" d="M31.3185 13.2431C31.5973 11.8351 31.3534 10.3739 30.6325 9.13277C29.9116 7.89169 28.7631 6.95589 27.4019 6.50055C26.0408 6.04521 24.5604 6.10154 23.2378 6.65901C21.9152 7.21648 20.8411 8.23686 20.2166 9.52915C20.1755 9.61018 20.1509 9.69862 20.1443 9.78928C20.1377 9.87994 20.1492 9.971 20.1782 10.0571C20.2073 10.1433 20.2532 10.2228 20.3133 10.291C20.3734 10.3591 20.4465 10.4147 20.5283 10.4542C20.6102 10.4938 20.6991 10.5167 20.7898 10.5215C20.8806 10.5263 20.9714 10.513 21.057 10.4823C21.1425 10.4516 21.2211 10.4041 21.2881 10.3427C21.3551 10.2813 21.4092 10.2071 21.4471 10.1245C21.9495 9.08635 22.8285 8.27864 23.9054 7.86577C24.9822 7.45289 26.176 7.46589 27.2436 7.90212C28.3112 8.33835 29.1724 9.16501 29.652 10.2139C30.1316 11.2627 30.1935 12.4549 29.8251 13.5478C29.7927 13.6438 29.782 13.7459 29.7938 13.8466C29.8057 13.9473 29.8398 14.0441 29.8937 14.13C29.9476 14.2159 30.0199 14.2887 30.1054 14.3432C30.1909 14.3976 30.2875 14.4324 30.3881 14.445C31.3247 14.5625 32.1814 15.0327 32.7834 15.7598C33.3855 16.4869 33.6877 17.4162 33.6284 18.3584C33.5691 19.3005 33.1529 20.1846 32.4645 20.8305C31.776 21.4765 30.8672 21.8356 29.9232 21.8348C29.7419 21.8348 29.568 21.9068 29.4398 22.035C29.3116 22.1632 29.2396 22.3371 29.2396 22.5184C29.2396 22.6997 29.3116 22.8736 29.4398 23.0018C29.568 23.13 29.7419 23.202 29.9232 23.202C31.1477 23.202 32.3309 22.7593 33.2548 21.9558C34.1787 21.1522 34.7811 20.0417 34.9509 18.8291C35.1207 17.6164 34.8465 16.3833 34.1789 15.3568C33.5113 14.3303 32.4952 13.5798 31.3178 13.2433L31.3185 13.2431Z" fill="#005CE8"/>
</g>
</svg>
