<svg width="10" height="18" viewBox="0 0 10 18" fill="none" xmlns="http://www.w3.org/2000/svg">
<g id="Group 1171275281">
<path id="Vector" d="M4.22672 0.326643C4.25992 0.325946 4.29312 0.325248 4.32733 0.32453C4.85745 0.32174 5.29904 0.519045 5.70965 0.842077C5.742 0.865408 5.742 0.865408 5.77501 0.889211C6.17562 1.19545 6.42727 1.739 6.5116 2.2244C6.54638 2.49216 6.53204 2.76668 6.52954 3.03601C6.52924 3.11023 6.52898 3.18445 6.52878 3.25866C6.52826 3.41769 6.52746 3.57671 6.52644 3.73574C6.52492 3.98729 6.52446 4.23883 6.52422 4.49039C6.5234 5.228 6.52178 5.96559 6.5173 6.70319C6.51506 7.07613 6.51428 7.44905 6.51468 7.82199C6.51484 8.03106 6.51432 8.24007 6.51216 8.44913C6.51013 8.64554 6.50982 8.84188 6.51083 9.03829C6.5109 9.11029 6.51032 9.18229 6.50906 9.25428C6.48871 9.6344 6.48871 9.6344 6.63613 9.96716C6.73027 10.0363 6.82122 10.0868 6.92642 10.1368C6.99484 10.1892 6.99484 10.1892 7.04577 10.2353C7.06249 10.2503 7.07921 10.2653 7.09644 10.2807C7.11283 10.2959 7.12922 10.3112 7.14611 10.3269C7.16431 10.3438 7.18251 10.3608 7.20126 10.3782C7.68469 10.8402 8.01422 11.4063 8.24458 12.0295C8.25817 12.066 8.27176 12.1025 8.28577 12.14C8.64129 13.1891 8.51048 14.344 8.04556 15.3342C7.88396 15.6577 7.66592 15.945 7.4334 16.2206C7.4161 16.242 7.39881 16.2635 7.38099 16.2856C6.86362 16.9159 6.0778 17.3243 5.30407 17.5388C5.2639 17.5503 5.22372 17.5618 5.18234 17.5736C4.52171 17.7291 3.72096 17.707 3.07333 17.505C3.04689 17.4968 3.02045 17.4887 2.99321 17.4802C2.48082 17.3171 1.99384 17.0829 1.58618 16.7276C1.54527 16.6922 1.54527 16.6922 1.50353 16.656C1.41719 16.5797 1.33248 16.502 1.24819 16.4234C1.20944 16.388 1.20944 16.388 1.1699 16.3518C0.957813 16.1505 0.797873 15.9238 0.639809 15.6798C0.620987 15.6516 0.602165 15.6234 0.582773 15.5944C-0.0189201 14.6527 -0.11627 13.4597 0.116057 12.3905C0.362691 11.3613 1.00553 10.5125 1.85657 9.9002C1.87888 9.88905 1.90119 9.87789 1.92417 9.8664C1.92422 9.82788 1.92427 9.78936 1.92432 9.74967C1.92556 8.81079 1.92757 7.87191 1.93038 6.93303C1.93065 6.8425 1.93092 6.75197 1.93118 6.66144C1.93125 6.63894 1.93131 6.61644 1.93138 6.59326C1.93236 6.25247 1.93295 5.91168 1.93333 5.5709C1.93377 5.17498 1.93468 4.77907 1.93615 4.38315C1.93692 4.17368 1.93745 3.9642 1.93741 3.75472C1.93739 3.5572 1.938 3.35968 1.93908 3.16216C1.93937 3.09001 1.93943 3.01786 1.93924 2.9457C1.93747 2.17555 2.07274 1.51688 2.63395 0.943474C3.10652 0.533484 3.60552 0.329828 4.22672 0.326643ZM2.97194 1.61945C2.68827 2.02153 2.629 2.40875 2.62883 2.8902C2.62868 2.92142 2.62854 2.95264 2.62839 2.9848C2.62796 3.08864 2.62775 3.19247 2.62754 3.29631C2.62728 3.37105 2.62699 3.4458 2.62669 3.52055C2.62609 3.68111 2.62558 3.84167 2.62515 4.00223C2.62446 4.256 2.62353 4.50977 2.62256 4.76355C2.62122 5.11918 2.61997 5.47482 2.61881 5.83045C2.61874 5.85299 2.61867 5.87552 2.61859 5.89874C2.618 6.08167 2.61741 6.2646 2.61683 6.44753C2.61632 6.60768 2.6158 6.76784 2.61528 6.928C2.61521 6.95055 2.61514 6.97311 2.61506 6.99636C2.61384 7.37234 2.61249 7.74833 2.61105 8.12431C2.61009 8.37671 2.60929 8.62912 2.60862 8.88152C2.60816 9.03825 2.60758 9.19498 2.60695 9.35171C2.60669 9.42452 2.60648 9.49733 2.60634 9.57015C2.60613 9.66932 2.60573 9.7685 2.60527 9.86767C2.60526 9.89666 2.60525 9.92565 2.60524 9.95552C2.60378 10.1923 2.60378 10.1923 2.56635 10.3058C2.50839 10.3406 2.50839 10.3406 2.43115 10.3734C1.61535 10.868 1.02847 11.6247 0.798241 12.5555C0.778235 12.6392 0.759515 12.7229 0.741205 12.8069C0.735239 12.8335 0.729273 12.86 0.723126 12.8874C0.565149 13.7769 0.82631 14.702 1.31539 15.4438C1.89338 16.251 2.71664 16.7632 3.68951 16.9507C4.62447 17.0855 5.58989 16.864 6.3528 16.3034C7.128 15.7134 7.6522 14.8714 7.78921 13.9033C7.89408 13.0134 7.69216 12.094 7.16261 11.3608C7.09691 11.2778 7.0292 11.1972 6.96022 11.117C6.94401 11.0963 6.9278 11.0756 6.9111 11.0542C6.73308 10.8307 6.50395 10.6529 6.26628 10.4963C6.24642 10.4831 6.22655 10.47 6.20608 10.4564C6.14973 10.4196 6.09282 10.3836 6.03589 10.3476C5.91735 10.2476 5.8861 10.1548 5.87262 9.99998C5.86997 9.91731 5.8697 9.83491 5.87015 9.75219C5.87005 9.72053 5.86995 9.68888 5.86984 9.65626C5.86958 9.55033 5.8698 9.4444 5.87002 9.33846C5.86992 9.26245 5.8698 9.18644 5.86965 9.11042C5.86937 8.94676 5.8693 8.78311 5.86937 8.61945C5.86947 8.36051 5.86898 8.10157 5.86839 7.84262C5.86761 7.47942 5.86696 7.11621 5.86653 6.75301C5.86651 6.72997 5.86648 6.70694 5.86645 6.6832C5.86607 6.35657 5.86589 6.02994 5.8658 5.7033C5.86579 5.68032 5.86578 5.65733 5.86578 5.63365C5.86577 5.61069 5.86576 5.58774 5.86576 5.56408C5.86563 5.18058 5.86497 4.79707 5.86391 4.41356C5.86323 4.15633 5.86315 3.89911 5.86352 3.64188C5.86361 3.48156 5.86313 3.32124 5.8625 3.16091C5.86232 3.08678 5.86237 3.01265 5.86267 2.93852C5.87142 2.41522 5.87142 2.41522 5.70965 1.92364C5.6934 1.89001 5.67715 1.85637 5.66041 1.82172C5.47151 1.51034 5.25692 1.31291 4.93228 1.14627C4.90492 1.13219 4.87755 1.11812 4.84936 1.10362C4.1835 0.812562 3.41905 1.07481 2.97194 1.61945Z" fill="#005CE8"/>
<path id="Vector_2" d="M4.39171 5.87812C4.50052 5.96379 4.55071 6.01714 4.5945 6.14852C4.59798 6.21496 4.59945 6.28151 4.59985 6.34805C4.60018 6.38971 4.60051 6.43137 4.60085 6.47429C4.60105 6.52053 4.60125 6.56677 4.60144 6.61301C4.60176 6.66164 4.6021 6.71028 4.60245 6.75891C4.60337 6.89102 4.60408 7.02313 4.60475 7.15525C4.60549 7.29328 4.60642 7.43131 4.60732 7.56935C4.60901 7.83077 4.61053 8.0922 4.61199 8.35362C4.61366 8.65123 4.61551 8.94884 4.61738 9.24645C4.62123 9.85869 4.62484 10.4709 4.6283 11.0832C4.65607 11.0899 4.68384 11.0966 4.71245 11.1036C4.74892 11.1125 4.78539 11.1215 4.82296 11.1307C4.87717 11.1439 4.87717 11.1439 4.93246 11.1574C5.47698 11.3032 5.93611 11.6945 6.21487 12.1769C6.40818 12.5404 6.50601 12.8809 6.49992 13.2949C6.49955 13.329 6.49918 13.3632 6.4988 13.3983C6.48563 14.0142 6.24517 14.5323 5.81126 14.97C5.25933 15.4491 4.65876 15.591 3.94451 15.5532C3.3732 15.5007 2.88224 15.1783 2.49896 14.7673C2.40763 14.6488 2.33265 14.5273 2.26237 14.3955C2.24647 14.3664 2.23057 14.3373 2.21418 14.3073C1.92414 13.7289 1.94663 13.1199 2.11952 12.5122C2.31613 11.9567 2.75636 11.5244 3.277 11.2699C3.43588 11.2001 3.58596 11.1479 3.75632 11.1148C3.78671 11.1088 3.8171 11.1028 3.84841 11.0967C3.87154 11.0922 3.89468 11.0878 3.91852 11.0832C3.9184 11.0575 3.91827 11.0319 3.91814 11.0055C3.91516 10.3821 3.91292 9.7587 3.91152 9.13528C3.91082 8.83381 3.90987 8.53233 3.90832 8.23086C3.90697 7.9681 3.9061 7.70535 3.9058 7.44259C3.90562 7.30345 3.90521 7.16432 3.90423 7.02518C3.90331 6.89421 3.90303 6.76325 3.90323 6.63228C3.90319 6.58422 3.90292 6.53617 3.9024 6.48811C3.90173 6.42246 3.90197 6.3568 3.90226 6.29114C3.90214 6.25441 3.90201 6.21768 3.90189 6.17983C3.92254 6.057 3.96814 6.00072 4.05372 5.91192C4.16253 5.85752 4.27405 5.85761 4.39171 5.87812ZM3.07777 12.2598C2.75093 12.6445 2.67032 13.0547 2.69501 13.5458C2.71979 13.8113 2.85139 14.0479 3.00595 14.2603C3.02085 14.2807 3.03575 14.3012 3.0511 14.3223C3.28692 14.6207 3.64616 14.8093 4.01992 14.8686C4.4753 14.9037 4.87707 14.8215 5.23668 14.5307C5.32964 14.449 5.32964 14.449 5.40568 14.3617C5.43356 14.3317 5.46144 14.3017 5.49017 14.2708C5.77455 13.9219 5.84868 13.5161 5.81126 13.0773C5.75493 12.7924 5.6507 12.5622 5.47327 12.3337C5.44748 12.2982 5.42169 12.2626 5.39511 12.226C5.15251 11.9721 4.78412 11.7708 4.4296 11.7523C3.87867 11.7429 3.4721 11.8439 3.07777 12.2598Z" fill="#005CE8"/>
<path id="Vector_3" d="M7.72097 5.76637C7.74313 5.76609 7.76529 5.76581 7.78813 5.76552C7.86138 5.7647 7.93463 5.7644 8.00788 5.76418C8.05886 5.76388 8.10984 5.76357 8.16082 5.76326C8.26771 5.7627 8.37459 5.76244 8.48148 5.76234C8.61829 5.76216 8.75507 5.76089 8.89187 5.75934C8.99719 5.75834 9.10249 5.75809 9.20781 5.75806C9.25824 5.75792 9.30866 5.7575 9.35908 5.75679C9.42973 5.75588 9.50029 5.75604 9.57094 5.75647C9.61109 5.7563 9.65124 5.75612 9.6926 5.75595C9.83161 5.78297 9.88125 5.83641 9.96849 5.94572C10.0071 6.08101 10.0178 6.14902 9.95793 6.27737C9.87577 6.38387 9.83023 6.43019 9.6981 6.4527C9.62981 6.45596 9.56143 6.45737 9.49307 6.45761C9.45167 6.45783 9.41027 6.45804 9.36762 6.45827C9.32301 6.4583 9.2784 6.45834 9.23244 6.45838C9.18605 6.45849 9.13967 6.4586 9.09328 6.45872C8.99615 6.45892 8.89901 6.45899 8.80187 6.45897C8.67761 6.45896 8.55336 6.45942 8.42911 6.46001C8.33333 6.46038 8.23756 6.46045 8.14179 6.46043C8.07377 6.46049 8.00575 6.46086 7.93774 6.46123C7.87548 6.46107 7.87548 6.46107 7.81196 6.46091C7.77552 6.46096 7.73908 6.46101 7.70153 6.46106C7.57587 6.45045 7.48009 6.41502 7.37442 6.34708C7.30598 6.24443 7.29413 6.13397 7.29837 6.01332C7.38948 5.80377 7.50259 5.76833 7.72097 5.76637Z" fill="#005CE8"/>
<path id="Vector_4" d="M7.7839 2.51891C7.84803 2.51843 7.84803 2.51843 7.91345 2.51794C7.95983 2.51812 8.0062 2.51833 8.05258 2.51856C8.10043 2.51849 8.14828 2.5184 8.19613 2.51827C8.29626 2.51812 8.39637 2.51834 8.49649 2.51881C8.62458 2.51939 8.75264 2.51905 8.88073 2.51845C8.97949 2.51808 9.07825 2.5182 9.17701 2.51846C9.22423 2.51853 9.27144 2.51845 9.31866 2.51821C9.38474 2.51795 9.45082 2.51842 9.51689 2.51891C9.55444 2.51899 9.59198 2.51907 9.63066 2.51915C9.78036 2.53818 9.86858 2.59457 9.96433 2.70947C10.0163 2.8364 10.0061 2.90776 9.96856 3.03901C9.88152 3.14785 9.83142 3.20159 9.69313 3.22947C9.65318 3.2296 9.61324 3.22974 9.57208 3.22988C9.54991 3.23017 9.52774 3.23047 9.5049 3.23077C9.43199 3.23151 9.35915 3.23103 9.28624 3.23045C9.23536 3.23057 9.18448 3.23073 9.13359 3.23094C9.0271 3.23119 8.92063 3.23083 8.81415 3.23004C8.67786 3.22908 8.54163 3.22963 8.40535 3.23064C8.30033 3.23126 8.19531 3.23106 8.09029 3.23062C8.04005 3.23051 7.98981 3.23065 7.93958 3.23104C7.86926 3.23147 7.79903 3.23081 7.72872 3.22988C7.6688 3.22967 7.6688 3.22967 7.60767 3.22947C7.46938 3.20159 7.41928 3.14785 7.33224 3.03901C7.29474 2.90776 7.28454 2.8364 7.33646 2.70947C7.46521 2.55498 7.58668 2.51933 7.7839 2.51891Z" fill="#005CE8"/>
<path id="Vector_5" d="M7.7839 8.97451C7.84803 8.97403 7.84803 8.97403 7.91345 8.97354C7.95983 8.97372 8.0062 8.97393 8.05258 8.97416C8.10043 8.97409 8.14828 8.97399 8.19613 8.97387C8.29626 8.97372 8.39637 8.97393 8.49649 8.97441C8.62458 8.97498 8.75264 8.97465 8.88073 8.97404C8.97949 8.97368 9.07825 8.9738 9.17701 8.97406C9.22423 8.97413 9.27144 8.97404 9.31866 8.97381C9.38474 8.97355 9.45082 8.97401 9.51689 8.97451C9.55444 8.97459 9.59198 8.97467 9.63066 8.97475C9.78036 8.99378 9.86858 9.05017 9.96433 9.16507C10.0157 9.29059 10.004 9.36471 9.96856 9.49461C9.90464 9.57296 9.85573 9.61862 9.76577 9.66361C9.69489 9.66757 9.62388 9.66934 9.5529 9.67012C9.52016 9.67054 9.52016 9.67054 9.48676 9.67096C9.41442 9.6718 9.34208 9.67236 9.26974 9.67285C9.24503 9.67303 9.22032 9.67321 9.19486 9.67339C9.06405 9.6743 8.93325 9.67495 8.80244 9.67544C8.66741 9.676 8.53241 9.67751 8.39739 9.67924C8.29349 9.68037 8.18961 9.68076 8.08571 9.68096C8.03594 9.68118 7.98618 9.6817 7.93642 9.68251C7.86666 9.68358 7.79698 9.68358 7.72722 9.68333C7.66775 9.68374 7.66775 9.68374 7.60707 9.68416C7.46873 9.65729 7.41913 9.60329 7.33224 9.49461C7.29474 9.36336 7.28454 9.29199 7.33646 9.16507C7.46521 9.01058 7.58668 8.97493 7.7839 8.97451Z" fill="#005CE8"/>
<path id="Vector_6" d="M8.07997 4.14509C8.12076 4.14461 8.12076 4.14461 8.16236 4.14411C8.20599 4.14416 8.20599 4.14416 8.25049 4.14421C8.29574 4.14399 8.29574 4.14399 8.34191 4.14377C8.40563 4.14357 8.46935 4.14356 8.53307 4.1437C8.6304 4.14381 8.72769 4.14302 8.82501 4.14216C8.887 4.14208 8.94898 4.14206 9.01097 4.14209C9.03999 4.14178 9.069 4.14147 9.0989 4.14115C9.25891 4.14239 9.36465 4.15221 9.49485 4.25577C9.57354 4.36444 9.57587 4.46222 9.56245 4.59376C9.50401 4.72233 9.45535 4.77754 9.32586 4.83035C9.25813 4.83916 9.25813 4.83916 9.18598 4.83964C9.15879 4.83996 9.1316 4.84028 9.10359 4.84061C9.05997 4.84057 9.05997 4.84057 9.01546 4.84052C8.97021 4.84074 8.97021 4.84074 8.92405 4.84096C8.86033 4.84115 8.7966 4.84117 8.73288 4.84102C8.63556 4.84092 8.53826 4.84171 8.44094 4.84257C8.37896 4.84264 8.31697 4.84267 8.25498 4.84263C8.22597 4.84294 8.19695 4.84325 8.16706 4.84357C8.00705 4.84234 7.9013 4.83251 7.7711 4.72896C7.69241 4.62028 7.69008 4.5225 7.70351 4.39097C7.78465 4.21244 7.88533 4.14636 8.07997 4.14509Z" fill="#005CE8"/>
<path id="Vector_7" d="M8.2887 7.3596C8.31587 7.35948 8.34303 7.35937 8.37102 7.35925C8.42838 7.35908 8.48574 7.359 8.54309 7.35901C8.63062 7.35894 8.71813 7.35832 8.80566 7.35768C8.86148 7.35758 8.91731 7.35751 8.97313 7.35748C9.01222 7.35712 9.01222 7.35712 9.0521 7.35675C9.24124 7.35755 9.36673 7.37544 9.5056 7.50681C9.57888 7.62895 9.58269 7.69807 9.56263 7.83846C9.50194 7.93152 9.45946 7.99144 9.35984 8.04125C9.31381 8.04493 9.26761 8.04662 9.22143 8.04723C9.19289 8.04767 9.16434 8.0481 9.13493 8.04855C9.10402 8.0488 9.07311 8.04905 9.04126 8.04931C9.0095 8.04958 8.97773 8.04985 8.94501 8.05013C8.8777 8.0506 8.81039 8.05096 8.74308 8.05123C8.64026 8.05181 8.53747 8.05329 8.43466 8.05478C8.36928 8.05513 8.30391 8.05541 8.23853 8.05564C8.20783 8.05623 8.17712 8.05683 8.14548 8.05744C8.00294 8.05695 7.92677 8.0538 7.8031 7.97729C7.71155 7.87789 7.7026 7.80951 7.69458 7.67818C7.71078 7.54244 7.77166 7.48887 7.87268 7.39907C8.00849 7.35377 8.14701 7.3598 8.2887 7.3596Z" fill="#005CE8"/>
</g>
</svg>
