<svg width="15" height="15" viewBox="0 0 15 15" fill="none" xmlns="http://www.w3.org/2000/svg">
<g id="b">
<path id="Vector" d="M3.58593 4.85674H10.7597C11.067 4.85674 11.3163 4.60743 11.3163 4.30011C11.3163 3.9928 11.067 3.74348 10.7597 3.74348H3.58593C3.27861 3.74348 3.0293 3.9928 3.0293 4.30011C3.0293 4.60743 3.27861 4.85674 3.58593 4.85674Z" fill="black"/>
<path id="Vector_2" d="M8.40019 7.76996C8.40019 7.46264 8.15088 7.21333 7.84356 7.21333H3.58593C3.27861 7.21333 3.0293 7.46264 3.0293 7.76996C3.0293 8.07728 3.27861 8.32659 3.58593 8.32659H7.84356C8.15088 8.32659 8.40019 8.07728 8.40019 7.76996Z" fill="black"/>
<path id="Vector_3" d="M14.2565 9.48351C14.3162 8.82932 14.3564 8.06703 14.3572 7.17847C14.3555 5.50653 14.2152 4.28224 14.0654 3.38255C13.8035 1.90016 12.4571 0.5537 10.9747 0.291791C10.075 0.142087 8.85071 0.00175778 7.17847 0C5.50653 0.00175778 4.28195 0.142087 3.38226 0.291791C1.90016 0.5537 0.5537 1.90016 0.291791 3.38255C0.142087 4.28224 0.00205074 5.50653 0 7.17847C0.00205074 8.85041 0.142087 10.075 0.291791 10.9747C0.5537 12.4571 1.90016 13.8035 3.38255 14.0654C4.28224 14.2152 5.50653 14.3552 7.17877 14.3572C8.06703 14.3564 8.82932 14.3162 9.48321 14.2565C10.0645 14.7214 10.8015 14.9997 11.6037 14.9997C13.4792 14.9997 15 13.4792 15 11.6037C15 10.8015 14.7217 10.0645 14.2568 9.48351H14.2565ZM7.17877 13.244C5.85985 13.2425 4.67979 13.1523 3.57151 12.9683C3.07904 12.8801 2.58013 12.6039 2.16675 12.1905C1.75338 11.7771 1.47741 11.2785 1.38894 10.7857C1.20496 9.67862 1.11502 8.49856 1.11326 7.17847C1.11472 5.85897 1.20496 4.67891 1.38894 3.57122C1.47712 3.07875 1.75338 2.58013 2.16675 2.16675C2.58013 1.75338 3.07875 1.47741 3.57151 1.38894C4.67921 1.20496 5.85926 1.11502 7.17877 1.11326C8.49769 1.11472 9.67774 1.20496 10.786 1.38894C11.2785 1.47712 11.7771 1.75338 12.1908 2.16675C12.6041 2.58013 12.8801 3.07875 12.9686 3.57151C13.1526 4.67979 13.2425 5.85955 13.2443 7.17877C13.2437 7.67387 13.2302 8.14877 13.2044 8.60813C12.7275 8.35267 12.1826 8.20795 11.6037 8.20795C9.72813 8.20795 8.20736 9.72842 8.20736 11.604C8.20736 12.1829 8.35238 12.7275 8.60755 13.2044C8.14818 13.2302 7.67329 13.2437 7.17847 13.244H7.17877ZM11.6037 13.8864C10.3448 13.8864 9.32062 12.8625 9.32062 11.6037C9.32062 10.3448 10.3448 9.32091 11.6037 9.32091C12.8625 9.32091 13.8867 10.3448 13.8867 11.6037C13.8867 12.8625 12.8625 13.8864 11.6037 13.8864Z" fill="black"/>
<path id="Vector_4" d="M11.902 12.2529C11.8311 12.2412 11.7348 12.23 11.6032 12.23C11.4717 12.23 11.3753 12.2412 11.3044 12.2529C11.1878 12.2734 11.0817 12.3795 11.0609 12.4963C11.0492 12.5672 11.0381 12.6636 11.0381 12.7952C11.0381 12.9267 11.0492 13.0231 11.0609 13.094C11.0814 13.2106 11.1875 13.3166 11.3044 13.3374C11.3753 13.3492 11.4717 13.3603 11.6032 13.3603C11.7348 13.3603 11.8311 13.3492 11.902 13.3374C12.0186 13.3169 12.1247 13.2109 12.1455 13.094C12.1572 13.0231 12.1683 12.9267 12.1683 12.7952C12.1683 12.6636 12.1572 12.5672 12.1455 12.4963C12.125 12.3797 12.0189 12.2737 11.902 12.2529Z" fill="black"/>
<path id="Vector_5" d="M11.6035 11.8835C11.9108 11.8835 12.1601 11.6341 12.1601 11.3268V10.3981C12.1601 10.0908 11.9108 9.84151 11.6035 9.84151C11.2962 9.84151 11.0469 10.0908 11.0469 10.3981V11.3268C11.0469 11.6341 11.2962 11.8835 11.6035 11.8835Z" fill="black"/>
</g>
</svg>
