<svg width="35" height="36" viewBox="0 0 35 36" fill="none" xmlns="http://www.w3.org/2000/svg">
<g id="XMLID_1055_">
<g id="XMLID_1005_">
<g id="XMLID_1033_">
<g id="XMLID_1419_">
<g id="XMLID_1423_">
<path id="XMLID_1054_" d="M4.04349 27.4849C3.86856 27.4849 3.69356 27.4181 3.56012 27.2846C3.29318 27.0177 3.29318 26.5848 3.56012 26.3178L5.67927 24.1987C5.94621 23.9317 6.37906 23.9317 6.64607 24.1987C6.91308 24.4656 6.91301 24.8985 6.64607 25.1655L4.52693 27.2846C4.39342 27.4181 4.21843 27.4849 4.04349 27.4849Z" fill="#005CE8"/>
</g>
<g id="XMLID_1420_">
<path id="XMLID_1053_" d="M28.8375 27.4849C28.6625 27.4849 28.4875 27.4182 28.3541 27.2847C28.0872 27.0177 28.0872 26.5849 28.3541 26.3178L30.4732 24.1987C30.7402 23.9318 31.173 23.9318 31.4401 24.1987C31.7071 24.4657 31.707 24.8985 31.4401 25.1655L29.3209 27.2847C29.1874 27.4182 29.0124 27.4849 28.8375 27.4849Z" fill="#005CE8"/>
</g>
</g>
<g id="XMLID_1415_">
<g id="XMLID_1418_">
<path id="XMLID_1045_" d="M6.16263 32.2358C5.9877 32.2358 5.8127 32.1691 5.67926 32.0356C5.41232 31.7687 5.41232 31.3358 5.67926 31.0688L7.79841 28.9497C8.06535 28.6827 8.4982 28.6827 8.76521 28.9497C9.03222 29.2166 9.03216 29.6495 8.76521 29.9165L6.64607 32.0356C6.51257 32.1691 6.33757 32.2358 6.16263 32.2358Z" fill="#005CE8"/>
</g>
<g id="XMLID_1416_">
<path id="XMLID_1042_" d="M22.6919 32.2359C22.517 32.2359 22.342 32.1691 22.2086 32.0356C21.9416 31.7687 21.9416 31.3358 22.2086 31.0688L24.3277 28.9497C24.5947 28.6827 25.0275 28.6827 25.2945 28.9497C25.5615 29.2166 25.5615 29.6495 25.2945 29.9165L23.1754 32.0356C23.0419 32.1691 22.8669 32.2359 22.6919 32.2359Z" fill="#005CE8"/>
</g>
</g>
</g>
<path id="XMLID_1010_" d="M33.7022 12.7763C33.0249 11.9417 32.125 11.3097 31.1208 10.9534C31.2321 10.3924 31.2884 9.81971 31.2884 9.24357C31.2884 4.42232 27.3659 0.499931 22.5446 0.499931C20.3697 0.499931 18.285 1.3037 16.6748 2.76324C15.3561 3.95844 14.4424 5.51156 14.0373 7.21829C12.7835 6.55145 11.2713 6.48705 9.93829 7.09422C8.42611 7.78294 7.4267 9.19989 7.24992 10.7983C6.7848 10.6799 6.30615 10.6203 5.81841 10.6203C2.61017 10.6203 0 13.2304 0 16.4387C0 19.6471 2.61017 22.2572 5.81848 22.2572H12.8015L10.5845 26.4292C10.4719 26.641 10.4787 26.8964 10.6023 27.1021C10.7259 27.3078 10.9482 27.4336 11.1882 27.4336H15.1515L12.6712 34.5926C12.5638 34.9027 12.6919 35.2454 12.9764 35.409C13.0831 35.4703 13.2005 35.5001 13.3168 35.5001C13.5108 35.5001 13.7017 35.4176 13.8355 35.2621L23.2103 24.3588C23.3844 24.1562 23.4246 23.8708 23.3132 23.628C23.2018 23.3851 22.9591 23.2295 22.692 23.2295H20.6715L23.5772 18.3589C23.7032 18.1477 23.7061 17.885 23.5846 17.6711C23.4631 17.4572 23.2361 17.325 22.9901 17.325H15.8332C15.5803 17.325 15.3482 17.4646 15.2295 17.6879L13.5279 20.89H5.81848C3.36403 20.89 1.36719 18.8932 1.36719 16.4387C1.36719 13.9843 3.36403 11.9875 5.81848 11.9875C6.45477 11.9875 7.07068 12.1201 7.64928 12.3817C7.87315 12.483 8.13449 12.4561 8.33328 12.3114C8.53207 12.1667 8.63782 11.9263 8.61014 11.682C8.45065 10.2709 9.21211 8.92721 10.5049 8.33843C11.6996 7.79436 13.0981 8.01495 14.0679 8.90034C14.2585 9.07432 14.5307 9.1262 14.7718 9.03446C15.0129 8.94279 15.1819 8.72315 15.2087 8.4666C15.6023 4.70431 18.756 1.86712 22.5446 1.86712C26.612 1.86712 29.9212 5.17619 29.9212 9.24364C29.9212 9.92272 29.8288 10.5956 29.6467 11.2437C29.5959 11.4244 29.6217 11.6181 29.7179 11.7792C29.8142 11.9404 29.9726 12.0549 30.1558 12.0957C32.1705 12.5455 33.6328 14.372 33.6328 16.4387C33.6328 18.8932 31.636 20.89 29.1815 20.89H26.3491C25.9716 20.89 25.6655 21.1961 25.6655 21.5736C25.6655 21.9512 25.9716 22.2572 26.3491 22.2572H29.1815C32.3898 22.2572 35 19.6471 35 16.4387C35 15.1083 34.5391 13.8076 33.7022 12.7763ZM16.2441 18.6922H21.7863L18.8805 23.5628C18.7545 23.774 18.7517 24.0367 18.8731 24.2506C18.9946 24.4645 19.2216 24.5967 19.4676 24.5967H21.2026L15.1372 31.651L16.7577 26.9738C16.8301 26.7648 16.7969 26.5337 16.6686 26.3536C16.5404 26.1734 16.3329 26.0664 16.1118 26.0664H12.3255L16.2441 18.6922Z" fill="#005CE8"/>
</g>
</g>
</svg>
