<svg width="11" height="12" viewBox="0 0 11 12" fill="none" xmlns="http://www.w3.org/2000/svg">
<path d="M9.25762 5.66017H9.6428C9.57208 4.83008 9.24192 4.07295 8.73386 3.47029L8.46282 3.74133C8.33163 3.87252 8.11896 3.87252 7.98777 3.74133C7.85658 3.61017 7.85658 3.39747 7.98777 3.26628L8.25881 2.99524C7.65615 2.48718 6.89903 2.15702 6.06894 2.0863V2.47149C6.05118 2.91718 5.41469 2.91684 5.39711 2.47149V2.0863C4.56702 2.15702 3.80989 2.48718 3.20723 2.99524L3.47827 3.26628C3.60946 3.39745 3.60946 3.61015 3.47827 3.74133C3.34709 3.87252 3.13441 3.87252 3.00322 3.74133L2.73218 3.47029C2.22412 4.07295 1.89396 4.83006 1.82324 5.66017H2.20842C2.65412 5.67793 2.65378 6.31442 2.20842 6.332H1.82324C1.89396 7.16209 2.22412 7.91922 2.73216 8.52187L3.00322 8.25081C3.13441 8.11965 3.34709 8.1196 3.47827 8.25081C3.60946 8.38197 3.60946 8.59465 3.47827 8.72586L3.20721 8.99692C3.80986 9.50498 4.56697 9.83514 5.39708 9.90584V9.52066C5.41484 9.07496 6.05133 9.0753 6.06891 9.52066V9.90584C6.899 9.83512 7.65613 9.50496 8.25876 8.99692L7.9877 8.72584C7.85652 8.59465 7.85654 8.38197 7.98772 8.25076C8.11889 8.11962 8.33159 8.11965 8.46278 8.25079L8.73381 8.52185C9.24187 7.91919 9.57203 7.16209 9.64275 6.33197H9.25757C8.81193 6.31426 8.81226 5.67775 9.25762 5.66017ZM6.87753 7.14059C6.74634 7.27177 6.53366 7.2718 6.40248 7.14059L5.49551 6.23362C5.43251 6.17065 5.39711 6.08519 5.39711 5.9961V4.51808C5.41486 4.07239 6.05136 4.07272 6.06894 4.51808V5.85697L6.8775 6.66554C7.00871 6.7967 7.00871 7.0094 6.87753 7.14059Z" fill="#888888"/>
<path d="M10.8006 7.88292C10.631 7.80752 10.4325 7.8838 10.3571 8.05328C8.07846 12.9994 0.746221 11.4464 0.671849 5.99596C0.654068 1.87581 5.43756 -0.536173 8.73649 1.92266L8.48086 1.91527C8.03476 1.92095 8.01685 2.55615 8.46149 2.58683L9.81023 2.62575C9.9214 2.62902 10.0278 2.57657 10.0928 2.48587C10.1579 2.3952 10.1737 2.27812 10.135 2.17343L9.66686 0.907924C9.60252 0.733943 9.40933 0.645082 9.23528 0.709421C9.06127 0.773783 8.97241 0.967023 9.03678 1.141L9.12239 1.37245C6.92376 -0.289634 3.59751 -0.047193 1.67917 1.94227C-1.9157 5.54433 0.644596 11.7242 5.73301 11.7289C7.99528 11.729 10.0513 10.3934 10.9709 8.32638C11.0463 8.15687 10.9701 7.95835 10.8006 7.88292Z" fill="#888888"/>
</svg>
