<svg width="11" height="12" viewBox="0 0 11 12" fill="none" xmlns="http://www.w3.org/2000/svg">
<path d="M5.5 0.5C4.4122 0.5 3.34884 0.822569 2.44437 1.42692C1.5399 2.03126 0.834947 2.89025 0.418665 3.89524C0.00238305 4.90023 -0.106535 6.0061 0.105683 7.07299C0.317902 8.13989 0.841726 9.1199 1.61091 9.88908C2.3801 10.6583 3.36011 11.1821 4.42701 11.3943C5.4939 11.6065 6.59977 11.4976 7.60476 11.0813C8.60975 10.6651 9.46874 9.9601 10.0731 9.05563C10.6774 8.15116 11 7.0878 11 6C10.9983 4.54182 10.4183 3.14384 9.38725 2.11275C8.35616 1.08167 6.95818 0.501668 5.5 0.5ZM7.53885 8.03885C7.48779 8.08993 7.42717 8.13045 7.36045 8.1581C7.29373 8.18575 7.22221 8.19998 7.14998 8.19998C7.07776 8.19998 7.00624 8.18575 6.93952 8.1581C6.8728 8.13045 6.81218 8.08993 6.76112 8.03885L5.11112 6.38885C5.06003 6.3378 5.01951 6.27718 4.99186 6.21046C4.96422 6.14374 4.94999 6.07222 4.95 6V2.7C4.95 2.55413 5.00795 2.41424 5.11109 2.31109C5.21424 2.20795 5.35413 2.15 5.5 2.15C5.64587 2.15 5.78577 2.20795 5.88891 2.31109C5.99206 2.41424 6.05 2.55413 6.05 2.7V5.77227L7.53885 7.26112C7.58994 7.31217 7.63046 7.37279 7.65811 7.43952C7.68576 7.50624 7.69999 7.57776 7.69999 7.64998C7.69999 7.72221 7.68576 7.79372 7.65811 7.86045C7.63046 7.92717 7.58994 7.98779 7.53885 8.03885Z" fill="#888888"/>
</svg>
