<svg width="20" height="20" viewBox="0 0 20 20" fill="none" xmlns="http://www.w3.org/2000/svg">
<g id="Group">
<path id="Vector" d="M10.6978 9.06961C10.6978 8.68431 10.3854 8.37193 10.0001 8.37193C9.6148 8.37193 9.30243 8.68431 9.30243 9.06961V14.651C9.30243 15.0363 9.6148 15.3487 10.0001 15.3487C10.3854 15.3487 10.6978 15.0363 10.6978 14.651V9.06961Z" fill="black"/>
<path id="Vector_2" fill-rule="evenodd" clip-rule="evenodd" d="M10 0C4.47715 0 0 4.47715 0 10C0 15.5229 4.47715 20 10 20C15.5229 20 20 15.5229 20 10C20 4.47715 15.5229 0 10 0ZM1.39535 10C1.39535 5.24779 5.24779 1.39535 10 1.39535C14.7522 1.39535 18.6047 5.24779 18.6047 10C18.6047 14.7522 14.7522 18.6047 10 18.6047C5.24779 18.6047 1.39535 14.7522 1.39535 10Z" fill="black"/>
<path id="Vector_3" d="M10.9313 6.279C10.9313 6.79275 10.5149 7.20924 10.0011 7.20924C9.48733 7.20924 9.07086 6.79275 9.07086 6.279C9.07086 5.76525 9.48733 5.34877 10.0011 5.34877C10.5149 5.34877 10.9313 5.76525 10.9313 6.279Z" fill="black"/>
</g>
</svg>
