<svg width="18" height="20" viewBox="0 0 18 20" fill="none" xmlns="http://www.w3.org/2000/svg">
<g id="Group 1171275279">
<path id="Vector" d="M8.35746 6.42869V5.00016C8.35746 4.60732 8.03604 4.2859 7.6432 4.2859H6.21467V2.14312H7.28607C7.67891 2.14312 8.00033 1.8217 8.00033 1.42885V0.714592C8.00033 0.321748 7.67891 0.000329971 7.28607 0.000329971H2.64336C2.57551 0.000329971 2.51123 0.0181866 2.45408 0.0538997L0.336298 1.38243C0.175589 1.48242 0.0613066 1.64313 0.0184509 1.82884C-0.0244048 2.01455 0.0077369 2.2074 0.111305 2.36811L0.493435 2.97166C0.629145 3.18594 0.86128 3.30736 1.10056 3.30736C1.22913 3.30736 1.36126 3.27165 1.47912 3.20022L3.16478 2.14312H4.07546V4.2859H2.64694C2.25409 4.2859 1.93267 4.60732 1.93267 5.00016V6.42869C1.14341 6.42869 0.504149 7.06795 0.504149 7.85721V18.5711C0.504149 19.3604 1.14341 19.9997 1.93267 19.9997H8.36103C9.15029 19.9997 9.78956 19.3604 9.78956 18.5711V7.85721C9.78956 7.06795 9.15029 6.42869 8.36103 6.42869H8.35746ZM3.05764 1.42885C2.98978 1.42885 2.9255 1.44671 2.86836 1.48242L1.09699 2.5931L0.714857 1.98598L2.74693 0.711021H7.28607V1.42528H3.05764V1.42885ZM4.78615 2.14312H5.50041V4.2859H4.78615V2.14312ZM2.64336 5.00016H3.35763V5.3573C3.35763 5.55372 3.51834 5.71443 3.71476 5.71443C3.91118 5.71443 4.07189 5.55372 4.07189 5.3573V5.00016H4.78615V5.3573C4.78615 5.55372 4.94686 5.71443 5.14328 5.71443C5.3397 5.71443 5.50041 5.55372 5.50041 5.3573V5.00016H6.21467V5.3573C6.21467 5.55372 6.37538 5.71443 6.57181 5.71443C6.76823 5.71443 6.92894 5.55372 6.92894 5.3573V5.00016H7.6432V6.42869H2.64336V5.00016ZM9.07172 18.5711C9.07172 18.964 8.75031 19.2854 8.35746 19.2854H1.9291C1.53626 19.2854 1.21484 18.964 1.21484 18.5711V7.85721C1.21484 7.46437 1.53626 7.14295 1.9291 7.14295H8.35746C8.75031 7.14295 9.07172 7.46437 9.07172 7.85721V18.5711ZM7.28607 8.21434H3.0005C2.60765 8.21434 2.28623 8.53576 2.28623 8.92861V17.4998C2.28623 17.8926 2.60765 18.214 3.0005 18.214H7.28607C7.67891 18.214 8.00033 17.8926 8.00033 17.4998V8.92861C8.00033 8.53576 7.67891 8.21434 7.28607 8.21434ZM3.0005 17.4998V8.92861H7.28607V17.4998H3.0005ZM18 0.714592C18 0.321748 17.6786 0.000329971 17.2857 0.000329971H12.2859C11.8931 0.000329971 11.5716 0.321748 11.5716 0.714592V1.78599L12.2359 15.7855C12.2609 16.3176 12.5788 16.7605 13.0216 16.9855L13.3216 19.3747C13.3644 19.7318 13.6716 19.9997 14.0287 19.9997H15.5394C15.9001 19.9997 16.2036 19.7318 16.2465 19.3747L16.5465 16.9855C16.9929 16.7605 17.3072 16.3176 17.3322 15.7855C17.3322 15.7855 17.9964 1.78956 17.9964 1.78599V0.714592H18ZM17.1 5.71443H12.4752L12.3073 2.14312H17.2715L17.1036 5.71443H17.1ZM12.5073 6.42869H17.0643L16.7929 12.1428H12.7752L12.5038 6.42869H12.5073ZM17.2857 0.714592V1.42885H12.2859V0.714592H17.2857ZM15.5429 19.2854H14.0323L13.7644 17.1426H15.8108L15.5429 19.2854ZM15.9108 16.4284H13.6644C13.2823 16.4284 12.9716 16.1319 12.9502 15.7498L12.8145 12.857H16.7643L16.6286 15.7498C16.6108 16.1319 16.2965 16.4284 15.9144 16.4284H15.9108Z" fill="#005CE8"/>
</g>
</svg>
