<svg width="64" height="64" viewBox="0 0 64 64" fill="none" xmlns="http://www.w3.org/2000/svg">
<g id="Group">
<path id="Vector" d="M50.875 7.5H52.75V9.375H50.875V7.5Z" fill="black"/>
<path id="Vector_2" d="M54.625 7.5H56.5V9.375H54.625V7.5Z" fill="black"/>
<path id="Vector_3" d="M32 54.5C44.4065 54.5 54.5 44.4065 54.5 32C54.5 19.5935 44.4065 9.5 32 9.5C19.5935 9.5 9.5 19.5935 9.5 32C9.5 44.4065 19.5935 54.5 32 54.5ZM32 11.375C43.3726 11.375 52.625 20.6274 52.625 32C52.625 43.3726 43.3726 52.625 32 52.625C20.6274 52.625 11.375 43.3726 11.375 32C11.375 20.6274 20.6274 11.375 32 11.375Z" fill="black"/>
<path id="Vector_4" d="M43.2501 36.6875C45.8349 36.6875 47.9376 34.5848 47.9376 32C47.9376 29.4153 45.8349 27.3125 43.2501 27.3125C40.6654 27.3125 38.5625 29.4153 38.5625 32C38.5625 34.5848 40.6654 36.6875 43.2501 36.6875ZM43.2501 29.1875C44.8009 29.1875 46.0626 30.4491 46.0626 32C46.0626 33.5509 44.8009 34.8125 43.2501 34.8125C41.6993 34.8125 40.4375 33.5509 40.4375 32C40.4375 30.4491 41.6993 29.1875 43.2501 29.1875Z" fill="black"/>
<path id="Vector_5" d="M20.7498 36.6875C23.3345 36.6875 25.4374 34.5848 25.4374 32C25.4374 29.4153 23.3345 27.3125 20.7498 27.3125C18.165 27.3125 16.0623 29.4153 16.0623 32C16.0623 34.5848 18.165 36.6875 20.7498 36.6875ZM20.7498 29.1875C22.3006 29.1875 23.5624 30.4491 23.5624 32C23.5624 33.5509 22.3006 34.8125 20.7498 34.8125C19.199 34.8125 17.9373 33.5509 17.9373 32C17.9373 30.4491 19.199 29.1875 20.7498 29.1875Z" fill="black"/>
<path id="Vector_6" d="M1.875 61.1875V9.375H0V61.1875C0 62.7384 1.26175 64 2.8125 64H54.625V62.125H2.8125C2.2955 62.125 1.875 61.7045 1.875 61.1875Z" fill="black"/>
<path id="Vector_7" d="M61.1875 0H2.8125C1.26175 0 0 1.26163 0 2.8125V7.5H1.875V2.8125C1.875 2.2955 2.2955 1.875 2.8125 1.875H61.1875C61.7045 1.875 62.125 2.2955 62.125 2.8125V61.1875C62.125 61.7045 61.7045 62.125 61.1875 62.125H56.5001V64H61.1875C62.7383 64 64 62.7384 64 61.1875V2.8125C64 1.26163 62.7383 0 61.1875 0Z" fill="black"/>
<path id="Vector_8" d="M60.25 3.75H3.75V60.25H60.25V3.75ZM58.375 58.375H5.625V5.625H58.375V58.375Z" fill="black"/>
</g>
</svg>
