<svg width="64" height="64" viewBox="0 0 64 64" fill="none" xmlns="http://www.w3.org/2000/svg">
<g id="Group">
<path id="Vector" d="M42.3125 42.7812C44.3802 42.7812 46.0625 41.099 46.0625 39.0312C46.0625 36.9635 44.3802 35.2812 42.3125 35.2812C40.2448 35.2812 38.5625 36.9635 38.5625 39.0312C38.5625 41.099 40.2448 42.7812 42.3125 42.7812ZM42.3125 37.1562C43.3464 37.1562 44.1875 37.9974 44.1875 39.0312C44.1875 40.0651 43.3464 40.9062 42.3125 40.9062C41.2786 40.9062 40.4375 40.0651 40.4375 39.0312C40.4375 37.9974 41.2786 37.1562 42.3125 37.1562Z" fill="black"/>
<path id="Vector_2" d="M21.6875 42.7812C23.7552 42.7812 25.4375 41.099 25.4375 39.0312C25.4375 36.9635 23.7552 35.2812 21.6875 35.2812C19.6198 35.2812 17.9375 36.9635 17.9375 39.0312C17.9375 41.099 19.6198 42.7812 21.6875 42.7812ZM21.6875 37.1562C22.7214 37.1562 23.5625 37.9974 23.5625 39.0312C23.5625 40.0651 22.7214 40.9062 21.6875 40.9062C20.6536 40.9062 19.8125 40.0651 19.8125 39.0312C19.8125 37.9974 20.6536 37.1562 21.6875 37.1562Z" fill="black"/>
<path id="Vector_3" d="M32 28.7188C34.5848 28.7188 36.6875 26.616 36.6875 24.0312C36.6875 21.4465 34.5848 19.3438 32 19.3438C29.4153 19.3438 27.3125 21.4465 27.3125 24.0312C27.3125 26.616 29.4153 28.7188 32 28.7188ZM32 21.2188C33.5509 21.2188 34.8125 22.4805 34.8125 24.0312C34.8125 25.582 33.5509 26.8438 32 26.8438C30.4491 26.8438 29.1875 25.582 29.1875 24.0312C29.1875 22.4805 30.4491 21.2188 32 21.2188Z" fill="black"/>
<path id="Vector_4" d="M12.3125 54.5H51.6875C53.2384 54.5 54.5 53.2383 54.5 51.6875V12.3125C54.5 10.7617 53.2384 9.5 51.6875 9.5H12.3125C10.7616 9.5 9.5 10.7617 9.5 12.3125V51.6875C9.5 53.2383 10.7616 54.5 12.3125 54.5ZM11.375 12.3125C11.375 11.7955 11.7955 11.375 12.3125 11.375H51.6875C52.2045 11.375 52.625 11.7955 52.625 12.3125V51.6875C52.625 52.2045 52.2045 52.625 51.6875 52.625H12.3125C11.7955 52.625 11.375 52.2045 11.375 51.6875V12.3125Z" fill="black"/>
<path id="Vector_5" d="M48.875 13.25H50.75V15.125H48.875V13.25Z" fill="black"/>
<path id="Vector_6" d="M48.875 17H50.75V18.875H48.875V17Z" fill="black"/>
<path id="Vector_7" d="M1.875 61.1875V9.375H0V61.1875C0 62.7383 1.26163 64 2.8125 64H54.625V62.125H2.8125C2.2955 62.125 1.875 61.7045 1.875 61.1875Z" fill="black"/>
<path id="Vector_8" d="M61.1875 0H2.8125C1.26163 0 0 1.26175 0 2.8125V7.5H1.875V2.8125C1.875 2.2955 2.2955 1.875 2.8125 1.875H61.1875C61.7045 1.875 62.125 2.2955 62.125 2.8125V61.1875C62.125 61.7045 61.7045 62.125 61.1875 62.125H56.5V64H61.1875C62.7384 64 64 62.7383 64 61.1875V2.8125C64 1.26175 62.7384 0 61.1875 0Z" fill="black"/>
<path id="Vector_9" d="M60.25 3.75H3.75V60.25H60.25V3.75ZM58.375 58.375H5.625V5.625H58.375V58.375Z" fill="black"/>
</g>
</svg>
