<svg width="14" height="14" viewBox="0 0 14 14" fill="none" xmlns="http://www.w3.org/2000/svg">
<g id="Group">
<g id="Group_2">
<path id="Vector" d="M3.27165 2.83865L8.85278 1.31524L8.55722 0.717822C8.36384 0.329501 7.8922 0.169142 7.50388 0.362516L2.50758 2.83865H3.27165Z" fill="#888888"/>
<path id="Vector_2" d="M10.5853 1.35925C10.5161 1.35925 10.4469 1.36869 10.3778 1.38755L9.06661 1.746L5.06232 2.83865H9.60741H11.5883L11.3431 1.93938C11.2487 1.58879 10.9312 1.35925 10.5853 1.35925Z" fill="#888888"/>
<path id="Vector_3" d="M12.4074 3.38892H12.2282H11.9845H11.7408H9.88097H3.04683H2.1507H1.39607H1.25615H0.787647C0.539248 3.38892 0.317574 3.50368 0.172937 3.68448C0.106906 3.7678 0.0565974 3.86371 0.0282987 3.96904C0.0110051 4.03507 0 4.10424 0 4.17499V4.26932V5.16545V12.9334C0 13.3674 0.352162 13.7195 0.786075 13.7195H12.4058C12.8398 13.7195 13.1919 13.3674 13.1919 12.9334V10.7403H8.52734C7.79001 10.7403 7.19102 10.1413 7.19102 9.40396V8.68392V8.44024V8.19655V7.65573C7.19102 7.29414 7.33564 6.96557 7.5699 6.72503C7.77743 6.51121 8.0557 6.36657 8.36699 6.33041C8.41887 6.32414 8.47232 6.32098 8.52577 6.32098H12.5379H12.7816H13.0253H13.1919V4.17499C13.1935 3.74108 12.8413 3.38892 12.4074 3.38892Z" fill="#888888"/>
<path id="Vector_4" d="M13.7437 7.07245C13.6651 7.00013 13.5724 6.94511 13.4686 6.90895C13.3884 6.88224 13.3035 6.86652 13.2139 6.86652H13.1935H13.1778H12.9341H12.0552H8.52734C8.09341 6.86652 7.74126 7.21866 7.74126 7.65259V8.04404V8.28772V8.53141V9.40238C7.74126 9.83629 8.09341 10.1885 8.52734 10.1885H13.1935H13.2139C13.3035 10.1885 13.3884 10.1727 13.4686 10.146C13.5724 10.1114 13.6651 10.0548 13.7437 9.9825C13.901 9.83944 14 9.63191 14 9.40239V7.65259C14 7.42304 13.901 7.2155 13.7437 7.07245ZM10.1687 8.68391C10.1687 8.90086 9.99258 9.07694 9.77563 9.07694H9.51465C9.29769 9.07694 9.12161 8.90086 9.12161 8.68391V8.42293C9.12161 8.29716 9.17978 8.18552 9.27254 8.11477C9.34014 8.06289 9.42348 8.02989 9.51465 8.02989H9.58068H9.77563C9.99258 8.02989 10.1687 8.20596 10.1687 8.42293V8.68391Z" fill="#888888"/>
</g>
</g>
</svg>
