<svg width="16" height="14" viewBox="0 0 16 14" fill="none" xmlns="http://www.w3.org/2000/svg">
<g id="Group 1171275282">
<path id="Vector" d="M5.91246 3.18761C5.93275 3.1877 5.95304 3.18779 5.97395 3.18788C6.93908 3.1941 7.79332 3.58521 8.47731 4.26604C8.75417 4.55452 8.95566 4.88953 9.13371 5.24563C9.18879 5.25741 9.18879 5.25741 9.25538 5.26001C9.28073 5.26185 9.30607 5.26369 9.33219 5.26558C9.3595 5.26744 9.3868 5.26929 9.41494 5.2712C9.68433 5.29332 9.92781 5.3364 10.1856 5.42094C10.2172 5.43111 10.2488 5.44128 10.2814 5.45176C10.6604 5.58514 10.9924 5.80297 11.2958 6.06373C11.3158 6.07981 11.3358 6.09589 11.3563 6.11246C11.7203 6.41293 11.9844 6.83264 12.1724 7.26166C12.1724 7.28094 12.1724 7.30022 12.1724 7.32009C12.19 7.31948 12.2076 7.31887 12.2257 7.31824C12.8184 7.30047 13.307 7.37312 13.8378 7.64149C13.8687 7.65712 13.8996 7.67275 13.9315 7.68885C14.6486 8.08078 15.1513 8.76314 15.3808 9.53882C15.5437 10.097 15.5432 10.7695 15.3571 11.3229C15.3468 11.3552 15.3366 11.3874 15.326 11.4206C15.0588 12.1851 14.511 12.7808 13.7991 13.1565C13.3899 13.3534 12.9658 13.4652 12.5114 13.4636C12.4826 13.4638 12.4538 13.4639 12.4241 13.464C12.3286 13.4644 12.233 13.4644 12.1375 13.4643C12.0686 13.4645 11.9997 13.4647 11.9308 13.4649C11.7442 13.4654 11.5577 13.4656 11.3711 13.4656C11.2544 13.4656 11.1376 13.4658 11.0209 13.4659C10.634 13.4664 10.2472 13.4667 9.86032 13.4667C9.83951 13.4667 9.8187 13.4667 9.79726 13.4666C9.76601 13.4666 9.76601 13.4666 9.73413 13.4666C9.39685 13.4666 9.05958 13.4672 8.7223 13.468C8.37499 13.4688 8.02768 13.4692 7.68037 13.4692C7.48578 13.4692 7.2912 13.4693 7.09661 13.47C6.91344 13.4705 6.73027 13.4705 6.54709 13.4701C6.48021 13.47 6.41332 13.4702 6.34644 13.4705C5.88143 13.4728 5.41743 13.4568 4.9994 13.2276C4.9802 13.2175 4.96099 13.2074 4.9412 13.197C4.78647 13.1137 4.64961 13.0164 4.51731 12.9007C4.48839 12.878 4.48839 12.878 4.45888 12.8548C4.01581 12.4965 3.71703 11.9126 3.64078 11.3521C3.59267 10.7837 3.67274 10.3237 3.90374 9.8036C3.92342 9.75499 3.94297 9.70632 3.96217 9.65751C3.93916 9.64083 3.91615 9.62414 3.89244 9.60695C3.07866 9.00599 2.58061 8.20391 2.41363 7.20322C2.40781 7.16882 2.40781 7.16882 2.40188 7.13372C2.28037 6.25655 2.53 5.33892 3.04912 4.62784C3.15265 4.49644 3.26213 4.37298 3.37782 4.25223C3.39782 4.23039 3.41782 4.20854 3.43842 4.18603C3.79613 3.80783 4.26039 3.5335 4.75105 3.36657C4.78061 3.35647 4.78061 3.35647 4.81077 3.34617C5.17478 3.22984 5.53146 3.18404 5.91246 3.18761ZM4.13748 4.77815C4.11688 4.79638 4.09628 4.81461 4.07505 4.83339C3.62252 5.25658 3.31656 5.91105 3.29017 6.53121C3.28866 6.55607 3.28715 6.58093 3.2856 6.60654C3.26205 7.32471 3.53624 7.99123 4.02061 8.51802C4.2003 8.69746 4.38781 8.8536 4.60496 8.9855C4.67679 8.95076 4.74615 8.91342 4.81577 8.87434C5.14118 8.69216 5.4634 8.58128 5.83211 8.51802C5.83589 8.46757 5.83589 8.46757 5.83976 8.4161C5.92067 7.45451 6.29556 6.64103 7.03004 6.00529C7.37093 5.73082 7.77003 5.56182 8.16953 5.39172C7.78248 4.75847 7.23425 4.33294 6.50716 4.15017C5.6522 3.95166 4.78338 4.18964 4.13748 4.77815ZM7.38978 6.88731C6.93424 7.36104 6.72461 7.97054 6.73603 8.61846C6.73721 8.65064 6.73838 8.68283 6.73959 8.71599C6.74509 8.90618 6.73965 9.07644 6.65021 9.24846C6.5274 9.3627 6.40495 9.38939 6.24116 9.39455C6.2022 9.39276 6.16324 9.39093 6.12429 9.38907C5.70158 9.38542 5.29009 9.57043 4.98662 9.85656C4.64898 10.2147 4.53109 10.6133 4.53843 11.0918C4.54567 11.2795 4.58968 11.4427 4.6634 11.6151C4.68097 11.6563 4.68097 11.6563 4.69889 11.6984C4.87969 12.0705 5.20779 12.3504 5.59403 12.4932C5.89728 12.5829 6.20697 12.5836 6.52092 12.5831C6.5602 12.5831 6.59948 12.5832 6.63875 12.5832C6.74521 12.5834 6.85167 12.5833 6.95813 12.5832C7.04838 12.5832 7.13863 12.5832 7.22888 12.5833C7.51984 12.5834 7.8108 12.5833 8.10176 12.583C8.17669 12.5829 8.25163 12.5829 8.32656 12.5828C9.0233 12.5824 9.72004 12.5813 10.4168 12.5794C10.4752 12.5793 10.5335 12.5791 10.5919 12.579C10.9694 12.5781 11.3468 12.5766 11.7243 12.5732C11.8163 12.5723 11.9083 12.5717 12.0003 12.5714C12.124 12.5709 12.2476 12.5694 12.3713 12.5679C12.4052 12.5678 12.4391 12.5678 12.4741 12.5678C12.799 12.5619 13.1134 12.477 13.4032 12.3291C13.4322 12.3144 13.4322 12.3144 13.4619 12.2994C13.6666 12.1901 13.8237 12.0439 13.9839 11.8781C14.0054 11.8574 14.0269 11.8368 14.0491 11.8155C14.4185 11.4405 14.5778 10.9033 14.5828 10.3898C14.5766 9.75959 14.3456 9.2231 13.8962 8.78098C13.4513 8.38004 12.9119 8.2053 12.3184 8.19663C12.2513 8.20102 12.1858 8.20855 12.1192 8.21785C12.043 8.22741 11.9679 8.23227 11.8911 8.23497C11.8535 8.23661 11.8535 8.23661 11.8151 8.23828C11.7007 8.22072 11.614 8.18751 11.5296 8.10897C11.4725 8.01076 11.4359 7.90725 11.3981 7.80036C11.1643 7.18807 10.7558 6.67721 10.1563 6.38513C9.16864 5.97639 8.17613 6.15283 7.38978 6.88731Z" fill="#005CE8"/>
<path id="Vector_2" d="M1.98269 8.73898C2.10057 8.84346 2.17346 8.95099 2.18459 9.11139C2.17443 9.25834 2.13879 9.37485 2.03382 9.4822C1.92325 9.55968 1.80664 9.62489 1.68868 9.69038C1.65748 9.70812 1.62627 9.72586 1.59412 9.74414C1.53379 9.77839 1.47332 9.8124 1.4127 9.84614C1.34686 9.88322 1.28252 9.92186 1.21812 9.96133C1.07939 10.0334 0.959158 10.0303 0.806672 10.0081C0.697661 9.97119 0.622461 9.91907 0.553642 9.82483C0.508949 9.73388 0.501842 9.6726 0.501712 9.57168C0.501147 9.54249 0.500582 9.51331 0.5 9.48323C0.51852 9.36992 0.549969 9.29847 0.631366 9.21924C0.742114 9.14201 0.858529 9.07657 0.9765 9.01107C1.0077 8.99333 1.03891 8.97559 1.07106 8.95731C1.13129 8.92312 1.19163 8.88909 1.25208 8.85527C1.31951 8.81752 1.38662 8.7793 1.45357 8.74069C1.6337 8.63857 1.79751 8.64995 1.98269 8.73898Z" fill="#005CE8"/>
<path id="Vector_3" d="M1.12813 3.40492C1.25006 3.45086 1.35719 3.51364 1.46779 3.58205C1.49581 3.59845 1.52383 3.61485 1.55271 3.63175C2.11921 3.96759 2.11921 3.96759 2.17221 4.16332C2.19126 4.30983 2.16967 4.42095 2.09962 4.55354C2.01649 4.65284 1.94281 4.69985 1.82206 4.74345C1.56306 4.76111 1.35771 4.63445 1.14237 4.50687C1.09154 4.4768 1.04037 4.44737 0.989122 4.41801C0.797892 4.30638 0.639521 4.20593 0.514562 4.01849C0.494424 3.85621 0.493402 3.71255 0.563867 3.56379C0.730404 3.38825 0.895552 3.37021 1.12813 3.40492Z" fill="#005CE8"/>
<path id="Vector_4" d="M11.033 3.40492C11.15 3.46342 11.2276 3.52705 11.296 3.63866C11.3439 3.78238 11.3415 3.90901 11.296 4.05136C11.1487 4.26307 10.8893 4.38338 10.6696 4.50788C10.6408 4.52472 10.612 4.54156 10.5824 4.5589C10.2046 4.7737 10.2046 4.7737 10.0029 4.73691C9.85239 4.69249 9.77764 4.61223 9.68899 4.48597C9.63462 4.37723 9.64732 4.25404 9.65978 4.13536C9.77664 3.87114 10.1187 3.73599 10.3592 3.60031C10.3868 3.58462 10.4144 3.56894 10.4428 3.55277C10.6542 3.43279 10.7846 3.3793 11.033 3.40492Z" fill="#005CE8"/>
<path id="Vector_5" d="M6.0658 0.541576C6.20412 0.597497 6.29156 0.700921 6.35797 0.833754C6.36194 0.918709 6.36419 1.00293 6.36494 1.08793C6.36517 1.1133 6.36541 1.13867 6.36565 1.16481C6.36605 1.21863 6.36637 1.27244 6.3666 1.32625C6.3671 1.40815 6.36838 1.49001 6.36967 1.5719C6.36997 1.62423 6.37022 1.67656 6.37041 1.72889C6.37092 1.75321 6.37144 1.77754 6.37196 1.8026C6.37134 1.97123 6.33776 2.0681 6.2411 2.20699C6.12379 2.30754 5.98369 2.3322 5.83205 2.32386C5.677 2.27773 5.56791 2.19924 5.48144 2.0609C5.44162 1.94767 5.44644 1.82936 5.44526 1.71074C5.44503 1.68812 5.44479 1.66549 5.44455 1.64218C5.44414 1.59434 5.44383 1.5465 5.4436 1.49866C5.44326 1.45003 5.44267 1.40141 5.4418 1.3528C5.44055 1.28219 5.44008 1.21161 5.43978 1.141C5.43927 1.11956 5.43876 1.09813 5.43823 1.07604C5.4389 0.91514 5.48075 0.793292 5.56909 0.658447C5.71483 0.516262 5.87282 0.51738 6.0658 0.541576Z" fill="#005CE8"/>
</g>
</svg>
