<svg width="20" height="20" viewBox="0 0 20 20" fill="none" xmlns="http://www.w3.org/2000/svg">
<g id="Group">
<path id="Vector" d="M19.4141 7.85156H18.6328C18.3092 7.85156 18.0469 8.11391 18.0469 8.4375C18.0469 8.76109 18.3092 9.02344 18.6328 9.02344H19.4141C19.7377 9.02344 20 8.76109 20 8.4375C20 8.11391 19.7377 7.85156 19.4141 7.85156Z" fill="white"/>
<path id="Vector_2" d="M17.796 5.89856C17.8954 5.89856 17.9962 5.87324 18.0884 5.81992L18.765 5.4293C19.0453 5.2675 19.1413 4.90918 18.9795 4.62891C18.8177 4.34863 18.4594 4.25258 18.1791 4.41446L17.5025 4.80508C17.2223 4.96688 17.1263 5.3252 17.2881 5.60547C17.3966 5.79348 17.5935 5.89856 17.796 5.89856Z" fill="white"/>
<path id="Vector_3" d="M15.2148 3.53228C15.3071 3.58556 15.4079 3.61091 15.5073 3.61091C15.7098 3.61091 15.9067 3.50583 16.0152 3.31783L16.4059 2.64126C16.5677 2.36103 16.4716 2.00263 16.1914 1.84087C15.9112 1.67896 15.5528 1.77501 15.391 2.05533L15.0004 2.73189C14.8386 3.01208 14.9346 3.37048 15.2148 3.53228Z" fill="white"/>
<path id="Vector_4" d="M12.3828 2.77344C12.7064 2.77344 12.9688 2.51109 12.9688 2.1875V1.40625C12.9688 1.08266 12.7064 0.820312 12.3828 0.820312C12.0592 0.820312 11.7969 1.08266 11.7969 1.40625V2.1875C11.7969 2.51109 12.0592 2.77344 12.3828 2.77344Z" fill="white"/>
<path id="Vector_5" d="M8.7504 3.31782C8.85891 3.50583 9.05586 3.61091 9.25836 3.61091C9.35774 3.61091 9.45852 3.5856 9.55079 3.53228C9.83102 3.37048 9.92704 3.01212 9.76524 2.73188L9.37461 2.05532C9.21282 1.77509 8.85446 1.67899 8.57422 1.84087C8.29399 2.00267 8.19797 2.36103 8.35977 2.64126L8.7504 3.31782Z" fill="white"/>
<path id="Vector_6" d="M6.00058 5.42931L6.67719 5.81993C6.76945 5.87321 6.87019 5.89857 6.96961 5.89857C7.17211 5.89857 7.3691 5.79345 7.47758 5.60548C7.63937 5.32521 7.54336 4.96685 7.26312 4.80509L6.58652 4.41446C6.30625 4.25255 5.94789 4.34868 5.78613 4.62892C5.62433 4.90919 5.72035 5.26755 6.00058 5.42931Z" fill="white"/>
<path id="Vector_7" d="M18.765 11.4457L18.0884 11.0551C17.8081 10.8932 17.4498 10.9893 17.2881 11.2695C17.1263 11.5498 17.2223 11.9082 17.5025 12.0699L18.1791 12.4605C18.2714 12.5138 18.3721 12.5392 18.4715 12.5392C18.674 12.5392 18.871 12.4341 18.9795 12.2461C19.1413 11.9658 19.0453 11.6075 18.765 11.4457Z" fill="white"/>
<path id="Vector_8" d="M15.952 11.1656C16.5558 10.3766 16.875 9.43328 16.875 8.4375C16.875 5.96051 14.8598 3.94531 12.3828 3.94531C11.2652 3.94531 10.194 4.3584 9.36664 5.10848C8.7302 5.68547 8.27758 6.42488 8.05262 7.23961C7.66484 7.1298 7.25684 7.07031 6.83594 7.07031C4.35895 7.07031 2.34375 9.08551 2.34375 11.5625C2.34375 11.9318 2.38848 12.2952 2.47719 12.6491C1.90137 12.7992 1.37465 13.1027 0.94832 13.5375C0.336797 14.1611 0 14.9857 0 15.8594C0 17.6902 1.48949 19.1797 3.32031 19.1797H13.8672C15.4826 19.1797 16.7969 17.8654 16.7969 16.25C16.7969 14.834 15.7872 13.6495 14.45 13.3785C14.4359 13.0748 14.3748 12.7834 14.2748 12.5105C14.9293 12.2051 15.5105 11.7424 15.952 11.1656ZM15.625 16.25C15.625 17.2193 14.8364 18.0078 13.8672 18.0078H3.32031C2.13566 18.0078 1.17188 17.044 1.17188 15.8594C1.17188 15.2944 1.38965 14.7612 1.78504 14.358C2.17992 13.9553 2.70785 13.7266 3.27152 13.7139C3.46695 13.7095 3.64734 13.608 3.75246 13.4431C3.85754 13.2783 3.87352 13.0719 3.79504 12.8929C3.60965 12.4699 3.51562 12.0223 3.51562 11.5625C3.51562 9.73168 5.00512 8.24219 6.83594 8.24219C8.58086 8.24219 10.0343 9.60719 10.1448 11.3498C10.1565 11.5337 10.254 11.7015 10.4081 11.8026C10.5622 11.9037 10.7548 11.9265 10.9283 11.8639C11.1236 11.7935 11.3238 11.7578 11.5234 11.7578C12.4927 11.7578 13.2812 12.5464 13.2812 13.5156C13.2812 13.6055 13.2723 13.702 13.254 13.8104C13.225 13.9821 13.2738 14.1578 13.3873 14.2898C13.5007 14.4219 13.668 14.4955 13.8411 14.4939C13.8541 14.4937 13.867 14.4931 13.8807 14.4922C14.8438 14.4995 15.625 15.2852 15.625 16.25ZM13.6528 11.5057C13.1183 10.9398 12.3615 10.5859 11.5234 10.5859C11.4221 10.5859 11.3209 10.5913 11.2202 10.6021C10.9521 9.37422 10.1816 8.33871 9.14238 7.7125C9.47422 6.20926 10.8058 5.11719 12.3828 5.11719C14.2136 5.11719 15.7031 6.60668 15.7031 8.4375C15.7031 9.78562 14.8764 10.9979 13.6528 11.5057Z" fill="white"/>
</g>
</svg>
